<?xml version="1.0" standalone="no"?>
<!DOCTYPE svg PUBLIC "-//W3C//DTD SVG 1.1//EN" "http://www.w3.org/Graphics/SVG/1.1/DTD/svg11.dtd" >
<svg xmlns="http://www.w3.org/2000/svg" xmlns:xlink="http://www.w3.org/1999/xlink" version="1.1">
<metadata></metadata>
<defs>
<font id="mastoc_personal_use_onlyRg" horiz-adv-x="1871" >
<font-face units-per-em="2048" ascent="1536" descent="-512" />
<missing-glyph horiz-adv-x="524" />
<glyph unicode="&#xfb01;" horiz-adv-x="856" d="M-111 -74q-14 109 91 303q27 47 63.5 119t76.5 153t81 164t74.5 155.5t57 125.5t32.5 76q6 23 37.5 32t66.5 8t60.5 -11.5t19.5 -28.5q-10 -33 -32.5 -86t-53.5 -119.5t-66 -140.5t-71 -148q31 -12 74.5 -12t92 13.5t96.5 37t91 56.5l10 10q6 6 17 10q6 6 8 4 q23 10 54.5 14.5t57 2.5t41 -10.5t4.5 -22.5q-53 -78 -93 -161t-68 -157q-31 -86 7 -113.5t130 27.5q41 25 35 -2.5t-46 -69.5t-104.5 -82t-138.5 -40q-59 0 -85 27.5t-29 71.5t12.5 97.5t37.5 106.5q12 31 30 68.5t36 76.5q-53 -45 -126 -76.5t-167 -21.5 q18 -53 22.5 -119.5t-7 -135.5t-36 -131.5t-62.5 -109.5t-88 -71.5t-112 -14.5q-117 16 -131 125zM78 20.5q-2 -16.5 10 -20.5q20 -6 38.5 15.5t32 59.5t22.5 86t9 95q-16 -29 -27 -53.5t-16 -34.5q-14 -29 -29.5 -56.5t-26.5 -51t-13 -40zM766 781q-10 42 8.5 91.5t59 91.5 t96.5 42q37 0 53 -19.5t18.5 -49.5t-11 -64.5t-37 -64.5t-56.5 -49.5t-70 -19.5q-51 0 -61 42z" />
<glyph unicode="&#xfb02;" horiz-adv-x="917" d="M-111 -74q-14 109 91 303q27 47 63.5 119t76.5 153t81 164t74.5 155.5t57 125.5t32.5 76q6 23 37.5 32t66.5 8t60.5 -11.5t19.5 -28.5q-10 -31 -31.5 -81t-49.5 -112.5t-61.5 -133t-66.5 -140.5q53 -55 125 -84q29 80 71 164t93 160.5t108.5 141t114.5 109t112.5 62.5 t102.5 2q59 -23 72.5 -82t-10 -135t-74.5 -161t-119 -157.5t-145.5 -126t-151.5 -67.5q-20 -92 0 -138t64.5 -60.5t101.5 0t113 44.5q43 25 36.5 -7t-48.5 -80t-112.5 -92t-154.5 -44q-70 0 -127 41t-80 113q-14 41 -13 96t17 117q-29 -4 -59.5 -2t-65.5 12 q18 -53 21.5 -119.5t-8 -134.5t-38 -131.5t-65.5 -109.5t-89 -70.5t-112 -14.5q-117 16 -131 125zM78 20.5q-2 -16.5 10 -20.5q20 -6 38.5 15.5t32 59.5t22.5 86t9 95q-16 -29 -27 -53.5t-16 -34.5q-14 -29 -29.5 -56.5t-26.5 -51t-13 -40zM670 483q49 14 100 55.5t98 95.5 t86 113.5t63.5 111.5t33 88t-6.5 44q-14 8 -50 -13.5t-84 -75.5t-103.5 -141t-110.5 -212q-8 -16 -15 -32.5t-11 -33.5z" />
<glyph horiz-adv-x="0" />
<glyph unicode="&#xd;" horiz-adv-x="524" />
<glyph horiz-adv-x="0" />
<glyph horiz-adv-x="0" />
<glyph unicode=" "  horiz-adv-x="524" />
<glyph unicode="&#x09;" horiz-adv-x="524" />
<glyph unicode="&#xa0;" horiz-adv-x="524" />
<glyph unicode="!" horiz-adv-x="509" d="M49 152q0 53 37 90t90 37t90 -37t37 -90t-37 -90t-90 -37t-90 37t-37 90zM259 420.5q-5 19.5 5 44.5q4 12 27.5 68.5t56.5 134t69 166t67.5 164t55 130t27.5 62.5q25 57 63 55t67.5 -40t41 -100.5t-15.5 -123.5q-8 -20 -37 -67.5t-67.5 -106.5t-81.5 -124t-82 -121 t-67 -96t-36 -48q-18 -23 -38.5 -28t-35 3t-19.5 27.5z" />
<glyph unicode="&#x22;" horiz-adv-x="512" d="M242 751.5q-2 14.5 4 28.5q18 41 23 72t3 58.5t-5 53t1 54.5q6 49 39 61.5t67 -2t56.5 -53.5t7.5 -92q-16 -66 -48 -111t-64 -71q-25 -18 -42.5 -21.5t-28.5 2.5t-13 20.5zM467 751.5q-2 14.5 4 28.5q18 41 23.5 72t3.5 58.5t-5 53t1 54.5q6 49 38.5 61.5t66.5 -2 t56.5 -53.5t8.5 -92q-16 -66 -48 -111t-65 -71q-25 -18 -42 -21.5t-28.5 2.5t-13.5 20.5z" />
<glyph unicode="#" horiz-adv-x="755" d="M19 309.5q-7 18.5 5.5 40t43 40t73.5 18.5h43l58 114h-88q-35 0 -42.5 18.5t5 40t43 40t73.5 18.5h68l39 76q18 39 49 58.5t57.5 21.5t40 -13.5t-3.5 -46.5l-47 -96h117l39 76q18 39 49 58.5t57.5 21.5t40 -13.5t-3.5 -46.5l-47 -96h47q43 0 56.5 -18.5t1 -41t-45 -41 t-79.5 -18.5h-39l-56 -112h70q43 0 56.5 -18.5t1 -41t-45 -41t-80.5 -18.5h-61q-16 -29 -25.5 -50.5t-13.5 -31.5q-20 -41 -53 -62.5t-58.5 -21.5t-38 19.5t8.5 60.5l43 86h-115l-39 -82q-20 -41 -53 -62.5t-58.5 -21.5t-38 19.5t8.5 60.5l43 88h-64q-35 0 -42 18.5z M322 408h114l58 112h-117z" />
<glyph unicode="$" horiz-adv-x="1906" d="M35 1018q70 37 137.5 67.5t144.5 53.5q4 0 8.5 20.5t8.5 45t8 48t8 31.5q23 35 68 53.5t78 34.5q88 35 179 61.5t183 51.5q94 23 188.5 39t190.5 24q33 4 80 8.5t95 3.5t92 -12.5t71 -38.5q2 -4 -2 -28.5t-6 -32.5l-6 -98q0 -4 4 -4q78 -23 152.5 -59t123.5 -103v-2 q-16 4 -36.5 -3.5t-41 -20.5t-38 -27.5t-27.5 -26.5q31 -16 50 -47t27.5 -67t6.5 -72.5t-13 -67.5q-16 43 -49.5 66.5t-74.5 35t-85 14.5t-83 5q-45 4 -94.5 2t-92.5 14q-16 6 -22 25.5t-7 43t2 46l5 37.5q-184 -14 -363.5 -56.5t-351.5 -101.5q-8 -2 -8 -6q2 -10 8 -33.5 t10 -50.5t6 -49.5t-6 -28.5q-23 -18 -58.5 -21.5t-64.5 -7.5q-39 -6 -78.5 -12t-78.5 -12q-35 -8 -67 -17.5t-62 -21.5q-14 -8 -28.5 -13.5t-29.5 -15.5q-8 -8 -18 -20.5t-17 -16.5q10 35 24.5 68t27.5 63q2 6 13 25.5t21.5 41t18.5 39t6 21.5q-25 35 -58.5 68t-78.5 37z M86 72h47q4 -41 7 -83t12 -83q4 41 10 83t14 83h37l25 -166q4 41 9 83t9 83h43l-43 -224h-43q-6 37 -11 74t-9 74q-4 -37 -11.5 -74t-13.5 -74h-43zM90 1024q68 -37 109 -109q2 -2 -4.5 -15t-14.5 -28.5t-15 -29t-9 -19.5q-25 -45 -41 -94q51 27 104 39t108.5 20.5t110 15.5 t107.5 23q-18 18 -47 25.5t-62 8.5t-65.5 -2t-55.5 -5v131t4 131q-59 -16 -116.5 -39.5t-112.5 -52.5zM305 72h45q4 -41 8 -83t11 -83q4 41 10 83t14 83h39l23 -166q4 41 9 83t9 83h43l-43 -224h-41q-8 37 -13 74t-9 74q-4 -37 -10.5 -74t-12.5 -74h-45zM342 913 q8 0 22.5 6.5t29 15.5t27.5 18.5t23 13.5q37 16 75 29.5t77 27.5q78 23 155.5 43t159.5 39q78 16 155 31.5t157 21.5q72 8 154.5 11.5t152.5 -29.5q6 55 6 112.5t4 110.5q0 29 2 57.5t6 57.5q2 14 -6 22t-20.5 13.5t-26.5 7.5t-27 4q-119 18 -245.5 0.5t-245.5 -41.5 q-129 -27 -255 -60.5t-249 -87.5q-23 -12 -46.5 -24.5t-43.5 -28.5t-24.5 -49t-8.5 -55q-8 -66 -8 -132.5v-134.5zM367 1030q0 23 15 38t36 19q6 2 15 -2t5 -14q-12 -8 -22 -8q-12 -4 -16.5 -16.5t1.5 -22.5q4 -4 8.5 -5t8.5 -3q20 -2 33.5 11t22.5 33.5t13.5 41t8.5 35.5 q-27 -27 -62 -35q-27 -4 -43 12q-16 8 -16 37q0 27 12 51q27 61 86 98q12 6 25.5 12.5t27.5 10.5q10 4 21.5 12t21.5 11q12 -1 6 -13q12 0 21 -2q16 -2 27.5 -15t13.5 -32q6 -43 -23.5 -83t-66.5 -62q-18 -12 -27.5 -32t-18.5 -39t-20.5 -37.5t-34.5 -29.5q-23 -16 -53 -10 q-12 4 -20 14.5t-6 24.5zM405.5 1141.5q2.5 -15.5 22.5 -15.5q31 0 49.5 19.5t30.5 47.5t18.5 59t10.5 51q-29 -6 -52.5 -23.5t-44.5 -38.5q-6 -6 -15 -25.5t-15.5 -39t-4 -35zM522 72h45q4 -41 9.5 -83t9.5 -83q4 41 10 83t14 83h39l25 -166q2 41 7 83t11 83h41l-41 -224 h-43q-8 37 -12 74t-10 74q-4 -37 -10.5 -74t-12.5 -74h-43zM530 1155q14 4 29.5 19.5t26 35t14.5 40t0 34.5q-6 23 -33 23q-14 -37 -20.5 -75t-16.5 -77zM582 343q2 34 2 60q0 20 -1 39t1 39q0 49 26.5 67.5t73.5 18.5q37 0 54.5 -20.5t23.5 -50t4 -63.5t-2 -60v-80 q0 -47 -26.5 -66.5t-71.5 -17.5q-39 0 -56.5 20.5t-23.5 50t-4 63.5zM628 1157.5q-5 20.5 6 46t31.5 46t43.5 22.5q12 0 16 -10q8 -12 2 -29q-6 -23 -27.5 -40t-44.5 -22q2 -12 10.5 -13t17.5 3t17.5 10.5t12.5 10.5q25 20 36 45.5t21 52.5q2 2 -1 9t-8 15.5t-8 17.5t-1 15 q10 27 34 23q12 0 17 -12q4 -10 2 -22.5t-2 -25.5q20 2 28.5 -1t-4.5 -27q-8 -16 -17 -33.5t-11 -36.5q0 -10 6 -10q20 0 34.5 20.5t26 46t22.5 51t25 33.5q8 2 17 -2q2 -4 2 -12q-4 -12 -10.5 -21.5t-1.5 -23.5q6 -12 13 -25.5t5 -27.5h2q20 25 32.5 60.5t45.5 51.5 q37 14 49 -20q10 -14 6 -25.5t-2 -27.5q8 2 14 10q16 12 18.5 34.5t8.5 41.5q4 4 11 5t12 -1q10 -2 8 -12v-2q10 10 24 16q10 6 17.5 2t11.5 -14q4 -12 1 -22.5t-8 -22t-10 -22.5t-3 -23q14 12 24 26t18.5 29.5t17.5 29t26 23.5q20 10 51 0q4 6 17 8t9 -14q-4 -18 -14 -38.5 t-10 -41.5q0 -14 8 -2q20 20 30.5 48t19.5 55.5t23.5 53t43.5 42.5q14 8 24 -9q12 -23 4 -48t-24 -42q-14 -18 -43 -43.5t-25 -52.5q4 -16 23 -12q14 6 21 19.5t16 25.5q4 2 12 2t8 -10l-4 -13q-16 -39 -53 -53q-25 -14 -43 14q-4 5 -4 11q-10 -8 -16.5 -15.5t-18.5 -11.5 q-10 -4 -16.5 0t-12.5 8q-4 -4 -12 -8t-16 -6q-31 -6 -43 20v2q-8 -10 -17.5 -17t-23.5 -11q-14 -8 -25 12q-6 12 -3 23.5t8 21.5t9 21.5t2 23.5q-18 -8 -25 -19.5t-11.5 -25.5t-6.5 -28.5t-8 -28.5q-6 -16 -24 -8q-8 2 -9 10q0 4 1 9t1 7q-14 -4 -19 -4t-15 -10 t-24.5 -18.5t-31.5 -8.5q-10 2 -16 8.5t-10 14.5q-16 -16 -40 -32.5t-50 -12.5q-16 2 -25 18q-25 -29 -51 -37q-29 -12 -33 21q-4 27 8.5 44t22.5 38q2 4 -3 5t-7 -3q-8 -20 -18.5 -44t-26 -45.5t-36 -34.5t-46.5 -11q-31 2 -36 22.5zM638 367.5q-1 -37.5 1 -74.5 q0 -16 9 -26.5t21.5 -14.5t24 1t15.5 23q2 12 2 27.5v30.5v147q0 16 -10.5 27.5t-22.5 15.5t-23.5 -2t-15.5 -22q-2 -14 -1 -29.5t1 -28.5q0 -37 -1 -74.5zM653 621q12 14 15.5 36.5t2.5 48t-4 49t-3 42.5v125q0 16 1 30.5t-12 28.5h76q-14 -12 -12 -32.5t2 -37.5v-141 q0 -16 -2 -49t10 -47q14 -23 37.5 -8.5t28.5 32.5q8 27 2.5 54.5t-9.5 54.5q-4 14 -10 37.5t-8 48.5t2 46.5t21 33.5q10 10 31.5 10t29.5 -16q6 -16 -2 -21.5t-18.5 -4.5t-17.5 8t1 16q-16 -8 -17 -29t6 -44.5t17 -46t15 -34.5q12 -37 17 -87t-22 -85q-10 -14 -33.5 -19.5 t-50 -5.5t-53 3.5t-41.5 3.5zM655 1192q12 -2 28.5 15.5t18.5 27.5q4 8 -2 12t-12 -2q-10 -10 -18.5 -24.5t-14.5 -28.5zM715 -123q0 14 9 22.5t21.5 8.5t21.5 -8.5t9 -22.5q0 -16 -9 -23.5t-21.5 -7.5t-21.5 7.5t-9 23.5zM776 1329q-2 -8 4 -20h4q0 8 1 13t-1 13 q-6 0 -8 -6zM780 209q10 14 13.5 34.5t2.5 44t-4.5 46t-3.5 39.5v172q0 10 -8 22h58q29 -12 51 -50t35 -66q0 25 2 59.5t-13 56.5h74q-12 -10 -11 -24.5t1 -28.5v-246q0 -14 -1 -31.5t11 -27.5h-207zM797 -152l59 224h64l59 -224h-51l-15 52h-53l-10 -52h-53zM844 252 q0 -14 11 -23.5t25.5 -11.5t28 3.5t15.5 19.5q-4 63 -21.5 127.5t-58.5 115.5v-231zM865 711.5q-3 19.5 7 31.5t33 13.5t27 -21.5q0 -10 -7 -15t-15.5 -5t-14.5 4t-6 14q-12 -4 -12 -14t7 -20.5t17 -19.5t17 -11q14 -4 34.5 -4t30.5 10q20 20 16 40.5t-19 38t-35.5 32 t-31.5 24.5q-18 16 -30.5 42t-12.5 52.5t13.5 48t44.5 27.5q27 6 54.5 4t51.5 -2l-6 -10q0 -14 7 -29.5t13.5 -31t5.5 -30t-16 -26.5q-14 -10 -33.5 -9t-21.5 21q0 12 7 17.5t15.5 5.5t14.5 -5t4 -14q14 2 14 12.5t-8 21.5t-18.5 20.5t-18.5 11.5q-14 4 -32.5 1t-24.5 -19 q-12 -25 -4 -43.5t24.5 -33t37 -27.5t32.5 -28q14 -20 22.5 -46.5t4.5 -52t-20.5 -44t-47.5 -22.5q-27 -2 -53.5 -1t-54.5 1q8 4 5 19t-8.5 33.5t-8.5 38zM866 -61h41q-4 23 -9 46t-11 46zM874 1219q4 -12 16.5 -10.5t14.5 14.5q2 18 -10 43q-6 -8 -14.5 -22.5t-6.5 -24.5z M991 1264l4 -15q10 -14 25 -6q16 4 23.5 21.5t3.5 33.5q-2 10 -9.5 16.5t-21.5 -3.5q-20 -14 -25 -47zM997 209q12 14 15.5 36.5t2.5 47t-4 48.5t-3 40v127q0 16 1 29.5t-12 29.5h76q-10 -10 -13 -30.5t-2 -42t3 -43t2 -35.5v-166h104q23 0 55.5 -3t55.5 13q-4 -8 -7 -29.5 t-14 -21.5h-260zM1006 70q29 4 64.5 6t62.5 -15q31 -23 22.5 -57.5t-37.5 -48.5q14 -6 21.5 -19.5t10.5 -29t5 -30.5t8 -28h-51q-6 12 -8 27.5t-6 29t-12.5 23t-26.5 6.5v-86h-53v222zM1057 8.5q2 -24.5 2 -35.5h12q18 0 26.5 10.5t6.5 22.5t-11.5 21.5t-27.5 7.5 q-10 -2 -8 -26.5zM1065 621q10 12 11 25t1 28v248q0 14 -1 30.5t-11 28.5h127q25 -25 25.5 -59.5t-9.5 -67.5q-4 -8 -15 -29.5t-20.5 -45t-11.5 -45t10 -27.5q-6 12 4.5 13t21.5 -4t14 -14.5t-17 -17.5q-25 -10 -35 9.5t-8 35.5q0 16 6 32.5t8 31t-4 22.5t-28 6v-155 q16 0 41.5 -3.5t44.5 11.5q-6 -14 -8.5 -26.5t-6.5 -26.5h-139zM1098 567h78q-12 -29 2 -65.5t26 -61.5q12 29 22.5 63t0.5 64h80q-23 -12 -27 -38.5t-10 -47.5q-6 -20 -23.5 -47.5t-17.5 -48.5q0 -23 -3 -56.5t13 -52.5h-76q18 18 14.5 54t-3.5 59q-12 23 -21.5 46.5 t-17.5 45.5q-10 23 -14.5 46.5t-22.5 39.5zM1133 866q20 0 45.5 2t27.5 33q0 16 -7 23.5t-18.5 10.5t-24.5 3h-23v-72zM1192 72h53v-224h-53v224zM1245 1296q-4 -10 1 -27.5t22 -2.5q12 12 21 32.5t11 38.5q-2 8 -4 13.5t-12 1.5q-16 -8 -25.5 -23.5t-13.5 -32.5zM1274 -123 q0 14 9 22.5t21.5 8.5t21.5 -8.5t9 -22.5q0 -16 -9 -23.5t-21.5 -7.5t-21.5 7.5t-9 23.5zM1294 1018q-8 -6 4 -8q27 -10 57.5 -13.5t62.5 -3.5h62.5t59.5 -2t57.5 -5t57.5 -13q29 -8 51.5 -23.5t48.5 -27.5q0 61 -21.5 106t-80.5 68q35 31 69.5 58.5t75.5 43.5 q-49 47 -110.5 77t-126.5 46q-2 -57 -3.5 -112.5t-5.5 -112.5l-2 2v-6q-27 -2 -64.5 -4.5t-74.5 -9.5t-68.5 -21.5t-48.5 -38.5zM1364 72h57l68 -152q-4 39 -4 77v75h47v-224h-51q-20 39 -37 79t-35 77q2 -39 2 -78v-78h-47v224zM1393 1362q16 20 31.5 39.5t19.5 46.5h-2 q-37 -37 -49 -86zM1562.5 -63.5q-8.5 36.5 14.5 79.5q12 29 40 43.5t62 14.5h10.5t17.5 -2t16.5 -4t7.5 -5l-9 -40q-27 12 -48 8t-36.5 -18.5t-20.5 -37t3 -47.5q16 -47 61 -41q10 2 8.5 21.5t-1.5 28.5h-27v40h76v-120q-41 -16 -79 -9t-62.5 29.5t-33 59z" />
<glyph unicode="%" d="M35 1018q70 37 137.5 67.5t144.5 53.5q4 0 8.5 20.5t8.5 45t8 48t8 31.5q23 35 68 53.5t78 34.5q88 35 179 61.5t183 51.5q94 23 188.5 39t190.5 24q33 4 80 8.5t95 3.5t92 -12.5t71 -38.5q2 -4 -2 -28.5t-6 -32.5l-6 -98q0 -4 4 -4q78 -23 152.5 -59t123.5 -103v-2 q-16 4 -36.5 -3.5t-41 -20.5t-38 -27.5t-27.5 -26.5q31 -16 50 -47t27.5 -67t6.5 -72.5t-13 -67.5q-16 43 -49.5 66.5t-74.5 35t-85 14.5t-83 5q-45 4 -94.5 2t-92.5 14q-16 6 -22 25.5t-7 43t2 46l5 37.5q-184 -14 -363.5 -56.5t-351.5 -101.5q-8 -2 -8 -6q2 -10 8 -33.5 t10 -50.5t6 -49.5t-6 -28.5q-23 -18 -58.5 -21.5t-64.5 -7.5q-39 -6 -78.5 -12t-78.5 -12q-35 -8 -67 -17.5t-62 -21.5q-14 -8 -28.5 -13.5t-29.5 -15.5q-8 -8 -18 -20.5t-17 -16.5q10 35 24.5 68t27.5 63q2 6 13 25.5t21.5 41t18.5 39t6 21.5q-25 35 -58.5 68t-78.5 37z M86 72h47q4 -41 7 -83t12 -83q4 41 10 83t14 83h37l25 -166q4 41 9 83t9 83h43l-43 -224h-43q-6 37 -11 74t-9 74q-4 -37 -11.5 -74t-13.5 -74h-43zM90 1024q68 -37 109 -109q2 -2 -4.5 -15t-14.5 -28.5t-15 -29t-9 -19.5q-25 -45 -41 -94q51 27 104 39t108.5 20.5t110 15.5 t107.5 23q-18 18 -47 25.5t-62 8.5t-65.5 -2t-55.5 -5v131t4 131q-59 -16 -116.5 -39.5t-112.5 -52.5zM305 72h45q4 -41 8 -83t11 -83q4 41 10 83t14 83h39l23 -166q4 41 9 83t9 83h43l-43 -224h-41q-8 37 -13 74t-9 74q-4 -37 -10.5 -74t-12.5 -74h-45zM342 913 q8 0 22.5 6.5t29 15.5t27.5 18.5t23 13.5q37 16 75 29.5t77 27.5q78 23 155.5 43t159.5 39q78 16 155 31.5t157 21.5q72 8 154.5 11.5t152.5 -29.5q6 55 6 112.5t4 110.5q0 29 2 57.5t6 57.5q2 14 -6 22t-20.5 13.5t-26.5 7.5t-27 4q-119 18 -245.5 0.5t-245.5 -41.5 q-129 -27 -255 -60.5t-249 -87.5q-23 -12 -46.5 -24.5t-43.5 -28.5t-24.5 -49t-8.5 -55q-8 -66 -8 -132.5v-134.5zM367 1030q0 23 15 38t36 19q6 2 15 -2t5 -14q-12 -8 -22 -8q-12 -4 -16.5 -16.5t1.5 -22.5q4 -4 8.5 -5t8.5 -3q20 -2 33.5 11t22.5 33.5t13.5 41t8.5 35.5 q-27 -27 -62 -35q-27 -4 -43 12q-16 8 -16 37q0 27 12 51q27 61 86 98q12 6 25.5 12.5t27.5 10.5q10 4 21.5 12t21.5 11q12 -1 6 -13q12 0 21 -2q16 -2 27.5 -15t13.5 -32q6 -43 -23.5 -83t-66.5 -62q-18 -12 -27.5 -32t-18.5 -39t-20.5 -37.5t-34.5 -29.5q-23 -16 -53 -10 q-12 4 -20 14.5t-6 24.5zM405.5 1141.5q2.5 -15.5 22.5 -15.5q31 0 49.5 19.5t30.5 47.5t18.5 59t10.5 51q-29 -6 -52.5 -23.5t-44.5 -38.5q-6 -6 -15 -25.5t-15.5 -39t-4 -35zM522 72h45q4 -41 9.5 -83t9.5 -83q4 41 10 83t14 83h39l25 -166q2 41 7 83t11 83h41l-41 -224 h-43q-8 37 -12 74t-10 74q-4 -37 -10.5 -74t-12.5 -74h-43zM530 1155q14 4 29.5 19.5t26 35t14.5 40t0 34.5q-6 23 -33 23q-14 -37 -20.5 -75t-16.5 -77zM582 343q2 34 2 60q0 20 -1 39t1 39q0 49 26.5 67.5t73.5 18.5q37 0 54.5 -20.5t23.5 -50t4 -63.5t-2 -60v-80 q0 -47 -26.5 -66.5t-71.5 -17.5q-39 0 -56.5 20.5t-23.5 50t-4 63.5zM628 1157.5q-5 20.5 6 46t31.5 46t43.5 22.5q12 0 16 -10q8 -12 2 -29q-6 -23 -27.5 -40t-44.5 -22q2 -12 10.5 -13t17.5 3t17.5 10.5t12.5 10.5q25 20 36 45.5t21 52.5q2 2 -1 9t-8 15.5t-8 17.5t-1 15 q10 27 34 23q12 0 17 -12q4 -10 2 -22.5t-2 -25.5q20 2 28.5 -1t-4.5 -27q-8 -16 -17 -33.5t-11 -36.5q0 -10 6 -10q20 0 34.5 20.5t26 46t22.5 51t25 33.5q8 2 17 -2q2 -4 2 -12q-4 -12 -10.5 -21.5t-1.5 -23.5q6 -12 13 -25.5t5 -27.5h2q20 25 32.5 60.5t45.5 51.5 q37 14 49 -20q10 -14 6 -25.5t-2 -27.5q8 2 14 10q16 12 18.5 34.5t8.5 41.5q4 4 11 5t12 -1q10 -2 8 -12v-2q10 10 24 16q10 6 17.5 2t11.5 -14q4 -12 1 -22.5t-8 -22t-10 -22.5t-3 -23q14 12 24 26t18.5 29.5t17.5 29t26 23.5q20 10 51 0q4 6 17 8t9 -14q-4 -18 -14 -38.5 t-10 -41.5q0 -14 8 -2q20 20 30.5 48t19.5 55.5t23.5 53t43.5 42.5q14 8 24 -9q12 -23 4 -48t-24 -42q-14 -18 -43 -43.5t-25 -52.5q4 -16 23 -12q14 6 21 19.5t16 25.5q4 2 12 2t8 -10l-4 -13q-16 -39 -53 -53q-25 -14 -43 14q-4 5 -4 11q-10 -8 -16.5 -15.5t-18.5 -11.5 q-10 -4 -16.5 0t-12.5 8q-4 -4 -12 -8t-16 -6q-31 -6 -43 20v2q-8 -10 -17.5 -17t-23.5 -11q-14 -8 -25 12q-6 12 -3 23.5t8 21.5t9 21.5t2 23.5q-18 -8 -25 -19.5t-11.5 -25.5t-6.5 -28.5t-8 -28.5q-6 -16 -24 -8q-8 2 -9 10q0 4 1 9t1 7q-14 -4 -19 -4t-15 -10 t-24.5 -18.5t-31.5 -8.5q-10 2 -16 8.5t-10 14.5q-16 -16 -40 -32.5t-50 -12.5q-16 2 -25 18q-25 -29 -51 -37q-29 -12 -33 21q-4 27 8.5 44t22.5 38q2 4 -3 5t-7 -3q-8 -20 -18.5 -44t-26 -45.5t-36 -34.5t-46.5 -11q-31 2 -36 22.5zM638 367.5q-1 -37.5 1 -74.5 q0 -16 9 -26.5t21.5 -14.5t24 1t15.5 23q2 12 2 27.5v30.5v147q0 16 -10.5 27.5t-22.5 15.5t-23.5 -2t-15.5 -22q-2 -14 -1 -29.5t1 -28.5q0 -37 -1 -74.5zM653 621q12 14 15.5 36.5t2.5 48t-4 49t-3 42.5v125q0 16 1 30.5t-12 28.5h76q-14 -12 -12 -32.5t2 -37.5v-141 q0 -16 -2 -49t10 -47q14 -23 37.5 -8.5t28.5 32.5q8 27 2.5 54.5t-9.5 54.5q-4 14 -10 37.5t-8 48.5t2 46.5t21 33.5q10 10 31.5 10t29.5 -16q6 -16 -2 -21.5t-18.5 -4.5t-17.5 8t1 16q-16 -8 -17 -29t6 -44.5t17 -46t15 -34.5q12 -37 17 -87t-22 -85q-10 -14 -33.5 -19.5 t-50 -5.5t-53 3.5t-41.5 3.5zM655 1192q12 -2 28.5 15.5t18.5 27.5q4 8 -2 12t-12 -2q-10 -10 -18.5 -24.5t-14.5 -28.5zM715 -123q0 14 9 22.5t21.5 8.5t21.5 -8.5t9 -22.5q0 -16 -9 -23.5t-21.5 -7.5t-21.5 7.5t-9 23.5zM776 1329q-2 -8 4 -20h4q0 8 1 13t-1 13 q-6 0 -8 -6zM780 209q10 14 13.5 34.5t2.5 44t-4.5 46t-3.5 39.5v172q0 10 -8 22h58q29 -12 51 -50t35 -66q0 25 2 59.5t-13 56.5h74q-12 -10 -11 -24.5t1 -28.5v-246q0 -14 -1 -31.5t11 -27.5h-207zM797 -152l59 224h64l59 -224h-51l-15 52h-53l-10 -52h-53zM844 252 q0 -14 11 -23.5t25.5 -11.5t28 3.5t15.5 19.5q-4 63 -21.5 127.5t-58.5 115.5v-231zM865 711.5q-3 19.5 7 31.5t33 13.5t27 -21.5q0 -10 -7 -15t-15.5 -5t-14.5 4t-6 14q-12 -4 -12 -14t7 -20.5t17 -19.5t17 -11q14 -4 34.5 -4t30.5 10q20 20 16 40.5t-19 38t-35.5 32 t-31.5 24.5q-18 16 -30.5 42t-12.5 52.5t13.5 48t44.5 27.5q27 6 54.5 4t51.5 -2l-6 -10q0 -14 7 -29.5t13.5 -31t5.5 -30t-16 -26.5q-14 -10 -33.5 -9t-21.5 21q0 12 7 17.5t15.5 5.5t14.5 -5t4 -14q14 2 14 12.5t-8 21.5t-18.5 20.5t-18.5 11.5q-14 4 -32.5 1t-24.5 -19 q-12 -25 -4 -43.5t24.5 -33t37 -27.5t32.5 -28q14 -20 22.5 -46.5t4.5 -52t-20.5 -44t-47.5 -22.5q-27 -2 -53.5 -1t-54.5 1q8 4 5 19t-8.5 33.5t-8.5 38zM866 -61h41q-4 23 -9 46t-11 46zM874 1219q4 -12 16.5 -10.5t14.5 14.5q2 18 -10 43q-6 -8 -14.5 -22.5t-6.5 -24.5z M991 1264l4 -15q10 -14 25 -6q16 4 23.5 21.5t3.5 33.5q-2 10 -9.5 16.5t-21.5 -3.5q-20 -14 -25 -47zM997 209q12 14 15.5 36.5t2.5 47t-4 48.5t-3 40v127q0 16 1 29.5t-12 29.5h76q-10 -10 -13 -30.5t-2 -42t3 -43t2 -35.5v-166h104q23 0 55.5 -3t55.5 13q-4 -8 -7 -29.5 t-14 -21.5h-260zM1006 70q29 4 64.5 6t62.5 -15q31 -23 22.5 -57.5t-37.5 -48.5q14 -6 21.5 -19.5t10.5 -29t5 -30.5t8 -28h-51q-6 12 -8 27.5t-6 29t-12.5 23t-26.5 6.5v-86h-53v222zM1057 8.5q2 -24.5 2 -35.5h12q18 0 26.5 10.5t6.5 22.5t-11.5 21.5t-27.5 7.5 q-10 -2 -8 -26.5zM1065 621q10 12 11 25t1 28v248q0 14 -1 30.5t-11 28.5h127q25 -25 25.5 -59.5t-9.5 -67.5q-4 -8 -15 -29.5t-20.5 -45t-11.5 -45t10 -27.5q-6 12 4.5 13t21.5 -4t14 -14.5t-17 -17.5q-25 -10 -35 9.5t-8 35.5q0 16 6 32.5t8 31t-4 22.5t-28 6v-155 q16 0 41.5 -3.5t44.5 11.5q-6 -14 -8.5 -26.5t-6.5 -26.5h-139zM1098 567h78q-12 -29 2 -65.5t26 -61.5q12 29 22.5 63t0.5 64h80q-23 -12 -27 -38.5t-10 -47.5q-6 -20 -23.5 -47.5t-17.5 -48.5q0 -23 -3 -56.5t13 -52.5h-76q18 18 14.5 54t-3.5 59q-12 23 -21.5 46.5 t-17.5 45.5q-10 23 -14.5 46.5t-22.5 39.5zM1133 866q20 0 45.5 2t27.5 33q0 16 -7 23.5t-18.5 10.5t-24.5 3h-23v-72zM1192 72h53v-224h-53v224zM1245 1296q-4 -10 1 -27.5t22 -2.5q12 12 21 32.5t11 38.5q-2 8 -4 13.5t-12 1.5q-16 -8 -25.5 -23.5t-13.5 -32.5zM1274 -123 q0 14 9 22.5t21.5 8.5t21.5 -8.5t9 -22.5q0 -16 -9 -23.5t-21.5 -7.5t-21.5 7.5t-9 23.5zM1294 1018q-8 -6 4 -8q27 -10 57.5 -13.5t62.5 -3.5h62.5t59.5 -2t57.5 -5t57.5 -13q29 -8 51.5 -23.5t48.5 -27.5q0 61 -21.5 106t-80.5 68q35 31 69.5 58.5t75.5 43.5 q-49 47 -110.5 77t-126.5 46q-2 -57 -3.5 -112.5t-5.5 -112.5l-2 2v-6q-27 -2 -64.5 -4.5t-74.5 -9.5t-68.5 -21.5t-48.5 -38.5zM1364 72h57l68 -152q-4 39 -4 77v75h47v-224h-51q-20 39 -37 79t-35 77q2 -39 2 -78v-78h-47v224zM1393 1362q16 20 31.5 39.5t19.5 46.5h-2 q-37 -37 -49 -86zM1562.5 -63.5q-8.5 36.5 14.5 79.5q12 29 40 43.5t62 14.5h10.5t17.5 -2t16.5 -4t7.5 -5l-9 -40q-27 12 -48 8t-36.5 -18.5t-20.5 -37t3 -47.5q16 -47 61 -41q10 2 8.5 21.5t-1.5 28.5h-27v40h76v-120q-41 -16 -79 -9t-62.5 29.5t-33 59z" />
<glyph unicode="&#x26;" horiz-adv-x="974" d="M28.5 187.5q-12.5 84.5 16.5 173t91.5 168t142.5 139.5q-41 45 -52.5 107.5t4 130t55.5 133t100 115.5t139 78t171 21q88 -6 144.5 -40.5t89.5 -80t43 -94.5t5 -83.5t-21.5 -48t-38.5 11.5q-63 72 -128 97t-123.5 19t-105.5 -36.5t-75.5 -70.5t-36 -83t15.5 -74 q27 8 61.5 6t63.5 -14q55 -25 71.5 -71t-4 -85t-74 -56.5t-137.5 13.5q-59 -37 -100 -90t-59.5 -107.5t-14.5 -102.5t35 -73t79 -28.5t100.5 19t102.5 71.5t85 133q-35 0 -73 9t-75 38q-51 37 -56 53.5t11 20.5q19 6 58 0q66 0 124 29.5t112 61.5t107.5 50.5t106.5 -4.5 q41 -18 64.5 -64.5t31 -89.5t-3 -68.5t-37.5 -2.5q-31 27 -66.5 30t-73.5 -5.5t-80 -24t-85 -25.5q4 -41 -2 -96t-29.5 -110.5t-67.5 -104.5t-118 -82q-45 -20 -101 -31.5t-113.5 -9.5t-110 20.5t-88.5 55.5q-68 68 -80.5 152.5z" />
<glyph unicode="'" horiz-adv-x="75" d="M160 751.5q-2 14.5 4 28.5q18 41 23.5 72t3 58.5t-5.5 53t1 54.5q6 49 39 61.5t67 -2t56.5 -53.5t7.5 -92q-16 -66 -48 -111t-64 -71q-25 -18 -42.5 -21.5t-28.5 2.5t-13 20.5z" />
<glyph unicode="(" horiz-adv-x="712" d="M133 184.5q4 100.5 45 202.5t108.5 202.5t166 197t230.5 189.5t304 181q53 27 86 28t41 -14.5t-12.5 -42t-75.5 -57.5q-74 -41 -162 -109.5t-171 -156.5t-155.5 -187.5t-115.5 -201.5t-68.5 -194.5t-32 -168.5t7 -131t46.5 -82q29 -25 38 -48t-0.5 -37.5t-35 -15.5 t-62.5 17q-55 29 -99 92.5t-65.5 149.5t-17.5 186.5z" />
<glyph unicode=")" horiz-adv-x="751" d="M-264 -236.5q-8 15.5 12.5 42t75.5 57.5q74 41 162 109.5t171 156.5t155.5 187.5t115.5 201.5t68.5 194.5t32 168t-7 130t-46.5 83.5q-29 25 -38 48t0 37.5t35 15.5t63 -17q55 -29 99 -92.5t65.5 -149.5t17.5 -186.5t-45 -202.5t-108.5 -202.5t-166 -197t-230.5 -189.5 t-304 -181q-53 -27 -86 -28t-41 14.5z" />
<glyph unicode="*" horiz-adv-x="755" d="M176 468q6 32 33 69.5t72 60.5l61 31q-41 33 -55 49q-18 18 -9 50t30.5 57.5t48 37t46.5 -9.5q4 -4 21.5 -18.5t44.5 -34.5l49 100q18 39 52 58.5t65 21.5t47 -13.5t0 -45.5l-47 -103l94 49q45 25 65.5 10.5t15.5 -46t-33.5 -70.5t-78.5 -64l-55 -28l57 -45 q20 -16 15.5 -46t-25 -56.5t-48.5 -41t-48 1.5l-90 64l-47 -100q-20 -41 -56 -62.5t-66 -21.5t-45.5 19t5.5 60l31 66l-90 -45q-37 -18 -51.5 -2t-8.5 48z" />
<glyph unicode="+" horiz-adv-x="755" d="M33 335.5q-4 24.5 12 54.5t50 54.5t77 24.5h123l57 111q18 39 55 58t71 21.5t54.5 -13t4.5 -46.5l-22.5 -45t-41.5 -86h123q43 0 52 -24.5t-6 -55.5t-51 -55.5t-83 -24.5h-113l-49 -102q-20 -41 -59 -62.5t-73 -21.5t-52.5 19.5t2.5 60.5q2 6 16.5 35.5t36.5 70.5 q-55 0 -95 1t-50 1q-35 0 -39 24.5z" />
<glyph unicode="," horiz-adv-x="475" d="M1 -80.5q1 17.5 13 33.5q35 45 44.5 74.5t10.5 55.5t0 51.5t13 60.5q20 57 67.5 77.5t91.5 9t70.5 -52.5t5.5 -106q-14 -47 -40.5 -84t-57.5 -65.5t-61.5 -49t-55.5 -33.5q-35 -16 -57 -14t-33.5 13.5t-10.5 29z" />
<glyph unicode="-" horiz-adv-x="505" d="M33 335.5q-4 24.5 12 54.5t50 54.5t77 24.5h195q43 0 52 -24.5t-6.5 -55.5t-51 -55.5t-82.5 -24.5h-53.5t-61.5 1t-55.5 1h-36.5q-35 0 -39 24.5z" />
<glyph unicode="." horiz-adv-x="452" d="M70 152q0 53 36.5 90t90.5 37q53 0 90 -37t37 -90t-37 -90t-90 -37t-90 37t-37 90z" />
<glyph unicode="/" horiz-adv-x="565" d="M-215 -69.5q-6 18.5 27 53.5q8 8 49 58t102.5 127t137 172t153.5 194.5t153.5 193.5t134 169t96.5 122t42 51q25 25 57.5 35t57 7t32 -20.5t-21.5 -48.5q-4 -4 -43 -52t-99.5 -123.5t-135 -171t-153.5 -195t-154 -194.5t-134 -170t-97 -122t-42 -51q-31 -31 -68 -45 t-62.5 -11t-31.5 21.5z" />
<glyph unicode="0" d="M35 1018q70 37 137.5 67.5t144.5 53.5q4 0 8.5 20.5t8.5 45t8 48t8 31.5q23 35 68 53.5t78 34.5q88 35 179 61.5t183 51.5q94 23 188.5 39t190.5 24q33 4 80 8.5t95 3.5t92 -12.5t71 -38.5q2 -4 -2 -28.5t-6 -32.5l-6 -98q0 -4 4 -4q78 -23 152.5 -59t123.5 -103v-2 q-16 4 -36.5 -3.5t-41 -20.5t-38 -27.5t-27.5 -26.5q31 -16 50 -47t27.5 -67t6.5 -72.5t-13 -67.5q-16 43 -49.5 66.5t-74.5 35t-85 14.5t-83 5q-45 4 -94.5 2t-92.5 14q-16 6 -22 25.5t-7 43t2 46l5 37.5q-184 -14 -363.5 -56.5t-351.5 -101.5q-8 -2 -8 -6q2 -10 8 -33.5 t10 -50.5t6 -49.5t-6 -28.5q-23 -18 -58.5 -21.5t-64.5 -7.5q-39 -6 -78.5 -12t-78.5 -12q-35 -8 -67 -17.5t-62 -21.5q-14 -8 -28.5 -13.5t-29.5 -15.5q-8 -8 -18 -20.5t-17 -16.5q10 35 24.5 68t27.5 63q2 6 13 25.5t21.5 41t18.5 39t6 21.5q-25 35 -58.5 68t-78.5 37z M86 72h47q4 -41 7 -83t12 -83q4 41 10 83t14 83h37l25 -166q4 41 9 83t9 83h43l-43 -224h-43q-6 37 -11 74t-9 74q-4 -37 -11.5 -74t-13.5 -74h-43zM90 1024q68 -37 109 -109q2 -2 -4.5 -15t-14.5 -28.5t-15 -29t-9 -19.5q-25 -45 -41 -94q51 27 104 39t108.5 20.5t110 15.5 t107.5 23q-18 18 -47 25.5t-62 8.5t-65.5 -2t-55.5 -5v131t4 131q-59 -16 -116.5 -39.5t-112.5 -52.5zM305 72h45q4 -41 8 -83t11 -83q4 41 10 83t14 83h39l23 -166q4 41 9 83t9 83h43l-43 -224h-41q-8 37 -13 74t-9 74q-4 -37 -10.5 -74t-12.5 -74h-45zM342 913 q8 0 22.5 6.5t29 15.5t27.5 18.5t23 13.5q37 16 75 29.5t77 27.5q78 23 155.5 43t159.5 39q78 16 155 31.5t157 21.5q72 8 154.5 11.5t152.5 -29.5q6 55 6 112.5t4 110.5q0 29 2 57.5t6 57.5q2 14 -6 22t-20.5 13.5t-26.5 7.5t-27 4q-119 18 -245.5 0.5t-245.5 -41.5 q-129 -27 -255 -60.5t-249 -87.5q-23 -12 -46.5 -24.5t-43.5 -28.5t-24.5 -49t-8.5 -55q-8 -66 -8 -132.5v-134.5zM367 1030q0 23 15 38t36 19q6 2 15 -2t5 -14q-12 -8 -22 -8q-12 -4 -16.5 -16.5t1.5 -22.5q4 -4 8.5 -5t8.5 -3q20 -2 33.5 11t22.5 33.5t13.5 41t8.5 35.5 q-27 -27 -62 -35q-27 -4 -43 12q-16 8 -16 37q0 27 12 51q27 61 86 98q12 6 25.5 12.5t27.5 10.5q10 4 21.5 12t21.5 11q12 -1 6 -13q12 0 21 -2q16 -2 27.5 -15t13.5 -32q6 -43 -23.5 -83t-66.5 -62q-18 -12 -27.5 -32t-18.5 -39t-20.5 -37.5t-34.5 -29.5q-23 -16 -53 -10 q-12 4 -20 14.5t-6 24.5zM405.5 1141.5q2.5 -15.5 22.5 -15.5q31 0 49.5 19.5t30.5 47.5t18.5 59t10.5 51q-29 -6 -52.5 -23.5t-44.5 -38.5q-6 -6 -15 -25.5t-15.5 -39t-4 -35zM522 72h45q4 -41 9.5 -83t9.5 -83q4 41 10 83t14 83h39l25 -166q2 41 7 83t11 83h41l-41 -224 h-43q-8 37 -12 74t-10 74q-4 -37 -10.5 -74t-12.5 -74h-43zM530 1155q14 4 29.5 19.5t26 35t14.5 40t0 34.5q-6 23 -33 23q-14 -37 -20.5 -75t-16.5 -77zM582 343q2 34 2 60q0 20 -1 39t1 39q0 49 26.5 67.5t73.5 18.5q37 0 54.5 -20.5t23.5 -50t4 -63.5t-2 -60v-80 q0 -47 -26.5 -66.5t-71.5 -17.5q-39 0 -56.5 20.5t-23.5 50t-4 63.5zM628 1157.5q-5 20.5 6 46t31.5 46t43.5 22.5q12 0 16 -10q8 -12 2 -29q-6 -23 -27.5 -40t-44.5 -22q2 -12 10.5 -13t17.5 3t17.5 10.5t12.5 10.5q25 20 36 45.5t21 52.5q2 2 -1 9t-8 15.5t-8 17.5t-1 15 q10 27 34 23q12 0 17 -12q4 -10 2 -22.5t-2 -25.5q20 2 28.5 -1t-4.5 -27q-8 -16 -17 -33.5t-11 -36.5q0 -10 6 -10q20 0 34.5 20.5t26 46t22.5 51t25 33.5q8 2 17 -2q2 -4 2 -12q-4 -12 -10.5 -21.5t-1.5 -23.5q6 -12 13 -25.5t5 -27.5h2q20 25 32.5 60.5t45.5 51.5 q37 14 49 -20q10 -14 6 -25.5t-2 -27.5q8 2 14 10q16 12 18.5 34.5t8.5 41.5q4 4 11 5t12 -1q10 -2 8 -12v-2q10 10 24 16q10 6 17.5 2t11.5 -14q4 -12 1 -22.5t-8 -22t-10 -22.5t-3 -23q14 12 24 26t18.5 29.5t17.5 29t26 23.5q20 10 51 0q4 6 17 8t9 -14q-4 -18 -14 -38.5 t-10 -41.5q0 -14 8 -2q20 20 30.5 48t19.5 55.5t23.5 53t43.5 42.5q14 8 24 -9q12 -23 4 -48t-24 -42q-14 -18 -43 -43.5t-25 -52.5q4 -16 23 -12q14 6 21 19.5t16 25.5q4 2 12 2t8 -10l-4 -13q-16 -39 -53 -53q-25 -14 -43 14q-4 5 -4 11q-10 -8 -16.5 -15.5t-18.5 -11.5 q-10 -4 -16.5 0t-12.5 8q-4 -4 -12 -8t-16 -6q-31 -6 -43 20v2q-8 -10 -17.5 -17t-23.5 -11q-14 -8 -25 12q-6 12 -3 23.5t8 21.5t9 21.5t2 23.5q-18 -8 -25 -19.5t-11.5 -25.5t-6.5 -28.5t-8 -28.5q-6 -16 -24 -8q-8 2 -9 10q0 4 1 9t1 7q-14 -4 -19 -4t-15 -10 t-24.5 -18.5t-31.5 -8.5q-10 2 -16 8.5t-10 14.5q-16 -16 -40 -32.5t-50 -12.5q-16 2 -25 18q-25 -29 -51 -37q-29 -12 -33 21q-4 27 8.5 44t22.5 38q2 4 -3 5t-7 -3q-8 -20 -18.5 -44t-26 -45.5t-36 -34.5t-46.5 -11q-31 2 -36 22.5zM638 367.5q-1 -37.5 1 -74.5 q0 -16 9 -26.5t21.5 -14.5t24 1t15.5 23q2 12 2 27.5v30.5v147q0 16 -10.5 27.5t-22.5 15.5t-23.5 -2t-15.5 -22q-2 -14 -1 -29.5t1 -28.5q0 -37 -1 -74.5zM653 621q12 14 15.5 36.5t2.5 48t-4 49t-3 42.5v125q0 16 1 30.5t-12 28.5h76q-14 -12 -12 -32.5t2 -37.5v-141 q0 -16 -2 -49t10 -47q14 -23 37.5 -8.5t28.5 32.5q8 27 2.5 54.5t-9.5 54.5q-4 14 -10 37.5t-8 48.5t2 46.5t21 33.5q10 10 31.5 10t29.5 -16q6 -16 -2 -21.5t-18.5 -4.5t-17.5 8t1 16q-16 -8 -17 -29t6 -44.5t17 -46t15 -34.5q12 -37 17 -87t-22 -85q-10 -14 -33.5 -19.5 t-50 -5.5t-53 3.5t-41.5 3.5zM655 1192q12 -2 28.5 15.5t18.5 27.5q4 8 -2 12t-12 -2q-10 -10 -18.5 -24.5t-14.5 -28.5zM715 -123q0 14 9 22.5t21.5 8.5t21.5 -8.5t9 -22.5q0 -16 -9 -23.5t-21.5 -7.5t-21.5 7.5t-9 23.5zM776 1329q-2 -8 4 -20h4q0 8 1 13t-1 13 q-6 0 -8 -6zM780 209q10 14 13.5 34.5t2.5 44t-4.5 46t-3.5 39.5v172q0 10 -8 22h58q29 -12 51 -50t35 -66q0 25 2 59.5t-13 56.5h74q-12 -10 -11 -24.5t1 -28.5v-246q0 -14 -1 -31.5t11 -27.5h-207zM797 -152l59 224h64l59 -224h-51l-15 52h-53l-10 -52h-53zM844 252 q0 -14 11 -23.5t25.5 -11.5t28 3.5t15.5 19.5q-4 63 -21.5 127.5t-58.5 115.5v-231zM865 711.5q-3 19.5 7 31.5t33 13.5t27 -21.5q0 -10 -7 -15t-15.5 -5t-14.5 4t-6 14q-12 -4 -12 -14t7 -20.5t17 -19.5t17 -11q14 -4 34.5 -4t30.5 10q20 20 16 40.5t-19 38t-35.5 32 t-31.5 24.5q-18 16 -30.5 42t-12.5 52.5t13.5 48t44.5 27.5q27 6 54.5 4t51.5 -2l-6 -10q0 -14 7 -29.5t13.5 -31t5.5 -30t-16 -26.5q-14 -10 -33.5 -9t-21.5 21q0 12 7 17.5t15.5 5.5t14.5 -5t4 -14q14 2 14 12.5t-8 21.5t-18.5 20.5t-18.5 11.5q-14 4 -32.5 1t-24.5 -19 q-12 -25 -4 -43.5t24.5 -33t37 -27.5t32.5 -28q14 -20 22.5 -46.5t4.5 -52t-20.5 -44t-47.5 -22.5q-27 -2 -53.5 -1t-54.5 1q8 4 5 19t-8.5 33.5t-8.5 38zM866 -61h41q-4 23 -9 46t-11 46zM874 1219q4 -12 16.5 -10.5t14.5 14.5q2 18 -10 43q-6 -8 -14.5 -22.5t-6.5 -24.5z M991 1264l4 -15q10 -14 25 -6q16 4 23.5 21.5t3.5 33.5q-2 10 -9.5 16.5t-21.5 -3.5q-20 -14 -25 -47zM997 209q12 14 15.5 36.5t2.5 47t-4 48.5t-3 40v127q0 16 1 29.5t-12 29.5h76q-10 -10 -13 -30.5t-2 -42t3 -43t2 -35.5v-166h104q23 0 55.5 -3t55.5 13q-4 -8 -7 -29.5 t-14 -21.5h-260zM1006 70q29 4 64.5 6t62.5 -15q31 -23 22.5 -57.5t-37.5 -48.5q14 -6 21.5 -19.5t10.5 -29t5 -30.5t8 -28h-51q-6 12 -8 27.5t-6 29t-12.5 23t-26.5 6.5v-86h-53v222zM1057 8.5q2 -24.5 2 -35.5h12q18 0 26.5 10.5t6.5 22.5t-11.5 21.5t-27.5 7.5 q-10 -2 -8 -26.5zM1065 621q10 12 11 25t1 28v248q0 14 -1 30.5t-11 28.5h127q25 -25 25.5 -59.5t-9.5 -67.5q-4 -8 -15 -29.5t-20.5 -45t-11.5 -45t10 -27.5q-6 12 4.5 13t21.5 -4t14 -14.5t-17 -17.5q-25 -10 -35 9.5t-8 35.5q0 16 6 32.5t8 31t-4 22.5t-28 6v-155 q16 0 41.5 -3.5t44.5 11.5q-6 -14 -8.5 -26.5t-6.5 -26.5h-139zM1098 567h78q-12 -29 2 -65.5t26 -61.5q12 29 22.5 63t0.5 64h80q-23 -12 -27 -38.5t-10 -47.5q-6 -20 -23.5 -47.5t-17.5 -48.5q0 -23 -3 -56.5t13 -52.5h-76q18 18 14.5 54t-3.5 59q-12 23 -21.5 46.5 t-17.5 45.5q-10 23 -14.5 46.5t-22.5 39.5zM1133 866q20 0 45.5 2t27.5 33q0 16 -7 23.5t-18.5 10.5t-24.5 3h-23v-72zM1192 72h53v-224h-53v224zM1245 1296q-4 -10 1 -27.5t22 -2.5q12 12 21 32.5t11 38.5q-2 8 -4 13.5t-12 1.5q-16 -8 -25.5 -23.5t-13.5 -32.5zM1274 -123 q0 14 9 22.5t21.5 8.5t21.5 -8.5t9 -22.5q0 -16 -9 -23.5t-21.5 -7.5t-21.5 7.5t-9 23.5zM1294 1018q-8 -6 4 -8q27 -10 57.5 -13.5t62.5 -3.5h62.5t59.5 -2t57.5 -5t57.5 -13q29 -8 51.5 -23.5t48.5 -27.5q0 61 -21.5 106t-80.5 68q35 31 69.5 58.5t75.5 43.5 q-49 47 -110.5 77t-126.5 46q-2 -57 -3.5 -112.5t-5.5 -112.5l-2 2v-6q-27 -2 -64.5 -4.5t-74.5 -9.5t-68.5 -21.5t-48.5 -38.5zM1364 72h57l68 -152q-4 39 -4 77v75h47v-224h-51q-20 39 -37 79t-35 77q2 -39 2 -78v-78h-47v224zM1393 1362q16 20 31.5 39.5t19.5 46.5h-2 q-37 -37 -49 -86zM1562.5 -63.5q-8.5 36.5 14.5 79.5q12 29 40 43.5t62 14.5h10.5t17.5 -2t16.5 -4t7.5 -5l-9 -40q-27 12 -48 8t-36.5 -18.5t-20.5 -37t3 -47.5q16 -47 61 -41q10 2 8.5 21.5t-1.5 28.5h-27v40h76v-120q-41 -16 -79 -9t-62.5 29.5t-33 59z" />
<glyph unicode="1" d="M35 1018q70 37 137.5 67.5t144.5 53.5q4 0 8.5 20.5t8.5 45t8 48t8 31.5q23 35 68 53.5t78 34.5q88 35 179 61.5t183 51.5q94 23 188.5 39t190.5 24q33 4 80 8.5t95 3.5t92 -12.5t71 -38.5q2 -4 -2 -28.5t-6 -32.5l-6 -98q0 -4 4 -4q78 -23 152.5 -59t123.5 -103v-2 q-16 4 -36.5 -3.5t-41 -20.5t-38 -27.5t-27.5 -26.5q31 -16 50 -47t27.5 -67t6.5 -72.5t-13 -67.5q-16 43 -49.5 66.5t-74.5 35t-85 14.5t-83 5q-45 4 -94.5 2t-92.5 14q-16 6 -22 25.5t-7 43t2 46l5 37.5q-184 -14 -363.5 -56.5t-351.5 -101.5q-8 -2 -8 -6q2 -10 8 -33.5 t10 -50.5t6 -49.5t-6 -28.5q-23 -18 -58.5 -21.5t-64.5 -7.5q-39 -6 -78.5 -12t-78.5 -12q-35 -8 -67 -17.5t-62 -21.5q-14 -8 -28.5 -13.5t-29.5 -15.5q-8 -8 -18 -20.5t-17 -16.5q10 35 24.5 68t27.5 63q2 6 13 25.5t21.5 41t18.5 39t6 21.5q-25 35 -58.5 68t-78.5 37z M86 72h47q4 -41 7 -83t12 -83q4 41 10 83t14 83h37l25 -166q4 41 9 83t9 83h43l-43 -224h-43q-6 37 -11 74t-9 74q-4 -37 -11.5 -74t-13.5 -74h-43zM90 1024q68 -37 109 -109q2 -2 -4.5 -15t-14.5 -28.5t-15 -29t-9 -19.5q-25 -45 -41 -94q51 27 104 39t108.5 20.5t110 15.5 t107.5 23q-18 18 -47 25.5t-62 8.5t-65.5 -2t-55.5 -5v131t4 131q-59 -16 -116.5 -39.5t-112.5 -52.5zM305 72h45q4 -41 8 -83t11 -83q4 41 10 83t14 83h39l23 -166q4 41 9 83t9 83h43l-43 -224h-41q-8 37 -13 74t-9 74q-4 -37 -10.5 -74t-12.5 -74h-45zM342 913 q8 0 22.5 6.5t29 15.5t27.5 18.5t23 13.5q37 16 75 29.5t77 27.5q78 23 155.5 43t159.5 39q78 16 155 31.5t157 21.5q72 8 154.5 11.5t152.5 -29.5q6 55 6 112.5t4 110.5q0 29 2 57.5t6 57.5q2 14 -6 22t-20.5 13.5t-26.5 7.5t-27 4q-119 18 -245.5 0.5t-245.5 -41.5 q-129 -27 -255 -60.5t-249 -87.5q-23 -12 -46.5 -24.5t-43.5 -28.5t-24.5 -49t-8.5 -55q-8 -66 -8 -132.5v-134.5zM367 1030q0 23 15 38t36 19q6 2 15 -2t5 -14q-12 -8 -22 -8q-12 -4 -16.5 -16.5t1.5 -22.5q4 -4 8.5 -5t8.5 -3q20 -2 33.5 11t22.5 33.5t13.5 41t8.5 35.5 q-27 -27 -62 -35q-27 -4 -43 12q-16 8 -16 37q0 27 12 51q27 61 86 98q12 6 25.5 12.5t27.5 10.5q10 4 21.5 12t21.5 11q12 -1 6 -13q12 0 21 -2q16 -2 27.5 -15t13.5 -32q6 -43 -23.5 -83t-66.5 -62q-18 -12 -27.5 -32t-18.5 -39t-20.5 -37.5t-34.5 -29.5q-23 -16 -53 -10 q-12 4 -20 14.5t-6 24.5zM405.5 1141.5q2.5 -15.5 22.5 -15.5q31 0 49.5 19.5t30.5 47.5t18.5 59t10.5 51q-29 -6 -52.5 -23.5t-44.5 -38.5q-6 -6 -15 -25.5t-15.5 -39t-4 -35zM522 72h45q4 -41 9.5 -83t9.5 -83q4 41 10 83t14 83h39l25 -166q2 41 7 83t11 83h41l-41 -224 h-43q-8 37 -12 74t-10 74q-4 -37 -10.5 -74t-12.5 -74h-43zM530 1155q14 4 29.5 19.5t26 35t14.5 40t0 34.5q-6 23 -33 23q-14 -37 -20.5 -75t-16.5 -77zM582 343q2 34 2 60q0 20 -1 39t1 39q0 49 26.5 67.5t73.5 18.5q37 0 54.5 -20.5t23.5 -50t4 -63.5t-2 -60v-80 q0 -47 -26.5 -66.5t-71.5 -17.5q-39 0 -56.5 20.5t-23.5 50t-4 63.5zM628 1157.5q-5 20.5 6 46t31.5 46t43.5 22.5q12 0 16 -10q8 -12 2 -29q-6 -23 -27.5 -40t-44.5 -22q2 -12 10.5 -13t17.5 3t17.5 10.5t12.5 10.5q25 20 36 45.5t21 52.5q2 2 -1 9t-8 15.5t-8 17.5t-1 15 q10 27 34 23q12 0 17 -12q4 -10 2 -22.5t-2 -25.5q20 2 28.5 -1t-4.5 -27q-8 -16 -17 -33.5t-11 -36.5q0 -10 6 -10q20 0 34.5 20.5t26 46t22.5 51t25 33.5q8 2 17 -2q2 -4 2 -12q-4 -12 -10.5 -21.5t-1.5 -23.5q6 -12 13 -25.5t5 -27.5h2q20 25 32.5 60.5t45.5 51.5 q37 14 49 -20q10 -14 6 -25.5t-2 -27.5q8 2 14 10q16 12 18.5 34.5t8.5 41.5q4 4 11 5t12 -1q10 -2 8 -12v-2q10 10 24 16q10 6 17.5 2t11.5 -14q4 -12 1 -22.5t-8 -22t-10 -22.5t-3 -23q14 12 24 26t18.5 29.5t17.5 29t26 23.5q20 10 51 0q4 6 17 8t9 -14q-4 -18 -14 -38.5 t-10 -41.5q0 -14 8 -2q20 20 30.5 48t19.5 55.5t23.5 53t43.5 42.5q14 8 24 -9q12 -23 4 -48t-24 -42q-14 -18 -43 -43.5t-25 -52.5q4 -16 23 -12q14 6 21 19.5t16 25.5q4 2 12 2t8 -10l-4 -13q-16 -39 -53 -53q-25 -14 -43 14q-4 5 -4 11q-10 -8 -16.5 -15.5t-18.5 -11.5 q-10 -4 -16.5 0t-12.5 8q-4 -4 -12 -8t-16 -6q-31 -6 -43 20v2q-8 -10 -17.5 -17t-23.5 -11q-14 -8 -25 12q-6 12 -3 23.5t8 21.5t9 21.5t2 23.5q-18 -8 -25 -19.5t-11.5 -25.5t-6.5 -28.5t-8 -28.5q-6 -16 -24 -8q-8 2 -9 10q0 4 1 9t1 7q-14 -4 -19 -4t-15 -10 t-24.5 -18.5t-31.5 -8.5q-10 2 -16 8.5t-10 14.5q-16 -16 -40 -32.5t-50 -12.5q-16 2 -25 18q-25 -29 -51 -37q-29 -12 -33 21q-4 27 8.5 44t22.5 38q2 4 -3 5t-7 -3q-8 -20 -18.5 -44t-26 -45.5t-36 -34.5t-46.5 -11q-31 2 -36 22.5zM638 367.5q-1 -37.5 1 -74.5 q0 -16 9 -26.5t21.5 -14.5t24 1t15.5 23q2 12 2 27.5v30.5v147q0 16 -10.5 27.5t-22.5 15.5t-23.5 -2t-15.5 -22q-2 -14 -1 -29.5t1 -28.5q0 -37 -1 -74.5zM653 621q12 14 15.5 36.5t2.5 48t-4 49t-3 42.5v125q0 16 1 30.5t-12 28.5h76q-14 -12 -12 -32.5t2 -37.5v-141 q0 -16 -2 -49t10 -47q14 -23 37.5 -8.5t28.5 32.5q8 27 2.5 54.5t-9.5 54.5q-4 14 -10 37.5t-8 48.5t2 46.5t21 33.5q10 10 31.5 10t29.5 -16q6 -16 -2 -21.5t-18.5 -4.5t-17.5 8t1 16q-16 -8 -17 -29t6 -44.5t17 -46t15 -34.5q12 -37 17 -87t-22 -85q-10 -14 -33.5 -19.5 t-50 -5.5t-53 3.5t-41.5 3.5zM655 1192q12 -2 28.5 15.5t18.5 27.5q4 8 -2 12t-12 -2q-10 -10 -18.5 -24.5t-14.5 -28.5zM715 -123q0 14 9 22.5t21.5 8.5t21.5 -8.5t9 -22.5q0 -16 -9 -23.5t-21.5 -7.5t-21.5 7.5t-9 23.5zM776 1329q-2 -8 4 -20h4q0 8 1 13t-1 13 q-6 0 -8 -6zM780 209q10 14 13.5 34.5t2.5 44t-4.5 46t-3.5 39.5v172q0 10 -8 22h58q29 -12 51 -50t35 -66q0 25 2 59.5t-13 56.5h74q-12 -10 -11 -24.5t1 -28.5v-246q0 -14 -1 -31.5t11 -27.5h-207zM797 -152l59 224h64l59 -224h-51l-15 52h-53l-10 -52h-53zM844 252 q0 -14 11 -23.5t25.5 -11.5t28 3.5t15.5 19.5q-4 63 -21.5 127.5t-58.5 115.5v-231zM865 711.5q-3 19.5 7 31.5t33 13.5t27 -21.5q0 -10 -7 -15t-15.5 -5t-14.5 4t-6 14q-12 -4 -12 -14t7 -20.5t17 -19.5t17 -11q14 -4 34.5 -4t30.5 10q20 20 16 40.5t-19 38t-35.5 32 t-31.5 24.5q-18 16 -30.5 42t-12.5 52.5t13.5 48t44.5 27.5q27 6 54.5 4t51.5 -2l-6 -10q0 -14 7 -29.5t13.5 -31t5.5 -30t-16 -26.5q-14 -10 -33.5 -9t-21.5 21q0 12 7 17.5t15.5 5.5t14.5 -5t4 -14q14 2 14 12.5t-8 21.5t-18.5 20.5t-18.5 11.5q-14 4 -32.5 1t-24.5 -19 q-12 -25 -4 -43.5t24.5 -33t37 -27.5t32.5 -28q14 -20 22.5 -46.5t4.5 -52t-20.5 -44t-47.5 -22.5q-27 -2 -53.5 -1t-54.5 1q8 4 5 19t-8.5 33.5t-8.5 38zM866 -61h41q-4 23 -9 46t-11 46zM874 1219q4 -12 16.5 -10.5t14.5 14.5q2 18 -10 43q-6 -8 -14.5 -22.5t-6.5 -24.5z M991 1264l4 -15q10 -14 25 -6q16 4 23.5 21.5t3.5 33.5q-2 10 -9.5 16.5t-21.5 -3.5q-20 -14 -25 -47zM997 209q12 14 15.5 36.5t2.5 47t-4 48.5t-3 40v127q0 16 1 29.5t-12 29.5h76q-10 -10 -13 -30.5t-2 -42t3 -43t2 -35.5v-166h104q23 0 55.5 -3t55.5 13q-4 -8 -7 -29.5 t-14 -21.5h-260zM1006 70q29 4 64.5 6t62.5 -15q31 -23 22.5 -57.5t-37.5 -48.5q14 -6 21.5 -19.5t10.5 -29t5 -30.5t8 -28h-51q-6 12 -8 27.5t-6 29t-12.5 23t-26.5 6.5v-86h-53v222zM1057 8.5q2 -24.5 2 -35.5h12q18 0 26.5 10.5t6.5 22.5t-11.5 21.5t-27.5 7.5 q-10 -2 -8 -26.5zM1065 621q10 12 11 25t1 28v248q0 14 -1 30.5t-11 28.5h127q25 -25 25.5 -59.5t-9.5 -67.5q-4 -8 -15 -29.5t-20.5 -45t-11.5 -45t10 -27.5q-6 12 4.5 13t21.5 -4t14 -14.5t-17 -17.5q-25 -10 -35 9.5t-8 35.5q0 16 6 32.5t8 31t-4 22.5t-28 6v-155 q16 0 41.5 -3.5t44.5 11.5q-6 -14 -8.5 -26.5t-6.5 -26.5h-139zM1098 567h78q-12 -29 2 -65.5t26 -61.5q12 29 22.5 63t0.5 64h80q-23 -12 -27 -38.5t-10 -47.5q-6 -20 -23.5 -47.5t-17.5 -48.5q0 -23 -3 -56.5t13 -52.5h-76q18 18 14.5 54t-3.5 59q-12 23 -21.5 46.5 t-17.5 45.5q-10 23 -14.5 46.5t-22.5 39.5zM1133 866q20 0 45.5 2t27.5 33q0 16 -7 23.5t-18.5 10.5t-24.5 3h-23v-72zM1192 72h53v-224h-53v224zM1245 1296q-4 -10 1 -27.5t22 -2.5q12 12 21 32.5t11 38.5q-2 8 -4 13.5t-12 1.5q-16 -8 -25.5 -23.5t-13.5 -32.5zM1274 -123 q0 14 9 22.5t21.5 8.5t21.5 -8.5t9 -22.5q0 -16 -9 -23.5t-21.5 -7.5t-21.5 7.5t-9 23.5zM1294 1018q-8 -6 4 -8q27 -10 57.5 -13.5t62.5 -3.5h62.5t59.5 -2t57.5 -5t57.5 -13q29 -8 51.5 -23.5t48.5 -27.5q0 61 -21.5 106t-80.5 68q35 31 69.5 58.5t75.5 43.5 q-49 47 -110.5 77t-126.5 46q-2 -57 -3.5 -112.5t-5.5 -112.5l-2 2v-6q-27 -2 -64.5 -4.5t-74.5 -9.5t-68.5 -21.5t-48.5 -38.5zM1364 72h57l68 -152q-4 39 -4 77v75h47v-224h-51q-20 39 -37 79t-35 77q2 -39 2 -78v-78h-47v224zM1393 1362q16 20 31.5 39.5t19.5 46.5h-2 q-37 -37 -49 -86zM1562.5 -63.5q-8.5 36.5 14.5 79.5q12 29 40 43.5t62 14.5h10.5t17.5 -2t16.5 -4t7.5 -5l-9 -40q-27 12 -48 8t-36.5 -18.5t-20.5 -37t3 -47.5q16 -47 61 -41q10 2 8.5 21.5t-1.5 28.5h-27v40h76v-120q-41 -16 -79 -9t-62.5 29.5t-33 59z" />
<glyph unicode="2" d="M35 1018q70 37 137.5 67.5t144.5 53.5q4 0 8.5 20.5t8.5 45t8 48t8 31.5q23 35 68 53.5t78 34.5q88 35 179 61.5t183 51.5q94 23 188.5 39t190.5 24q33 4 80 8.5t95 3.5t92 -12.5t71 -38.5q2 -4 -2 -28.5t-6 -32.5l-6 -98q0 -4 4 -4q78 -23 152.5 -59t123.5 -103v-2 q-16 4 -36.5 -3.5t-41 -20.5t-38 -27.5t-27.5 -26.5q31 -16 50 -47t27.5 -67t6.5 -72.5t-13 -67.5q-16 43 -49.5 66.5t-74.5 35t-85 14.5t-83 5q-45 4 -94.5 2t-92.5 14q-16 6 -22 25.5t-7 43t2 46l5 37.5q-184 -14 -363.5 -56.5t-351.5 -101.5q-8 -2 -8 -6q2 -10 8 -33.5 t10 -50.5t6 -49.5t-6 -28.5q-23 -18 -58.5 -21.5t-64.5 -7.5q-39 -6 -78.5 -12t-78.5 -12q-35 -8 -67 -17.5t-62 -21.5q-14 -8 -28.5 -13.5t-29.5 -15.5q-8 -8 -18 -20.5t-17 -16.5q10 35 24.5 68t27.5 63q2 6 13 25.5t21.5 41t18.5 39t6 21.5q-25 35 -58.5 68t-78.5 37z M86 72h47q4 -41 7 -83t12 -83q4 41 10 83t14 83h37l25 -166q4 41 9 83t9 83h43l-43 -224h-43q-6 37 -11 74t-9 74q-4 -37 -11.5 -74t-13.5 -74h-43zM90 1024q68 -37 109 -109q2 -2 -4.5 -15t-14.5 -28.5t-15 -29t-9 -19.5q-25 -45 -41 -94q51 27 104 39t108.5 20.5t110 15.5 t107.5 23q-18 18 -47 25.5t-62 8.5t-65.5 -2t-55.5 -5v131t4 131q-59 -16 -116.5 -39.5t-112.5 -52.5zM305 72h45q4 -41 8 -83t11 -83q4 41 10 83t14 83h39l23 -166q4 41 9 83t9 83h43l-43 -224h-41q-8 37 -13 74t-9 74q-4 -37 -10.5 -74t-12.5 -74h-45zM342 913 q8 0 22.5 6.5t29 15.5t27.5 18.5t23 13.5q37 16 75 29.5t77 27.5q78 23 155.5 43t159.5 39q78 16 155 31.5t157 21.5q72 8 154.5 11.5t152.5 -29.5q6 55 6 112.5t4 110.5q0 29 2 57.5t6 57.5q2 14 -6 22t-20.5 13.5t-26.5 7.5t-27 4q-119 18 -245.5 0.5t-245.5 -41.5 q-129 -27 -255 -60.5t-249 -87.5q-23 -12 -46.5 -24.5t-43.5 -28.5t-24.5 -49t-8.5 -55q-8 -66 -8 -132.5v-134.5zM367 1030q0 23 15 38t36 19q6 2 15 -2t5 -14q-12 -8 -22 -8q-12 -4 -16.5 -16.5t1.5 -22.5q4 -4 8.5 -5t8.5 -3q20 -2 33.5 11t22.5 33.5t13.5 41t8.5 35.5 q-27 -27 -62 -35q-27 -4 -43 12q-16 8 -16 37q0 27 12 51q27 61 86 98q12 6 25.5 12.5t27.5 10.5q10 4 21.5 12t21.5 11q12 -1 6 -13q12 0 21 -2q16 -2 27.5 -15t13.5 -32q6 -43 -23.5 -83t-66.5 -62q-18 -12 -27.5 -32t-18.5 -39t-20.5 -37.5t-34.5 -29.5q-23 -16 -53 -10 q-12 4 -20 14.5t-6 24.5zM405.5 1141.5q2.5 -15.5 22.5 -15.5q31 0 49.5 19.5t30.5 47.5t18.5 59t10.5 51q-29 -6 -52.5 -23.5t-44.5 -38.5q-6 -6 -15 -25.5t-15.5 -39t-4 -35zM522 72h45q4 -41 9.5 -83t9.5 -83q4 41 10 83t14 83h39l25 -166q2 41 7 83t11 83h41l-41 -224 h-43q-8 37 -12 74t-10 74q-4 -37 -10.5 -74t-12.5 -74h-43zM530 1155q14 4 29.5 19.5t26 35t14.5 40t0 34.5q-6 23 -33 23q-14 -37 -20.5 -75t-16.5 -77zM582 343q2 34 2 60q0 20 -1 39t1 39q0 49 26.5 67.5t73.5 18.5q37 0 54.5 -20.5t23.5 -50t4 -63.5t-2 -60v-80 q0 -47 -26.5 -66.5t-71.5 -17.5q-39 0 -56.5 20.5t-23.5 50t-4 63.5zM628 1157.5q-5 20.5 6 46t31.5 46t43.5 22.5q12 0 16 -10q8 -12 2 -29q-6 -23 -27.5 -40t-44.5 -22q2 -12 10.5 -13t17.5 3t17.5 10.5t12.5 10.5q25 20 36 45.5t21 52.5q2 2 -1 9t-8 15.5t-8 17.5t-1 15 q10 27 34 23q12 0 17 -12q4 -10 2 -22.5t-2 -25.5q20 2 28.5 -1t-4.5 -27q-8 -16 -17 -33.5t-11 -36.5q0 -10 6 -10q20 0 34.5 20.5t26 46t22.5 51t25 33.5q8 2 17 -2q2 -4 2 -12q-4 -12 -10.5 -21.5t-1.5 -23.5q6 -12 13 -25.5t5 -27.5h2q20 25 32.5 60.5t45.5 51.5 q37 14 49 -20q10 -14 6 -25.5t-2 -27.5q8 2 14 10q16 12 18.5 34.5t8.5 41.5q4 4 11 5t12 -1q10 -2 8 -12v-2q10 10 24 16q10 6 17.5 2t11.5 -14q4 -12 1 -22.5t-8 -22t-10 -22.5t-3 -23q14 12 24 26t18.5 29.5t17.5 29t26 23.5q20 10 51 0q4 6 17 8t9 -14q-4 -18 -14 -38.5 t-10 -41.5q0 -14 8 -2q20 20 30.5 48t19.5 55.5t23.5 53t43.5 42.5q14 8 24 -9q12 -23 4 -48t-24 -42q-14 -18 -43 -43.5t-25 -52.5q4 -16 23 -12q14 6 21 19.5t16 25.5q4 2 12 2t8 -10l-4 -13q-16 -39 -53 -53q-25 -14 -43 14q-4 5 -4 11q-10 -8 -16.5 -15.5t-18.5 -11.5 q-10 -4 -16.5 0t-12.5 8q-4 -4 -12 -8t-16 -6q-31 -6 -43 20v2q-8 -10 -17.5 -17t-23.5 -11q-14 -8 -25 12q-6 12 -3 23.5t8 21.5t9 21.5t2 23.5q-18 -8 -25 -19.5t-11.5 -25.5t-6.5 -28.5t-8 -28.5q-6 -16 -24 -8q-8 2 -9 10q0 4 1 9t1 7q-14 -4 -19 -4t-15 -10 t-24.5 -18.5t-31.5 -8.5q-10 2 -16 8.5t-10 14.5q-16 -16 -40 -32.5t-50 -12.5q-16 2 -25 18q-25 -29 -51 -37q-29 -12 -33 21q-4 27 8.5 44t22.5 38q2 4 -3 5t-7 -3q-8 -20 -18.5 -44t-26 -45.5t-36 -34.5t-46.5 -11q-31 2 -36 22.5zM638 367.5q-1 -37.5 1 -74.5 q0 -16 9 -26.5t21.5 -14.5t24 1t15.5 23q2 12 2 27.5v30.5v147q0 16 -10.5 27.5t-22.5 15.5t-23.5 -2t-15.5 -22q-2 -14 -1 -29.5t1 -28.5q0 -37 -1 -74.5zM653 621q12 14 15.5 36.5t2.5 48t-4 49t-3 42.5v125q0 16 1 30.5t-12 28.5h76q-14 -12 -12 -32.5t2 -37.5v-141 q0 -16 -2 -49t10 -47q14 -23 37.5 -8.5t28.5 32.5q8 27 2.5 54.5t-9.5 54.5q-4 14 -10 37.5t-8 48.5t2 46.5t21 33.5q10 10 31.5 10t29.5 -16q6 -16 -2 -21.5t-18.5 -4.5t-17.5 8t1 16q-16 -8 -17 -29t6 -44.5t17 -46t15 -34.5q12 -37 17 -87t-22 -85q-10 -14 -33.5 -19.5 t-50 -5.5t-53 3.5t-41.5 3.5zM655 1192q12 -2 28.5 15.5t18.5 27.5q4 8 -2 12t-12 -2q-10 -10 -18.5 -24.5t-14.5 -28.5zM715 -123q0 14 9 22.5t21.5 8.5t21.5 -8.5t9 -22.5q0 -16 -9 -23.5t-21.5 -7.5t-21.5 7.5t-9 23.5zM776 1329q-2 -8 4 -20h4q0 8 1 13t-1 13 q-6 0 -8 -6zM780 209q10 14 13.5 34.5t2.5 44t-4.5 46t-3.5 39.5v172q0 10 -8 22h58q29 -12 51 -50t35 -66q0 25 2 59.5t-13 56.5h74q-12 -10 -11 -24.5t1 -28.5v-246q0 -14 -1 -31.5t11 -27.5h-207zM797 -152l59 224h64l59 -224h-51l-15 52h-53l-10 -52h-53zM844 252 q0 -14 11 -23.5t25.5 -11.5t28 3.5t15.5 19.5q-4 63 -21.5 127.5t-58.5 115.5v-231zM865 711.5q-3 19.5 7 31.5t33 13.5t27 -21.5q0 -10 -7 -15t-15.5 -5t-14.5 4t-6 14q-12 -4 -12 -14t7 -20.5t17 -19.5t17 -11q14 -4 34.5 -4t30.5 10q20 20 16 40.5t-19 38t-35.5 32 t-31.5 24.5q-18 16 -30.5 42t-12.5 52.5t13.5 48t44.5 27.5q27 6 54.5 4t51.5 -2l-6 -10q0 -14 7 -29.5t13.5 -31t5.5 -30t-16 -26.5q-14 -10 -33.5 -9t-21.5 21q0 12 7 17.5t15.5 5.5t14.5 -5t4 -14q14 2 14 12.5t-8 21.5t-18.5 20.5t-18.5 11.5q-14 4 -32.5 1t-24.5 -19 q-12 -25 -4 -43.5t24.5 -33t37 -27.5t32.5 -28q14 -20 22.5 -46.5t4.5 -52t-20.5 -44t-47.5 -22.5q-27 -2 -53.5 -1t-54.5 1q8 4 5 19t-8.5 33.5t-8.5 38zM866 -61h41q-4 23 -9 46t-11 46zM874 1219q4 -12 16.5 -10.5t14.5 14.5q2 18 -10 43q-6 -8 -14.5 -22.5t-6.5 -24.5z M991 1264l4 -15q10 -14 25 -6q16 4 23.5 21.5t3.5 33.5q-2 10 -9.5 16.5t-21.5 -3.5q-20 -14 -25 -47zM997 209q12 14 15.5 36.5t2.5 47t-4 48.5t-3 40v127q0 16 1 29.5t-12 29.5h76q-10 -10 -13 -30.5t-2 -42t3 -43t2 -35.5v-166h104q23 0 55.5 -3t55.5 13q-4 -8 -7 -29.5 t-14 -21.5h-260zM1006 70q29 4 64.5 6t62.5 -15q31 -23 22.5 -57.5t-37.5 -48.5q14 -6 21.5 -19.5t10.5 -29t5 -30.5t8 -28h-51q-6 12 -8 27.5t-6 29t-12.5 23t-26.5 6.5v-86h-53v222zM1057 8.5q2 -24.5 2 -35.5h12q18 0 26.5 10.5t6.5 22.5t-11.5 21.5t-27.5 7.5 q-10 -2 -8 -26.5zM1065 621q10 12 11 25t1 28v248q0 14 -1 30.5t-11 28.5h127q25 -25 25.5 -59.5t-9.5 -67.5q-4 -8 -15 -29.5t-20.5 -45t-11.5 -45t10 -27.5q-6 12 4.5 13t21.5 -4t14 -14.5t-17 -17.5q-25 -10 -35 9.5t-8 35.5q0 16 6 32.5t8 31t-4 22.5t-28 6v-155 q16 0 41.5 -3.5t44.5 11.5q-6 -14 -8.5 -26.5t-6.5 -26.5h-139zM1098 567h78q-12 -29 2 -65.5t26 -61.5q12 29 22.5 63t0.5 64h80q-23 -12 -27 -38.5t-10 -47.5q-6 -20 -23.5 -47.5t-17.5 -48.5q0 -23 -3 -56.5t13 -52.5h-76q18 18 14.5 54t-3.5 59q-12 23 -21.5 46.5 t-17.5 45.5q-10 23 -14.5 46.5t-22.5 39.5zM1133 866q20 0 45.5 2t27.5 33q0 16 -7 23.5t-18.5 10.5t-24.5 3h-23v-72zM1192 72h53v-224h-53v224zM1245 1296q-4 -10 1 -27.5t22 -2.5q12 12 21 32.5t11 38.5q-2 8 -4 13.5t-12 1.5q-16 -8 -25.5 -23.5t-13.5 -32.5zM1274 -123 q0 14 9 22.5t21.5 8.5t21.5 -8.5t9 -22.5q0 -16 -9 -23.5t-21.5 -7.5t-21.5 7.5t-9 23.5zM1294 1018q-8 -6 4 -8q27 -10 57.5 -13.5t62.5 -3.5h62.5t59.5 -2t57.5 -5t57.5 -13q29 -8 51.5 -23.5t48.5 -27.5q0 61 -21.5 106t-80.5 68q35 31 69.5 58.5t75.5 43.5 q-49 47 -110.5 77t-126.5 46q-2 -57 -3.5 -112.5t-5.5 -112.5l-2 2v-6q-27 -2 -64.5 -4.5t-74.5 -9.5t-68.5 -21.5t-48.5 -38.5zM1364 72h57l68 -152q-4 39 -4 77v75h47v-224h-51q-20 39 -37 79t-35 77q2 -39 2 -78v-78h-47v224zM1393 1362q16 20 31.5 39.5t19.5 46.5h-2 q-37 -37 -49 -86zM1562.5 -63.5q-8.5 36.5 14.5 79.5q12 29 40 43.5t62 14.5h10.5t17.5 -2t16.5 -4t7.5 -5l-9 -40q-27 12 -48 8t-36.5 -18.5t-20.5 -37t3 -47.5q16 -47 61 -41q10 2 8.5 21.5t-1.5 28.5h-27v40h76v-120q-41 -16 -79 -9t-62.5 29.5t-33 59z" />
<glyph unicode="3" d="M35 1018q70 37 137.5 67.5t144.5 53.5q4 0 8.5 20.5t8.5 45t8 48t8 31.5q23 35 68 53.5t78 34.5q88 35 179 61.5t183 51.5q94 23 188.5 39t190.5 24q33 4 80 8.5t95 3.5t92 -12.5t71 -38.5q2 -4 -2 -28.5t-6 -32.5l-6 -98q0 -4 4 -4q78 -23 152.5 -59t123.5 -103v-2 q-16 4 -36.5 -3.5t-41 -20.5t-38 -27.5t-27.5 -26.5q31 -16 50 -47t27.5 -67t6.5 -72.5t-13 -67.5q-16 43 -49.5 66.5t-74.5 35t-85 14.5t-83 5q-45 4 -94.5 2t-92.5 14q-16 6 -22 25.5t-7 43t2 46l5 37.5q-184 -14 -363.5 -56.5t-351.5 -101.5q-8 -2 -8 -6q2 -10 8 -33.5 t10 -50.5t6 -49.5t-6 -28.5q-23 -18 -58.5 -21.5t-64.5 -7.5q-39 -6 -78.5 -12t-78.5 -12q-35 -8 -67 -17.5t-62 -21.5q-14 -8 -28.5 -13.5t-29.5 -15.5q-8 -8 -18 -20.5t-17 -16.5q10 35 24.5 68t27.5 63q2 6 13 25.5t21.5 41t18.5 39t6 21.5q-25 35 -58.5 68t-78.5 37z M86 72h47q4 -41 7 -83t12 -83q4 41 10 83t14 83h37l25 -166q4 41 9 83t9 83h43l-43 -224h-43q-6 37 -11 74t-9 74q-4 -37 -11.5 -74t-13.5 -74h-43zM90 1024q68 -37 109 -109q2 -2 -4.5 -15t-14.5 -28.5t-15 -29t-9 -19.5q-25 -45 -41 -94q51 27 104 39t108.5 20.5t110 15.5 t107.5 23q-18 18 -47 25.5t-62 8.5t-65.5 -2t-55.5 -5v131t4 131q-59 -16 -116.5 -39.5t-112.5 -52.5zM305 72h45q4 -41 8 -83t11 -83q4 41 10 83t14 83h39l23 -166q4 41 9 83t9 83h43l-43 -224h-41q-8 37 -13 74t-9 74q-4 -37 -10.5 -74t-12.5 -74h-45zM342 913 q8 0 22.5 6.5t29 15.5t27.5 18.5t23 13.5q37 16 75 29.5t77 27.5q78 23 155.5 43t159.5 39q78 16 155 31.5t157 21.5q72 8 154.5 11.5t152.5 -29.5q6 55 6 112.5t4 110.5q0 29 2 57.5t6 57.5q2 14 -6 22t-20.5 13.5t-26.5 7.5t-27 4q-119 18 -245.5 0.5t-245.5 -41.5 q-129 -27 -255 -60.5t-249 -87.5q-23 -12 -46.5 -24.5t-43.5 -28.5t-24.5 -49t-8.5 -55q-8 -66 -8 -132.5v-134.5zM367 1030q0 23 15 38t36 19q6 2 15 -2t5 -14q-12 -8 -22 -8q-12 -4 -16.5 -16.5t1.5 -22.5q4 -4 8.5 -5t8.5 -3q20 -2 33.5 11t22.5 33.5t13.5 41t8.5 35.5 q-27 -27 -62 -35q-27 -4 -43 12q-16 8 -16 37q0 27 12 51q27 61 86 98q12 6 25.5 12.5t27.5 10.5q10 4 21.5 12t21.5 11q12 -1 6 -13q12 0 21 -2q16 -2 27.5 -15t13.5 -32q6 -43 -23.5 -83t-66.5 -62q-18 -12 -27.5 -32t-18.5 -39t-20.5 -37.5t-34.5 -29.5q-23 -16 -53 -10 q-12 4 -20 14.5t-6 24.5zM405.5 1141.5q2.5 -15.5 22.5 -15.5q31 0 49.5 19.5t30.5 47.5t18.5 59t10.5 51q-29 -6 -52.5 -23.5t-44.5 -38.5q-6 -6 -15 -25.5t-15.5 -39t-4 -35zM522 72h45q4 -41 9.5 -83t9.5 -83q4 41 10 83t14 83h39l25 -166q2 41 7 83t11 83h41l-41 -224 h-43q-8 37 -12 74t-10 74q-4 -37 -10.5 -74t-12.5 -74h-43zM530 1155q14 4 29.5 19.5t26 35t14.5 40t0 34.5q-6 23 -33 23q-14 -37 -20.5 -75t-16.5 -77zM582 343q2 34 2 60q0 20 -1 39t1 39q0 49 26.5 67.5t73.5 18.5q37 0 54.5 -20.5t23.5 -50t4 -63.5t-2 -60v-80 q0 -47 -26.5 -66.5t-71.5 -17.5q-39 0 -56.5 20.5t-23.5 50t-4 63.5zM628 1157.5q-5 20.5 6 46t31.5 46t43.5 22.5q12 0 16 -10q8 -12 2 -29q-6 -23 -27.5 -40t-44.5 -22q2 -12 10.5 -13t17.5 3t17.5 10.5t12.5 10.5q25 20 36 45.5t21 52.5q2 2 -1 9t-8 15.5t-8 17.5t-1 15 q10 27 34 23q12 0 17 -12q4 -10 2 -22.5t-2 -25.5q20 2 28.5 -1t-4.5 -27q-8 -16 -17 -33.5t-11 -36.5q0 -10 6 -10q20 0 34.5 20.5t26 46t22.5 51t25 33.5q8 2 17 -2q2 -4 2 -12q-4 -12 -10.5 -21.5t-1.5 -23.5q6 -12 13 -25.5t5 -27.5h2q20 25 32.5 60.5t45.5 51.5 q37 14 49 -20q10 -14 6 -25.5t-2 -27.5q8 2 14 10q16 12 18.5 34.5t8.5 41.5q4 4 11 5t12 -1q10 -2 8 -12v-2q10 10 24 16q10 6 17.5 2t11.5 -14q4 -12 1 -22.5t-8 -22t-10 -22.5t-3 -23q14 12 24 26t18.5 29.5t17.5 29t26 23.5q20 10 51 0q4 6 17 8t9 -14q-4 -18 -14 -38.5 t-10 -41.5q0 -14 8 -2q20 20 30.5 48t19.5 55.5t23.5 53t43.5 42.5q14 8 24 -9q12 -23 4 -48t-24 -42q-14 -18 -43 -43.5t-25 -52.5q4 -16 23 -12q14 6 21 19.5t16 25.5q4 2 12 2t8 -10l-4 -13q-16 -39 -53 -53q-25 -14 -43 14q-4 5 -4 11q-10 -8 -16.5 -15.5t-18.5 -11.5 q-10 -4 -16.5 0t-12.5 8q-4 -4 -12 -8t-16 -6q-31 -6 -43 20v2q-8 -10 -17.5 -17t-23.5 -11q-14 -8 -25 12q-6 12 -3 23.5t8 21.5t9 21.5t2 23.5q-18 -8 -25 -19.5t-11.5 -25.5t-6.5 -28.5t-8 -28.5q-6 -16 -24 -8q-8 2 -9 10q0 4 1 9t1 7q-14 -4 -19 -4t-15 -10 t-24.5 -18.5t-31.5 -8.5q-10 2 -16 8.5t-10 14.5q-16 -16 -40 -32.5t-50 -12.5q-16 2 -25 18q-25 -29 -51 -37q-29 -12 -33 21q-4 27 8.5 44t22.5 38q2 4 -3 5t-7 -3q-8 -20 -18.5 -44t-26 -45.5t-36 -34.5t-46.5 -11q-31 2 -36 22.5zM638 367.5q-1 -37.5 1 -74.5 q0 -16 9 -26.5t21.5 -14.5t24 1t15.5 23q2 12 2 27.5v30.5v147q0 16 -10.5 27.5t-22.5 15.5t-23.5 -2t-15.5 -22q-2 -14 -1 -29.5t1 -28.5q0 -37 -1 -74.5zM653 621q12 14 15.5 36.5t2.5 48t-4 49t-3 42.5v125q0 16 1 30.5t-12 28.5h76q-14 -12 -12 -32.5t2 -37.5v-141 q0 -16 -2 -49t10 -47q14 -23 37.5 -8.5t28.5 32.5q8 27 2.5 54.5t-9.5 54.5q-4 14 -10 37.5t-8 48.5t2 46.5t21 33.5q10 10 31.5 10t29.5 -16q6 -16 -2 -21.5t-18.5 -4.5t-17.5 8t1 16q-16 -8 -17 -29t6 -44.5t17 -46t15 -34.5q12 -37 17 -87t-22 -85q-10 -14 -33.5 -19.5 t-50 -5.5t-53 3.5t-41.5 3.5zM655 1192q12 -2 28.5 15.5t18.5 27.5q4 8 -2 12t-12 -2q-10 -10 -18.5 -24.5t-14.5 -28.5zM715 -123q0 14 9 22.5t21.5 8.5t21.5 -8.5t9 -22.5q0 -16 -9 -23.5t-21.5 -7.5t-21.5 7.5t-9 23.5zM776 1329q-2 -8 4 -20h4q0 8 1 13t-1 13 q-6 0 -8 -6zM780 209q10 14 13.5 34.5t2.5 44t-4.5 46t-3.5 39.5v172q0 10 -8 22h58q29 -12 51 -50t35 -66q0 25 2 59.5t-13 56.5h74q-12 -10 -11 -24.5t1 -28.5v-246q0 -14 -1 -31.5t11 -27.5h-207zM797 -152l59 224h64l59 -224h-51l-15 52h-53l-10 -52h-53zM844 252 q0 -14 11 -23.5t25.5 -11.5t28 3.5t15.5 19.5q-4 63 -21.5 127.5t-58.5 115.5v-231zM865 711.5q-3 19.5 7 31.5t33 13.5t27 -21.5q0 -10 -7 -15t-15.5 -5t-14.5 4t-6 14q-12 -4 -12 -14t7 -20.5t17 -19.5t17 -11q14 -4 34.5 -4t30.5 10q20 20 16 40.5t-19 38t-35.5 32 t-31.5 24.5q-18 16 -30.5 42t-12.5 52.5t13.5 48t44.5 27.5q27 6 54.5 4t51.5 -2l-6 -10q0 -14 7 -29.5t13.5 -31t5.5 -30t-16 -26.5q-14 -10 -33.5 -9t-21.5 21q0 12 7 17.5t15.5 5.5t14.5 -5t4 -14q14 2 14 12.5t-8 21.5t-18.5 20.5t-18.5 11.5q-14 4 -32.5 1t-24.5 -19 q-12 -25 -4 -43.5t24.5 -33t37 -27.5t32.5 -28q14 -20 22.5 -46.5t4.5 -52t-20.5 -44t-47.5 -22.5q-27 -2 -53.5 -1t-54.5 1q8 4 5 19t-8.5 33.5t-8.5 38zM866 -61h41q-4 23 -9 46t-11 46zM874 1219q4 -12 16.5 -10.5t14.5 14.5q2 18 -10 43q-6 -8 -14.5 -22.5t-6.5 -24.5z M991 1264l4 -15q10 -14 25 -6q16 4 23.5 21.5t3.5 33.5q-2 10 -9.5 16.5t-21.5 -3.5q-20 -14 -25 -47zM997 209q12 14 15.5 36.5t2.5 47t-4 48.5t-3 40v127q0 16 1 29.5t-12 29.5h76q-10 -10 -13 -30.5t-2 -42t3 -43t2 -35.5v-166h104q23 0 55.5 -3t55.5 13q-4 -8 -7 -29.5 t-14 -21.5h-260zM1006 70q29 4 64.5 6t62.5 -15q31 -23 22.5 -57.5t-37.5 -48.5q14 -6 21.5 -19.5t10.5 -29t5 -30.5t8 -28h-51q-6 12 -8 27.5t-6 29t-12.5 23t-26.5 6.5v-86h-53v222zM1057 8.5q2 -24.5 2 -35.5h12q18 0 26.5 10.5t6.5 22.5t-11.5 21.5t-27.5 7.5 q-10 -2 -8 -26.5zM1065 621q10 12 11 25t1 28v248q0 14 -1 30.5t-11 28.5h127q25 -25 25.5 -59.5t-9.5 -67.5q-4 -8 -15 -29.5t-20.5 -45t-11.5 -45t10 -27.5q-6 12 4.5 13t21.5 -4t14 -14.5t-17 -17.5q-25 -10 -35 9.5t-8 35.5q0 16 6 32.5t8 31t-4 22.5t-28 6v-155 q16 0 41.5 -3.5t44.5 11.5q-6 -14 -8.5 -26.5t-6.5 -26.5h-139zM1098 567h78q-12 -29 2 -65.5t26 -61.5q12 29 22.5 63t0.5 64h80q-23 -12 -27 -38.5t-10 -47.5q-6 -20 -23.5 -47.5t-17.5 -48.5q0 -23 -3 -56.5t13 -52.5h-76q18 18 14.5 54t-3.5 59q-12 23 -21.5 46.5 t-17.5 45.5q-10 23 -14.5 46.5t-22.5 39.5zM1133 866q20 0 45.5 2t27.5 33q0 16 -7 23.5t-18.5 10.5t-24.5 3h-23v-72zM1192 72h53v-224h-53v224zM1245 1296q-4 -10 1 -27.5t22 -2.5q12 12 21 32.5t11 38.5q-2 8 -4 13.5t-12 1.5q-16 -8 -25.5 -23.5t-13.5 -32.5zM1274 -123 q0 14 9 22.5t21.5 8.5t21.5 -8.5t9 -22.5q0 -16 -9 -23.5t-21.5 -7.5t-21.5 7.5t-9 23.5zM1294 1018q-8 -6 4 -8q27 -10 57.5 -13.5t62.5 -3.5h62.5t59.5 -2t57.5 -5t57.5 -13q29 -8 51.5 -23.5t48.5 -27.5q0 61 -21.5 106t-80.5 68q35 31 69.5 58.5t75.5 43.5 q-49 47 -110.5 77t-126.5 46q-2 -57 -3.5 -112.5t-5.5 -112.5l-2 2v-6q-27 -2 -64.5 -4.5t-74.5 -9.5t-68.5 -21.5t-48.5 -38.5zM1364 72h57l68 -152q-4 39 -4 77v75h47v-224h-51q-20 39 -37 79t-35 77q2 -39 2 -78v-78h-47v224zM1393 1362q16 20 31.5 39.5t19.5 46.5h-2 q-37 -37 -49 -86zM1562.5 -63.5q-8.5 36.5 14.5 79.5q12 29 40 43.5t62 14.5h10.5t17.5 -2t16.5 -4t7.5 -5l-9 -40q-27 12 -48 8t-36.5 -18.5t-20.5 -37t3 -47.5q16 -47 61 -41q10 2 8.5 21.5t-1.5 28.5h-27v40h76v-120q-41 -16 -79 -9t-62.5 29.5t-33 59z" />
<glyph unicode="4" d="M35 1018q70 37 137.5 67.5t144.5 53.5q4 0 8.5 20.5t8.5 45t8 48t8 31.5q23 35 68 53.5t78 34.5q88 35 179 61.5t183 51.5q94 23 188.5 39t190.5 24q33 4 80 8.5t95 3.5t92 -12.5t71 -38.5q2 -4 -2 -28.5t-6 -32.5l-6 -98q0 -4 4 -4q78 -23 152.5 -59t123.5 -103v-2 q-16 4 -36.5 -3.5t-41 -20.5t-38 -27.5t-27.5 -26.5q31 -16 50 -47t27.5 -67t6.5 -72.5t-13 -67.5q-16 43 -49.5 66.5t-74.5 35t-85 14.5t-83 5q-45 4 -94.5 2t-92.5 14q-16 6 -22 25.5t-7 43t2 46l5 37.5q-184 -14 -363.5 -56.5t-351.5 -101.5q-8 -2 -8 -6q2 -10 8 -33.5 t10 -50.5t6 -49.5t-6 -28.5q-23 -18 -58.5 -21.5t-64.5 -7.5q-39 -6 -78.5 -12t-78.5 -12q-35 -8 -67 -17.5t-62 -21.5q-14 -8 -28.5 -13.5t-29.5 -15.5q-8 -8 -18 -20.5t-17 -16.5q10 35 24.5 68t27.5 63q2 6 13 25.5t21.5 41t18.5 39t6 21.5q-25 35 -58.5 68t-78.5 37z M86 72h47q4 -41 7 -83t12 -83q4 41 10 83t14 83h37l25 -166q4 41 9 83t9 83h43l-43 -224h-43q-6 37 -11 74t-9 74q-4 -37 -11.5 -74t-13.5 -74h-43zM90 1024q68 -37 109 -109q2 -2 -4.5 -15t-14.5 -28.5t-15 -29t-9 -19.5q-25 -45 -41 -94q51 27 104 39t108.5 20.5t110 15.5 t107.5 23q-18 18 -47 25.5t-62 8.5t-65.5 -2t-55.5 -5v131t4 131q-59 -16 -116.5 -39.5t-112.5 -52.5zM305 72h45q4 -41 8 -83t11 -83q4 41 10 83t14 83h39l23 -166q4 41 9 83t9 83h43l-43 -224h-41q-8 37 -13 74t-9 74q-4 -37 -10.5 -74t-12.5 -74h-45zM342 913 q8 0 22.5 6.5t29 15.5t27.5 18.5t23 13.5q37 16 75 29.5t77 27.5q78 23 155.5 43t159.5 39q78 16 155 31.5t157 21.5q72 8 154.5 11.5t152.5 -29.5q6 55 6 112.5t4 110.5q0 29 2 57.5t6 57.5q2 14 -6 22t-20.5 13.5t-26.5 7.5t-27 4q-119 18 -245.5 0.5t-245.5 -41.5 q-129 -27 -255 -60.5t-249 -87.5q-23 -12 -46.5 -24.5t-43.5 -28.5t-24.5 -49t-8.5 -55q-8 -66 -8 -132.5v-134.5zM367 1030q0 23 15 38t36 19q6 2 15 -2t5 -14q-12 -8 -22 -8q-12 -4 -16.5 -16.5t1.5 -22.5q4 -4 8.5 -5t8.5 -3q20 -2 33.5 11t22.5 33.5t13.5 41t8.5 35.5 q-27 -27 -62 -35q-27 -4 -43 12q-16 8 -16 37q0 27 12 51q27 61 86 98q12 6 25.5 12.5t27.5 10.5q10 4 21.5 12t21.5 11q12 -1 6 -13q12 0 21 -2q16 -2 27.5 -15t13.5 -32q6 -43 -23.5 -83t-66.5 -62q-18 -12 -27.5 -32t-18.5 -39t-20.5 -37.5t-34.5 -29.5q-23 -16 -53 -10 q-12 4 -20 14.5t-6 24.5zM405.5 1141.5q2.5 -15.5 22.5 -15.5q31 0 49.5 19.5t30.5 47.5t18.5 59t10.5 51q-29 -6 -52.5 -23.5t-44.5 -38.5q-6 -6 -15 -25.5t-15.5 -39t-4 -35zM522 72h45q4 -41 9.5 -83t9.5 -83q4 41 10 83t14 83h39l25 -166q2 41 7 83t11 83h41l-41 -224 h-43q-8 37 -12 74t-10 74q-4 -37 -10.5 -74t-12.5 -74h-43zM530 1155q14 4 29.5 19.5t26 35t14.5 40t0 34.5q-6 23 -33 23q-14 -37 -20.5 -75t-16.5 -77zM582 343q2 34 2 60q0 20 -1 39t1 39q0 49 26.5 67.5t73.5 18.5q37 0 54.5 -20.5t23.5 -50t4 -63.5t-2 -60v-80 q0 -47 -26.5 -66.5t-71.5 -17.5q-39 0 -56.5 20.5t-23.5 50t-4 63.5zM628 1157.5q-5 20.5 6 46t31.5 46t43.5 22.5q12 0 16 -10q8 -12 2 -29q-6 -23 -27.5 -40t-44.5 -22q2 -12 10.5 -13t17.5 3t17.5 10.5t12.5 10.5q25 20 36 45.5t21 52.5q2 2 -1 9t-8 15.5t-8 17.5t-1 15 q10 27 34 23q12 0 17 -12q4 -10 2 -22.5t-2 -25.5q20 2 28.5 -1t-4.5 -27q-8 -16 -17 -33.5t-11 -36.5q0 -10 6 -10q20 0 34.5 20.5t26 46t22.5 51t25 33.5q8 2 17 -2q2 -4 2 -12q-4 -12 -10.5 -21.5t-1.5 -23.5q6 -12 13 -25.5t5 -27.5h2q20 25 32.5 60.5t45.5 51.5 q37 14 49 -20q10 -14 6 -25.5t-2 -27.5q8 2 14 10q16 12 18.5 34.5t8.5 41.5q4 4 11 5t12 -1q10 -2 8 -12v-2q10 10 24 16q10 6 17.5 2t11.5 -14q4 -12 1 -22.5t-8 -22t-10 -22.5t-3 -23q14 12 24 26t18.5 29.5t17.5 29t26 23.5q20 10 51 0q4 6 17 8t9 -14q-4 -18 -14 -38.5 t-10 -41.5q0 -14 8 -2q20 20 30.5 48t19.5 55.5t23.5 53t43.5 42.5q14 8 24 -9q12 -23 4 -48t-24 -42q-14 -18 -43 -43.5t-25 -52.5q4 -16 23 -12q14 6 21 19.5t16 25.5q4 2 12 2t8 -10l-4 -13q-16 -39 -53 -53q-25 -14 -43 14q-4 5 -4 11q-10 -8 -16.5 -15.5t-18.5 -11.5 q-10 -4 -16.5 0t-12.5 8q-4 -4 -12 -8t-16 -6q-31 -6 -43 20v2q-8 -10 -17.5 -17t-23.5 -11q-14 -8 -25 12q-6 12 -3 23.5t8 21.5t9 21.5t2 23.5q-18 -8 -25 -19.5t-11.5 -25.5t-6.5 -28.5t-8 -28.5q-6 -16 -24 -8q-8 2 -9 10q0 4 1 9t1 7q-14 -4 -19 -4t-15 -10 t-24.5 -18.5t-31.5 -8.5q-10 2 -16 8.5t-10 14.5q-16 -16 -40 -32.5t-50 -12.5q-16 2 -25 18q-25 -29 -51 -37q-29 -12 -33 21q-4 27 8.5 44t22.5 38q2 4 -3 5t-7 -3q-8 -20 -18.5 -44t-26 -45.5t-36 -34.5t-46.5 -11q-31 2 -36 22.5zM638 367.5q-1 -37.5 1 -74.5 q0 -16 9 -26.5t21.5 -14.5t24 1t15.5 23q2 12 2 27.5v30.5v147q0 16 -10.5 27.5t-22.5 15.5t-23.5 -2t-15.5 -22q-2 -14 -1 -29.5t1 -28.5q0 -37 -1 -74.5zM653 621q12 14 15.5 36.5t2.5 48t-4 49t-3 42.5v125q0 16 1 30.5t-12 28.5h76q-14 -12 -12 -32.5t2 -37.5v-141 q0 -16 -2 -49t10 -47q14 -23 37.5 -8.5t28.5 32.5q8 27 2.5 54.5t-9.5 54.5q-4 14 -10 37.5t-8 48.5t2 46.5t21 33.5q10 10 31.5 10t29.5 -16q6 -16 -2 -21.5t-18.5 -4.5t-17.5 8t1 16q-16 -8 -17 -29t6 -44.5t17 -46t15 -34.5q12 -37 17 -87t-22 -85q-10 -14 -33.5 -19.5 t-50 -5.5t-53 3.5t-41.5 3.5zM655 1192q12 -2 28.5 15.5t18.5 27.5q4 8 -2 12t-12 -2q-10 -10 -18.5 -24.5t-14.5 -28.5zM715 -123q0 14 9 22.5t21.5 8.5t21.5 -8.5t9 -22.5q0 -16 -9 -23.5t-21.5 -7.5t-21.5 7.5t-9 23.5zM776 1329q-2 -8 4 -20h4q0 8 1 13t-1 13 q-6 0 -8 -6zM780 209q10 14 13.5 34.5t2.5 44t-4.5 46t-3.5 39.5v172q0 10 -8 22h58q29 -12 51 -50t35 -66q0 25 2 59.5t-13 56.5h74q-12 -10 -11 -24.5t1 -28.5v-246q0 -14 -1 -31.5t11 -27.5h-207zM797 -152l59 224h64l59 -224h-51l-15 52h-53l-10 -52h-53zM844 252 q0 -14 11 -23.5t25.5 -11.5t28 3.5t15.5 19.5q-4 63 -21.5 127.5t-58.5 115.5v-231zM865 711.5q-3 19.5 7 31.5t33 13.5t27 -21.5q0 -10 -7 -15t-15.5 -5t-14.5 4t-6 14q-12 -4 -12 -14t7 -20.5t17 -19.5t17 -11q14 -4 34.5 -4t30.5 10q20 20 16 40.5t-19 38t-35.5 32 t-31.5 24.5q-18 16 -30.5 42t-12.5 52.5t13.5 48t44.5 27.5q27 6 54.5 4t51.5 -2l-6 -10q0 -14 7 -29.5t13.5 -31t5.5 -30t-16 -26.5q-14 -10 -33.5 -9t-21.5 21q0 12 7 17.5t15.5 5.5t14.5 -5t4 -14q14 2 14 12.5t-8 21.5t-18.5 20.5t-18.5 11.5q-14 4 -32.5 1t-24.5 -19 q-12 -25 -4 -43.5t24.5 -33t37 -27.5t32.5 -28q14 -20 22.5 -46.5t4.5 -52t-20.5 -44t-47.5 -22.5q-27 -2 -53.5 -1t-54.5 1q8 4 5 19t-8.5 33.5t-8.5 38zM866 -61h41q-4 23 -9 46t-11 46zM874 1219q4 -12 16.5 -10.5t14.5 14.5q2 18 -10 43q-6 -8 -14.5 -22.5t-6.5 -24.5z M991 1264l4 -15q10 -14 25 -6q16 4 23.5 21.5t3.5 33.5q-2 10 -9.5 16.5t-21.5 -3.5q-20 -14 -25 -47zM997 209q12 14 15.5 36.5t2.5 47t-4 48.5t-3 40v127q0 16 1 29.5t-12 29.5h76q-10 -10 -13 -30.5t-2 -42t3 -43t2 -35.5v-166h104q23 0 55.5 -3t55.5 13q-4 -8 -7 -29.5 t-14 -21.5h-260zM1006 70q29 4 64.5 6t62.5 -15q31 -23 22.5 -57.5t-37.5 -48.5q14 -6 21.5 -19.5t10.5 -29t5 -30.5t8 -28h-51q-6 12 -8 27.5t-6 29t-12.5 23t-26.5 6.5v-86h-53v222zM1057 8.5q2 -24.5 2 -35.5h12q18 0 26.5 10.5t6.5 22.5t-11.5 21.5t-27.5 7.5 q-10 -2 -8 -26.5zM1065 621q10 12 11 25t1 28v248q0 14 -1 30.5t-11 28.5h127q25 -25 25.5 -59.5t-9.5 -67.5q-4 -8 -15 -29.5t-20.5 -45t-11.5 -45t10 -27.5q-6 12 4.5 13t21.5 -4t14 -14.5t-17 -17.5q-25 -10 -35 9.5t-8 35.5q0 16 6 32.5t8 31t-4 22.5t-28 6v-155 q16 0 41.5 -3.5t44.5 11.5q-6 -14 -8.5 -26.5t-6.5 -26.5h-139zM1098 567h78q-12 -29 2 -65.5t26 -61.5q12 29 22.5 63t0.5 64h80q-23 -12 -27 -38.5t-10 -47.5q-6 -20 -23.5 -47.5t-17.5 -48.5q0 -23 -3 -56.5t13 -52.5h-76q18 18 14.5 54t-3.5 59q-12 23 -21.5 46.5 t-17.5 45.5q-10 23 -14.5 46.5t-22.5 39.5zM1133 866q20 0 45.5 2t27.5 33q0 16 -7 23.5t-18.5 10.5t-24.5 3h-23v-72zM1192 72h53v-224h-53v224zM1245 1296q-4 -10 1 -27.5t22 -2.5q12 12 21 32.5t11 38.5q-2 8 -4 13.5t-12 1.5q-16 -8 -25.5 -23.5t-13.5 -32.5zM1274 -123 q0 14 9 22.5t21.5 8.5t21.5 -8.5t9 -22.5q0 -16 -9 -23.5t-21.5 -7.5t-21.5 7.5t-9 23.5zM1294 1018q-8 -6 4 -8q27 -10 57.5 -13.5t62.5 -3.5h62.5t59.5 -2t57.5 -5t57.5 -13q29 -8 51.5 -23.5t48.5 -27.5q0 61 -21.5 106t-80.5 68q35 31 69.5 58.5t75.5 43.5 q-49 47 -110.5 77t-126.5 46q-2 -57 -3.5 -112.5t-5.5 -112.5l-2 2v-6q-27 -2 -64.5 -4.5t-74.5 -9.5t-68.5 -21.5t-48.5 -38.5zM1364 72h57l68 -152q-4 39 -4 77v75h47v-224h-51q-20 39 -37 79t-35 77q2 -39 2 -78v-78h-47v224zM1393 1362q16 20 31.5 39.5t19.5 46.5h-2 q-37 -37 -49 -86zM1562.5 -63.5q-8.5 36.5 14.5 79.5q12 29 40 43.5t62 14.5h10.5t17.5 -2t16.5 -4t7.5 -5l-9 -40q-27 12 -48 8t-36.5 -18.5t-20.5 -37t3 -47.5q16 -47 61 -41q10 2 8.5 21.5t-1.5 28.5h-27v40h76v-120q-41 -16 -79 -9t-62.5 29.5t-33 59z" />
<glyph unicode="5" d="M35 1018q70 37 137.5 67.5t144.5 53.5q4 0 8.5 20.5t8.5 45t8 48t8 31.5q23 35 68 53.5t78 34.5q88 35 179 61.5t183 51.5q94 23 188.5 39t190.5 24q33 4 80 8.5t95 3.5t92 -12.5t71 -38.5q2 -4 -2 -28.5t-6 -32.5l-6 -98q0 -4 4 -4q78 -23 152.5 -59t123.5 -103v-2 q-16 4 -36.5 -3.5t-41 -20.5t-38 -27.5t-27.5 -26.5q31 -16 50 -47t27.5 -67t6.5 -72.5t-13 -67.5q-16 43 -49.5 66.5t-74.5 35t-85 14.5t-83 5q-45 4 -94.5 2t-92.5 14q-16 6 -22 25.5t-7 43t2 46l5 37.5q-184 -14 -363.5 -56.5t-351.5 -101.5q-8 -2 -8 -6q2 -10 8 -33.5 t10 -50.5t6 -49.5t-6 -28.5q-23 -18 -58.5 -21.5t-64.5 -7.5q-39 -6 -78.5 -12t-78.5 -12q-35 -8 -67 -17.5t-62 -21.5q-14 -8 -28.5 -13.5t-29.5 -15.5q-8 -8 -18 -20.5t-17 -16.5q10 35 24.5 68t27.5 63q2 6 13 25.5t21.5 41t18.5 39t6 21.5q-25 35 -58.5 68t-78.5 37z M86 72h47q4 -41 7 -83t12 -83q4 41 10 83t14 83h37l25 -166q4 41 9 83t9 83h43l-43 -224h-43q-6 37 -11 74t-9 74q-4 -37 -11.5 -74t-13.5 -74h-43zM90 1024q68 -37 109 -109q2 -2 -4.5 -15t-14.5 -28.5t-15 -29t-9 -19.5q-25 -45 -41 -94q51 27 104 39t108.5 20.5t110 15.5 t107.5 23q-18 18 -47 25.5t-62 8.5t-65.5 -2t-55.5 -5v131t4 131q-59 -16 -116.5 -39.5t-112.5 -52.5zM305 72h45q4 -41 8 -83t11 -83q4 41 10 83t14 83h39l23 -166q4 41 9 83t9 83h43l-43 -224h-41q-8 37 -13 74t-9 74q-4 -37 -10.5 -74t-12.5 -74h-45zM342 913 q8 0 22.5 6.5t29 15.5t27.5 18.5t23 13.5q37 16 75 29.5t77 27.5q78 23 155.5 43t159.5 39q78 16 155 31.5t157 21.5q72 8 154.5 11.5t152.5 -29.5q6 55 6 112.5t4 110.5q0 29 2 57.5t6 57.5q2 14 -6 22t-20.5 13.5t-26.5 7.5t-27 4q-119 18 -245.5 0.5t-245.5 -41.5 q-129 -27 -255 -60.5t-249 -87.5q-23 -12 -46.5 -24.5t-43.5 -28.5t-24.5 -49t-8.5 -55q-8 -66 -8 -132.5v-134.5zM367 1030q0 23 15 38t36 19q6 2 15 -2t5 -14q-12 -8 -22 -8q-12 -4 -16.5 -16.5t1.5 -22.5q4 -4 8.5 -5t8.5 -3q20 -2 33.5 11t22.5 33.5t13.5 41t8.5 35.5 q-27 -27 -62 -35q-27 -4 -43 12q-16 8 -16 37q0 27 12 51q27 61 86 98q12 6 25.5 12.5t27.5 10.5q10 4 21.5 12t21.5 11q12 -1 6 -13q12 0 21 -2q16 -2 27.5 -15t13.5 -32q6 -43 -23.5 -83t-66.5 -62q-18 -12 -27.5 -32t-18.5 -39t-20.5 -37.5t-34.5 -29.5q-23 -16 -53 -10 q-12 4 -20 14.5t-6 24.5zM405.5 1141.5q2.5 -15.5 22.5 -15.5q31 0 49.5 19.5t30.5 47.5t18.5 59t10.5 51q-29 -6 -52.5 -23.5t-44.5 -38.5q-6 -6 -15 -25.5t-15.5 -39t-4 -35zM522 72h45q4 -41 9.5 -83t9.5 -83q4 41 10 83t14 83h39l25 -166q2 41 7 83t11 83h41l-41 -224 h-43q-8 37 -12 74t-10 74q-4 -37 -10.5 -74t-12.5 -74h-43zM530 1155q14 4 29.5 19.5t26 35t14.5 40t0 34.5q-6 23 -33 23q-14 -37 -20.5 -75t-16.5 -77zM582 343q2 34 2 60q0 20 -1 39t1 39q0 49 26.5 67.5t73.5 18.5q37 0 54.5 -20.5t23.5 -50t4 -63.5t-2 -60v-80 q0 -47 -26.5 -66.5t-71.5 -17.5q-39 0 -56.5 20.5t-23.5 50t-4 63.5zM628 1157.5q-5 20.5 6 46t31.5 46t43.5 22.5q12 0 16 -10q8 -12 2 -29q-6 -23 -27.5 -40t-44.5 -22q2 -12 10.5 -13t17.5 3t17.5 10.5t12.5 10.5q25 20 36 45.5t21 52.5q2 2 -1 9t-8 15.5t-8 17.5t-1 15 q10 27 34 23q12 0 17 -12q4 -10 2 -22.5t-2 -25.5q20 2 28.5 -1t-4.5 -27q-8 -16 -17 -33.5t-11 -36.5q0 -10 6 -10q20 0 34.5 20.5t26 46t22.5 51t25 33.5q8 2 17 -2q2 -4 2 -12q-4 -12 -10.5 -21.5t-1.5 -23.5q6 -12 13 -25.5t5 -27.5h2q20 25 32.5 60.5t45.5 51.5 q37 14 49 -20q10 -14 6 -25.5t-2 -27.5q8 2 14 10q16 12 18.5 34.5t8.5 41.5q4 4 11 5t12 -1q10 -2 8 -12v-2q10 10 24 16q10 6 17.5 2t11.5 -14q4 -12 1 -22.5t-8 -22t-10 -22.5t-3 -23q14 12 24 26t18.5 29.5t17.5 29t26 23.5q20 10 51 0q4 6 17 8t9 -14q-4 -18 -14 -38.5 t-10 -41.5q0 -14 8 -2q20 20 30.5 48t19.5 55.5t23.5 53t43.5 42.5q14 8 24 -9q12 -23 4 -48t-24 -42q-14 -18 -43 -43.5t-25 -52.5q4 -16 23 -12q14 6 21 19.5t16 25.5q4 2 12 2t8 -10l-4 -13q-16 -39 -53 -53q-25 -14 -43 14q-4 5 -4 11q-10 -8 -16.5 -15.5t-18.5 -11.5 q-10 -4 -16.5 0t-12.5 8q-4 -4 -12 -8t-16 -6q-31 -6 -43 20v2q-8 -10 -17.5 -17t-23.5 -11q-14 -8 -25 12q-6 12 -3 23.5t8 21.5t9 21.5t2 23.5q-18 -8 -25 -19.5t-11.5 -25.5t-6.5 -28.5t-8 -28.5q-6 -16 -24 -8q-8 2 -9 10q0 4 1 9t1 7q-14 -4 -19 -4t-15 -10 t-24.5 -18.5t-31.5 -8.5q-10 2 -16 8.5t-10 14.5q-16 -16 -40 -32.5t-50 -12.5q-16 2 -25 18q-25 -29 -51 -37q-29 -12 -33 21q-4 27 8.5 44t22.5 38q2 4 -3 5t-7 -3q-8 -20 -18.5 -44t-26 -45.5t-36 -34.5t-46.5 -11q-31 2 -36 22.5zM638 367.5q-1 -37.5 1 -74.5 q0 -16 9 -26.5t21.5 -14.5t24 1t15.5 23q2 12 2 27.5v30.5v147q0 16 -10.5 27.5t-22.5 15.5t-23.5 -2t-15.5 -22q-2 -14 -1 -29.5t1 -28.5q0 -37 -1 -74.5zM653 621q12 14 15.5 36.5t2.5 48t-4 49t-3 42.5v125q0 16 1 30.5t-12 28.5h76q-14 -12 -12 -32.5t2 -37.5v-141 q0 -16 -2 -49t10 -47q14 -23 37.5 -8.5t28.5 32.5q8 27 2.5 54.5t-9.5 54.5q-4 14 -10 37.5t-8 48.5t2 46.5t21 33.5q10 10 31.5 10t29.5 -16q6 -16 -2 -21.5t-18.5 -4.5t-17.5 8t1 16q-16 -8 -17 -29t6 -44.5t17 -46t15 -34.5q12 -37 17 -87t-22 -85q-10 -14 -33.5 -19.5 t-50 -5.5t-53 3.5t-41.5 3.5zM655 1192q12 -2 28.5 15.5t18.5 27.5q4 8 -2 12t-12 -2q-10 -10 -18.5 -24.5t-14.5 -28.5zM715 -123q0 14 9 22.5t21.5 8.5t21.5 -8.5t9 -22.5q0 -16 -9 -23.5t-21.5 -7.5t-21.5 7.5t-9 23.5zM776 1329q-2 -8 4 -20h4q0 8 1 13t-1 13 q-6 0 -8 -6zM780 209q10 14 13.5 34.5t2.5 44t-4.5 46t-3.5 39.5v172q0 10 -8 22h58q29 -12 51 -50t35 -66q0 25 2 59.5t-13 56.5h74q-12 -10 -11 -24.5t1 -28.5v-246q0 -14 -1 -31.5t11 -27.5h-207zM797 -152l59 224h64l59 -224h-51l-15 52h-53l-10 -52h-53zM844 252 q0 -14 11 -23.5t25.5 -11.5t28 3.5t15.5 19.5q-4 63 -21.5 127.5t-58.5 115.5v-231zM865 711.5q-3 19.5 7 31.5t33 13.5t27 -21.5q0 -10 -7 -15t-15.5 -5t-14.5 4t-6 14q-12 -4 -12 -14t7 -20.5t17 -19.5t17 -11q14 -4 34.5 -4t30.5 10q20 20 16 40.5t-19 38t-35.5 32 t-31.5 24.5q-18 16 -30.5 42t-12.5 52.5t13.5 48t44.5 27.5q27 6 54.5 4t51.5 -2l-6 -10q0 -14 7 -29.5t13.5 -31t5.5 -30t-16 -26.5q-14 -10 -33.5 -9t-21.5 21q0 12 7 17.5t15.5 5.5t14.5 -5t4 -14q14 2 14 12.5t-8 21.5t-18.5 20.5t-18.5 11.5q-14 4 -32.5 1t-24.5 -19 q-12 -25 -4 -43.5t24.5 -33t37 -27.5t32.5 -28q14 -20 22.5 -46.5t4.5 -52t-20.5 -44t-47.5 -22.5q-27 -2 -53.5 -1t-54.5 1q8 4 5 19t-8.5 33.5t-8.5 38zM866 -61h41q-4 23 -9 46t-11 46zM874 1219q4 -12 16.5 -10.5t14.5 14.5q2 18 -10 43q-6 -8 -14.5 -22.5t-6.5 -24.5z M991 1264l4 -15q10 -14 25 -6q16 4 23.5 21.5t3.5 33.5q-2 10 -9.5 16.5t-21.5 -3.5q-20 -14 -25 -47zM997 209q12 14 15.5 36.5t2.5 47t-4 48.5t-3 40v127q0 16 1 29.5t-12 29.5h76q-10 -10 -13 -30.5t-2 -42t3 -43t2 -35.5v-166h104q23 0 55.5 -3t55.5 13q-4 -8 -7 -29.5 t-14 -21.5h-260zM1006 70q29 4 64.5 6t62.5 -15q31 -23 22.5 -57.5t-37.5 -48.5q14 -6 21.5 -19.5t10.5 -29t5 -30.5t8 -28h-51q-6 12 -8 27.5t-6 29t-12.5 23t-26.5 6.5v-86h-53v222zM1057 8.5q2 -24.5 2 -35.5h12q18 0 26.5 10.5t6.5 22.5t-11.5 21.5t-27.5 7.5 q-10 -2 -8 -26.5zM1065 621q10 12 11 25t1 28v248q0 14 -1 30.5t-11 28.5h127q25 -25 25.5 -59.5t-9.5 -67.5q-4 -8 -15 -29.5t-20.5 -45t-11.5 -45t10 -27.5q-6 12 4.5 13t21.5 -4t14 -14.5t-17 -17.5q-25 -10 -35 9.5t-8 35.5q0 16 6 32.5t8 31t-4 22.5t-28 6v-155 q16 0 41.5 -3.5t44.5 11.5q-6 -14 -8.5 -26.5t-6.5 -26.5h-139zM1098 567h78q-12 -29 2 -65.5t26 -61.5q12 29 22.5 63t0.5 64h80q-23 -12 -27 -38.5t-10 -47.5q-6 -20 -23.5 -47.5t-17.5 -48.5q0 -23 -3 -56.5t13 -52.5h-76q18 18 14.5 54t-3.5 59q-12 23 -21.5 46.5 t-17.5 45.5q-10 23 -14.5 46.5t-22.5 39.5zM1133 866q20 0 45.5 2t27.5 33q0 16 -7 23.5t-18.5 10.5t-24.5 3h-23v-72zM1192 72h53v-224h-53v224zM1245 1296q-4 -10 1 -27.5t22 -2.5q12 12 21 32.5t11 38.5q-2 8 -4 13.5t-12 1.5q-16 -8 -25.5 -23.5t-13.5 -32.5zM1274 -123 q0 14 9 22.5t21.5 8.5t21.5 -8.5t9 -22.5q0 -16 -9 -23.5t-21.5 -7.5t-21.5 7.5t-9 23.5zM1294 1018q-8 -6 4 -8q27 -10 57.5 -13.5t62.5 -3.5h62.5t59.5 -2t57.5 -5t57.5 -13q29 -8 51.5 -23.5t48.5 -27.5q0 61 -21.5 106t-80.5 68q35 31 69.5 58.5t75.5 43.5 q-49 47 -110.5 77t-126.5 46q-2 -57 -3.5 -112.5t-5.5 -112.5l-2 2v-6q-27 -2 -64.5 -4.5t-74.5 -9.5t-68.5 -21.5t-48.5 -38.5zM1364 72h57l68 -152q-4 39 -4 77v75h47v-224h-51q-20 39 -37 79t-35 77q2 -39 2 -78v-78h-47v224zM1393 1362q16 20 31.5 39.5t19.5 46.5h-2 q-37 -37 -49 -86zM1562.5 -63.5q-8.5 36.5 14.5 79.5q12 29 40 43.5t62 14.5h10.5t17.5 -2t16.5 -4t7.5 -5l-9 -40q-27 12 -48 8t-36.5 -18.5t-20.5 -37t3 -47.5q16 -47 61 -41q10 2 8.5 21.5t-1.5 28.5h-27v40h76v-120q-41 -16 -79 -9t-62.5 29.5t-33 59z" />
<glyph unicode="6" d="M35 1018q70 37 137.5 67.5t144.5 53.5q4 0 8.5 20.5t8.5 45t8 48t8 31.5q23 35 68 53.5t78 34.5q88 35 179 61.5t183 51.5q94 23 188.5 39t190.5 24q33 4 80 8.5t95 3.5t92 -12.5t71 -38.5q2 -4 -2 -28.5t-6 -32.5l-6 -98q0 -4 4 -4q78 -23 152.5 -59t123.5 -103v-2 q-16 4 -36.5 -3.5t-41 -20.5t-38 -27.5t-27.5 -26.5q31 -16 50 -47t27.5 -67t6.5 -72.5t-13 -67.5q-16 43 -49.5 66.5t-74.5 35t-85 14.5t-83 5q-45 4 -94.5 2t-92.5 14q-16 6 -22 25.5t-7 43t2 46l5 37.5q-184 -14 -363.5 -56.5t-351.5 -101.5q-8 -2 -8 -6q2 -10 8 -33.5 t10 -50.5t6 -49.5t-6 -28.5q-23 -18 -58.5 -21.5t-64.5 -7.5q-39 -6 -78.5 -12t-78.5 -12q-35 -8 -67 -17.5t-62 -21.5q-14 -8 -28.5 -13.5t-29.5 -15.5q-8 -8 -18 -20.5t-17 -16.5q10 35 24.5 68t27.5 63q2 6 13 25.5t21.5 41t18.5 39t6 21.5q-25 35 -58.5 68t-78.5 37z M86 72h47q4 -41 7 -83t12 -83q4 41 10 83t14 83h37l25 -166q4 41 9 83t9 83h43l-43 -224h-43q-6 37 -11 74t-9 74q-4 -37 -11.5 -74t-13.5 -74h-43zM90 1024q68 -37 109 -109q2 -2 -4.5 -15t-14.5 -28.5t-15 -29t-9 -19.5q-25 -45 -41 -94q51 27 104 39t108.5 20.5t110 15.5 t107.5 23q-18 18 -47 25.5t-62 8.5t-65.5 -2t-55.5 -5v131t4 131q-59 -16 -116.5 -39.5t-112.5 -52.5zM305 72h45q4 -41 8 -83t11 -83q4 41 10 83t14 83h39l23 -166q4 41 9 83t9 83h43l-43 -224h-41q-8 37 -13 74t-9 74q-4 -37 -10.5 -74t-12.5 -74h-45zM342 913 q8 0 22.5 6.5t29 15.5t27.5 18.5t23 13.5q37 16 75 29.5t77 27.5q78 23 155.5 43t159.5 39q78 16 155 31.5t157 21.5q72 8 154.5 11.5t152.5 -29.5q6 55 6 112.5t4 110.5q0 29 2 57.5t6 57.5q2 14 -6 22t-20.5 13.5t-26.5 7.5t-27 4q-119 18 -245.5 0.5t-245.5 -41.5 q-129 -27 -255 -60.5t-249 -87.5q-23 -12 -46.5 -24.5t-43.5 -28.5t-24.5 -49t-8.5 -55q-8 -66 -8 -132.5v-134.5zM367 1030q0 23 15 38t36 19q6 2 15 -2t5 -14q-12 -8 -22 -8q-12 -4 -16.5 -16.5t1.5 -22.5q4 -4 8.5 -5t8.5 -3q20 -2 33.5 11t22.5 33.5t13.5 41t8.5 35.5 q-27 -27 -62 -35q-27 -4 -43 12q-16 8 -16 37q0 27 12 51q27 61 86 98q12 6 25.5 12.5t27.5 10.5q10 4 21.5 12t21.5 11q12 -1 6 -13q12 0 21 -2q16 -2 27.5 -15t13.5 -32q6 -43 -23.5 -83t-66.5 -62q-18 -12 -27.5 -32t-18.5 -39t-20.5 -37.5t-34.5 -29.5q-23 -16 -53 -10 q-12 4 -20 14.5t-6 24.5zM405.5 1141.5q2.5 -15.5 22.5 -15.5q31 0 49.5 19.5t30.5 47.5t18.5 59t10.5 51q-29 -6 -52.5 -23.5t-44.5 -38.5q-6 -6 -15 -25.5t-15.5 -39t-4 -35zM522 72h45q4 -41 9.5 -83t9.5 -83q4 41 10 83t14 83h39l25 -166q2 41 7 83t11 83h41l-41 -224 h-43q-8 37 -12 74t-10 74q-4 -37 -10.5 -74t-12.5 -74h-43zM530 1155q14 4 29.5 19.5t26 35t14.5 40t0 34.5q-6 23 -33 23q-14 -37 -20.5 -75t-16.5 -77zM582 343q2 34 2 60q0 20 -1 39t1 39q0 49 26.5 67.5t73.5 18.5q37 0 54.5 -20.5t23.5 -50t4 -63.5t-2 -60v-80 q0 -47 -26.5 -66.5t-71.5 -17.5q-39 0 -56.5 20.5t-23.5 50t-4 63.5zM628 1157.5q-5 20.5 6 46t31.5 46t43.5 22.5q12 0 16 -10q8 -12 2 -29q-6 -23 -27.5 -40t-44.5 -22q2 -12 10.5 -13t17.5 3t17.5 10.5t12.5 10.5q25 20 36 45.5t21 52.5q2 2 -1 9t-8 15.5t-8 17.5t-1 15 q10 27 34 23q12 0 17 -12q4 -10 2 -22.5t-2 -25.5q20 2 28.5 -1t-4.5 -27q-8 -16 -17 -33.5t-11 -36.5q0 -10 6 -10q20 0 34.5 20.5t26 46t22.5 51t25 33.5q8 2 17 -2q2 -4 2 -12q-4 -12 -10.5 -21.5t-1.5 -23.5q6 -12 13 -25.5t5 -27.5h2q20 25 32.5 60.5t45.5 51.5 q37 14 49 -20q10 -14 6 -25.5t-2 -27.5q8 2 14 10q16 12 18.5 34.5t8.5 41.5q4 4 11 5t12 -1q10 -2 8 -12v-2q10 10 24 16q10 6 17.5 2t11.5 -14q4 -12 1 -22.5t-8 -22t-10 -22.5t-3 -23q14 12 24 26t18.5 29.5t17.5 29t26 23.5q20 10 51 0q4 6 17 8t9 -14q-4 -18 -14 -38.5 t-10 -41.5q0 -14 8 -2q20 20 30.5 48t19.5 55.5t23.5 53t43.5 42.5q14 8 24 -9q12 -23 4 -48t-24 -42q-14 -18 -43 -43.5t-25 -52.5q4 -16 23 -12q14 6 21 19.5t16 25.5q4 2 12 2t8 -10l-4 -13q-16 -39 -53 -53q-25 -14 -43 14q-4 5 -4 11q-10 -8 -16.5 -15.5t-18.5 -11.5 q-10 -4 -16.5 0t-12.5 8q-4 -4 -12 -8t-16 -6q-31 -6 -43 20v2q-8 -10 -17.5 -17t-23.5 -11q-14 -8 -25 12q-6 12 -3 23.5t8 21.5t9 21.5t2 23.5q-18 -8 -25 -19.5t-11.5 -25.5t-6.5 -28.5t-8 -28.5q-6 -16 -24 -8q-8 2 -9 10q0 4 1 9t1 7q-14 -4 -19 -4t-15 -10 t-24.5 -18.5t-31.5 -8.5q-10 2 -16 8.5t-10 14.5q-16 -16 -40 -32.5t-50 -12.5q-16 2 -25 18q-25 -29 -51 -37q-29 -12 -33 21q-4 27 8.5 44t22.5 38q2 4 -3 5t-7 -3q-8 -20 -18.5 -44t-26 -45.5t-36 -34.5t-46.5 -11q-31 2 -36 22.5zM638 367.5q-1 -37.5 1 -74.5 q0 -16 9 -26.5t21.5 -14.5t24 1t15.5 23q2 12 2 27.5v30.5v147q0 16 -10.5 27.5t-22.5 15.5t-23.5 -2t-15.5 -22q-2 -14 -1 -29.5t1 -28.5q0 -37 -1 -74.5zM653 621q12 14 15.5 36.5t2.5 48t-4 49t-3 42.5v125q0 16 1 30.5t-12 28.5h76q-14 -12 -12 -32.5t2 -37.5v-141 q0 -16 -2 -49t10 -47q14 -23 37.5 -8.5t28.5 32.5q8 27 2.5 54.5t-9.5 54.5q-4 14 -10 37.5t-8 48.5t2 46.5t21 33.5q10 10 31.5 10t29.5 -16q6 -16 -2 -21.5t-18.5 -4.5t-17.5 8t1 16q-16 -8 -17 -29t6 -44.5t17 -46t15 -34.5q12 -37 17 -87t-22 -85q-10 -14 -33.5 -19.5 t-50 -5.5t-53 3.5t-41.5 3.5zM655 1192q12 -2 28.5 15.5t18.5 27.5q4 8 -2 12t-12 -2q-10 -10 -18.5 -24.5t-14.5 -28.5zM715 -123q0 14 9 22.5t21.5 8.5t21.5 -8.5t9 -22.5q0 -16 -9 -23.5t-21.5 -7.5t-21.5 7.5t-9 23.5zM776 1329q-2 -8 4 -20h4q0 8 1 13t-1 13 q-6 0 -8 -6zM780 209q10 14 13.5 34.5t2.5 44t-4.5 46t-3.5 39.5v172q0 10 -8 22h58q29 -12 51 -50t35 -66q0 25 2 59.5t-13 56.5h74q-12 -10 -11 -24.5t1 -28.5v-246q0 -14 -1 -31.5t11 -27.5h-207zM797 -152l59 224h64l59 -224h-51l-15 52h-53l-10 -52h-53zM844 252 q0 -14 11 -23.5t25.5 -11.5t28 3.5t15.5 19.5q-4 63 -21.5 127.5t-58.5 115.5v-231zM865 711.5q-3 19.5 7 31.5t33 13.5t27 -21.5q0 -10 -7 -15t-15.5 -5t-14.5 4t-6 14q-12 -4 -12 -14t7 -20.5t17 -19.5t17 -11q14 -4 34.5 -4t30.5 10q20 20 16 40.5t-19 38t-35.5 32 t-31.5 24.5q-18 16 -30.5 42t-12.5 52.5t13.5 48t44.5 27.5q27 6 54.5 4t51.5 -2l-6 -10q0 -14 7 -29.5t13.5 -31t5.5 -30t-16 -26.5q-14 -10 -33.5 -9t-21.5 21q0 12 7 17.5t15.5 5.5t14.5 -5t4 -14q14 2 14 12.5t-8 21.5t-18.5 20.5t-18.5 11.5q-14 4 -32.5 1t-24.5 -19 q-12 -25 -4 -43.5t24.5 -33t37 -27.5t32.5 -28q14 -20 22.5 -46.5t4.5 -52t-20.5 -44t-47.5 -22.5q-27 -2 -53.5 -1t-54.5 1q8 4 5 19t-8.5 33.5t-8.5 38zM866 -61h41q-4 23 -9 46t-11 46zM874 1219q4 -12 16.5 -10.5t14.5 14.5q2 18 -10 43q-6 -8 -14.5 -22.5t-6.5 -24.5z M991 1264l4 -15q10 -14 25 -6q16 4 23.5 21.5t3.5 33.5q-2 10 -9.5 16.5t-21.5 -3.5q-20 -14 -25 -47zM997 209q12 14 15.5 36.5t2.5 47t-4 48.5t-3 40v127q0 16 1 29.5t-12 29.5h76q-10 -10 -13 -30.5t-2 -42t3 -43t2 -35.5v-166h104q23 0 55.5 -3t55.5 13q-4 -8 -7 -29.5 t-14 -21.5h-260zM1006 70q29 4 64.5 6t62.5 -15q31 -23 22.5 -57.5t-37.5 -48.5q14 -6 21.5 -19.5t10.5 -29t5 -30.5t8 -28h-51q-6 12 -8 27.5t-6 29t-12.5 23t-26.5 6.5v-86h-53v222zM1057 8.5q2 -24.5 2 -35.5h12q18 0 26.5 10.5t6.5 22.5t-11.5 21.5t-27.5 7.5 q-10 -2 -8 -26.5zM1065 621q10 12 11 25t1 28v248q0 14 -1 30.5t-11 28.5h127q25 -25 25.5 -59.5t-9.5 -67.5q-4 -8 -15 -29.5t-20.5 -45t-11.5 -45t10 -27.5q-6 12 4.5 13t21.5 -4t14 -14.5t-17 -17.5q-25 -10 -35 9.5t-8 35.5q0 16 6 32.5t8 31t-4 22.5t-28 6v-155 q16 0 41.5 -3.5t44.5 11.5q-6 -14 -8.5 -26.5t-6.5 -26.5h-139zM1098 567h78q-12 -29 2 -65.5t26 -61.5q12 29 22.5 63t0.5 64h80q-23 -12 -27 -38.5t-10 -47.5q-6 -20 -23.5 -47.5t-17.5 -48.5q0 -23 -3 -56.5t13 -52.5h-76q18 18 14.5 54t-3.5 59q-12 23 -21.5 46.5 t-17.5 45.5q-10 23 -14.5 46.5t-22.5 39.5zM1133 866q20 0 45.5 2t27.5 33q0 16 -7 23.5t-18.5 10.5t-24.5 3h-23v-72zM1192 72h53v-224h-53v224zM1245 1296q-4 -10 1 -27.5t22 -2.5q12 12 21 32.5t11 38.5q-2 8 -4 13.5t-12 1.5q-16 -8 -25.5 -23.5t-13.5 -32.5zM1274 -123 q0 14 9 22.5t21.5 8.5t21.5 -8.5t9 -22.5q0 -16 -9 -23.5t-21.5 -7.5t-21.5 7.5t-9 23.5zM1294 1018q-8 -6 4 -8q27 -10 57.5 -13.5t62.5 -3.5h62.5t59.5 -2t57.5 -5t57.5 -13q29 -8 51.5 -23.5t48.5 -27.5q0 61 -21.5 106t-80.5 68q35 31 69.5 58.5t75.5 43.5 q-49 47 -110.5 77t-126.5 46q-2 -57 -3.5 -112.5t-5.5 -112.5l-2 2v-6q-27 -2 -64.5 -4.5t-74.5 -9.5t-68.5 -21.5t-48.5 -38.5zM1364 72h57l68 -152q-4 39 -4 77v75h47v-224h-51q-20 39 -37 79t-35 77q2 -39 2 -78v-78h-47v224zM1393 1362q16 20 31.5 39.5t19.5 46.5h-2 q-37 -37 -49 -86zM1562.5 -63.5q-8.5 36.5 14.5 79.5q12 29 40 43.5t62 14.5h10.5t17.5 -2t16.5 -4t7.5 -5l-9 -40q-27 12 -48 8t-36.5 -18.5t-20.5 -37t3 -47.5q16 -47 61 -41q10 2 8.5 21.5t-1.5 28.5h-27v40h76v-120q-41 -16 -79 -9t-62.5 29.5t-33 59z" />
<glyph unicode="7" d="M35 1018q70 37 137.5 67.5t144.5 53.5q4 0 8.5 20.5t8.5 45t8 48t8 31.5q23 35 68 53.5t78 34.5q88 35 179 61.5t183 51.5q94 23 188.5 39t190.5 24q33 4 80 8.5t95 3.5t92 -12.5t71 -38.5q2 -4 -2 -28.5t-6 -32.5l-6 -98q0 -4 4 -4q78 -23 152.5 -59t123.5 -103v-2 q-16 4 -36.5 -3.5t-41 -20.5t-38 -27.5t-27.5 -26.5q31 -16 50 -47t27.5 -67t6.5 -72.5t-13 -67.5q-16 43 -49.5 66.5t-74.5 35t-85 14.5t-83 5q-45 4 -94.5 2t-92.5 14q-16 6 -22 25.5t-7 43t2 46l5 37.5q-184 -14 -363.5 -56.5t-351.5 -101.5q-8 -2 -8 -6q2 -10 8 -33.5 t10 -50.5t6 -49.5t-6 -28.5q-23 -18 -58.5 -21.5t-64.5 -7.5q-39 -6 -78.5 -12t-78.5 -12q-35 -8 -67 -17.5t-62 -21.5q-14 -8 -28.5 -13.5t-29.5 -15.5q-8 -8 -18 -20.5t-17 -16.5q10 35 24.5 68t27.5 63q2 6 13 25.5t21.5 41t18.5 39t6 21.5q-25 35 -58.5 68t-78.5 37z M86 72h47q4 -41 7 -83t12 -83q4 41 10 83t14 83h37l25 -166q4 41 9 83t9 83h43l-43 -224h-43q-6 37 -11 74t-9 74q-4 -37 -11.5 -74t-13.5 -74h-43zM90 1024q68 -37 109 -109q2 -2 -4.5 -15t-14.5 -28.5t-15 -29t-9 -19.5q-25 -45 -41 -94q51 27 104 39t108.5 20.5t110 15.5 t107.5 23q-18 18 -47 25.5t-62 8.5t-65.5 -2t-55.5 -5v131t4 131q-59 -16 -116.5 -39.5t-112.5 -52.5zM305 72h45q4 -41 8 -83t11 -83q4 41 10 83t14 83h39l23 -166q4 41 9 83t9 83h43l-43 -224h-41q-8 37 -13 74t-9 74q-4 -37 -10.5 -74t-12.5 -74h-45zM342 913 q8 0 22.5 6.5t29 15.5t27.5 18.5t23 13.5q37 16 75 29.5t77 27.5q78 23 155.5 43t159.5 39q78 16 155 31.5t157 21.5q72 8 154.5 11.5t152.5 -29.5q6 55 6 112.5t4 110.5q0 29 2 57.5t6 57.5q2 14 -6 22t-20.5 13.5t-26.5 7.5t-27 4q-119 18 -245.5 0.5t-245.5 -41.5 q-129 -27 -255 -60.5t-249 -87.5q-23 -12 -46.5 -24.5t-43.5 -28.5t-24.5 -49t-8.5 -55q-8 -66 -8 -132.5v-134.5zM367 1030q0 23 15 38t36 19q6 2 15 -2t5 -14q-12 -8 -22 -8q-12 -4 -16.5 -16.5t1.5 -22.5q4 -4 8.5 -5t8.5 -3q20 -2 33.5 11t22.5 33.5t13.5 41t8.5 35.5 q-27 -27 -62 -35q-27 -4 -43 12q-16 8 -16 37q0 27 12 51q27 61 86 98q12 6 25.5 12.5t27.5 10.5q10 4 21.5 12t21.5 11q12 -1 6 -13q12 0 21 -2q16 -2 27.5 -15t13.5 -32q6 -43 -23.5 -83t-66.5 -62q-18 -12 -27.5 -32t-18.5 -39t-20.5 -37.5t-34.5 -29.5q-23 -16 -53 -10 q-12 4 -20 14.5t-6 24.5zM405.5 1141.5q2.5 -15.5 22.5 -15.5q31 0 49.5 19.5t30.5 47.5t18.5 59t10.5 51q-29 -6 -52.5 -23.5t-44.5 -38.5q-6 -6 -15 -25.5t-15.5 -39t-4 -35zM522 72h45q4 -41 9.5 -83t9.5 -83q4 41 10 83t14 83h39l25 -166q2 41 7 83t11 83h41l-41 -224 h-43q-8 37 -12 74t-10 74q-4 -37 -10.5 -74t-12.5 -74h-43zM530 1155q14 4 29.5 19.5t26 35t14.5 40t0 34.5q-6 23 -33 23q-14 -37 -20.5 -75t-16.5 -77zM582 343q2 34 2 60q0 20 -1 39t1 39q0 49 26.5 67.5t73.5 18.5q37 0 54.5 -20.5t23.5 -50t4 -63.5t-2 -60v-80 q0 -47 -26.5 -66.5t-71.5 -17.5q-39 0 -56.5 20.5t-23.5 50t-4 63.5zM628 1157.5q-5 20.5 6 46t31.5 46t43.5 22.5q12 0 16 -10q8 -12 2 -29q-6 -23 -27.5 -40t-44.5 -22q2 -12 10.5 -13t17.5 3t17.5 10.5t12.5 10.5q25 20 36 45.5t21 52.5q2 2 -1 9t-8 15.5t-8 17.5t-1 15 q10 27 34 23q12 0 17 -12q4 -10 2 -22.5t-2 -25.5q20 2 28.5 -1t-4.5 -27q-8 -16 -17 -33.5t-11 -36.5q0 -10 6 -10q20 0 34.5 20.5t26 46t22.5 51t25 33.5q8 2 17 -2q2 -4 2 -12q-4 -12 -10.5 -21.5t-1.5 -23.5q6 -12 13 -25.5t5 -27.5h2q20 25 32.5 60.5t45.5 51.5 q37 14 49 -20q10 -14 6 -25.5t-2 -27.5q8 2 14 10q16 12 18.5 34.5t8.5 41.5q4 4 11 5t12 -1q10 -2 8 -12v-2q10 10 24 16q10 6 17.5 2t11.5 -14q4 -12 1 -22.5t-8 -22t-10 -22.5t-3 -23q14 12 24 26t18.5 29.5t17.5 29t26 23.5q20 10 51 0q4 6 17 8t9 -14q-4 -18 -14 -38.5 t-10 -41.5q0 -14 8 -2q20 20 30.5 48t19.5 55.5t23.5 53t43.5 42.5q14 8 24 -9q12 -23 4 -48t-24 -42q-14 -18 -43 -43.5t-25 -52.5q4 -16 23 -12q14 6 21 19.5t16 25.5q4 2 12 2t8 -10l-4 -13q-16 -39 -53 -53q-25 -14 -43 14q-4 5 -4 11q-10 -8 -16.5 -15.5t-18.5 -11.5 q-10 -4 -16.5 0t-12.5 8q-4 -4 -12 -8t-16 -6q-31 -6 -43 20v2q-8 -10 -17.5 -17t-23.5 -11q-14 -8 -25 12q-6 12 -3 23.5t8 21.5t9 21.5t2 23.5q-18 -8 -25 -19.5t-11.5 -25.5t-6.5 -28.5t-8 -28.5q-6 -16 -24 -8q-8 2 -9 10q0 4 1 9t1 7q-14 -4 -19 -4t-15 -10 t-24.5 -18.5t-31.5 -8.5q-10 2 -16 8.5t-10 14.5q-16 -16 -40 -32.5t-50 -12.5q-16 2 -25 18q-25 -29 -51 -37q-29 -12 -33 21q-4 27 8.5 44t22.5 38q2 4 -3 5t-7 -3q-8 -20 -18.5 -44t-26 -45.5t-36 -34.5t-46.5 -11q-31 2 -36 22.5zM638 367.5q-1 -37.5 1 -74.5 q0 -16 9 -26.5t21.5 -14.5t24 1t15.5 23q2 12 2 27.5v30.5v147q0 16 -10.5 27.5t-22.5 15.5t-23.5 -2t-15.5 -22q-2 -14 -1 -29.5t1 -28.5q0 -37 -1 -74.5zM653 621q12 14 15.5 36.5t2.5 48t-4 49t-3 42.5v125q0 16 1 30.5t-12 28.5h76q-14 -12 -12 -32.5t2 -37.5v-141 q0 -16 -2 -49t10 -47q14 -23 37.5 -8.5t28.5 32.5q8 27 2.5 54.5t-9.5 54.5q-4 14 -10 37.5t-8 48.5t2 46.5t21 33.5q10 10 31.5 10t29.5 -16q6 -16 -2 -21.5t-18.5 -4.5t-17.5 8t1 16q-16 -8 -17 -29t6 -44.5t17 -46t15 -34.5q12 -37 17 -87t-22 -85q-10 -14 -33.5 -19.5 t-50 -5.5t-53 3.5t-41.5 3.5zM655 1192q12 -2 28.5 15.5t18.5 27.5q4 8 -2 12t-12 -2q-10 -10 -18.5 -24.5t-14.5 -28.5zM715 -123q0 14 9 22.5t21.5 8.5t21.5 -8.5t9 -22.5q0 -16 -9 -23.5t-21.5 -7.5t-21.5 7.5t-9 23.5zM776 1329q-2 -8 4 -20h4q0 8 1 13t-1 13 q-6 0 -8 -6zM780 209q10 14 13.5 34.5t2.5 44t-4.5 46t-3.5 39.5v172q0 10 -8 22h58q29 -12 51 -50t35 -66q0 25 2 59.5t-13 56.5h74q-12 -10 -11 -24.5t1 -28.5v-246q0 -14 -1 -31.5t11 -27.5h-207zM797 -152l59 224h64l59 -224h-51l-15 52h-53l-10 -52h-53zM844 252 q0 -14 11 -23.5t25.5 -11.5t28 3.5t15.5 19.5q-4 63 -21.5 127.5t-58.5 115.5v-231zM865 711.5q-3 19.5 7 31.5t33 13.5t27 -21.5q0 -10 -7 -15t-15.5 -5t-14.5 4t-6 14q-12 -4 -12 -14t7 -20.5t17 -19.5t17 -11q14 -4 34.5 -4t30.5 10q20 20 16 40.5t-19 38t-35.5 32 t-31.5 24.5q-18 16 -30.5 42t-12.5 52.5t13.5 48t44.5 27.5q27 6 54.5 4t51.5 -2l-6 -10q0 -14 7 -29.5t13.5 -31t5.5 -30t-16 -26.5q-14 -10 -33.5 -9t-21.5 21q0 12 7 17.5t15.5 5.5t14.5 -5t4 -14q14 2 14 12.5t-8 21.5t-18.5 20.5t-18.5 11.5q-14 4 -32.5 1t-24.5 -19 q-12 -25 -4 -43.5t24.5 -33t37 -27.5t32.5 -28q14 -20 22.5 -46.5t4.5 -52t-20.5 -44t-47.5 -22.5q-27 -2 -53.5 -1t-54.5 1q8 4 5 19t-8.5 33.5t-8.5 38zM866 -61h41q-4 23 -9 46t-11 46zM874 1219q4 -12 16.5 -10.5t14.5 14.5q2 18 -10 43q-6 -8 -14.5 -22.5t-6.5 -24.5z M991 1264l4 -15q10 -14 25 -6q16 4 23.5 21.5t3.5 33.5q-2 10 -9.5 16.5t-21.5 -3.5q-20 -14 -25 -47zM997 209q12 14 15.5 36.5t2.5 47t-4 48.5t-3 40v127q0 16 1 29.5t-12 29.5h76q-10 -10 -13 -30.5t-2 -42t3 -43t2 -35.5v-166h104q23 0 55.5 -3t55.5 13q-4 -8 -7 -29.5 t-14 -21.5h-260zM1006 70q29 4 64.5 6t62.5 -15q31 -23 22.5 -57.5t-37.5 -48.5q14 -6 21.5 -19.5t10.5 -29t5 -30.5t8 -28h-51q-6 12 -8 27.5t-6 29t-12.5 23t-26.5 6.5v-86h-53v222zM1057 8.5q2 -24.5 2 -35.5h12q18 0 26.5 10.5t6.5 22.5t-11.5 21.5t-27.5 7.5 q-10 -2 -8 -26.5zM1065 621q10 12 11 25t1 28v248q0 14 -1 30.5t-11 28.5h127q25 -25 25.5 -59.5t-9.5 -67.5q-4 -8 -15 -29.5t-20.5 -45t-11.5 -45t10 -27.5q-6 12 4.5 13t21.5 -4t14 -14.5t-17 -17.5q-25 -10 -35 9.5t-8 35.5q0 16 6 32.5t8 31t-4 22.5t-28 6v-155 q16 0 41.5 -3.5t44.5 11.5q-6 -14 -8.5 -26.5t-6.5 -26.5h-139zM1098 567h78q-12 -29 2 -65.5t26 -61.5q12 29 22.5 63t0.5 64h80q-23 -12 -27 -38.5t-10 -47.5q-6 -20 -23.5 -47.5t-17.5 -48.5q0 -23 -3 -56.5t13 -52.5h-76q18 18 14.5 54t-3.5 59q-12 23 -21.5 46.5 t-17.5 45.5q-10 23 -14.5 46.5t-22.5 39.5zM1133 866q20 0 45.5 2t27.5 33q0 16 -7 23.5t-18.5 10.5t-24.5 3h-23v-72zM1192 72h53v-224h-53v224zM1245 1296q-4 -10 1 -27.5t22 -2.5q12 12 21 32.5t11 38.5q-2 8 -4 13.5t-12 1.5q-16 -8 -25.5 -23.5t-13.5 -32.5zM1274 -123 q0 14 9 22.5t21.5 8.5t21.5 -8.5t9 -22.5q0 -16 -9 -23.5t-21.5 -7.5t-21.5 7.5t-9 23.5zM1294 1018q-8 -6 4 -8q27 -10 57.5 -13.5t62.5 -3.5h62.5t59.5 -2t57.5 -5t57.5 -13q29 -8 51.5 -23.5t48.5 -27.5q0 61 -21.5 106t-80.5 68q35 31 69.5 58.5t75.5 43.5 q-49 47 -110.5 77t-126.5 46q-2 -57 -3.5 -112.5t-5.5 -112.5l-2 2v-6q-27 -2 -64.5 -4.5t-74.5 -9.5t-68.5 -21.5t-48.5 -38.5zM1364 72h57l68 -152q-4 39 -4 77v75h47v-224h-51q-20 39 -37 79t-35 77q2 -39 2 -78v-78h-47v224zM1393 1362q16 20 31.5 39.5t19.5 46.5h-2 q-37 -37 -49 -86zM1562.5 -63.5q-8.5 36.5 14.5 79.5q12 29 40 43.5t62 14.5h10.5t17.5 -2t16.5 -4t7.5 -5l-9 -40q-27 12 -48 8t-36.5 -18.5t-20.5 -37t3 -47.5q16 -47 61 -41q10 2 8.5 21.5t-1.5 28.5h-27v40h76v-120q-41 -16 -79 -9t-62.5 29.5t-33 59z" />
<glyph unicode="8" d="M35 1018q70 37 137.5 67.5t144.5 53.5q4 0 8.5 20.5t8.5 45t8 48t8 31.5q23 35 68 53.5t78 34.5q88 35 179 61.5t183 51.5q94 23 188.5 39t190.5 24q33 4 80 8.5t95 3.5t92 -12.5t71 -38.5q2 -4 -2 -28.5t-6 -32.5l-6 -98q0 -4 4 -4q78 -23 152.5 -59t123.5 -103v-2 q-16 4 -36.5 -3.5t-41 -20.5t-38 -27.5t-27.5 -26.5q31 -16 50 -47t27.5 -67t6.5 -72.5t-13 -67.5q-16 43 -49.5 66.5t-74.5 35t-85 14.5t-83 5q-45 4 -94.5 2t-92.5 14q-16 6 -22 25.5t-7 43t2 46l5 37.5q-184 -14 -363.5 -56.5t-351.5 -101.5q-8 -2 -8 -6q2 -10 8 -33.5 t10 -50.5t6 -49.5t-6 -28.5q-23 -18 -58.5 -21.5t-64.5 -7.5q-39 -6 -78.5 -12t-78.5 -12q-35 -8 -67 -17.5t-62 -21.5q-14 -8 -28.5 -13.5t-29.5 -15.5q-8 -8 -18 -20.5t-17 -16.5q10 35 24.5 68t27.5 63q2 6 13 25.5t21.5 41t18.5 39t6 21.5q-25 35 -58.5 68t-78.5 37z M86 72h47q4 -41 7 -83t12 -83q4 41 10 83t14 83h37l25 -166q4 41 9 83t9 83h43l-43 -224h-43q-6 37 -11 74t-9 74q-4 -37 -11.5 -74t-13.5 -74h-43zM90 1024q68 -37 109 -109q2 -2 -4.5 -15t-14.5 -28.5t-15 -29t-9 -19.5q-25 -45 -41 -94q51 27 104 39t108.5 20.5t110 15.5 t107.5 23q-18 18 -47 25.5t-62 8.5t-65.5 -2t-55.5 -5v131t4 131q-59 -16 -116.5 -39.5t-112.5 -52.5zM305 72h45q4 -41 8 -83t11 -83q4 41 10 83t14 83h39l23 -166q4 41 9 83t9 83h43l-43 -224h-41q-8 37 -13 74t-9 74q-4 -37 -10.5 -74t-12.5 -74h-45zM342 913 q8 0 22.5 6.5t29 15.5t27.5 18.5t23 13.5q37 16 75 29.5t77 27.5q78 23 155.5 43t159.5 39q78 16 155 31.5t157 21.5q72 8 154.5 11.5t152.5 -29.5q6 55 6 112.5t4 110.5q0 29 2 57.5t6 57.5q2 14 -6 22t-20.5 13.5t-26.5 7.5t-27 4q-119 18 -245.5 0.5t-245.5 -41.5 q-129 -27 -255 -60.5t-249 -87.5q-23 -12 -46.5 -24.5t-43.5 -28.5t-24.5 -49t-8.5 -55q-8 -66 -8 -132.5v-134.5zM367 1030q0 23 15 38t36 19q6 2 15 -2t5 -14q-12 -8 -22 -8q-12 -4 -16.5 -16.5t1.5 -22.5q4 -4 8.5 -5t8.5 -3q20 -2 33.5 11t22.5 33.5t13.5 41t8.5 35.5 q-27 -27 -62 -35q-27 -4 -43 12q-16 8 -16 37q0 27 12 51q27 61 86 98q12 6 25.5 12.5t27.5 10.5q10 4 21.5 12t21.5 11q12 -1 6 -13q12 0 21 -2q16 -2 27.5 -15t13.5 -32q6 -43 -23.5 -83t-66.5 -62q-18 -12 -27.5 -32t-18.5 -39t-20.5 -37.5t-34.5 -29.5q-23 -16 -53 -10 q-12 4 -20 14.5t-6 24.5zM405.5 1141.5q2.5 -15.5 22.5 -15.5q31 0 49.5 19.5t30.5 47.5t18.5 59t10.5 51q-29 -6 -52.5 -23.5t-44.5 -38.5q-6 -6 -15 -25.5t-15.5 -39t-4 -35zM522 72h45q4 -41 9.5 -83t9.5 -83q4 41 10 83t14 83h39l25 -166q2 41 7 83t11 83h41l-41 -224 h-43q-8 37 -12 74t-10 74q-4 -37 -10.5 -74t-12.5 -74h-43zM530 1155q14 4 29.5 19.5t26 35t14.5 40t0 34.5q-6 23 -33 23q-14 -37 -20.5 -75t-16.5 -77zM582 343q2 34 2 60q0 20 -1 39t1 39q0 49 26.5 67.5t73.5 18.5q37 0 54.5 -20.5t23.5 -50t4 -63.5t-2 -60v-80 q0 -47 -26.5 -66.5t-71.5 -17.5q-39 0 -56.5 20.5t-23.5 50t-4 63.5zM628 1157.5q-5 20.5 6 46t31.5 46t43.5 22.5q12 0 16 -10q8 -12 2 -29q-6 -23 -27.5 -40t-44.5 -22q2 -12 10.5 -13t17.5 3t17.5 10.5t12.5 10.5q25 20 36 45.5t21 52.5q2 2 -1 9t-8 15.5t-8 17.5t-1 15 q10 27 34 23q12 0 17 -12q4 -10 2 -22.5t-2 -25.5q20 2 28.5 -1t-4.5 -27q-8 -16 -17 -33.5t-11 -36.5q0 -10 6 -10q20 0 34.5 20.5t26 46t22.5 51t25 33.5q8 2 17 -2q2 -4 2 -12q-4 -12 -10.5 -21.5t-1.5 -23.5q6 -12 13 -25.5t5 -27.5h2q20 25 32.5 60.5t45.5 51.5 q37 14 49 -20q10 -14 6 -25.5t-2 -27.5q8 2 14 10q16 12 18.5 34.5t8.5 41.5q4 4 11 5t12 -1q10 -2 8 -12v-2q10 10 24 16q10 6 17.5 2t11.5 -14q4 -12 1 -22.5t-8 -22t-10 -22.5t-3 -23q14 12 24 26t18.5 29.5t17.5 29t26 23.5q20 10 51 0q4 6 17 8t9 -14q-4 -18 -14 -38.5 t-10 -41.5q0 -14 8 -2q20 20 30.5 48t19.5 55.5t23.5 53t43.5 42.5q14 8 24 -9q12 -23 4 -48t-24 -42q-14 -18 -43 -43.5t-25 -52.5q4 -16 23 -12q14 6 21 19.5t16 25.5q4 2 12 2t8 -10l-4 -13q-16 -39 -53 -53q-25 -14 -43 14q-4 5 -4 11q-10 -8 -16.5 -15.5t-18.5 -11.5 q-10 -4 -16.5 0t-12.5 8q-4 -4 -12 -8t-16 -6q-31 -6 -43 20v2q-8 -10 -17.5 -17t-23.5 -11q-14 -8 -25 12q-6 12 -3 23.5t8 21.5t9 21.5t2 23.5q-18 -8 -25 -19.5t-11.5 -25.5t-6.5 -28.5t-8 -28.5q-6 -16 -24 -8q-8 2 -9 10q0 4 1 9t1 7q-14 -4 -19 -4t-15 -10 t-24.5 -18.5t-31.5 -8.5q-10 2 -16 8.5t-10 14.5q-16 -16 -40 -32.5t-50 -12.5q-16 2 -25 18q-25 -29 -51 -37q-29 -12 -33 21q-4 27 8.5 44t22.5 38q2 4 -3 5t-7 -3q-8 -20 -18.5 -44t-26 -45.5t-36 -34.5t-46.5 -11q-31 2 -36 22.5zM638 367.5q-1 -37.5 1 -74.5 q0 -16 9 -26.5t21.5 -14.5t24 1t15.5 23q2 12 2 27.5v30.5v147q0 16 -10.5 27.5t-22.5 15.5t-23.5 -2t-15.5 -22q-2 -14 -1 -29.5t1 -28.5q0 -37 -1 -74.5zM653 621q12 14 15.5 36.5t2.5 48t-4 49t-3 42.5v125q0 16 1 30.5t-12 28.5h76q-14 -12 -12 -32.5t2 -37.5v-141 q0 -16 -2 -49t10 -47q14 -23 37.5 -8.5t28.5 32.5q8 27 2.5 54.5t-9.5 54.5q-4 14 -10 37.5t-8 48.5t2 46.5t21 33.5q10 10 31.5 10t29.5 -16q6 -16 -2 -21.5t-18.5 -4.5t-17.5 8t1 16q-16 -8 -17 -29t6 -44.5t17 -46t15 -34.5q12 -37 17 -87t-22 -85q-10 -14 -33.5 -19.5 t-50 -5.5t-53 3.5t-41.5 3.5zM655 1192q12 -2 28.5 15.5t18.5 27.5q4 8 -2 12t-12 -2q-10 -10 -18.5 -24.5t-14.5 -28.5zM715 -123q0 14 9 22.5t21.5 8.5t21.5 -8.5t9 -22.5q0 -16 -9 -23.5t-21.5 -7.5t-21.5 7.5t-9 23.5zM776 1329q-2 -8 4 -20h4q0 8 1 13t-1 13 q-6 0 -8 -6zM780 209q10 14 13.5 34.5t2.5 44t-4.5 46t-3.5 39.5v172q0 10 -8 22h58q29 -12 51 -50t35 -66q0 25 2 59.5t-13 56.5h74q-12 -10 -11 -24.5t1 -28.5v-246q0 -14 -1 -31.5t11 -27.5h-207zM797 -152l59 224h64l59 -224h-51l-15 52h-53l-10 -52h-53zM844 252 q0 -14 11 -23.5t25.5 -11.5t28 3.5t15.5 19.5q-4 63 -21.5 127.5t-58.5 115.5v-231zM865 711.5q-3 19.5 7 31.5t33 13.5t27 -21.5q0 -10 -7 -15t-15.5 -5t-14.5 4t-6 14q-12 -4 -12 -14t7 -20.5t17 -19.5t17 -11q14 -4 34.5 -4t30.5 10q20 20 16 40.5t-19 38t-35.5 32 t-31.5 24.5q-18 16 -30.5 42t-12.5 52.5t13.5 48t44.5 27.5q27 6 54.5 4t51.5 -2l-6 -10q0 -14 7 -29.5t13.5 -31t5.5 -30t-16 -26.5q-14 -10 -33.5 -9t-21.5 21q0 12 7 17.5t15.5 5.5t14.5 -5t4 -14q14 2 14 12.5t-8 21.5t-18.5 20.5t-18.5 11.5q-14 4 -32.5 1t-24.5 -19 q-12 -25 -4 -43.5t24.5 -33t37 -27.5t32.5 -28q14 -20 22.5 -46.5t4.5 -52t-20.5 -44t-47.5 -22.5q-27 -2 -53.5 -1t-54.5 1q8 4 5 19t-8.5 33.5t-8.5 38zM866 -61h41q-4 23 -9 46t-11 46zM874 1219q4 -12 16.5 -10.5t14.5 14.5q2 18 -10 43q-6 -8 -14.5 -22.5t-6.5 -24.5z M991 1264l4 -15q10 -14 25 -6q16 4 23.5 21.5t3.5 33.5q-2 10 -9.5 16.5t-21.5 -3.5q-20 -14 -25 -47zM997 209q12 14 15.5 36.5t2.5 47t-4 48.5t-3 40v127q0 16 1 29.5t-12 29.5h76q-10 -10 -13 -30.5t-2 -42t3 -43t2 -35.5v-166h104q23 0 55.5 -3t55.5 13q-4 -8 -7 -29.5 t-14 -21.5h-260zM1006 70q29 4 64.5 6t62.5 -15q31 -23 22.5 -57.5t-37.5 -48.5q14 -6 21.5 -19.5t10.5 -29t5 -30.5t8 -28h-51q-6 12 -8 27.5t-6 29t-12.5 23t-26.5 6.5v-86h-53v222zM1057 8.5q2 -24.5 2 -35.5h12q18 0 26.5 10.5t6.5 22.5t-11.5 21.5t-27.5 7.5 q-10 -2 -8 -26.5zM1065 621q10 12 11 25t1 28v248q0 14 -1 30.5t-11 28.5h127q25 -25 25.5 -59.5t-9.5 -67.5q-4 -8 -15 -29.5t-20.5 -45t-11.5 -45t10 -27.5q-6 12 4.5 13t21.5 -4t14 -14.5t-17 -17.5q-25 -10 -35 9.5t-8 35.5q0 16 6 32.5t8 31t-4 22.5t-28 6v-155 q16 0 41.5 -3.5t44.5 11.5q-6 -14 -8.5 -26.5t-6.5 -26.5h-139zM1098 567h78q-12 -29 2 -65.5t26 -61.5q12 29 22.5 63t0.5 64h80q-23 -12 -27 -38.5t-10 -47.5q-6 -20 -23.5 -47.5t-17.5 -48.5q0 -23 -3 -56.5t13 -52.5h-76q18 18 14.5 54t-3.5 59q-12 23 -21.5 46.5 t-17.5 45.5q-10 23 -14.5 46.5t-22.5 39.5zM1133 866q20 0 45.5 2t27.5 33q0 16 -7 23.5t-18.5 10.5t-24.5 3h-23v-72zM1192 72h53v-224h-53v224zM1245 1296q-4 -10 1 -27.5t22 -2.5q12 12 21 32.5t11 38.5q-2 8 -4 13.5t-12 1.5q-16 -8 -25.5 -23.5t-13.5 -32.5zM1274 -123 q0 14 9 22.5t21.5 8.5t21.5 -8.5t9 -22.5q0 -16 -9 -23.5t-21.5 -7.5t-21.5 7.5t-9 23.5zM1294 1018q-8 -6 4 -8q27 -10 57.5 -13.5t62.5 -3.5h62.5t59.5 -2t57.5 -5t57.5 -13q29 -8 51.5 -23.5t48.5 -27.5q0 61 -21.5 106t-80.5 68q35 31 69.5 58.5t75.5 43.5 q-49 47 -110.5 77t-126.5 46q-2 -57 -3.5 -112.5t-5.5 -112.5l-2 2v-6q-27 -2 -64.5 -4.5t-74.5 -9.5t-68.5 -21.5t-48.5 -38.5zM1364 72h57l68 -152q-4 39 -4 77v75h47v-224h-51q-20 39 -37 79t-35 77q2 -39 2 -78v-78h-47v224zM1393 1362q16 20 31.5 39.5t19.5 46.5h-2 q-37 -37 -49 -86zM1562.5 -63.5q-8.5 36.5 14.5 79.5q12 29 40 43.5t62 14.5h10.5t17.5 -2t16.5 -4t7.5 -5l-9 -40q-27 12 -48 8t-36.5 -18.5t-20.5 -37t3 -47.5q16 -47 61 -41q10 2 8.5 21.5t-1.5 28.5h-27v40h76v-120q-41 -16 -79 -9t-62.5 29.5t-33 59z" />
<glyph unicode="9" d="M35 1018q70 37 137.5 67.5t144.5 53.5q4 0 8.5 20.5t8.5 45t8 48t8 31.5q23 35 68 53.5t78 34.5q88 35 179 61.5t183 51.5q94 23 188.5 39t190.5 24q33 4 80 8.5t95 3.5t92 -12.5t71 -38.5q2 -4 -2 -28.5t-6 -32.5l-6 -98q0 -4 4 -4q78 -23 152.5 -59t123.5 -103v-2 q-16 4 -36.5 -3.5t-41 -20.5t-38 -27.5t-27.5 -26.5q31 -16 50 -47t27.5 -67t6.5 -72.5t-13 -67.5q-16 43 -49.5 66.5t-74.5 35t-85 14.5t-83 5q-45 4 -94.5 2t-92.5 14q-16 6 -22 25.5t-7 43t2 46l5 37.5q-184 -14 -363.5 -56.5t-351.5 -101.5q-8 -2 -8 -6q2 -10 8 -33.5 t10 -50.5t6 -49.5t-6 -28.5q-23 -18 -58.5 -21.5t-64.5 -7.5q-39 -6 -78.5 -12t-78.5 -12q-35 -8 -67 -17.5t-62 -21.5q-14 -8 -28.5 -13.5t-29.5 -15.5q-8 -8 -18 -20.5t-17 -16.5q10 35 24.5 68t27.5 63q2 6 13 25.5t21.5 41t18.5 39t6 21.5q-25 35 -58.5 68t-78.5 37z M86 72h47q4 -41 7 -83t12 -83q4 41 10 83t14 83h37l25 -166q4 41 9 83t9 83h43l-43 -224h-43q-6 37 -11 74t-9 74q-4 -37 -11.5 -74t-13.5 -74h-43zM90 1024q68 -37 109 -109q2 -2 -4.5 -15t-14.5 -28.5t-15 -29t-9 -19.5q-25 -45 -41 -94q51 27 104 39t108.5 20.5t110 15.5 t107.5 23q-18 18 -47 25.5t-62 8.5t-65.5 -2t-55.5 -5v131t4 131q-59 -16 -116.5 -39.5t-112.5 -52.5zM305 72h45q4 -41 8 -83t11 -83q4 41 10 83t14 83h39l23 -166q4 41 9 83t9 83h43l-43 -224h-41q-8 37 -13 74t-9 74q-4 -37 -10.5 -74t-12.5 -74h-45zM342 913 q8 0 22.5 6.5t29 15.5t27.5 18.5t23 13.5q37 16 75 29.5t77 27.5q78 23 155.5 43t159.5 39q78 16 155 31.5t157 21.5q72 8 154.5 11.5t152.5 -29.5q6 55 6 112.5t4 110.5q0 29 2 57.5t6 57.5q2 14 -6 22t-20.5 13.5t-26.5 7.5t-27 4q-119 18 -245.5 0.5t-245.5 -41.5 q-129 -27 -255 -60.5t-249 -87.5q-23 -12 -46.5 -24.5t-43.5 -28.5t-24.5 -49t-8.5 -55q-8 -66 -8 -132.5v-134.5zM367 1030q0 23 15 38t36 19q6 2 15 -2t5 -14q-12 -8 -22 -8q-12 -4 -16.5 -16.5t1.5 -22.5q4 -4 8.5 -5t8.5 -3q20 -2 33.5 11t22.5 33.5t13.5 41t8.5 35.5 q-27 -27 -62 -35q-27 -4 -43 12q-16 8 -16 37q0 27 12 51q27 61 86 98q12 6 25.5 12.5t27.5 10.5q10 4 21.5 12t21.5 11q12 -1 6 -13q12 0 21 -2q16 -2 27.5 -15t13.5 -32q6 -43 -23.5 -83t-66.5 -62q-18 -12 -27.5 -32t-18.5 -39t-20.5 -37.5t-34.5 -29.5q-23 -16 -53 -10 q-12 4 -20 14.5t-6 24.5zM405.5 1141.5q2.5 -15.5 22.5 -15.5q31 0 49.5 19.5t30.5 47.5t18.5 59t10.5 51q-29 -6 -52.5 -23.5t-44.5 -38.5q-6 -6 -15 -25.5t-15.5 -39t-4 -35zM522 72h45q4 -41 9.5 -83t9.5 -83q4 41 10 83t14 83h39l25 -166q2 41 7 83t11 83h41l-41 -224 h-43q-8 37 -12 74t-10 74q-4 -37 -10.5 -74t-12.5 -74h-43zM530 1155q14 4 29.5 19.5t26 35t14.5 40t0 34.5q-6 23 -33 23q-14 -37 -20.5 -75t-16.5 -77zM582 343q2 34 2 60q0 20 -1 39t1 39q0 49 26.5 67.5t73.5 18.5q37 0 54.5 -20.5t23.5 -50t4 -63.5t-2 -60v-80 q0 -47 -26.5 -66.5t-71.5 -17.5q-39 0 -56.5 20.5t-23.5 50t-4 63.5zM628 1157.5q-5 20.5 6 46t31.5 46t43.5 22.5q12 0 16 -10q8 -12 2 -29q-6 -23 -27.5 -40t-44.5 -22q2 -12 10.5 -13t17.5 3t17.5 10.5t12.5 10.5q25 20 36 45.5t21 52.5q2 2 -1 9t-8 15.5t-8 17.5t-1 15 q10 27 34 23q12 0 17 -12q4 -10 2 -22.5t-2 -25.5q20 2 28.5 -1t-4.5 -27q-8 -16 -17 -33.5t-11 -36.5q0 -10 6 -10q20 0 34.5 20.5t26 46t22.5 51t25 33.5q8 2 17 -2q2 -4 2 -12q-4 -12 -10.5 -21.5t-1.5 -23.5q6 -12 13 -25.5t5 -27.5h2q20 25 32.5 60.5t45.5 51.5 q37 14 49 -20q10 -14 6 -25.5t-2 -27.5q8 2 14 10q16 12 18.5 34.5t8.5 41.5q4 4 11 5t12 -1q10 -2 8 -12v-2q10 10 24 16q10 6 17.5 2t11.5 -14q4 -12 1 -22.5t-8 -22t-10 -22.5t-3 -23q14 12 24 26t18.5 29.5t17.5 29t26 23.5q20 10 51 0q4 6 17 8t9 -14q-4 -18 -14 -38.5 t-10 -41.5q0 -14 8 -2q20 20 30.5 48t19.5 55.5t23.5 53t43.5 42.5q14 8 24 -9q12 -23 4 -48t-24 -42q-14 -18 -43 -43.5t-25 -52.5q4 -16 23 -12q14 6 21 19.5t16 25.5q4 2 12 2t8 -10l-4 -13q-16 -39 -53 -53q-25 -14 -43 14q-4 5 -4 11q-10 -8 -16.5 -15.5t-18.5 -11.5 q-10 -4 -16.5 0t-12.5 8q-4 -4 -12 -8t-16 -6q-31 -6 -43 20v2q-8 -10 -17.5 -17t-23.5 -11q-14 -8 -25 12q-6 12 -3 23.5t8 21.5t9 21.5t2 23.5q-18 -8 -25 -19.5t-11.5 -25.5t-6.5 -28.5t-8 -28.5q-6 -16 -24 -8q-8 2 -9 10q0 4 1 9t1 7q-14 -4 -19 -4t-15 -10 t-24.5 -18.5t-31.5 -8.5q-10 2 -16 8.5t-10 14.5q-16 -16 -40 -32.5t-50 -12.5q-16 2 -25 18q-25 -29 -51 -37q-29 -12 -33 21q-4 27 8.5 44t22.5 38q2 4 -3 5t-7 -3q-8 -20 -18.5 -44t-26 -45.5t-36 -34.5t-46.5 -11q-31 2 -36 22.5zM638 367.5q-1 -37.5 1 -74.5 q0 -16 9 -26.5t21.5 -14.5t24 1t15.5 23q2 12 2 27.5v30.5v147q0 16 -10.5 27.5t-22.5 15.5t-23.5 -2t-15.5 -22q-2 -14 -1 -29.5t1 -28.5q0 -37 -1 -74.5zM653 621q12 14 15.5 36.5t2.5 48t-4 49t-3 42.5v125q0 16 1 30.5t-12 28.5h76q-14 -12 -12 -32.5t2 -37.5v-141 q0 -16 -2 -49t10 -47q14 -23 37.5 -8.5t28.5 32.5q8 27 2.5 54.5t-9.5 54.5q-4 14 -10 37.5t-8 48.5t2 46.5t21 33.5q10 10 31.5 10t29.5 -16q6 -16 -2 -21.5t-18.5 -4.5t-17.5 8t1 16q-16 -8 -17 -29t6 -44.5t17 -46t15 -34.5q12 -37 17 -87t-22 -85q-10 -14 -33.5 -19.5 t-50 -5.5t-53 3.5t-41.5 3.5zM655 1192q12 -2 28.5 15.5t18.5 27.5q4 8 -2 12t-12 -2q-10 -10 -18.5 -24.5t-14.5 -28.5zM715 -123q0 14 9 22.5t21.5 8.5t21.5 -8.5t9 -22.5q0 -16 -9 -23.5t-21.5 -7.5t-21.5 7.5t-9 23.5zM776 1329q-2 -8 4 -20h4q0 8 1 13t-1 13 q-6 0 -8 -6zM780 209q10 14 13.5 34.5t2.5 44t-4.5 46t-3.5 39.5v172q0 10 -8 22h58q29 -12 51 -50t35 -66q0 25 2 59.5t-13 56.5h74q-12 -10 -11 -24.5t1 -28.5v-246q0 -14 -1 -31.5t11 -27.5h-207zM797 -152l59 224h64l59 -224h-51l-15 52h-53l-10 -52h-53zM844 252 q0 -14 11 -23.5t25.5 -11.5t28 3.5t15.5 19.5q-4 63 -21.5 127.5t-58.5 115.5v-231zM865 711.5q-3 19.5 7 31.5t33 13.5t27 -21.5q0 -10 -7 -15t-15.5 -5t-14.5 4t-6 14q-12 -4 -12 -14t7 -20.5t17 -19.5t17 -11q14 -4 34.5 -4t30.5 10q20 20 16 40.5t-19 38t-35.5 32 t-31.5 24.5q-18 16 -30.5 42t-12.5 52.5t13.5 48t44.5 27.5q27 6 54.5 4t51.5 -2l-6 -10q0 -14 7 -29.5t13.5 -31t5.5 -30t-16 -26.5q-14 -10 -33.5 -9t-21.5 21q0 12 7 17.5t15.5 5.5t14.5 -5t4 -14q14 2 14 12.5t-8 21.5t-18.5 20.5t-18.5 11.5q-14 4 -32.5 1t-24.5 -19 q-12 -25 -4 -43.5t24.5 -33t37 -27.5t32.5 -28q14 -20 22.5 -46.5t4.5 -52t-20.5 -44t-47.5 -22.5q-27 -2 -53.5 -1t-54.5 1q8 4 5 19t-8.5 33.5t-8.5 38zM866 -61h41q-4 23 -9 46t-11 46zM874 1219q4 -12 16.5 -10.5t14.5 14.5q2 18 -10 43q-6 -8 -14.5 -22.5t-6.5 -24.5z M991 1264l4 -15q10 -14 25 -6q16 4 23.5 21.5t3.5 33.5q-2 10 -9.5 16.5t-21.5 -3.5q-20 -14 -25 -47zM997 209q12 14 15.5 36.5t2.5 47t-4 48.5t-3 40v127q0 16 1 29.5t-12 29.5h76q-10 -10 -13 -30.5t-2 -42t3 -43t2 -35.5v-166h104q23 0 55.5 -3t55.5 13q-4 -8 -7 -29.5 t-14 -21.5h-260zM1006 70q29 4 64.5 6t62.5 -15q31 -23 22.5 -57.5t-37.5 -48.5q14 -6 21.5 -19.5t10.5 -29t5 -30.5t8 -28h-51q-6 12 -8 27.5t-6 29t-12.5 23t-26.5 6.5v-86h-53v222zM1057 8.5q2 -24.5 2 -35.5h12q18 0 26.5 10.5t6.5 22.5t-11.5 21.5t-27.5 7.5 q-10 -2 -8 -26.5zM1065 621q10 12 11 25t1 28v248q0 14 -1 30.5t-11 28.5h127q25 -25 25.5 -59.5t-9.5 -67.5q-4 -8 -15 -29.5t-20.5 -45t-11.5 -45t10 -27.5q-6 12 4.5 13t21.5 -4t14 -14.5t-17 -17.5q-25 -10 -35 9.5t-8 35.5q0 16 6 32.5t8 31t-4 22.5t-28 6v-155 q16 0 41.5 -3.5t44.5 11.5q-6 -14 -8.5 -26.5t-6.5 -26.5h-139zM1098 567h78q-12 -29 2 -65.5t26 -61.5q12 29 22.5 63t0.5 64h80q-23 -12 -27 -38.5t-10 -47.5q-6 -20 -23.5 -47.5t-17.5 -48.5q0 -23 -3 -56.5t13 -52.5h-76q18 18 14.5 54t-3.5 59q-12 23 -21.5 46.5 t-17.5 45.5q-10 23 -14.5 46.5t-22.5 39.5zM1133 866q20 0 45.5 2t27.5 33q0 16 -7 23.5t-18.5 10.5t-24.5 3h-23v-72zM1192 72h53v-224h-53v224zM1245 1296q-4 -10 1 -27.5t22 -2.5q12 12 21 32.5t11 38.5q-2 8 -4 13.5t-12 1.5q-16 -8 -25.5 -23.5t-13.5 -32.5zM1274 -123 q0 14 9 22.5t21.5 8.5t21.5 -8.5t9 -22.5q0 -16 -9 -23.5t-21.5 -7.5t-21.5 7.5t-9 23.5zM1294 1018q-8 -6 4 -8q27 -10 57.5 -13.5t62.5 -3.5h62.5t59.5 -2t57.5 -5t57.5 -13q29 -8 51.5 -23.5t48.5 -27.5q0 61 -21.5 106t-80.5 68q35 31 69.5 58.5t75.5 43.5 q-49 47 -110.5 77t-126.5 46q-2 -57 -3.5 -112.5t-5.5 -112.5l-2 2v-6q-27 -2 -64.5 -4.5t-74.5 -9.5t-68.5 -21.5t-48.5 -38.5zM1364 72h57l68 -152q-4 39 -4 77v75h47v-224h-51q-20 39 -37 79t-35 77q2 -39 2 -78v-78h-47v224zM1393 1362q16 20 31.5 39.5t19.5 46.5h-2 q-37 -37 -49 -86zM1562.5 -63.5q-8.5 36.5 14.5 79.5q12 29 40 43.5t62 14.5h10.5t17.5 -2t16.5 -4t7.5 -5l-9 -40q-27 12 -48 8t-36.5 -18.5t-20.5 -37t3 -47.5q16 -47 61 -41q10 2 8.5 21.5t-1.5 28.5h-27v40h76v-120q-41 -16 -79 -9t-62.5 29.5t-33 59z" />
<glyph unicode=":" horiz-adv-x="452" d="M49 152q0 53 37 90t90 37t90 -37t37 -90t-37 -90t-90 -37t-90 37t-37 90zM193 561q0 53 36.5 90t89.5 37t90 -37t37 -90t-36.5 -90t-90.5 -37q-53 0 -89.5 37t-36.5 90z" />
<glyph unicode=";" horiz-adv-x="452" d="M-19 -80.5q1 17.5 13 33.5q35 45 44 74.5t10 55.5t0 51.5t13 60.5q20 57 67.5 77.5t91.5 9t70.5 -52.5t6.5 -106q-14 -47 -41 -84t-57.5 -65.5t-61.5 -49t-55 -33.5q-35 -16 -57.5 -14t-33.5 13.5t-10 29zM193 561q0 53 36.5 90t89.5 37t90 -37t37 -90t-36.5 -90 t-90.5 -37q-53 0 -89.5 37t-36.5 90z" />
<glyph unicode="&#x3c;" horiz-adv-x="645" d="M141 338q-12 59 7.5 113.5t60.5 83.5q27 18 66.5 40.5t82.5 43t84 37t68 24.5q43 12 63.5 -16.5t19.5 -70.5t-20.5 -82t-54.5 -50q-23 -8 -57.5 -16.5t-72.5 -16.5t-72.5 -16.5t-53.5 -16.5q6 -23 27.5 -41t47 -35.5t50.5 -35.5t39 -41q14 -27 7 -64t-27.5 -64.5 t-45 -37.5t-43.5 18q-12 20 -38.5 50t-55 63t-52.5 66.5t-30 64.5z" />
<glyph unicode="=" horiz-adv-x="755" d="M12 233.5q-4 24.5 12.5 54t50.5 54.5t77 25h423q43 0 52.5 -25t-6 -55.5t-51 -55t-83.5 -24.5h-51h-83t-96 1t-93 1h-74h-39q-35 0 -39 24.5zM135 458.5q-4 24.5 12.5 54.5t50 54.5t76.5 24.5h424q43 0 52.5 -24.5t-6 -55.5t-51.5 -55.5t-83 -24.5h-51h-83t-96 1t-93 1 h-74h-39q-35 0 -39 24.5z" />
<glyph unicode="&#x3e;" horiz-adv-x="645" d="M95 164q1 41 20.5 82t54.5 51q20 8 56 16.5t74 16.5t73 16t53 16q-6 23 -27.5 41.5t-47 36t-50.5 35.5t-39 41q-16 27 -8 63.5t28.5 64.5t45 37t43.5 -17q12 -23 38.5 -51.5t55.5 -61.5t52.5 -66.5t29.5 -64.5q12 -59 -7.5 -113.5t-60.5 -83.5q-27 -18 -66.5 -40.5 t-82.5 -43t-84 -37t-68 -24.5q-43 -12 -63.5 16.5t-19.5 69.5z" />
<glyph unicode="?" horiz-adv-x="509" d="M49 152q0 53 37 90t90 37t90 -37t37 -90t-37 -90t-90 -37t-90 37t-37 90zM254 416.5q-6 23.5 6 52.5q35 86 96.5 154.5t141.5 115.5q57 33 94 74t52 80t8 72.5t-38 52.5q-29 16 -61.5 11t-63 -27.5t-55 -59.5t-33.5 -84q-8 -41 -29.5 -24.5t-33.5 64.5t-2 115.5t65 129.5 q66 76 155 93t177 -36q59 -37 85 -103.5t16.5 -141t-51.5 -146.5t-117 -119q-55 -35 -97.5 -59.5t-76 -50t-64.5 -59.5t-66 -89q-23 -37 -46 -46t-39.5 -1t-22.5 31.5z" />
<glyph unicode="@" horiz-adv-x="1400" d="M0 182.5q-4 106.5 41 221t125 219t187.5 190.5t229.5 137t251 57.5t249 -46.5q90 -41 148.5 -114t85 -162t20.5 -186.5t-44 -187.5t-105.5 -164.5t-165.5 -117.5q-37 -16 -87 -25.5t-96 -1.5t-82 36t-46 87q-55 -43 -111.5 -69.5t-108 -33t-94.5 6t-71 47.5 q-31 39 -37 97t11 123.5t57 135.5t100 131q59 61 123.5 100t125 53.5t112.5 3.5t85 -50l19 -29q18 29 26 35q16 16 51 24.5t68 8.5t54.5 -9.5t8.5 -23.5q-27 -39 -54 -87t-54 -97.5t-48.5 -95.5t-33.5 -83q-14 -37 -14 -71.5t12 -57t35.5 -28.5t56.5 16q94 63 143.5 161.5 t48.5 201t-52.5 192.5t-155.5 137q-92 41 -193.5 33t-199 -52t-185.5 -116t-153.5 -159t-105.5 -180t-40 -180t44 -160t145 -118q82 -37 171 -33.5t177 38.5q31 12 51 1.5t25.5 -29t-10 -42t-54.5 -37.5q-106 -41 -217 -40t-215 46q-131 57 -190.5 148.5t-63.5 198z M512.5 320q-16.5 -60 5.5 -91q12 -14 36 -16t52.5 8t60 33.5t58.5 62.5q47 70 73.5 128.5t4.5 86.5q-12 14 -35 17.5t-53.5 -7t-64.5 -34t-66 -62.5q-55 -66 -71.5 -126z" />
<glyph unicode="A" horiz-adv-x="1302" d="M-12 106.5q0 36.5 41 59.5q78 41 167 111.5t185 162.5q-41 5 -78 5q-23 0 -46 -2q-58 -5 -112 -33q-33 -18 -46 -7t-11 37.5t17.5 63.5t38 71.5t51 62.5t57.5 36q49 12 99 13q30 0 60 -5q81 -12 164 -41q102 111 198.5 226.5t177.5 220t141.5 189.5t91.5 136q31 47 84 65 q33 11 65 10q20 0 40 -4q52 -11 90 -49q36 -36 36 -94v-6q0 -55 -17.5 -136t-47 -177t-65.5 -198.5t-74 -198t-71.5 -177t-58.5 -135.5q-22 -46 -21 -75q0 -32 20 -44t56 -4t83 37q27 16 32.5 8t-6.5 -29.5t-39.5 -51t-65.5 -56t-84 -46t-96 -19.5q-112 0 -142 84 q-8 22 -8 51q0 80 60 209q-53 -8 -106 -8q-26 0 -52 2q-78 6 -153 20q-70 -80 -138.5 -151.5t-130 -129t-113.5 -94t-91 -45.5q-16 -4 -32 -4q-28 -1 -56 13q-43 22 -68.5 56t-25.5 70.5zM788 567q59 -20 117 -34.5t115 -18.5q35 76 68.5 163t60.5 169t41 152q12 62 12 104 v12q-16 -27 -55 -81t-94.5 -128t-123 -161t-141.5 -177z" />
<glyph unicode="B" horiz-adv-x="1120" d="M14 120q6 38 41 40q23 0 53.5 48t63.5 120.5t66.5 163t62.5 176.5t51.5 158.5t34.5 113.5q11 44 59 62q41 16 83 15h14q49 -3 83 -27q23 -17 22 -42q0 -12 -5 -26q-10 -29 -43 -111t-79 -188.5t-99 -222t-104.5 -215t-97.5 -166t-75 -72.5q-10 -2 -19 -2q-30 -1 -54 23 q-32 32 -48 73q-11 30 -12 58q0 10 2 21zM70 762q-5 24 -4.5 53t4.5 63q10 70 51 138q51 86 127 157.5t164 124t184 84.5t186 40q26 2 51 3q62 1 118 -13q79 -18 134 -69q67 -57 81 -139q6 -32 5 -65q1 -52 -13 -106q-22 -89 -75 -179t-120 -164q57 -42 75 -118 q9 -38 8.5 -80t-8.5 -88q-18 -92 -66 -188.5t-119 -175.5t-162 -129t-193 -50q-82 0 -125 32.5t-57 70.5q-7 21 -7 38q-1 16 5 28q12 28 38 17q49 -19 94 -19q28 0 56 8q70 20 127 68t98 114.5t62.5 133t21.5 119.5t-27 76q-49 -27 -88 -35q-18 -5 -34 -5q-24 -1 -42 11 q-30 18 -40.5 47t0 57.5t43.5 36.5q68 16 130 81t101 143q39 79 46 151q1 10 1 19q0 57 -37 84q-52 39 -127 39q-15 0 -31 -2q-94 -10 -195 -65.5t-198.5 -154t-167.5 -229.5q-23 -41 -44 -25.5t-31 62.5z" />
<glyph unicode="C" horiz-adv-x="933" d="M18 404q10 124 54.5 259.5t115 260.5t161.5 228t193 164q104 62 212 72q14 1 27 1q95 0 188 -58q81 -49 115 -123q34 -71 33 -151q0 -85 -35 -170q-34 -82 -89 -150q-63 -77 -134 -101q-58 -20 -104 -20q-10 0 -20 2q-53 6 -74.5 31t13.5 49q45 33 88 90q42 56 66 116 q22 56 22 106v8q-2 53 -47 82q-40 25 -83 25q-34 0 -71 -16q-82 -36 -156.5 -121t-136 -203.5t-93.5 -236.5q-27 -101 -28 -191q-1 -15 1 -31q6 -104 63 -158q53 -50 138 -58q27 -2 54 -3q61 -1 123 11q92 16 178.5 49.5t141.5 61.5q31 16 38 5t-10.5 -36.5t-56.5 -62.5 t-100 -74q-80 -47 -165 -81q-85 -32 -170 -44q-34 -5 -67 -5q-50 1 -99 11q-81 18 -152 72q-80 59 -112 163q-25 80 -25 172q1 27 3 55z" />
<glyph unicode="D" horiz-adv-x="1218" d="M34 120q5 38 40 40q23 0 57.5 48t74.5 123t80 166t74.5 176t59.5 156.5t33 106.5q6 27 55 46q50 18 102 22q9 1 17 1q41 1 71 -13q25 -11 26 -37q0 -11 -5 -25q-8 -23 -31.5 -75t-56.5 -124t-75 -155.5t-86 -170t-89 -166t-85 -143t-74 -104.5t-56 -45q-10 -2 -19 -2 q-30 -1 -55 23q-33 32 -48 73q-11 31 -11 60q0 9 1 19zM188 895q-2 14 -1 30q1 37 11 85q16 66 64 127q61 78 160 134q98 55 210 81q77 18 153 19q35 -1 70 -5q112 -12 202 -66q92 -59 138 -151q46 -93 52 -203q1 -20 1 -41q0 -92 -22 -192q-26 -123 -78 -243t-124 -227.5 t-156 -190.5t-174 -131t-178 -48q-82 0 -124 28.5t-54 62.5t0 59.5t39 19.5q26 -5 53 -5q70 0 140 38q96 53 178.5 150.5t145 222t89.5 248.5q17 77 17 148q0 43 -6 85q-16 108 -91 170q-58 47 -132 47q-14 0 -28 -2q-92 -10 -184 -56.5t-171 -112t-118 -122.5 q-21 -29 -38 -29q-7 1 -14 5q-24 16 -30 65z" />
<glyph unicode="E" horiz-adv-x="1003" d="M18 34q-4 16 -5 33q-1 27 11 54q18 45 74 67q33 31 66 86.5t64.5 123t60 143t52.5 147.5t42.5 135.5t30.5 106.5q12 47 59 71.5t99 28.5q11 1 21 1q37 0 67 -12q38 -15 32 -48q-4 -33 -27.5 -102.5t-58.5 -159.5q35 6 69 8t66.5 6t63.5 11t61 26q42 25 56 -3 q10 -19 9 -45q0 -13 -2 -27q-7 -44 -33 -90t-65 -60q-29 -11 -67 -13q-16 -1 -32 -1q-22 0 -46 1q-41 2 -81 4q-20 1 -38.5 1t-36.5 -1q-35 -78 -72.5 -156.5t-76.5 -150.5q74 -4 150.5 -18.5t144.5 -24.5q61 -9 110 -9h10q52 1 76 28q29 29 43.5 26.5t15.5 -23t-10.5 -55 t-35 -70.5t-60.5 -68t-84 -48q-30 -10 -64 -10q-21 0 -43 4q-58 10 -120.5 28.5t-127 37t-126.5 18.5q-31 -37 -58.5 -60.5t-49.5 -27.5q-14 -3 -27 -3q-35 0 -61 20q-34 28 -46 70zM358 1126q-5 18 -5 38q-1 20 5 41q10 42 58 65q33 16 98.5 26.5t147 18.5t171 14t169 14.5 t142 18.5t89.5 27q27 14 46 4.5t29.5 -33t10.5 -59t-12.5 -71.5t-36 -69t-62.5 -53q-27 -12 -89 -15q-37 -2 -81 -2q-29 0 -62 1q-81 2 -170 5t-167 3t-135.5 -6.5t-73.5 -24.5q-18 -18 -40 1.5t-32 55.5z" />
<glyph unicode="F" horiz-adv-x="911" d="M24 121q6 37 42 39q35 2 77.5 75.5t87.5 187.5t90.5 249t86.5 260q14 45 63 67.5t98 23.5h4q46 -1 79 -21q23 -15 23 -39q0 -12 -5 -25q-35 -92 -65 -172t-56 -152q45 20 90 25.5t88 9.5t84 11.5t80 29.5q39 24 53 -2q9 -17 9 -43q0 -13 -2 -27q-7 -44 -33.5 -90.5 t-65.5 -62.5q-35 -14 -80 -14h-11q-53 2 -107 6q-36 3 -69 3q-16 0 -32 -1q-47 -2 -74 -25q-53 -131 -93 -221t-77 -146.5t-72.5 -84t-78.5 -35.5q-9 -2 -17 -2q-33 -1 -59 25q-32 32 -48 73q-11 29 -11 56q-1 11 1 22zM370 1126q-5 18 -5 38q-1 20 5 41q10 42 58 65 q33 16 98.5 26.5t147.5 18.5t171 14t169 14.5t141.5 18.5t87.5 27q27 14 46.5 4.5t29.5 -33t10 -59t-11 -71.5t-37 -69t-64 -53q-25 -12 -87 -15q-38 -2 -82 -2q-29 0 -62 1q-81 2 -170 5t-167 3t-134.5 -6.5t-72.5 -24.5q-18 -18 -40 1.5t-32 55.5z" />
<glyph unicode="G" horiz-adv-x="925" d="M44 394q9 124 54 260.5t117 263t165 233t197.5 171t214.5 74.5q16 2 32 2q94 0 186 -55q63 -39 96 -92t41 -113q3 -20 3 -40q0 -41 -12 -82q-16 -62 -51 -115q-39 -61 -86 -95t-93 -48q-37 -12 -70 -12h-16q-40 4 -63.5 16t-25.5 30.5t29 36.5q51 33 83 77t44 88 q7 26 7 51q0 16 -3 32q-8 39 -37 60q-38 28 -80 28q-19 0 -40 -5q-64 -19 -128.5 -77.5t-125 -147.5t-107.5 -188.5t-78 -201t-36 -183.5q-1 -15 -1 -29q0 -64 20 -109q23 -56 85 -64q10 -1 20 -1q48 0 81 33q40 39 64.5 100.5t33.5 134.5t9 132q0 49 43 59q15 4 31 4 q30 0 63 -12q50 -20 88 -67q31 -38 31 -87q0 -12 -2 -24q-4 -31 -20 -77t-39 -97t-52.5 -104.5t-61 -96.5t-64.5 -73.5t-62 -36.5q-10 -2 -19 -2q-21 0 -43 12q-30 18 -54 47q-47 -27 -106 -29h-5q-56 0 -119 39q-84 55 -116 156q-24 78 -24 170q0 26 2 54z" />
<glyph unicode="H" horiz-adv-x="1136" d="M24 96.5q-1 26.5 9 45t33 18.5q20 0 49.5 27.5t62.5 75.5t70 113.5t74 141.5q-35 4 -69 4q-21 0 -43 -2q-54 -4 -101 -33q-31 -18 -42.5 -8t-10.5 36t14.5 62.5t35 72.5t47 62.5t52.5 35.5q42 13 85 13q12 0 22 -1q54 -4 110 -19q63 150 110.5 290t65.5 233q6 33 36 56 t69.5 36.5t83.5 16.5q13 1 25 1q29 0 53 -5q34 -7 52.5 -24.5t8.5 -46.5q-8 -23 -33 -83t-63.5 -146t-87 -191.5t-103.5 -215.5q53 -20 106.5 -38t106.5 -28q49 106 109.5 226t120 225.5t113.5 182.5t91 95q16 9 32 9q18 0 38 -11q37 -20 64.5 -57t36.5 -80q2 -12 2 -23 q0 -29 -17 -51q-39 -45 -84 -109.5t-92 -139.5t-93.5 -153.5t-86 -151.5t-69.5 -137.5t-44 -107.5q-15 -45 -15 -74q0 -5 1 -11q4 -30 26.5 -40t58 0.5t82.5 38.5q27 16 33 8t-6 -29.5t-39 -51t-64.5 -56t-83.5 -46t-96 -19.5q-94 1 -126 79q-14 35 -15 84q0 62 23 148 q4 16 14 43t22 62q-21 -1 -42 -1q-42 0 -82 5q-62 8 -121 20q-51 -98 -103.5 -187t-102.5 -160t-96 -118t-85 -61q-27 -10 -50.5 2t-41 35.5t-28.5 54.5t-12 57.5z" />
<glyph unicode="I" horiz-adv-x="765" d="M22 22q-5 18 -5 38q-1 20 5 40q10 41 60 64q37 18 83 20h23q35 0 70 -4q-6 20 -7 43t9 45q10 25 34.5 87.5t60.5 144.5t79 177t87 185t87 166t80 123q-12 1 -22 1q-51 0 -74 -24q-18 -18 -40 1.5t-32 56.5q-5 18 -5 38t5 40q10 41 58 65q43 20 96 20h14q62 -3 124 -11.5 t118 -11.5h12q49 0 86 22q40 25 54 -2q10 -18 9 -43q-1 -13 -3 -28q-8 -44 -33 -90t-64 -63q-20 -10 -45.5 -11t-54.5 3q5 -15 5 -28q0 -26 -19 -46q-14 -16 -48 -71.5t-77 -135t-92.5 -175t-96.5 -187.5t-87 -173t-66 -134q14 -1 27 -1q21 0 39 2q30 3 54 19q42 24 56 -2 q10 -18 9 -43q0 -12 -2 -27q-7 -44 -32.5 -90.5t-64.5 -62.5q-26 -10 -60 -10q-20 0 -40 3q-58 9 -116.5 21.5t-109.5 15.5h-10q-44 0 -66 -24q-18 -18 -40 1.5t-32 55.5z" />
<glyph unicode="J" horiz-adv-x="980" d="M28 204q-3 21 -3 41q0 40 9 81q15 61 50 116q33 51 75 81t83 43q35 12 65 12h11q36 -3 56.5 -14t21.5 -29.5t-27 -36.5q-49 -31 -81 -77t-46 -91q-8 -28 -8 -53q0 -16 4 -31q8 -39 41 -58q35 -19 70 -19q28 0 57 12q63 28 122.5 95.5t113.5 166t97 206.5 q27 68 48.5 136.5t38 129t26.5 109.5t16 80q-57 8 -117.5 15t-115.5 8h-12q-48 0 -88 -7q-45 -8 -74 -33q-19 -16 -34 -16q-13 0 -23 12q-18 22 -18 60v11q3 46 37 98.5t112 80.5q32 12 79 12h14q56 -2 119.5 -11t131 -22.5t130 -22.5t113.5 -11h12q43 0 70 14 q45 25 57.5 5.5t-3 -56.5t-56.5 -80t-98 -63q-12 -4 -37 -8q25 -16 39 -35t10 -37q-6 -53 -45 -163t-102 -259q-66 -154 -155 -294t-195.5 -232.5t-222.5 -119.5q-31 -6 -61 -6q-87 0 -177 56q-59 39 -91 92t-39 112z" />
<glyph unicode="K" horiz-adv-x="1232" d="M10 121q4 39 39 39q33 0 82 60.5t103.5 158.5t110.5 220t104.5 245t84.5 233.5t50 186.5q6 33 35.5 56t69.5 36.5t84 16.5q13 1 26 1q29 0 53 -5q35 -7 53.5 -24.5t7.5 -46.5q-8 -20 -30.5 -75.5t-58.5 -135t-80 -178t-95 -202.5q80 66 164 162t169 191t168 173t161 106 q25 9 57 9q19 0 40 -3q58 -8 102 -29.5t58 -51.5q3 -7 3 -12q0 -22 -37 -42q-78 -43 -164 -113.5t-181 -149.5t-197.5 -156.5t-209.5 -135.5q10 -27 27.5 -70.5t40 -96t50.5 -105.5t56.5 -96t58 -71t56.5 -28q18 0 67.5 7.5t94.5 31.5q33 18 39 9t-8.5 -33.5t-46 -57 t-72.5 -60.5t-90 -44q-33 -11 -65 -11q-16 0 -32 3q-61 10 -122.5 65.5t-114.5 130t-96 154.5t-70 139q-55 -104 -111.5 -202.5t-110.5 -176t-103.5 -130t-88.5 -66.5q-12 -4 -23 -4q-26 -1 -48 21q-32 32 -48 75q-13 35 -13 67q0 7 1 15z" />
<glyph unicode="L" horiz-adv-x="1073" d="M18 26q-5 16 -5 33q-1 17 5 35q10 35 42 65.5t90 49.5q31 20 71.5 75.5t86.5 136.5t95.5 181t96.5 210t91 223t81 222q10 31 40.5 55.5t68.5 40t78 20.5q20 2 38 2.5t34 -2.5q32 -5 48 -22.5t8 -45.5q-33 -113 -99.5 -256.5t-147.5 -292t-167 -287.5t-157 -244 q82 -4 169 -19.5t163.5 -26.5t136 -11t86.5 27q29 29 43 26.5t15 -23t-10 -55t-34.5 -70.5t-60.5 -68t-84 -48q-29 -9 -62 -9q-29 0 -60 7q-67 14 -137.5 34.5t-142.5 36.5q-39 9 -77 9q-32 0 -62 -6q-20 -27 -44 -48.5t-52 -31.5q-31 -11 -59 -11q-14 0 -27 3 q-39 8 -64 30.5t-35 54.5z" />
<glyph unicode="M" horiz-adv-x="1474" d="M9 124q-1 36 34 36q33 0 84 60.5t110.5 155.5t122 216t120 240.5t103 228t72.5 180.5q2 12 11 23l6 8q27 41 88 62q60 22 118 24h13q49 0 83 -14q38 -16 19 -50q-27 -49 -54.5 -130t-54 -177t-50 -201.5t-41 -206t-27.5 -186.5t-10 -143q20 37 69 126t116 204.5 t145.5 240.5t157.5 234.5t151.5 186.5t130.5 95q24 8 50 8q8 0 16 -1q36 -3 69 -13h5q28 1 58 -21q32 -24 55 -58.5t28 -73.5q1 -7 1 -14q0 -30 -18 -52q-39 -45 -84 -109.5t-91 -139.5t-92 -153.5t-86 -151.5t-70 -137.5t-44 -107.5q-15 -45 -15 -74q0 -5 1 -11 q4 -30 25.5 -40t57 0.5t83.5 38.5q29 16 33.5 8t-7.5 -29.5t-39.5 -51t-64.5 -56t-83 -46t-95 -19.5q-94 1 -127 79q-15 35 -15 85q0 62 23 147q6 25 20.5 63.5t36 89t48 109t57.5 121.5q-63 -88 -121 -176t-108 -168t-90 -146.5t-66 -111.5q-29 -47 -85 -79 q-58 -32 -116 -41q-18 -3 -35 -3q-37 0 -69 14q-46 20 -52 76q-3 36 -3 83v23q1 62 4 132.5t10.5 147.5t15.5 155q-45 -127 -88 -248t-88 -217t-93.5 -157.5t-103.5 -67.5q-7 -1 -13 -1q-36 0 -68 28q-38 34 -60.5 76t-23.5 78z" />
<glyph unicode="N" horiz-adv-x="1136" d="M14 90q-6 29 1.5 49.5t29.5 20.5q33 0 81 60.5t102.5 158.5t110.5 220t104.5 245t85 233.5t51.5 186.5q8 49 56 78.5t97 35.5q13 2 25 2q33 0 58 -13q23 -12 23 -35q0 -11 -5 -25q-29 -121 -35 -261q-3 -70 -3 -137.5t3 -133.5q6 -132 17 -243.5t22 -175.5 q18 96 45.5 204t62.5 212.5t74 201.5t78 174t75.5 129t67.5 66q20 9 41 9q19 0 39 -8q41 -17 69 -50q30 -32 40 -71q3 -12 3 -22q0 -25 -18 -42q-45 -47 -99 -137t-108.5 -200.5t-106.5 -230.5t-94 -226.5t-72 -188.5t-40 -115q-10 -35 -28.5 -46t-39 -6t-40 24.5 t-31.5 48.5q-55 102 -102.5 250.5t-63.5 335.5q-39 -123 -82 -245t-90 -222.5t-95.5 -168t-95.5 -85.5q-28 -10 -52 -10q-13 0 -27 3q-36 9 -64.5 32.5t-46 56t-23.5 61.5z" />
<glyph unicode="O" horiz-adv-x="1073" d="M68 355q-2 21 -1 43q0 108 39 233q35 115 104 240.5t160 231t200.5 179.5t228.5 84h4q47 0 58 -45q6 -25 6 -52q0 -25 -5 -52q34 10 71 10q15 0 31 -2q54 -6 83 -39q61 -72 71 -188q3 -30 3 -62q1 -90 -21 -190q-28 -136 -93 -275t-153 -252q-102 -133 -210 -195 q-110 -63 -208 -67h-14q-90 0 -165 45q-81 49 -130 138t-59 215zM302 282q16 -66 64 -88q18 -8 39 -7q35 0 77 19q70 32 149 130q59 74 113 174t82 206q24 90 24 174q0 16 -1 30q-5 98 -63 170q-86 -23 -163.5 -90.5t-140 -159.5t-107.5 -195.5t-66 -198.5q-13 -57 -13 -103 q-1 -33 6 -61z" />
<glyph unicode="P" horiz-adv-x="980" d="M36 120q5 38 40 40q23 0 55.5 49t68.5 125t73.5 169t69.5 183t57.5 167t37.5 120q8 35 50 48q27 8 56 8q16 0 32 -2q46 -7 78 -33q26 -21 26 -55q0 -8 -2 -17q-6 -35 -38 -119t-79 -190.5t-103.5 -221.5t-110.5 -211t-102 -161.5t-77 -71.5q-10 -2 -19 -2q-30 -1 -55 23 q-33 32 -48 73q-11 31 -11 60q0 9 1 19zM104 896q8 62 48 120q55 82 129.5 153.5t159.5 127t175 91.5q91 38 177 52q47 8 91 8q38 0 72 -6q76 -12 136 -53q74 -53 94 -139q11 -46 10 -94q0 -43 -8 -88q-18 -97 -65.5 -198.5t-112 -186.5t-136 -146.5t-135.5 -79.5 q-17 -4 -32 -4q-27 0 -47 13q-32 21 -48 54q-11 24 -12 46q0 8 2 16q6 30 39 30t73 35t78.5 89.5t72.5 121.5q35 68 53 132q16 55 15 102v15q-3 54 -34 83q-33 30 -88 30q-21 0 -45 -4q-88 -16 -192.5 -75.5t-209 -159.5t-184.5 -229q-23 -35 -44 -20q-20 16 -30 59 q-5 23 -6 51q0 25 4 54z" />
<glyph unicode="Q" horiz-adv-x="1036" d="M18 324q-4 33 -4 69q0 110 39 238q37 115 105.5 240.5t160 231t201 179.5t225.5 84h4q48 0 59 -45q7 -26 7 -55q0 -24 -4 -49q34 10 70 10q16 0 31 -2q53 -6 81 -39q61 -72 71 -188q3 -32 3 -65q0 -88 -21 -187q-28 -136 -92.5 -275t-152.5 -252q-33 -41 -63.5 -73.5 t-63.5 -61.5q23 -49 50.5 -86t66.5 -47t26.5 -37t-53.5 -48.5t-100 -24.5h-9q-55 0 -106 38q-37 29 -64 98q-61 -19 -118 -19q-52 0 -101 16q-102 34 -166.5 123t-81.5 227zM245 319q5 -55 26.5 -88.5t59.5 -42.5q11 -2 23 -2q29 0 62 15q-18 59 -40 108t-52 66 q-39 20 -26 37.5t51 25.5q20 4 45 4q22 0 46 -3q54 -7 95 -38q20 -16 45 -63q59 74 112 174t82 204q24 87 24 170q0 17 -1 34q-6 98 -66 167q-86 -23 -164 -91t-139 -159.5t-106.5 -194.5t-65.5 -196q-12 -55 -12 -100q0 -14 1 -27z" />
<glyph unicode="R" horiz-adv-x="1193" d="M22 121q6 39 39 39q49 0 103.5 72.5t110 183t107.5 239.5t95 242q18 49 69.5 72.5t102.5 23.5q51 1 86 -21q24 -15 24 -40q0 -11 -5 -25q-10 -29 -43 -105.5t-79 -176t-104.5 -210t-122 -207.5t-128 -169t-123.5 -92q-13 -4 -24 -4q-26 -1 -49 21q-33 32 -49 75 q-12 32 -12 62zM194 878q8 70 50 138q51 86 126.5 157.5t164 124t183.5 84.5t186 40q26 2 52 3q62 1 118 -13q79 -18 134 -69q55 -49 75 -115q14 -45 13 -94q0 -22 -2 -46q-10 -74 -43.5 -151t-85 -147.5t-115 -130t-132.5 -96.5q-3 -29 -3 -60q0 -27 2 -55q5 -62 19 -117 t38.5 -94.5t55.5 -48.5q6 -1 14 -2q18 0 54 7q50 9 96 34q33 18 39 9t-9.5 -33.5t-46 -57t-72.5 -60.5t-90 -44q-32 -11 -64 -11q-16 0 -33 3q-72 14 -124.5 65.5t-85 122t-48.5 150.5q-14 71 -13 132v15q0 23 1 43.5t8.5 38.5t28 33.5t60.5 25.5q80 20 143.5 86t99.5 143 q36 78 38 148v6q0 65 -39 95q-52 39 -127 39q-14 0 -30 -2q-94 -10 -196 -65.5t-198 -154t-166 -229.5q-23 -41 -44 -25q-20 15 -30 62q-5 25 -6 56q0 27 4 60z" />
<glyph unicode="S" horiz-adv-x="1058" d="M12 236q6 78 49 155q39 71 95 97q51 24 92 23h9q45 -3 63 -29q6 -9 6 -20q0 -19 -23 -40q-31 -29 -48 -72q-13 -33 -13 -65q0 -9 1 -18q5 -40 38.5 -69.5t107.5 -33.5q6 0 12 -1q55 1 109 33q60 36 107 91t77 117q31 65 30 117q0 49 -32 76q-21 18 -61 18q-21 0 -47 -5 q-53 -10 -98 -10q-44 0 -82 10q-76 20 -118 68t-48 116l-2 22q0 59 28 125q33 79 106.5 159t194.5 151q143 84 257 85h4q110 0 182 -49q72 -50 100 -133q13 -39 13 -78q0 -45 -17 -91q-29 -84 -78 -119t-91 -38h-10q-35 0 -55 18q-24 20 -4 49q52 74 56 121q0 5 1 9 q0 41 -28 59q-24 16 -62 15q-11 0 -24 -1q-55 -6 -121 -39q-43 -23 -82 -55.5t-64.5 -68.5t-35.5 -71t5 -58.5t57 -31.5q15 -3 35 -3q35 0 85 9q56 11 102 11q50 1 88 -13q70 -26 101 -82q25 -45 25 -107q0 -15 -2 -30q-8 -80 -44 -165t-99.5 -169t-148.5 -149 q-86 -66 -188 -105q-91 -35 -189 -35q-13 0 -26 1q-102 6 -169 49q-68 44 -100 108q-27 54 -27 117q0 13 1 25z" />
<glyph unicode="T" horiz-adv-x="901" d="M172 100q6 32 41 31q33 0 73 47t84 123t88 173t82 197.5t68.5 197t48.5 171.5q8 33 51.5 65t96.5 54q-63 5 -126 11q-53 5 -102 5h-17q-56 -1 -103 -11.5t-78 -30.5q-29 -20 -51.5 -13.5t-33.5 28t-8 55.5t23.5 70t61.5 67.5t108 52.5q43 12 103 12h17q71 -2 151.5 -13.5 t167 -25.5t164 -24.5t142 -10.5t105.5 17q31 13 50 13q17 0 23 -10q6 -9 6 -20q0 -17 -12 -41q-22 -39 -74 -84t-126 -65q-32 -9 -81 -9h-10q-56 1 -126 7v-4q-18 -74 -54 -186.5t-84 -239.5t-107.5 -256t-128 -236.5t-145.5 -181.5t-157 -88q-9 -2 -18 -2q-29 -1 -55 21 q-32 28 -48 65q-11 27 -12 50q0 10 2 19z" />
<glyph unicode="U" horiz-adv-x="1013" d="M20 336q18 113 70.5 247t127.5 268t167 258t193 216q18 16 41 16q13 -1 27 -5q42 -14 76 -44t48 -70q4 -13 4 -24q0 -24 -20 -43q-45 -43 -106.5 -122t-124 -174t-121 -196.5t-97.5 -187.5q-39 -87 -51 -149q-4 -19 -4 -33q0 -34 20 -45q9 -5 22 -5q26 1 68 21 q64 32 143 100t160.5 167.5t147.5 216.5q47 96 98.5 192t100.5 177t91 136.5t73 71.5q16 9 32 9q18 0 38 -11q36 -20 64 -57q26 -37 36 -80q3 -12 3 -23q0 -29 -18 -51q-39 -45 -84 -109.5t-92 -139.5t-93 -153.5t-86 -151.5t-70 -137.5t-44 -107.5q-15 -45 -15 -74 q0 -5 1 -11q4 -30 25.5 -40t58.5 0.5t84 38.5q27 16 32 8t-6.5 -29.5t-39 -51t-65.5 -56t-84 -46t-95 -19.5q-78 0 -115 56q-27 41 -27 110q0 26 4 57q-49 -53 -109 -104.5t-125 -87.5q-64 -34 -132 -46q-20 -3 -41 -4q-47 0 -94 19q-71 29 -93 109q-12 43 -12 96 q-1 46 8 98z" />
<glyph unicode="V" horiz-adv-x="933" d="M39 -23q-2 20 -2 43q1 63 13 149q16 118 45.5 251t67.5 271t74.5 255t68.5 201t48 108q18 27 52 44.5t75 26.5t81 10h10q34 0 61 -6q31 -7 45 -22.5t2 -37.5q-27 -49 -71 -143.5t-95 -211t-102.5 -245.5t-91.5 -245t-62 -209q-18 -73 -18 -118q0 -12 2 -22 q20 37 76.5 139t133 236.5t168 283t180.5 276.5t169 218t137 108q20 6 44 6q10 0 20 -1q36 -3 74 -15t71 -31.5t52 -40t21.5 -41t-22.5 -34.5q-82 -51 -179 -146.5t-196.5 -213.5t-197 -249t-180.5 -250.5t-147.5 -220t-96.5 -157.5q-29 -45 -83 -67q-47 -19 -94 -18h-13 q-54 3 -95 32.5t-45 86.5z" />
<glyph unicode="W" horiz-adv-x="1308" d="M16 -23q-2 20 -2 43q0 63 12 149q16 118 46 251t69 271t76 255t67.5 201t47.5 108q18 27 54 44.5t78 26.5t84 10h10q36 0 64 -6q32 -7 46 -22.5t2 -37.5q-27 -49 -72 -143.5t-97 -211t-104.5 -245.5t-94.5 -245t-66 -209q-19 -74 -19 -119q0 -11 2 -21q20 37 67.5 135 t111 227t138 273.5t147.5 272.5t139.5 224.5t115.5 128.5q33 23 90 24h7q53 1 103 -13q52 -14 86 -40q24 -17 23 -37q0 -9 -4 -18q0 -4 -10 -14q-39 -41 -78 -90q-53 -70 -110.5 -160t-110.5 -190.5t-100.5 -203.5t-77.5 -199q-30 -97 -44 -180q-7 -42 -7 -78q0 -34 6 -62 q20 37 75.5 139t131 236.5t164.5 283t176.5 276.5t166 218t136.5 108q20 7 46 7t57 -7q62 -14 112 -41q52 -28 74 -60q9 -12 8 -24q0 -18 -23 -32q-84 -51 -180 -146.5t-196.5 -213.5t-197 -249t-180.5 -250.5t-147.5 -220t-97.5 -157.5q-26 -45 -80 -67q-47 -19 -94 -18 h-13q-53 3 -95 32.5t-46 86.5q-1 14 -1 29q0 48 10 110q13 80 42 171q-72 -111 -127 -201t-88 -143q-29 -45 -81 -67q-46 -19 -92 -18h-13q-54 3 -96 32.5t-46 86.5z" />
<glyph unicode="X" horiz-adv-x="935" d="M9 64q-1 7 -1 13q0 27 21 56q31 43 76 100.5t98 123t114.5 138t124.5 146.5q-8 97 -10 193q-1 48 -1 93t1 86q2 83 8 147.5t13 101.5q6 27 48 40t89 13t83 -14.5t29 -38.5q-12 -51 -23 -149.5t-17 -217.5q63 72 120.5 135.5t102.5 113.5t75.5 83t43.5 43q28 25 76 29 q14 1 28 1q33 0 63 -6q43 -10 67 -30.5t3 -40.5q-12 -12 -66.5 -69.5t-134 -145.5t-179 -195.5t-199.5 -220.5q4 -78 14 -146.5t25.5 -122t39 -86t54.5 -36.5q23 -4 61.5 -1t79.5 27q27 16 32 7t-6.5 -32.5t-39 -54t-64.5 -57.5t-83 -44q-37 -14 -76 -14q-9 0 -19 1 q-41 4 -73 32.5t-57.5 74.5t-44 108.5t-32.5 134.5q-111 -123 -195.5 -220t-125.5 -147q-23 -27 -54.5 -25.5t-56.5 21.5t-32 52z" />
<glyph unicode="Y" horiz-adv-x="833" d="M109.5 90q-5.5 29 2 49.5t29.5 20.5q20 0 46 23.5t56.5 66.5t64.5 100.5t69 124.5q-29 4 -40 24.5t-13 41.5q-4 59 -4 119q0 52 3 104q7 113 24.5 209t42 171t48.5 111q27 39 80 59.5t104 21.5h5q47 0 75 -15q31 -16 13 -49q-35 -61 -66 -135t-57.5 -154t-47 -163 t-34.5 -163q33 68 89 170.5t130 207t161 190t181 118.5q19 6 39 6q25 0 52 -9q50 -17 86 -47.5t45.5 -63.5t-29.5 -49q-92 -39 -176 -115t-159 -171t-137.5 -197.5t-109.5 -192.5q-49 -90 -93 -181.5t-88 -169t-88 -133t-89 -73.5q-26 -10 -51 -10q-15 0 -29 4 q-37 10 -64.5 33.5t-46 55t-24 60.5z" />
<glyph unicode="Z" horiz-adv-x="911" d="M-11 86q3 41 24.5 88t58.5 74q12 8 53 48t100.5 100.5t132 135t146.5 151.5t143.5 150.5t123.5 131t87 94.5t35 41q-18 -10 -58 -23.5t-92.5 -28t-111 -27.5t-109.5 -22.5t-89 -13.5t-52 2q-29 10 -29 45q0 5 1 11q5 44 36 92.5t79 84.5q46 35 94 35h5q18 -1 41 -1 q42 0 100 4q88 8 175.5 18t158 20.5t93.5 16.5q37 8 59.5 -4.5t34.5 -36t14 -51t-4 -47.5q-4 -14 -52 -66.5t-122 -128.5t-167 -165t-186.5 -178t-181.5 -167t-151 -131q21 6 44 6q33 0 69 -12q62 -20 110 -94q29 -46 69 -64q36 -16 73 -16h8q41 2 77.5 18.5t61.5 34.5 q32 28 46 28q6 1 8 -5q1 -3 1 -7q0 -19 -31 -59q-49 -59 -111 -102q-62 -42 -128 -60q-40 -11 -79 -11q-25 0 -49 4q-62 11 -108 58q-47 45 -98 59q-33 9 -66 10q-18 0 -36 -3q-50 -8 -99 -34t-92 -58q-35 -27 -49 -6.5t-11 61.5z" />
<glyph unicode="[" horiz-adv-x="712" d="M-32 -152.5q5 27.5 16.5 56t17.5 47.5q8 23 34.5 88t65.5 157.5t87.5 203t99.5 223t103 217t99.5 186.5t86 131t63.5 49q25 10 79 12.5t116.5 1.5t124 -4.5t102.5 -3.5q43 0 52 -21.5t-6 -48t-51 -48t-83 -21.5q-12 0 -38 2t-57.5 5t-67.5 6.5t-67 7.5q-16 -18 -55 -95 t-91 -187t-112.5 -242t-121 -262t-114.5 -247.5t-93 -199.5h89t94 -1t78 -1h40q43 0 52 -18.5t-6.5 -41t-51 -41t-82.5 -18.5q-23 0 -79 6t-117.5 13.5t-112 13.5t-62.5 6q-27 0 -32 20.5t0 48z" />
<glyph unicode="\" horiz-adv-x="614" d="M121 1044q-10 31 7 48.5t44 20.5t53.5 -7t36.5 -35q2 -4 11.5 -51t23.5 -122t33.5 -169t39 -193.5t39 -194.5t35 -172t26.5 -127t13 -58q12 -35 -4 -53.5t-43.5 -21.5t-56.5 11t-41 45q-2 4 -11.5 51t-24.5 122t-33.5 170t-38 194.5t-39 195t-35 171t-24.5 123.5t-11 52z " />
<glyph unicode="]" horiz-adv-x="751" d="M-273.5 -218.5q-9.5 21.5 6 48.5t51.5 48.5t83 21.5q12 0 37.5 -2t57.5 -5.5t68 -6.5t66 -7q16 18 55 95t91.5 186.5t113 242t121 262.5t114.5 247.5t93 199.5h-90t-93 1t-78 1h-40q-43 0 -52 18.5t6 41t51 41t83 18.5q23 0 79 -6t117.5 -13.5t111.5 -13.5t63 -6 q27 0 32 -20.5t-0.5 -48t-16.5 -56.5t-17 -47q-8 -23 -35 -88.5t-66 -157.5t-87 -202.5t-99 -223t-103.5 -217t-99.5 -186.5t-85.5 -131t-63.5 -49q-25 -10 -79 -12.5t-116.5 -1.5t-124 4t-102.5 3q-43 0 -52.5 21.5z" />
<glyph unicode="^" horiz-adv-x="645" d="M209 771q-8 17 14 40q18 16 44 37.5t54.5 44t58.5 43t54 35.5q49 27 95 27.5t69 -21.5q31 -33 64.5 -71t48.5 -77q10 -31 -14.5 -54t-58.5 -35.5t-67.5 -8.5t-42.5 29q-12 31 -22 67.5t-25 61.5q-37 -23 -66.5 -53.5t-68.5 -67.5q-23 -20 -53.5 -24.5t-53 3t-30.5 24.5z " />
<glyph unicode="_" horiz-adv-x="598" d="M-86 -114.5q-4 24.5 12.5 54t50 54t76.5 24.5h314q43 0 52 -24.5t-6.5 -55t-51 -55t-82.5 -24.5h-73t-102.5 1t-95.5 1h-55q-35 0 -39 24.5z" />
<glyph unicode="`" horiz-adv-x="675" d="M106 989q-2 45 12.5 82t38 51.5t52.5 -22.5q14 -23 51 -54.5t83 -61.5t92 -52.5t81 -26.5q14 -2 21.5 -11t3.5 -21.5t-20.5 -23.5t-47.5 -18q-35 -6 -82 -1.5t-96 17.5t-92 33.5t-70 43.5q-25 20 -27 65z" />
<glyph unicode="a" horiz-adv-x="790" d="M2 173q-2 15 -2 30q0 45 14 93q18 66 57.5 136t98.5 131t123.5 100t124.5 53q34 8 67 9q25 0 47 -5q52 -11 84 -50l19 -29q18 29 27 35q16 16 51 24.5t67.5 8.5t54 -9.5t9.5 -23.5q-27 -39 -54.5 -87t-54 -97.5t-48 -95.5t-34.5 -83q-14 -39 -14 -65q0 -32 21 -48 q13 -9 31 -10q38 0 100 37q27 16 32.5 8t-6.5 -29.5t-38.5 -51t-63.5 -56t-83 -46t-95 -19.5q-57 0 -83 25.5t-30 66.5q-55 -43 -112 -69q-56 -28 -107 -34q-17 -2 -34 -2q-32 0 -60 8q-43 12 -72 48q-31 39 -37 97zM226 320q-7 -26 -8 -46q0 -27 13 -45q12 -14 36 -16 t52.5 8t60 33.5t58.5 62.5q47 71 74 129q15 32 15 54q0 19 -11 32q-12 14 -34.5 17.5t-53.5 -7t-64.5 -34t-66.5 -62.5q-55 -66 -71 -126z" />
<glyph unicode="b" horiz-adv-x="657" d="M5 174q-6 24 -6 52q-1 35 9 77q16 74 68 162q41 70 87 153.5t87 162.5t72.5 143.5t44.5 97.5q7 23 39 32q28 8 59 8h7q34 -1 59.5 -11.5t19.5 -28.5q-20 -59 -64.5 -150.5t-93.5 -183.5t-92 -171t-61 -114q-16 -29 -29.5 -57.5t-20 -55t-2 -45t24.5 -24.5 q29 -10 58.5 5.5t55 45t46 70.5t34 84t16.5 83q1 11 1 21q0 27 -6 48q-6 20 6 40.5t34.5 34t47 16.5t43.5 -14q18 -16 52 -29.5t73 -20.5t78.5 -7t70.5 12q33 14 29 -8t-39 -52t-97 -52q-36 -13 -78 -13q-32 0 -67 7q5 -28 5 -57q0 -52 -16 -108q-25 -87 -80.5 -156 t-134.5 -109q-58 -29 -124 -29q-23 0 -47 4q-70 10 -113 46t-56 91z" />
<glyph unicode="c" horiz-adv-x="643" d="M1 270q3 72 40 156q53 117 140 185.5t179 90.5q49 12 94 12q38 0 74 -8q78 -20 113 -79q21 -35 25 -75q1 -10 1 -22q-1 -29 -9 -58q-12 -40 -35 -74.5t-58 -59.5q-37 -25 -75 -28q-8 -1 -15 -1q-28 -1 -50 9q-28 12 -38 31.5t8 39.5q14 16 32.5 36.5t34 41t21.5 38 t-4 30.5q-18 18 -56 10t-79 -36t-79 -74t-56 -103q-11 -33 -10 -60q0 -36 18 -63q33 -47 97 -61q28 -6 59 -6q42 0 92 10q86 20 172 77q35 23 42 12.5t-11.5 -39t-58.5 -67.5t-95 -71t-125 -52q-46 -13 -95 -13q-25 0 -50 3q-82 10 -138 47t-82 93q-24 51 -23 114v14z" />
<glyph unicode="d" horiz-adv-x="804" d="M0 173q-1 14 -1 29q-1 44 13 94q18 66 58.5 136t99.5 131t123.5 100t124.5 53q34 8 66 9q24 0 46 -5q52 -11 84 -50l13 -17q31 57 60.5 113.5t55 106t45 88t27.5 61.5t40 32q29 8 59 8h6q34 -1 59 -11.5t18 -28.5q-12 -39 -39.5 -100.5t-62.5 -132t-73 -144.5 t-70.5 -140.5t-58 -116.5t-36.5 -75q-20 -46 -20 -74q1 -5 1 -9q4 -30 25 -40t58 -0.5t84 37.5q27 16 34 7t-4.5 -31.5t-38 -54t-64.5 -58.5t-86 -44q-39 -14 -82 -14q-10 0 -21 1q-109 8 -127 86q-53 -41 -108 -65q-56 -26 -106 -32q-17 -2 -33 -2q-31 0 -59 8 q-42 12 -71 48q-33 39 -39 97zM224 320q-7 -26 -7 -46q0 -27 12 -45q12 -14 36 -16t53.5 8t60 33.5t59.5 62.5q47 71 73 129q14 31 14 53q0 20 -11 33q-10 14 -33.5 17.5t-53.5 -7t-64.5 -34t-67.5 -62.5q-55 -66 -71 -126z" />
<glyph unicode="e" horiz-adv-x="643" d="M1 270q3 72 40 156q35 78 89 134t116 92t126 50q47 10 89 9q17 0 31 -1q56 -5 97.5 -31t59.5 -71q9 -25 9 -53q0 -33 -13 -69q-24 -68 -84.5 -126.5t-152.5 -97.5q-87 -37 -189 -37h-10q14 -41 58 -63.5t103.5 -22.5t130 21.5t138.5 68.5q35 23 41 12.5t-12.5 -39 t-57.5 -67.5t-95 -71q-57 -32 -125 -52q-45 -13 -94 -13q-25 0 -52 3q-80 10 -136 46q-58 36 -84 92q-24 51 -23 115v15zM219 354q66 2 123 25.5t97 54.5t56.5 63t-1.5 50q-16 16 -53.5 8t-79.5 -34.5t-80.5 -69.5t-61.5 -97z" />
<glyph unicode="f" horiz-adv-x="491" d="M-111 -74q-2 13 -2 27q0 105 93 276q27 47 63.5 119t76.5 153t81 164t74.5 155.5t57 125.5t32.5 76q6 23 37 32q29 8 60 8h7q35 -1 60.5 -11.5t19.5 -28.5q-10 -33 -33.5 -87t-54.5 -122t-67 -143.5t-72 -149.5q25 -14 62.5 -25.5t80.5 -14.5q13 -1 26 -1q30 0 61 5 q44 7 79 30q25 14 23.5 -11.5t-35 -61t-104.5 -64.5q-53 -22 -129 -22q-27 0 -56 3q18 -53 20 -118v-17q0 -57 -12 -113q-14 -65 -43 -125.5t-69 -104.5t-92 -66q-36 -16 -77 -16q-18 0 -37 3q-117 16 -131 125zM78 20.5q-2 -16.5 10 -20.5q20 -6 38.5 15.5t32 59.5t22.5 86 t9 95q-16 -29 -27 -53.5t-16 -34.5q-14 -29 -29.5 -56.5t-26.5 -51t-13 -40z" />
<glyph unicode="g" horiz-adv-x="772" d="M-152 -182q-1 6 -1 13q0 59 45 122q49 70 157 115q-6 2 -8 8q-33 39 -39 97q-2 15 -2 30q0 45 14 93q17 66 57 136t99 131t123.5 100t124.5 53q35 9 66 9q24 0 46 -5q51 -11 84 -50q4 -8 9.5 -14.5t9.5 -14.5q8 12 15 20.5t11 14.5q16 16 51 24.5t68 8.5t54.5 -9.5 t9.5 -23.5q-27 -39 -54.5 -87t-53 -97.5t-47 -95.5t-34.5 -83q-16 -45 -32.5 -89t-32.5 -87q37 10 81 31.5t103 58.5q25 16 34 10t4 -25t-24.5 -46t-52.5 -53q-53 -41 -103 -65.5t-98 -35.5q-37 -74 -83 -138t-102 -111.5t-124.5 -75t-152.5 -29.5q-104 0 -160.5 47 t-61.5 113zM26.5 -126q6.5 -22 43.5 -28q14 -2 28 -2q55 0 101 32q57 40 110 124q-20 0 -39.5 -1t-40.5 -3q-72 -8 -120 -29.5t-68.5 -46t-14 -46.5zM224 320q-8 -26 -8 -46q0 -27 13 -45q12 -14 36 -16t53.5 8t60 33.5t57.5 62.5q47 70 75 129q15 32 15 55q0 18 -10 31 q-12 14 -35.5 17.5t-53.5 -7t-64.5 -34t-67.5 -62.5q-55 -66 -71 -126z" />
<glyph unicode="h" horiz-adv-x="759" d="M-59 63q14 51 50 139.5t84 192t100 210t97 197.5t77 153.5t38 76.5q10 20 43 30q30 9 60 8h6q34 -1 58 -10t15 -26q-4 -12 -32.5 -70.5t-70.5 -144.5t-91 -189.5t-96 -203.5q80 100 150.5 163.5t128.5 96.5t104 38q11 1 20 1q31 0 53 -12q35 -23 44 -51q4 -13 4 -28 q0 -17 -5 -37q-10 -38 -38.5 -87t-71.5 -113q-37 -55 -53.5 -93t-18.5 -61.5t6 -34.5t23 -15q18 -8 56 0t79 34q39 25 32.5 -2.5t-46 -69.5t-107.5 -82t-154 -40q-53 0 -80.5 22.5t-33.5 58.5q-2 12 -2 25q0 26 8 56q12 45 41 92q27 45 53.5 86t41.5 71.5t17 49t-18 20.5 q-16 0 -62.5 -37t-99.5 -92t-106.5 -117.5t-85.5 -109.5q-12 -31 -20.5 -54.5t-12.5 -40.5q-6 -20 -38 -28q-28 -7 -58 -7h-7q-34 1 -59.5 10t-21.5 25z" />
<glyph unicode="i" horiz-adv-x="364" d="M-11 132q-1 7 -1 15q0 39 13 83q15 54 38 106q14 37 35.5 83t44 89t44.5 77t36 48q16 16 51 23.5t67.5 7.5t54 -8.5t9.5 -24.5q-53 -78 -93 -161t-69 -157q-14 -39 -14 -65q0 -32 21 -48q13 -9 31 -10q37 0 99 37q41 25 35 -2.5t-46 -69.5t-104.5 -82t-138.5 -40 q-59 0 -84.5 27.5t-28.5 71.5zM274 781q-4 15 -3 31q-1 28 11 60q18 50 59.5 92t96.5 42q37 0 53.5 -19.5t18.5 -49.5q0 -4 1 -8q-1 -27 -13 -57q-14 -34 -37 -64t-55.5 -49.5t-69.5 -19.5q-52 0 -62 42z" />
<glyph unicode="j" horiz-adv-x="387" d="M-219 -150q2 46 39 80q31 29 69.5 90.5t79.5 137t80 156.5t72 149.5t55.5 116t28.5 55.5q18 20 53 32.5t67.5 12.5t53 -11.5t10.5 -35.5q-10 -25 -34.5 -85.5t-57.5 -137t-70 -161.5t-69 -159q47 23 109.5 59.5t113.5 77.5q23 18 30 13.5t1 -24t-24.5 -48.5t-47.5 -55 q-78 -72 -145.5 -117t-110.5 -64q-14 -25 -30.5 -53.5t-35 -56t-37 -50t-36.5 -34.5q-33 -22 -61 -22q-12 0 -24 4q-38 14 -60 50q-19 32 -19 73v7zM274 781q-7 21 -7 44t7 47q13 50 52 92t92 42q55 0 70 -42q9 -22 9 -45t-7 -47q-15 -49 -56 -91t-96 -42q-51 0 -64 42z" />
<glyph unicode="k" horiz-adv-x="702" d="M-59 63q14 51 50 139.5t83 192t99 210t97 197.5t77 153.5t40 76.5q10 20 43 30q30 9 60 8h6q34 -1 58 -10t15 -26q-4 -10 -29.5 -63t-64.5 -133t-85 -176.5t-91 -192.5q29 27 63.5 55.5t68.5 54t64.5 48t53.5 35.5q24 13 52 13q11 0 22 -2q41 -7 72.5 -26.5t45 -43 t-11.5 -36.5q-78 -35 -166 -87t-172 -99q23 -51 47 -92q23 -35 48.5 -65.5t52.5 -35.5q4 0 9 -1q21 -1 60 7q49 8 94 33q33 18 39.5 9t-8 -32.5t-46.5 -56t-74 -60.5t-90 -45q-33 -12 -66 -12q-16 0 -31 3q-37 6 -67.5 38.5t-56.5 75.5t-44 90.5t-29 84.5 q-39 -86 -66.5 -155t-37.5 -104q-6 -20 -38 -28q-28 -7 -58 -7h-7q-34 1 -59.5 10t-21.5 25z" />
<glyph unicode="l" horiz-adv-x="499" d="M8 334q21 104 70 219t119.5 224.5t148.5 191.5t156 123q50 26 96 26q25 0 49 -8q61 -23 75 -72q5 -18 5 -39q-1 -35 -15 -77q-22 -66 -73 -145t-120.5 -160.5t-149.5 -161.5t-160 -148q0 -63 26.5 -93t68.5 -36q12 -2 25 -2q33 0 69 10q52 14 100 41q43 25 36.5 -7 t-48.5 -80t-112.5 -92t-154.5 -44q-70 0 -127 41t-80 113q-14 39 -14 88q0 41 10 88zM231 430q76 76 154 169t138.5 177t90.5 144q18 38 18 56q0 11 -7 15q-14 8 -50 -13.5t-84.5 -75.5t-104 -141t-110.5 -212q-29 -63 -45 -119z" />
<glyph unicode="m" horiz-adv-x="1038" d="M-59 63q14 51 37.5 112t51 123t57.5 121.5t54.5 109t43 84t24.5 49.5q10 20 43 29t66.5 9t57 -10t17.5 -26l-69 -142q55 61 111.5 104.5t105.5 67t89 28.5t62 -9q29 -18 32 -55q1 -7 1 -13q0 -32 -12 -72q98 98 177 131q46 19 79 19q24 0 43 -10q35 -23 45 -51 q5 -13 5 -27q0 -17 -6 -38q-12 -38 -40.5 -87t-71.5 -113q-37 -55 -53.5 -93t-18.5 -61.5t7.5 -34.5t23.5 -15q18 -8 55 0t80 34q37 25 32 -2.5t-45 -69.5t-108.5 -82t-154.5 -40q-53 0 -81 22.5t-34 58.5q-2 12 -2 24q1 26 9 57q12 45 40 92q29 45 54.5 86t41 71.5t17.5 49 t-16 20.5q-12 0 -38 -21.5t-57.5 -56.5t-66.5 -79t-66 -89q-29 -51 -52.5 -97t-39.5 -85q-10 -25 -45 -38t-72 -13t-63.5 12t-16.5 39q8 27 31 69t51.5 88t57 93t47 86t22.5 63.5t-14 28.5h-2q-16 0 -56 -38q-42 -40 -90.5 -97t-95.5 -120.5t-73 -111.5q-10 -25 -16.5 -46 t-10.5 -38q-6 -20 -37 -28q-28 -7 -57 -7h-7q-34 1 -60.5 10t-22.5 25z" />
<glyph unicode="n" horiz-adv-x="768" d="M-55 63q20 78 61 173.5t83 182.5t78 154.5t46 88.5q10 20 43 29t66.5 9t57 -10t15.5 -26l-119 -242q82 100 154 164.5t130 98.5t104 39q11 1 20 1q31 0 53 -12q35 -23 45 -51q5 -13 4 -28q0 -17 -6 -37q-10 -38 -38.5 -87t-69.5 -113q-37 -55 -53.5 -93t-19.5 -61.5 t6 -34.5t24 -15q18 -8 55 0t78 34q39 25 34 -2.5t-45 -69.5t-109 -82t-155 -40q-51 0 -78.5 22.5t-33.5 58.5q-2 13 -2 27q0 25 7 54q11 45 40 92q27 45 53.5 86t41.5 71.5t17.5 49t-16.5 20.5h-2q-18 0 -64 -38q-48 -40 -103.5 -98.5t-110 -123t-82.5 -111.5 q-10 -23 -16.5 -43t-10.5 -37q-6 -20 -37 -28q-28 -7 -57 -7h-7q-34 1 -59.5 10t-21.5 25z" />
<glyph unicode="o" horiz-adv-x="716" d="M0 250q2 60 16 110q16 59 56.5 125t95.5 122.5t120.5 93t133.5 36.5q18 0 31.5 -19.5t17.5 -44t-4 -46t-35 -25.5q-55 -12 -105.5 -61t-82.5 -107q-31 -60 -37 -112q-1 -8 -1 -15q0 -40 27 -55q20 -11 41 -11q26 0 56 18q52 32 94 88q44 56 66 122q15 43 14 76 q0 18 -4 33q-6 20 6 40.5t33.5 34t48 16.5t45.5 -14q18 -16 49 -29q32 -14 68 -22q32 -7 66 -7h9q39 1 70 13q35 14 33 -7t-36 -50t-96 -51q-40 -14 -89 -15q-28 0 -60 5q-4 -74 -35.5 -158t-86 -154.5t-129 -117t-167.5 -46.5q-92 0 -141 35q-50 35 -70 87q-19 47 -18 102 v10z" />
<glyph unicode="p" horiz-adv-x="733" d="M-190 -219q14 53 53 144t89 199.5t106.5 221.5t104.5 208t83 160.5t41 80.5q10 20 42.5 29.5t66.5 9.5t57.5 -10.5t17.5 -26.5l-96 -191q63 47 129 60q17 3 32 3q49 0 93 -30q43 -29 59 -80q11 -34 11 -73q0 -20 -3 -42q-8 -63 -39.5 -132.5t-85.5 -137.5q-6 -6 -14 -18 h9q44 0 83 18q43 19 84 53q23 23 31 12.5t-4 -37t-46 -62.5t-93.5 -67.5t-144.5 -50.5q-65 -15 -148 -15q-25 0 -52 1h-2q-59 6 -104 45q-14 10 -22.5 26.5t-12.5 35.5q-53 -111 -93 -202t-50 -132q-6 -18 -37 -27q-28 -7 -57 -7h-8q-33 1 -59 9t-21 25zM236 282 q-11 -27 -11 -47q0 -24 15 -38q20 -20 51 -20q14 0 31 5q53 13 112 94q51 72 56 124v14q0 41 -23 63q-12 14 -31.5 22.5t-42 3.5t-47 -25.5t-47.5 -63.5q-41 -72 -63 -132z" />
<glyph unicode="q" horiz-adv-x="743" d="M-19.5 -97.5q7.5 29.5 29 47t45.5 1.5q23 -16 81 -21q31 -2 65 -2q31 0 63 2q14 31 28.5 63t31.5 66q-81 -39 -153 -39h-9q-76 3 -121 56q-33 39 -39 97q-2 15 -2 30q0 45 14 93q17 66 57 136t99 131t124.5 100t125.5 53q35 9 66 9q24 0 46 -5q52 -11 84 -50l7 -11l32 62 q10 20 43 31q30 9 61 9h6q34 -1 57.5 -10.5t17.5 -27.5q-6 -12 -46 -91t-95.5 -191.5t-119 -240.5t-114.5 -239q20 4 36.5 11.5t30.5 13.5q33 20 42 -2q1 -4 1 -8q0 -23 -38 -64q-18 -18 -50 -35.5t-73 -30.5q-20 -45 -34.5 -79.5t-19.5 -57.5q-6 -18 -36 -27q-28 -7 -58 -7 h-7q-34 1 -60.5 9.5t-22.5 24.5q4 18 13.5 43t19.5 53q-42 -5 -80 -5h-13q-44 1 -75 5q-43 8 -55.5 38t-5 59.5zM224 320q-6 -24 -6 -43q0 -29 15 -48q10 -14 34 -16t53.5 8t61.5 34t58 62l43 66l31 63q10 29 12 49.5t-10 36.5q-12 14 -34.5 17.5t-52.5 -7t-63.5 -34 t-66.5 -62.5q-59 -66 -75 -126z" />
<glyph unicode="r" horiz-adv-x="565" d="M-156 117.5q4 17.5 16.5 36t28.5 30.5q55 39 100.5 96.5t81 121t63.5 130t48 123.5q-37 37 -43 95q-2 16 -2 33q-1 41 11 81q16 56 48.5 95.5t75.5 39.5q35 0 55.5 -20.5t24.5 -54.5q1 -11 1 -23q0 -26 -6 -57q-9 -45 -34 -94q40 -21 88 -21h9q54 2 100 8q27 2 49.5 -5 t32.5 -24.5t8 -43t-25 -60.5q-20 -35 -42.5 -73.5t-42 -77.5t-37 -75t-27.5 -65q-14 -39 -13 -65q0 -32 20 -48q13 -9 32 -10q38 0 100 37q27 16 32 8t-6 -29.5t-39 -51t-65.5 -56t-84 -46t-95.5 -19.5q-59 0 -83.5 27.5t-27.5 71.5v15q0 39 12 83q15 54 36 106 q10 25 25.5 55.5t32.5 64t35.5 67.5t35.5 63q-35 4 -62.5 11t-48.5 15q-47 -106 -98 -201.5t-103.5 -167t-101.5 -115.5t-88 -48q-18 -2 -24.5 9t-2.5 28.5z" />
<glyph unicode="s" horiz-adv-x="552" d="M-49 135q-4 31 0 49.5t22 34.5q37 29 73 75t72 101.5t68.5 114.5t63.5 115q20 86 69 153.5t125 98.5q15 5 28 5q22 0 38 -14q25 -24 33 -60q4 -19 4 -38q0 -17 -3 -33q-7 -35 -28 -43q-29 -12 -52.5 -37.5t-36.5 -60.5t-19 -75q-2 -15 -2 -30q0 -25 6 -51q9 -55 9 -124 v-14q-1 -77 -26 -146q92 10 158 71q23 20 32 13t-0.5 -30.5t-36 -59t-74.5 -69.5t-117.5 -61.5t-161.5 -35.5h-13q-18 -2 -35 -2q-36 0 -64 9q-42 13 -69.5 35.5t-42 52.5t-20.5 56zM37 164q28 -16 57 -16q6 0 14 1q36 5 66 33q32 29 50 77q17 43 16 101v13 q-53 -72 -101.5 -122t-101.5 -87z" />
<glyph unicode="t" horiz-adv-x="423" d="M-7 124q-3 15 -3 33q0 29 8 63q12 54 41 116q18 39 46 94t61.5 117.5t68.5 128t68 127.5q-57 0 -106.5 5t-84.5 15q-41 12 -50 43t0 59.5t31.5 44t47.5 -2.5q23 -20 86 -32.5t137 -14.5q16 33 28.5 59.5t18.5 42.5q8 23 41 32q30 8 60 8h6q34 -1 59 -11.5t18 -28.5 q-14 -41 -36 -90q37 6 61 18q35 16 41 -6q1 -2 1 -5q0 -22 -46 -65q-16 -16 -43 -26t-61 -19q-35 -74 -76 -153.5t-78 -152t-65.5 -129t-39.5 -81.5q-16 -36 -16 -62q-1 -13 3 -21q10 -30 41 -40q16 -6 35 -5q18 1 39 5q44 10 89 37q27 16 33 8t-6.5 -29.5t-41 -51 t-71.5 -56t-98.5 -46t-118.5 -19.5q-59 0 -90 24.5t-38 66.5z" />
<glyph unicode="u" horiz-adv-x="722" d="M-12 132v10q0 40 13 88q15 54 38 106q14 37 40.5 90t54.5 103.5t53.5 91.5t37.5 55q16 16 51 24.5t68 8.5t54.5 -9.5t9.5 -23.5q-27 -39 -54.5 -87t-52.5 -97.5t-46.5 -95.5t-35.5 -83q-10 -26 -10 -45q0 -14 6 -24q14 -22 43 -21.5t66.5 23t68.5 65.5l10 25q16 37 43 90 t54.5 103.5t53.5 91.5t40 55q16 16 51 24.5t67.5 8.5t53 -9.5t10.5 -23.5q-27 -39 -54.5 -87t-54 -97.5t-48 -95.5t-33.5 -83q-15 -39 -15 -67q0 -32 21 -46q13 -9 32 -10q38 0 99 37q27 16 33 8t-6.5 -29.5t-39 -51t-64.5 -56t-84 -46t-95 -19.5q-75 0 -97 42 q-16 31 -16 72q0 16 2 33q-43 -57 -107.5 -102t-148.5 -45q-59 0 -84.5 27.5t-27.5 71.5z" />
<glyph unicode="v" horiz-adv-x="632" d="M-1 252v13q0 83 35 185q38 110 122 226q26 37 68 51q36 12 69 12h9q36 -2 54.5 -20.5t-4.5 -48.5q-53 -72 -91 -148q-37 -76 -55 -140q-15 -54 -15 -94q1 -8 1 -15q4 -44 29 -52q7 -2 14 -2q28 0 58 33q37 41 67.5 103.5t52 133t25.5 117.5q2 20 19.5 41t40 35t47 16 t43.5 -14q18 -14 47 -28.5t64.5 -23.5t73.5 -9t73 14q33 14 30.5 -8.5t-36.5 -52.5q-32 -28 -94 -50q-35 -12 -78 -13q-32 0 -68 7q-6 -43 -22.5 -98t-43 -111.5t-63.5 -111t-83 -93t-102 -58.5q-38 -14 -80 -14q-20 0 -42 3q-78 12 -120 69.5t-45 145.5z" />
<glyph unicode="w" horiz-adv-x="978" d="M0 218q8 75 33.5 157t64.5 161.5t82 139.5q18 27 57 39q36 11 69 11h6q36 -1 57.5 -15.5t5.5 -40.5q-39 -66 -78 -148t-66.5 -152.5t-38 -118.5t10.5 -44q16 2 41.5 32.5t55.5 74.5t58.5 94.5t51.5 95.5q16 43 34.5 86t36.5 86q12 31 46 44q32 12 63 12h5 q34 -1 55.5 -17.5t11.5 -44.5q-35 -92 -66 -175t-51.5 -146.5t-25.5 -101.5t11 -40q18 8 49 50t65 101.5t69 128t59 131.5q37 99 95 99q33 0 73 -33q27 -23 61.5 -36t70.5 -18q30 -4 58 -5q6 0 10 1q32 1 56 11q33 14 30 -9.5t-39 -53.5q-37 -32 -99 -54q-37 -13 -80 -13 q-31 0 -66 7q-10 -33 -39 -94.5t-68.5 -129t-88 -131t-97.5 -100.5q-35 -27 -80 -42q-42 -14 -83 -14h-6q-44 1 -82 22.5t-56 68.5q-6 12 -9 26.5t-5 31.5l-31 -41q-35 -43 -75 -68t-80 -30q-8 -1 -16 -1q-30 0 -58 16q-34 20 -56 66q-14 35 -14 83q0 20 2 41z" />
<glyph unicode="x" horiz-adv-x="620" d="M-135 74q59 70 123.5 140.5t132.5 139.5q-23 90 -28 180q-1 27 -1 52q0 59 8 108q4 27 35 40.5t66 13.5t61.5 -14.5t24.5 -39.5q-4 -41 -4 -85t6 -89l219 205q27 25 71 29q12 1 24 1q31 1 57 -7q38 -10 57.5 -30t-0.5 -40q-12 -12 -49 -45t-89.5 -77t-116 -99.5 t-126.5 -112.5q23 -55 59.5 -94t83.5 -49q23 -4 61 -1t81 27q27 16 32.5 7t-6.5 -32.5t-39.5 -55t-64.5 -58.5t-83 -44q-34 -13 -70 -13q-13 0 -25 2q-59 8 -105.5 52t-81.5 112q-41 -41 -74.5 -77t-60.5 -69q-20 -25 -57 -32q-21 -4 -40 -4q-15 1 -30 3q-33 6 -50 21t-1 35 z" />
<glyph unicode="y" horiz-adv-x="739" d="M-184 -139.5q0 65.5 51 135.5t158 115q-25 35 -25 88q0 10 1 19q5 67 34 140q14 37 39.5 86.5t51.5 96.5t50.5 84t36.5 51q16 16 51 24.5t68 8.5t54.5 -9.5t8.5 -23.5q-27 -39 -55.5 -88t-55 -99.5t-47 -96.5t-28.5 -79q-8 -30 -8 -50q0 -21 9 -31q17 -21 52 -8.5t82 51 t88 96.5q18 39 44 87t51.5 93t47 79t33.5 46q16 16 51 24.5t68 8.5t53.5 -9.5t10.5 -23.5q-27 -39 -55.5 -87t-54.5 -97.5t-48.5 -95.5t-34.5 -83q-29 -86 -61 -166q41 4 86 20.5t116 59.5q25 16 31 10t-3 -25t-31.5 -46t-55.5 -53q-57 -43 -105.5 -62.5t-93.5 -23.5 q-37 -72 -82 -130.5t-101 -101.5t-126 -67.5t-154 -24.5q-98 0 -150 46t-52 111.5zM-2 -83q6 -22 49 -28q11 -1 21 -1q49 0 94 31q53 38 106 120q-31 2 -61 0q-68 -6 -118 -28.5t-73.5 -47t-17.5 -46.5z" />
<glyph unicode="z" horiz-adv-x="657" d="M-58 88q3 41 24.5 88t58.5 74q14 10 53 37.5t89 62.5t103.5 73t97.5 70.5t73.5 56t31.5 28.5q-27 -14 -74 -28.5t-96 -25t-93 -13.5q-10 -1 -19 -1q-29 0 -44 8q-20 10 -17 40t22 62q20 30 50 54q27 22 55 22h5q19 -2 39 -2q31 0 65 4q54 6 101 16.5t85 22t58 15.5 q37 10 60.5 -2.5t36 -36t14.5 -51t-4 -50.5q-8 -25 -62.5 -67.5t-127 -93t-150.5 -99.5t-135 -82q33 13 64 13q68 0 124 -62q50 -58 97 -58q7 -1 13 1q54 10 101 51q47 37 52 21q1 -2 1 -4q0 -18 -28 -64q-23 -31 -61 -65.5t-87 -54.5q-47 -20 -102 -20h-6q-58 1 -119 42 q-49 33 -84 43q-21 6 -40 6q-15 0 -27 -3q-32 -7 -63.5 -28.5t-74.5 -54.5q-35 -29 -49 -7q-12 18 -12 48q0 7 1 14z" />
<glyph unicode="{" horiz-adv-x="712" d="M105.5 15.5q13.5 78.5 49 160.5t66.5 147.5t44.5 107.5t-21.5 42q-31 0 -43.5 18.5t-6 39t31 38t69.5 17.5q59 0 85 31.5t43 83t37.5 116t69 128t136 119.5t239.5 93q115 27 131.5 0t-92.5 -86q-49 -27 -91 -81t-80 -119.5t-77 -135t-83 -127t-96 -94.5t-118 -37 q47 -20 51.5 -70.5t-15 -115t-52.5 -136t-59.5 -136t-40 -112.5t9.5 -67q29 -25 38 -47t0 -36.5t-34 -16.5t-64 16q-90 41 -115.5 111t-12 148.5z" />
<glyph unicode="|" horiz-adv-x="479" d="M-17.5 -69.5q-11.5 18.5 9.5 53.5q6 12 44 95t92 201.5t115.5 255t114 254t88 196.5t37.5 85q16 25 46 35t56.5 7t38.5 -20.5t-6 -48.5q-4 -4 -25.5 -52t-56 -123.5t-77.5 -171t-87 -195t-87 -194.5t-77 -170t-55.5 -122t-23.5 -51q-20 -31 -52 -45t-57.5 -11t-37 21.5z " />
<glyph unicode="}" horiz-adv-x="751" d="M-158 -254q-6 12 15.5 33.5t76.5 52.5q49 27 91.5 81t80 119.5t76.5 135.5t83 127t96.5 93t117.5 38q-47 20 -51 70.5t15.5 115t52 136t59.5 136t39 112.5t-8 67q-29 25 -38 47.5t0 36.5t33.5 16t63.5 -16q90 -41 115.5 -110.5t12.5 -148.5t-49 -161t-66.5 -147.5 t-44 -107.5t21.5 -42q31 0 43 -18.5t6 -39t-30.5 -38t-69.5 -17.5q-59 0 -85 -31.5t-43.5 -82.5t-38 -115.5t-68.5 -128t-136 -120t-240 -93.5q-57 -14 -91 -13t-40 13z" />
<glyph unicode="~" horiz-adv-x="653" d="M86 366.5q0 32.5 25 69.5q18 29 51 52.5t70.5 33.5t76.5 4t70 -34q20 -18 37.5 -34t34 -23t32 -1t33.5 31q20 31 36.5 31t24 -19.5t2 -52.5t-25.5 -70q-18 -31 -52 -51t-73 -26.5t-78 8t-69 55.5q-18 25 -37 31t-36.5 0t-32.5 -23.5t-25 -40.5q-8 -23 -24.5 -18.5t-28 25 t-11.5 53z" />
<glyph unicode="&#xa1;" horiz-adv-x="509" d="M65.5 -23.5q-12.5 62.5 16.5 123.5q8 20 36.5 67.5t67.5 107t82 124t82 120.5t66.5 95t36.5 50q18 23 38.5 27.5t35 -3.5t19.5 -27.5t-5 -44.5q-6 -12 -29 -68t-55.5 -134t-68.5 -166t-67.5 -164t-55 -130t-27.5 -63q-25 -57 -63 -55t-67.5 40t-42 100.5zM502 930 q0 53 36.5 90t90.5 37q53 0 90 -37t37 -90t-37 -90t-90 -37t-90 37t-37 90z" />
<glyph unicode="&#xa2;" horiz-adv-x="772" d="M54 350.5q-38 110.5 28 259.5q33 74 82 128.5t104.5 89t112.5 53t111 18.5q2 12 3 29.5t1 35v33t4 21.5q18 31 57 43t75 9t56.5 -22.5t1.5 -52.5q-16 -25 -37.5 -61.5t-38.5 -61.5q43 -23 68 -61q20 -35 24.5 -75t-7 -80t-35 -74.5t-58.5 -59.5q-37 -25 -74.5 -27.5 t-65.5 8.5t-38 30.5t8 39.5q14 16 32.5 37t34 41.5t21.5 38t-4 29.5q-18 18 -56 10t-79 -35.5t-79 -74t-56 -103.5q-25 -76 8 -123t97.5 -61.5t150.5 5t172 77.5q33 20 40 13t-6.5 -31.5t-46 -59.5t-79.5 -67.5t-106.5 -57.5t-127.5 -29q-6 -27 -4 -64.5t-2 -49.5 q-18 -31 -57 -43.5t-75 -9.5t-56.5 21.5t-1.5 51.5q12 23 30.5 54.5t32.5 58.5q-127 39 -165 149.5z" />
<glyph unicode="&#xa3;" horiz-adv-x="1026" d="M8 12q-12 43 14.5 91.5t104.5 72.5q12 10 31.5 52t48.5 106h-74q-31 0 -36 22.5t10.5 48t46 48t69.5 22.5h49l31 70h-53q-31 0 -36 22.5t10.5 49t46 49t67.5 22.5h37q53 102 115.5 199.5t131 169t143.5 107.5t155 16q43 -12 73.5 -61.5t40.5 -101.5t-2 -90t-53 -30 q-68 14 -127 6t-113.5 -36.5t-102.5 -75t-91 -103.5h157q39 0 48.5 -22.5t-5 -50t-46 -50t-74.5 -22.5h-172l-35 -68h170q39 0 47 -22.5t-6.5 -49t-46 -49t-74.5 -22.5h-158l-59 -144q76 6 166 -7t172 -26.5t145.5 -16.5t89.5 26q25 27 38 24.5t14.5 -22t-9 -50t-32 -63.5 t-54.5 -61.5t-76 -42.5q-49 -16 -109.5 -3t-123.5 31.5t-128 34t-124 2.5q-18 -25 -39.5 -43t-48.5 -28q-63 -23 -107.5 1.5t-56.5 67.5z" />
<glyph unicode="&#xa4;" horiz-adv-x="827" d="M72 139q-6 33 4 74t43 68l82 65q6 47 30 103q25 53 60 100q-12 27 -19.5 45t-9.5 24q-12 31 6.5 66t48 59.5t59.5 29.5t42 -23l26 -62q60 33 113 29q45 -4 72 -31l80 64q33 29 56 15.5t30.5 -46.5t-4 -76t-46.5 -74q-8 -6 -29.5 -24.5t-56.5 -44.5q-4 -18 -10 -39 t-16 -41q-14 -29 -29.5 -55.5t-34.5 -49.5l43 -96q12 -27 -6 -57.5t-47 -53t-58.5 -28.5t-37.5 16l-43 86q-59 -35 -115 -30q-35 2 -61 22l-101 -78q-27 -23 -46 -6.5t-25 49.5zM345 364q-5 -40 17 -45q12 -4 28 2.5t33 20.5t34.5 33.5t31.5 42.5q27 45 31 85t-18 46 q-12 4 -28.5 -3t-34 -20.5t-34 -34t-28.5 -40.5q-27 -47 -32 -87z" />
<glyph unicode="&#xa5;" horiz-adv-x="964" d="M105.5 71.5q-5.5 26.5 1 45t26.5 18.5q18 0 45 24.5t55 67.5h-47q-31 0 -39 16.5t3.5 36t38 36t65.5 16.5h45l20 35h-69q-31 0 -39 14t0 32.5t31.5 35t58.5 20.5q-2 4 -2 14q-8 100 -1 201.5t23.5 190t38 156t43.5 102.5q25 35 74 53t94 19t73 -13t11 -45 q-63 -113 -111 -261.5t-75 -295.5q31 59 82 153.5t117.5 188.5t146.5 173t166 109q37 12 82 -4t78 -42.5t42 -57.5t-28 -45q-80 -35 -154.5 -101.5t-141 -148.5t-123 -172t-99.5 -172h20q39 0 51.5 -16.5t3 -37t-38 -36.5t-71.5 -16h-22q-4 -10 -8.5 -17.5t-8.5 -15.5h33 q39 0 51 -16.5t3 -37t-37.5 -37t-71.5 -16.5h-31q-53 -104 -104.5 -183t-106.5 -101q-39 -14 -72.5 -5t-58.5 30.5t-41 50t-21.5 55z" />
<glyph unicode="&#xa6;" horiz-adv-x="479" d="M-17.5 -69.5q-11.5 18.5 9.5 53.5q6 12 23.5 48t40 85t48 104t47 102.5t37 80t17.5 38.5q16 25 46 35t56.5 7t38.5 -20t-6 -48q-4 -6 -20.5 -41t-39 -83t-48 -103.5t-47 -103.5t-38 -82t-18.5 -38q-20 -31 -52 -45t-57.5 -11t-37 21.5zM277.5 559.5q-11.5 18.5 9.5 52.5 q6 10 23.5 47t40 86.5t48 104.5t47 102t37 80t17.5 39q16 25 45.5 35t56.5 7t39 -20.5t-6 -48.5q-4 -6 -20.5 -40.5t-39 -83t-48 -103.5t-47 -103t-38 -82t-18.5 -38q-20 -31 -52 -45t-57.5 -11t-37 21.5z" />
<glyph unicode="&#xa7;" horiz-adv-x="1058" d="M-1 -2q3 61 38 121q31 55 75 75.5t78.5 17.5t49 -23.5t-14.5 -47.5q-23 -23 -37 -54.5t-11 -59t28.5 -42t81.5 0.5q55 14 104 42.5t86 64.5t58.5 72t20.5 61.5t-29 37.5t-87 0q-109 -23 -176 13t-85.5 105t14 157t124.5 170q-18 41 -13 92t34 105.5t84 109.5t137 104 q113 66 202 66t145.5 -38t77 -103.5t-2.5 -133.5q-23 -66 -60.5 -93t-71.5 -29.5t-52.5 14t-1.5 39.5q41 57 44 90t-19.5 44t-65.5 2t-95 -36q-51 -25 -90 -62.5t-47 -70.5t24 -49.5t124 0.5q119 23 176 -16t63 -112t-30.5 -163t-106.5 -172q8 -74 -29.5 -168t-111.5 -177 t-177.5 -137.5t-222.5 -50.5q-80 4 -133 37t-77.5 84.5t-21.5 112.5zM382 470q-1 -32 31.5 -48t112.5 0q74 12 119 4q23 39 34 78t5 67.5t-32.5 43t-76.5 3.5q-49 -12 -94 -8q-41 -31 -69.5 -69.5t-29.5 -70.5z" />
<glyph unicode="&#xa8;" horiz-adv-x="661" d="M72 975q0 49 35.5 85t85.5 36q49 0 82.5 -36t33.5 -85t-33.5 -84t-82.5 -35t-85 35t-36 84zM360 975q0 49 36 85t85 36q47 0 82 -36t35 -85t-35 -84t-82 -35q-49 0 -85 35t-36 84z" />
<glyph unicode="&#xa9;" horiz-adv-x="1191" d="M22.5 250q-2.5 125 43.5 266q47 141 130 266t186 218.5t218.5 147.5t228.5 54t194 -54t124 -147.5t45 -218.5t-43 -266q-47 -141 -130 -266t-187.5 -218t-220 -147.5t-226.5 -54.5q-113 0 -193.5 54.5t-123.5 147.5t-45.5 218zM147.5 171q12.5 -87 54.5 -144.5t109 -69.5 q92 -18 186.5 11.5t181.5 94t163 157.5t131 202q57 106 78.5 214.5t10.5 200t-52 156t-109 82.5q-92 25 -189.5 -8t-186.5 -102.5t-166.5 -169t-129.5 -207.5q-55 -115 -74.5 -222.5t-7 -194.5zM247 413.5q3 71.5 40 155.5q53 117 140 185.5t178 91t169 3t113 -78.5 q20 -35 24 -75t-7 -80t-34.5 -74.5t-58.5 -59.5q-37 -25 -75 -27.5t-65.5 8.5t-37.5 30.5t8 39.5q14 16 32.5 37t34 41.5t21.5 38t-4 29.5q-18 18 -56 10t-79 -35.5t-79 -74t-56 -103.5q-25 -76 8 -123t97.5 -61.5t150.5 5t172 77.5q37 23 42 12.5t-12.5 -39.5t-57.5 -67.5 t-95 -71.5t-125 -52.5t-146 -9.5q-82 10 -137 47t-81.5 93.5t-23.5 128z" />
<glyph unicode="&#xaa;" horiz-adv-x="790" d="M223 687q-4 42 8.5 90t42 99.5t72.5 96.5t90 72.5t91 39t82 3t63 -36.5l12 -21l21 25q12 12 36.5 17t49 5t40 -6t7.5 -16q-18 -29 -40 -64t-40.5 -70.5t-34.5 -69.5t-25 -60q-23 -63 5 -84t96 20q31 18 25.5 -2t-35 -51t-76.5 -59.5t-101 -28.5q-41 0 -59 18.5t-23 46.5 q-41 -31 -81.5 -49t-77.5 -23.5t-69 4t-52 33.5q-23 29 -27 71zM385 796q-12 -44 4 -67q8 -10 25.5 -12t39 6t45.5 24.5t42 45.5q35 51 54 93t3 64q-16 23 -64.5 8.5t-95.5 -71.5q-41 -47 -53 -91z" />
<glyph unicode="&#xab;" horiz-adv-x="1079" d="M141 338q-12 59 7.5 113.5t60.5 83.5q27 18 66.5 40.5t82.5 43t84 37t68 24.5q43 12 63.5 -16.5t19.5 -70.5t-20.5 -82t-54.5 -50q-23 -8 -57.5 -16.5t-72.5 -16.5t-72.5 -16.5t-53.5 -16.5q6 -23 27.5 -41t47 -35.5t50.5 -35.5t39 -41q14 -27 7 -64t-27.5 -64.5 t-45 -37.5t-43.5 18q-12 20 -38.5 50t-55 63t-52.5 66.5t-30 64.5zM551 297q-12 59 7.5 113.5t59.5 83.5q27 18 67 40.5t83 43t84 37t68 24.5q43 12 63.5 -16.5t19 -70.5t-20.5 -82t-54 -50q-23 -8 -57.5 -16.5t-72.5 -16.5t-73 -16.5t-53 -16.5q6 -23 27.5 -41t47 -35.5 t50.5 -35.5t39 -41q14 -27 7 -64t-27.5 -64.5t-45.5 -37.5t-43 18q-12 20 -38.5 50t-55.5 63t-52.5 66.5t-29.5 64.5z" />
<glyph unicode="&#xac;" horiz-adv-x="724" d="M33 335.5q-4 24.5 12 54.5t50 54.5t77 24.5h436q47 0 54.5 -27.5t-11.5 -58.5q-6 -10 -19.5 -35.5t-28.5 -57.5t-31.5 -62.5t-28.5 -51.5q-25 -41 -65 -59.5t-73.5 -16.5t-50 22.5t5.5 57.5l68 129h-105.5t-111.5 1t-92 1h-47q-35 0 -39 24.5z" />
<glyph unicode="&#xad;" horiz-adv-x="505" d="M33 335.5q-4 24.5 12 54.5t50 54.5t77 24.5h195q43 0 52 -24.5t-6.5 -55.5t-51 -55.5t-82.5 -24.5h-53.5t-61.5 1t-55.5 1h-36.5q-35 0 -39 24.5z" />
<glyph unicode="&#xae;" horiz-adv-x="1191" d="M22.5 250q-2.5 125 43.5 266q47 141 130 266t186 218.5t218.5 147.5t228.5 54t194 -54t124 -147.5t45 -218.5t-43 -266q-47 -141 -130 -266t-187.5 -218t-220 -147.5t-226.5 -54.5q-113 0 -193.5 54.5t-123.5 147.5t-45.5 218zM147.5 171q12.5 -87 54.5 -144.5t109 -69.5 q106 -23 214 19t204 128q-41 10 -71.5 42t-49 74t-28 90t-7.5 89q0 29 5.5 51.5t54.5 34.5t88 52.5t60.5 87.5t22.5 90t-24 61q-39 29 -96 24t-118.5 -39t-121 -94.5t-102.5 -140.5q-12 -25 -25.5 -15.5t-19.5 38.5t-1 71t30 82q47 80 125.5 138.5t164.5 87t167 24.5 t132 -49t53.5 -111.5t-27.5 -136t-85 -132t-119 -97.5q-4 -33 -1 -71t12.5 -71.5t24.5 -57t34 -29.5h14q43 49 81 106.5t71 118.5q57 106 78.5 214.5t10.5 200t-52 156t-109 82.5q-92 25 -189.5 -8t-186.5 -102.5t-166.5 -169t-129.5 -207.5q-55 -115 -74.5 -222.5 t-7 -194.5zM190.5 156.5q2.5 23.5 24.5 23.5q31 0 63.5 44t66.5 111.5t65.5 146.5t58.5 149q12 29 43 43t62.5 15t52 -12t10.5 -40q-6 -18 -25.5 -64.5t-48 -108t-64.5 -129t-75 -126.5t-78 -103.5t-76 -56.5q-25 -8 -44 11.5t-28.5 46t-7 50z" />
<glyph unicode="&#xaf;" horiz-adv-x="598" d="M61 880.5q-4 24.5 12.5 54.5t50.5 54.5t77 24.5h313q43 0 52 -24.5t-6 -55.5t-51 -55.5t-83 -24.5h-73t-102 1t-95 1h-56q-35 0 -39 24.5z" />
<glyph unicode="&#xb0;" horiz-adv-x="505" d="M186 975q0 76 53.5 128t127.5 52q76 0 128 -52t52 -128q0 -74 -52.5 -127t-127.5 -53q-37 0 -70 14t-57.5 38.5t-39 57.5t-14.5 70zM279 975q0 -35 26.5 -61.5t61.5 -26.5t61.5 26.5t26.5 61.5q0 39 -27 63.5t-61 24.5q-35 0 -61.5 -24.5t-26.5 -63.5z" />
<glyph unicode="&#xb1;" horiz-adv-x="755" d="M-131 -73.5q-4 24.5 12.5 54t50 54t76.5 24.5h424q43 0 52.5 -24.5t-6 -55t-51.5 -55t-83 -24.5h-51h-83t-96.5 1t-93.5 1h-73.5h-38.5q-35 0 -39 24.5zM33 335.5q-4 24.5 12 54.5t50 54.5t77 24.5h123l57 111q18 39 55 58t71 21.5t54.5 -13t4.5 -46.5l-22.5 -45 t-41.5 -86h123q43 0 52 -24.5t-6 -55.5t-51 -55.5t-83 -24.5h-113l-49 -102q-20 -41 -59 -62.5t-73 -21.5t-52.5 19.5t2.5 60.5q2 6 16.5 35.5t36.5 70.5q-55 0 -95 1t-50 1q-35 0 -39 24.5z" />
<glyph unicode="&#xb2;" horiz-adv-x="790" d="M118 436.5q-1 28.5 17.5 56t57 50t102.5 28.5h4q78 53 153.5 125t127 144.5t64.5 135t-32 95.5q-18 14 -46.5 10t-57.5 -22.5t-53.5 -49t-36.5 -69.5q-12 -37 -35 -28.5t-34 45t-1 93t64 115.5q31 35 69.5 59.5t80.5 34t85 0.5t80 -40q63 -55 65.5 -136.5t-37.5 -171.5 t-113 -182t-159 -172q72 -14 132.5 -27.5t89.5 15.5q31 31 39 15.5t-4.5 -50.5t-44 -75t-83.5 -56q-35 -12 -69.5 -8t-68.5 14t-67.5 22.5t-66.5 18.5q-20 -16 -42 -29.5t-40 -21.5q-41 -18 -72.5 -13t-49 25.5t-18.5 49z" />
<glyph unicode="&#xb3;" horiz-adv-x="739" d="M142 544.5q-1 22.5 6.5 31t23.5 -8.5q45 -51 92 -66.5t90 -7t80 34t60.5 57t29.5 63.5t-10 54q-18 -6 -43 -4.5t-45 11.5q-39 16 -50 47.5t3 59.5t51 40t96 -10q41 25 68 57.5t37 64t4 59.5t-27 46q-47 37 -111.5 16.5t-117.5 -85.5q-29 -35 -48.5 -19t-15.5 57t42 95.5 t126 97.5q31 14 69 23.5t76 8.5t73.5 -12.5t62.5 -37.5q47 -47 55 -107.5t-11.5 -121t-63.5 -117t-99 -97.5q43 -47 40 -117.5t-45 -135t-115.5 -110.5t-172.5 -46q-55 0 -94 19t-64.5 48t-38 59.5t-13.5 53z" />
<glyph unicode="&#xb4;" horiz-adv-x="706" d="M121 901q-4 12 2 22.5t22 12.5q33 2 80 24.5t93.5 52t83.5 60t51 53.5q29 39 53 25t37.5 -51t11.5 -82t-27 -66q-27 -23 -69.5 -42t-91 -32.5t-96.5 -18.5t-83 1q-31 6 -47 17.5t-20 23.5z" />
<glyph unicode="&#xb5;" horiz-adv-x="722" d="M-229.5 -330.5q-20.5 23.5 0.5 58.5q6 10 27.5 58t50 113.5t61.5 140.5t60.5 138.5t47 107.5t21.5 50q14 37 40.5 90t54.5 103.5t53.5 91.5t37.5 55q16 16 51 24.5t68 8.5t54.5 -9.5t9.5 -23.5q-27 -39 -54.5 -87t-52.5 -97.5t-46.5 -95.5t-35.5 -83q-18 -47 -4 -68.5 t43 -21.5t66.5 22.5t68.5 65.5l10 25q16 37 43 90t54.5 103.5t53.5 91.5t40 55q16 16 51 24.5t67.5 8.5t53 -9.5t10.5 -23.5q-27 -39 -54.5 -87t-54 -97.5t-48 -95.5t-33.5 -83q-33 -86 6 -113.5t131 27.5q27 16 33 8t-6.5 -29.5t-39 -51t-64.5 -56t-84 -46t-95 -19.5 q-76 0 -97.5 42t-13.5 105q-43 -57 -107.5 -102t-148.5 -45q-39 0 -67 14q-23 -74 -31 -134t-12 -108.5t-7 -81t-14 -47.5q-23 -31 -63.5 -40t-77.5 0.5t-57.5 33z" />
<glyph unicode="&#xb6;" horiz-adv-x="1120" d="M1 -450.5q-11 18.5 9 53.5q4 8 35 75.5t77 170t102.5 228.5t111.5 251q-29 14 -60.5 42.5t-50 72.5t-16.5 107.5t43 147.5q25 51 71 96.5t103 77t121.5 50t126.5 18.5q125 0 247 -2t212 2q45 2 56 -19.5t0 -48t-41 -49t-69 -22.5h-39q-27 -59 -77 -171t-110 -246 t-121.5 -273.5t-114 -255t-86 -191.5t-35.5 -80q-20 -31 -52 -45t-58 -11t-37 21.5t9 53.5q6 10 40 85.5t84 189.5t111.5 250t120 267t108.5 244t79 176q-53 4 -104.5 8t-91.5 4q-16 -35 -48 -105.5t-73 -163.5t-89.5 -200.5t-96.5 -214t-92 -206t-78.5 -177t-56 -125 t-24.5 -51.5q-20 -31 -52 -45t-57.5 -11t-36.5 21.5z" />
<glyph unicode="&#xb7;" horiz-adv-x="452" d="M152 397q0 53 36.5 90t90.5 37q53 0 90 -36.5t37 -90.5q0 -53 -37 -90t-90 -37t-90 37t-37 90z" />
<glyph unicode="&#xb8;" horiz-adv-x="645" d="M85 -304q-1 32 10 52.5t30.5 25.5t44.5 -18q25 -20 60.5 -31.5t71.5 -11.5t64.5 10.5t39.5 32.5q10 23 1.5 36t-28 20.5t-44 8.5t-48.5 -1q-25 -2 -36 6t-13 22.5t5 31t17 32.5l84 133q8 12 25.5 13t36 -5t31 -16t7.5 -19q-12 -20 -21 -36.5t-15 -28.5q-8 -14 -15 -27 q59 -16 92 -54t41.5 -84t-7 -94t-53.5 -85t-95.5 -56.5t-132.5 -7.5q-53 8 -87 33t-49.5 55.5t-16.5 62.5z" />
<glyph unicode="&#xb9;" horiz-adv-x="700" d="M132 427q-7 26 0 53.5t42 43.5q27 12 57.5 14.5t65.5 -1.5q-10 33 0 61q6 16 23.5 57t41 95.5t51 117t58.5 123.5q-16 4 -28.5 15.5t-16.5 21.5q-6 12 14.5 45t54 70t72.5 68.5t74 41.5q29 6 51.5 -5t35.5 -30.5t14 -42t-11 -36.5q-10 -10 -33.5 -50t-54.5 -95.5 t-65.5 -122t-67.5 -131t-61.5 -122t-47.5 -94.5q25 -2 47.5 1t38.5 14q29 16 38.5 -2.5t5 -49t-23 -62.5t-44.5 -44q-29 -12 -69 -5t-82 15t-76.5 10t-53.5 -16q-12 -12 -27.5 2t-22.5 40z" />
<glyph unicode="&#xba;" horiz-adv-x="819" d="M210 646q-1 79 23 169q27 90 73 170t104.5 139.5t123.5 93t128 33.5q61 0 107 -33.5t70.5 -93t25.5 -139.5t-25 -170q-27 -90 -73 -169t-104.5 -138t-123 -94t-127.5 -35q-61 0 -106.5 35t-70 94t-25.5 138zM355 636q1 -44 15.5 -74t43.5 -36t63.5 12.5t70.5 55.5 t68.5 87t55.5 105q25 55 36 109.5t10 98.5t-15.5 74t-43.5 36t-63.5 -12.5t-70.5 -54.5t-68.5 -86t-55.5 -105q-25 -55 -36 -110.5t-10 -99.5z" />
<glyph unicode="&#xbb;" horiz-adv-x="645" d="M95 164q1 41 20.5 82t54.5 51q20 8 56 16.5t74 16.5t73 16t53 16q-6 23 -27.5 41.5t-47 36t-50.5 35.5t-39 41q-16 27 -8 63.5t28.5 64.5t45 37t43.5 -17q12 -23 38.5 -51.5t55.5 -61.5t52.5 -66.5t29.5 -64.5q12 -59 -7.5 -113.5t-60.5 -83.5q-27 -18 -66.5 -40.5 t-82.5 -43t-84 -37t-68 -24.5q-43 -12 -63.5 16.5t-19.5 69.5z" />
<glyph unicode="&#xbc;" horiz-adv-x="1654" d="M103.5 289.5q-7.5 25.5 0 53.5t41.5 44q27 12 57.5 14t65.5 -2q-10 33 0 62q6 16 23.5 57t41 95.5t51.5 117t58 123.5q-16 4 -28.5 15.5t-16.5 21.5q-6 12 14.5 45t54.5 69.5t72.5 68.5t73.5 42q29 6 51.5 -5t36 -30.5t14.5 -42t-12 -37.5q-10 -10 -33.5 -50t-54 -95 t-65.5 -121.5t-67.5 -131t-61.5 -122t-47 -94.5q25 -2 47 1t39 13q29 16 38 -2t5 -49t-22.5 -62.5t-45.5 -43.5q-29 -12 -68.5 -5t-81.5 15t-77 10t-53 -16q-12 -12 -27.5 2t-23 39.5zM250 -69.5q-6 18.5 26 53.5q8 8 49.5 58t102.5 127t137 172t154 194.5t153.5 193.5 t134 169t96.5 122t42 51q25 25 57.5 35t57 7t32 -20.5t-21.5 -48.5q-4 -4 -43 -52t-99.5 -123.5t-135 -171t-153.5 -195t-154 -194.5t-134 -170t-97 -122t-42 -51q-31 -31 -68 -45t-62.5 -11t-31.5 21.5zM835 264q1 33 17 70t53 59q23 14 62 46t86 73t99 88t102.5 91 t95.5 82t80 61q4 4 7 6t7 4q29 6 52.5 -5.5t36.5 -31t16 -42t-11 -36.5q-8 -10 -28.5 -49t-48 -97.5t-60.5 -129t-66 -142.5q29 -2 52.5 1t37.5 18q35 31 46.5 14.5t-2 -50.5t-49.5 -74t-97 -54q-16 -4 -29.5 -6t-29.5 -4q-31 -72 -54.5 -125t-33.5 -76q-8 -16 -28 -13 t-37 19t-28.5 44t-1.5 58l41 115q-59 16 -117.5 28.5t-117.5 -3.5q-25 -10 -39 9t-13 52zM1061 352q31 -2 61.5 -6t61.5 -10q47 123 100 242z" />
<glyph unicode="&#xbd;" horiz-adv-x="1576" d="M83 300q-7 26 0 53.5t42 43.5q27 12 57.5 14.5t65.5 -1.5q-10 33 0 61q6 16 23.5 57t41 95.5t51 117t58.5 123.5q-16 4 -28.5 15.5t-16.5 21.5q-6 12 14.5 45t54 70t72.5 68.5t74 41.5q29 6 51.5 -5t35.5 -30.5t14 -42t-11 -36.5q-10 -10 -33.5 -50t-54.5 -95.5 t-65.5 -122t-67.5 -131t-61.5 -122t-47.5 -94.5q25 -2 47.5 1t38.5 14q29 16 38 -2.5t5 -49t-22.5 -62.5t-44.5 -44q-29 -12 -69 -5t-82 15t-76.5 10t-53.5 -16q-12 -12 -27.5 2t-22.5 40zM250 -69.5q-6 18.5 26 53.5q8 8 49.5 58t102.5 127t137 172t154 194.5t153.5 193.5 t134 169t96.5 122t42 51q25 25 57.5 35t57 7t32 -20.5t-21.5 -48.5q-4 -4 -43 -52t-99.5 -123.5t-135 -171t-153.5 -195t-154 -194.5t-134 -170t-97 -122t-42 -51q-31 -31 -68 -45t-62.5 -11t-31.5 21.5zM816 26.5q-1 28.5 17.5 56.5t57.5 50.5t102 28.5h2q78 51 155 123.5 t127 145.5t64.5 135.5t-32.5 95.5q-18 14 -47 10t-56.5 -22.5t-53.5 -49.5t-38 -70q-12 -37 -33.5 -28.5t-33 45.5t-2 93t62.5 116q31 35 71 59.5t82 33.5t83.5 0t78.5 -40q66 -55 68 -136t-38 -171t-112.5 -182.5t-158.5 -172.5q72 -14 132 -27.5t89 15.5q29 31 38 15.5 t-3.5 -50t-44 -74.5t-82.5 -57q-35 -10 -70 -6t-68.5 14.5t-67.5 21.5t-67 17q-20 -16 -41.5 -28.5t-40.5 -22.5q-41 -18 -72.5 -13t-49 25.5t-18.5 49z" />
<glyph unicode="&#xbe;" horiz-adv-x="1669" d="M146 407.5q-1 22.5 6.5 30.5t23.5 -8q45 -49 92 -65.5t90 -8t80 34t60.5 57t30 63.5t-10.5 54q-18 -6 -43 -5t-45 11q-39 16 -50 48t3 60t51 40t96 -10q41 25 68 57.5t37 64t4 59.5t-27 46q-47 37 -111.5 16.5t-117.5 -86.5q-29 -35 -48.5 -18.5t-15 57.5t42 95.5 t125.5 97.5q31 14 69 23t76 8t73.5 -12t62.5 -38q47 -47 55 -107.5t-11 -120.5t-63 -116.5t-100 -97.5q43 -47 40 -117.5t-45 -135.5t-115.5 -111t-172.5 -46q-55 0 -94 19.5t-64.5 48.5t-38 59.5t-13.5 53zM412 -69.5q-6 18.5 26 53.5q8 8 49 58t102.5 127t137.5 172 t153.5 194.5t153.5 193.5t134.5 169t96.5 122t42 51q25 25 57.5 35t57 7t32 -20.5t-21.5 -48.5q-4 -4 -43 -52t-99.5 -123.5t-135.5 -171t-153.5 -195t-153.5 -194.5t-134.5 -170t-97 -122t-42.5 -51q-31 -31 -67.5 -45t-62 -11t-31.5 21.5zM935 264q1 33 17.5 70t51.5 59 q23 14 61.5 46t85.5 73t98 87t102.5 91t96.5 82t78 62q4 4 8 6l8 4q29 6 52.5 -5.5t38 -31t16.5 -42t-13 -36.5q-8 -10 -28.5 -49t-48 -97.5t-60.5 -129t-65 -142.5q29 -2 52 2t38 17q35 31 46 14.5t-1.5 -50.5t-49 -74t-98.5 -54q-16 -4 -29.5 -6t-27.5 -4l-90 -201 q-8 -16 -26.5 -13t-37 19t-29 44t0.5 58l14 42t27 73q-59 16 -119 28.5t-119 -3.5q-25 -10 -38 9t-12 52zM1159 352q31 -2 62.5 -6t62.5 -10q23 59 48.5 121.5t51.5 122.5z" />
<glyph unicode="&#xbf;" horiz-adv-x="509" d="M-97 115.5q9 74.5 51 146.5t118 119q55 35 97 59.5t76 50t64.5 59.5t65.5 89q23 37 46 46t39.5 1t22.5 -31.5t-6 -52.5q-35 -86 -96.5 -154.5t-140.5 -115.5q-57 -33 -94 -74t-52.5 -80t-8.5 -72.5t38 -52.5q27 -16 60.5 -11t64.5 27.5t54.5 59.5t33.5 84q8 39 29.5 23.5 t34 -63.5t2 -115.5t-65.5 -129.5q-66 -76 -155 -93t-177 36q-59 37 -84.5 103.5t-16.5 141zM434 920q0 53 37 90t90 37t90 -37t37 -90t-37 -90t-90 -37t-90 36.5t-37 90.5z" />
<glyph unicode="&#xc0;" horiz-adv-x="1302" d="M-12 106.5q0 36.5 41 59.5q78 41 167 111.5t185 162.5q-66 8 -124 3t-112 -33q-33 -18 -46 -7t-11 37.5t17.5 63.5t38 71.5t51 62.5t57.5 36q78 20 159 8t164 -41q102 111 198.5 226.5t177.5 220t141.5 189.5t91.5 136q31 47 84 64.5t105 6.5t90 -49t36 -100 q0 -55 -17.5 -136t-47 -177t-65.5 -198.5t-74 -198t-71.5 -177t-58.5 -135.5q-23 -49 -21.5 -78.5t21 -41t55.5 -3.5t83 37q27 16 32.5 8t-6.5 -29.5t-39.5 -51t-65.5 -56t-84 -46t-96 -19.5q-113 0 -142.5 84t52.5 260q-80 -12 -157.5 -6t-153.5 20q-70 -80 -138.5 -151.5 t-130 -129t-113.5 -94t-91 -45.5q-45 -12 -88 9.5t-68.5 55.5t-25.5 70.5zM788 567q59 -20 117 -34.5t115 -18.5q35 76 68.5 163t60.5 169t41 152.5t12 115.5q-16 -27 -55 -81t-94.5 -128t-123 -161t-141.5 -177zM1218.5 1703.5q-1.5 45.5 12.5 82.5t37.5 51.5t52.5 -22.5 q14 -23 51 -54.5t83 -61.5t92 -52.5t81 -26.5q14 -2 21.5 -11.5t3.5 -21.5t-20.5 -23.5t-47.5 -17.5q-35 -6 -82 -2t-96 17.5t-92 34t-70 42.5q-25 20 -26.5 65.5z" />
<glyph unicode="&#xc1;" horiz-adv-x="1302" d="M-12 106.5q0 36.5 41 59.5q78 41 167 111.5t185 162.5q-66 8 -124 3t-112 -33q-33 -18 -46 -7t-11 37.5t17.5 63.5t38 71.5t51 62.5t57.5 36q78 20 159 8t164 -41q102 111 198.5 226.5t177.5 220t141.5 189.5t91.5 136q31 47 84 64.5t105 6.5t90 -49t36 -100 q0 -55 -17.5 -136t-47 -177t-65.5 -198.5t-74 -198t-71.5 -177t-58.5 -135.5q-23 -49 -21.5 -78.5t21 -41t55.5 -3.5t83 37q27 16 32.5 8t-6.5 -29.5t-39.5 -51t-65.5 -56t-84 -46t-96 -19.5q-113 0 -142.5 84t52.5 260q-80 -12 -157.5 -6t-153.5 20q-70 -80 -138.5 -151.5 t-130 -129t-113.5 -94t-91 -45.5q-45 -12 -88 9.5t-68.5 55.5t-25.5 70.5zM788 567q59 -20 117 -34.5t115 -18.5q35 76 68.5 163t60.5 169t41 152.5t12 115.5q-16 -27 -55 -81t-94.5 -128t-123 -161t-141.5 -177zM1280 1577q-4 12 2 22.5t23 12.5q33 2 80 24.5t93 52t83 60 t51 53.5q29 39 53.5 24.5t37.5 -51t11 -81.5t-26 -66q-27 -23 -70 -42t-91 -32.5t-96.5 -18.5t-82.5 1q-31 6 -47.5 17.5t-20.5 23.5z" />
<glyph unicode="&#xc2;" horiz-adv-x="1302" d="M-12 106.5q0 36.5 41 59.5q78 41 167 111.5t185 162.5q-66 8 -124 3t-112 -33q-33 -18 -46 -7t-11 37.5t17.5 63.5t38 71.5t51 62.5t57.5 36q78 20 159 8t164 -41q102 111 198.5 226.5t177.5 220t141.5 189.5t91.5 136q31 47 84 64.5t105 6.5t90 -49t36 -100 q0 -55 -17.5 -136t-47 -177t-65.5 -198.5t-74 -198t-71.5 -177t-58.5 -135.5q-23 -49 -21.5 -78.5t21 -41t55.5 -3.5t83 37q27 16 32.5 8t-6.5 -29.5t-39.5 -51t-65.5 -56t-84 -46t-96 -19.5q-113 0 -142.5 84t52.5 260q-80 -12 -157.5 -6t-153.5 20q-70 -80 -138.5 -151.5 t-130 -129t-113.5 -94t-91 -45.5q-45 -12 -88 9.5t-68.5 55.5t-25.5 70.5zM788 567q59 -20 117 -34.5t115 -18.5q35 76 68.5 163t60.5 169t41 152.5t12 115.5q-16 -27 -55 -81t-94.5 -128t-123 -161t-141.5 -177zM1173.5 1578q-8.5 17 14.5 40q18 16 43.5 37.5t54.5 44 t58.5 43t54.5 35.5q49 27 95 27.5t69 -21.5q31 -33 64.5 -71t47.5 -77q10 -31 -14.5 -54t-58 -35.5t-67.5 -8.5t-42 29q-12 31 -22.5 67.5t-24.5 61.5q-37 -23 -66.5 -53.5t-68.5 -67.5q-23 -20 -53.5 -24.5t-53 3t-31 24.5z" />
<glyph unicode="&#xc3;" horiz-adv-x="1302" d="M-12 106.5q0 36.5 41 59.5q78 41 167 111.5t185 162.5q-66 8 -124 3t-112 -33q-33 -18 -46 -7t-11 37.5t17.5 63.5t38 71.5t51 62.5t57.5 36q78 20 159 8t164 -41q102 111 198.5 226.5t177.5 220t141.5 189.5t91.5 136q31 47 84 64.5t105 6.5t90 -49t36 -100 q0 -55 -17.5 -136t-47 -177t-65.5 -198.5t-74 -198t-71.5 -177t-58.5 -135.5q-23 -49 -21.5 -78.5t21 -41t55.5 -3.5t83 37q27 16 32.5 8t-6.5 -29.5t-39.5 -51t-65.5 -56t-84 -46t-96 -19.5q-113 0 -142.5 84t52.5 260q-80 -12 -157.5 -6t-153.5 20q-70 -80 -138.5 -151.5 t-130 -129t-113.5 -94t-91 -45.5q-45 -12 -88 9.5t-68.5 55.5t-25.5 70.5zM788 567q59 -20 117 -34.5t115 -18.5q35 76 68.5 163t60.5 169t41 152.5t12 115.5q-16 -27 -55 -81t-94.5 -128t-123 -161t-141.5 -177zM1181.5 1616q-0.5 33 24.5 70q18 29 51 52t71 33.5t77 4 t70 -34.5q20 -18 37.5 -33.5t34 -23t31.5 -1t34 30.5q20 31 36.5 31t23.5 -19.5t2 -52.5t-25 -69q-18 -31 -52 -51.5t-73 -26.5t-78 8t-70 55q-18 25 -36.5 31t-36 0t-33 -23.5t-25.5 -40.5q-8 -23 -24.5 -18.5t-27.5 25t-11.5 53.5z" />
<glyph unicode="&#xc4;" horiz-adv-x="1302" d="M-12 106.5q0 36.5 41 59.5q78 41 167 111.5t185 162.5q-66 8 -124 3t-112 -33q-33 -18 -46 -7t-11 37.5t17.5 63.5t38 71.5t51 62.5t57.5 36q78 20 159 8t164 -41q102 111 198.5 226.5t177.5 220t141.5 189.5t91.5 136q31 47 84 64.5t105 6.5t90 -49t36 -100 q0 -55 -17.5 -136t-47 -177t-65.5 -198.5t-74 -198t-71.5 -177t-58.5 -135.5q-23 -49 -21.5 -78.5t21 -41t55.5 -3.5t83 37q27 16 32.5 8t-6.5 -29.5t-39.5 -51t-65.5 -56t-84 -46t-96 -19.5q-113 0 -142.5 84t52.5 260q-80 -12 -157.5 -6t-153.5 20q-70 -80 -138.5 -151.5 t-130 -129t-113.5 -94t-91 -45.5q-45 -12 -88 9.5t-68.5 55.5t-25.5 70.5zM788 567q59 -20 117 -34.5t115 -18.5q35 76 68.5 163t60.5 169t41 152.5t12 115.5q-16 -27 -55 -81t-94.5 -128t-123 -161t-141.5 -177zM1169 1669q0 49 36 85t85 36t83 -36t34 -85t-34 -84t-83 -35 t-85 35t-36 84zM1458 1669q0 49 36 85t85 36q47 0 82 -36t35 -85t-35 -84t-82 -35q-49 0 -85 35t-36 84z" />
<glyph unicode="&#xc5;" horiz-adv-x="1302" d="M-12 106.5q0 36.5 41 59.5q78 41 167 111.5t185 162.5q-66 8 -124 3t-112 -33q-33 -18 -46 -7t-11 37.5t17.5 63.5t38 71.5t51 62.5t57.5 36q78 20 159 8t164 -41q102 111 198.5 226.5t177.5 220t141.5 189.5t91.5 136q31 49 90 66q-20 41 -21 84q0 76 53.5 128t127.5 52 q76 0 128 -52.5t52 -127.5q0 -59 -35 -106.5t-90 -65.5q10 -27 10 -56q0 -55 -17.5 -136t-47 -177t-65.5 -198.5t-74 -198t-71.5 -177t-58.5 -135.5q-23 -49 -21.5 -78.5t21 -41t55 -3t83.5 36.5q27 16 32.5 8t-6.5 -29.5t-39.5 -51t-65.5 -56t-84 -46t-96 -19.5 q-113 0 -142.5 84t52.5 260q-80 -12 -157.5 -6t-153.5 20q-70 -80 -138.5 -151.5t-130 -129t-113.5 -94t-91 -45.5q-45 -12 -88 9.5t-68.5 55.5t-25.5 70.5zM788 567q59 -20 117 -34.5t115 -18.5q35 76 68.5 163t60.5 169t41 152.5t12 115.5q-16 -27 -55 -81t-94.5 -128 t-123 -161t-141.5 -177zM1346 1563q0 -35 26.5 -61.5t61.5 -26.5t61.5 26.5t26.5 61.5q0 39 -27 63.5t-61 24.5q-35 0 -61.5 -24.5t-26.5 -63.5z" />
<glyph unicode="&#xc6;" horiz-adv-x="1921" d="M-12 106.5q0 36.5 41 59.5q78 41 167 111.5t185 162.5q-66 8 -124 3t-112 -33q-33 -18 -46 -7t-11 37.5t17.5 63.5t38 71.5t51 62.5t57.5 36q78 20 159 8t164 -41q102 111 198.5 226.5t177.5 220t141.5 189.5t91.5 136q31 47 84 64.5t105 6.5t90 -49t36 -100 q0 -20 -2 -30q84 10 186.5 18t197.5 16.5t172 19.5t108 30q27 14 46 4.5t29.5 -33t10.5 -59t-12.5 -71.5t-36 -69t-62.5 -53q-31 -16 -112.5 -17t-181 2t-203 6t-177.5 -3q-23 -92 -51.5 -197.5t-60.5 -214.5q45 18 90 24.5t88 9.5t84 11t80 31q41 25 55 -3t7 -72t-32.5 -90 t-64.5 -60q-37 -14 -86 -14.5t-100.5 2.5t-98.5 3t-78 -14q-29 -86 -54.5 -161t-47.5 -134q80 10 174 -3t180 -28.5t154.5 -18.5t99.5 28q29 29 43.5 26.5t15.5 -23t-10.5 -55t-35 -70.5t-60.5 -68t-84 -48q-61 -18 -137 -1t-155 42t-157.5 41t-148.5 -6 q-49 -39 -103.5 -54.5t-94 -8.5t-56 37t9.5 85q23 47 55.5 121t69.5 164q-78 -12 -155.5 -6t-153.5 20q-70 -80 -138.5 -151.5t-130 -129t-113.5 -94t-91 -45.5q-45 -12 -88 9.5t-68.5 55.5t-25.5 70.5zM788 567q57 -20 112.5 -33.5t109.5 -17.5q37 92 72.5 186.5t63.5 175 t43 143t13 93.5q-16 -27 -55 -81t-94.5 -128t-123 -161t-141.5 -177z" />
<glyph unicode="&#xc7;" horiz-adv-x="933" d="M17.5 404.5q9.5 123.5 54.5 259t115.5 260.5t161.5 228t193.5 164.5t211 71t215.5 -56.5q80 -49 114.5 -122.5t33.5 -156.5t-35 -165t-89 -150q-63 -76 -134 -100.5t-124 -19t-74.5 31t13.5 49.5q45 33 88 89.5t66.5 117t21.5 113.5t-47 82q-72 45 -154 9t-156.5 -121 t-136 -203.5t-93.5 -236.5t-26.5 -221.5t62.5 -158.5q53 -51 138 -58.5t176.5 9t178.5 49.5t142 61q31 16 38 5t-10.5 -36.5t-56.5 -62.5t-100 -74q-94 -55 -193.5 -91t-197.5 -38q-6 -10 -9.5 -18t-7.5 -14l-6 -13q59 -16 92 -54t41 -84t-7 -94t-53 -85t-95.5 -56.5 t-132.5 -7.5q-53 8 -87 33t-49.5 55.5t-16.5 62.5t10 52.5t30.5 25.5t44.5 -18q25 -20 60.5 -31.5t71.5 -11.5t64.5 10.5t38.5 32.5q10 23 2 36.5t-27.5 20.5t-44 8t-48.5 -1q-25 -2 -36 6t-13.5 22.5t5 31t17.5 32.5l45 70q-80 18 -151 71q-80 59 -112 163t-22.5 227.5z " />
<glyph unicode="&#xc8;" horiz-adv-x="1003" d="M17.5 34q-11.5 42 7 87t73.5 67q33 31 66 86.5t64.5 123t60 143t52.5 147.5t42.5 135.5t30.5 106.5q12 47 59 71.5t98.5 28.5t89 -11t31.5 -48q-4 -33 -27.5 -102.5t-58.5 -159.5q35 6 69 8t66.5 6t63.5 11t61 26q41 25 55.5 -3t7.5 -72t-33 -90t-65 -60 q-29 -12 -66.5 -13.5t-78.5 0.5t-81 4t-75 0q-35 -78 -72.5 -156.5t-76.5 -150.5q74 -4 150.5 -18.5t144 -24.5t120 -9t76.5 28q29 29 43.5 26.5t15.5 -23t-10.5 -55t-35 -70.5t-60.5 -68t-84 -48q-49 -16 -107.5 -6t-120.5 28.5t-126.5 37t-126.5 18.5q-31 -37 -58.5 -60.5 t-49.5 -27.5q-53 -10 -88 17.5t-46.5 69.5zM358.5 1126.5q-10.5 36.5 0 78.5t57.5 65q33 16 98.5 26.5t147 18.5t171 14t169 14.5t142 18.5t89.5 27q27 14 46 4.5t29.5 -33t10.5 -59t-12.5 -71.5t-36 -69t-62.5 -53q-27 -12 -89 -15t-143 -1t-170 5t-167 3t-135.5 -6.5 t-73.5 -24.5q-18 -18 -39.5 1.5t-32 56zM577 1564.5q-2 45.5 12.5 82t38 51t52.5 -22.5q14 -23 51 -54.5t83 -61t92 -52t81 -26.5q14 -2 21.5 -11.5t3.5 -21.5t-20.5 -23.5t-47.5 -17.5q-35 -6 -82 -2t-96 17.5t-92 34t-70 42.5q-25 20 -27 65.5z" />
<glyph unicode="&#xc9;" horiz-adv-x="1003" d="M17.5 34q-11.5 42 7 87t73.5 67q33 31 66 86.5t64.5 123t60 143t52.5 147.5t42.5 135.5t30.5 106.5q12 47 59 71.5t98.5 28.5t89 -11t31.5 -48q-4 -33 -27.5 -102.5t-58.5 -159.5q35 6 69 8t66.5 6t63.5 11t61 26q41 25 55.5 -3t7.5 -72t-33 -90t-65 -60 q-29 -12 -66.5 -13.5t-78.5 0.5t-81 4t-75 0q-35 -78 -72.5 -156.5t-76.5 -150.5q74 -4 150.5 -18.5t144 -24.5t120 -9t76.5 28q29 29 43.5 26.5t15.5 -23t-10.5 -55t-35 -70.5t-60.5 -68t-84 -48q-49 -16 -107.5 -6t-120.5 28.5t-126.5 37t-126.5 18.5q-31 -37 -58.5 -60.5 t-49.5 -27.5q-53 -10 -88 17.5t-46.5 69.5zM358.5 1126.5q-10.5 36.5 0 78.5t57.5 65q33 16 98.5 26.5t147 18.5t171 14t169 14.5t142 18.5t89.5 27q27 14 46 4.5t29.5 -33t10.5 -59t-12.5 -71.5t-36 -69t-62.5 -53q-27 -12 -89 -15t-143 -1t-170 5t-167 3t-135.5 -6.5 t-73.5 -24.5q-18 -18 -39.5 1.5t-32 56zM582 1423.5q-4 12.5 2 22.5t22 12q33 2 80 24.5t93 52.5t83 60.5t51 53.5q29 39 53.5 24.5t38 -51.5t11.5 -82t-27 -65q-27 -23 -69.5 -42.5t-91 -33t-96.5 -18.5t-83 1q-31 6 -47 17.5t-20 24z" />
<glyph unicode="&#xca;" horiz-adv-x="1003" d="M17.5 34q-11.5 42 7 87t73.5 67q33 31 66 86.5t64.5 123t60 143t52.5 147.5t42.5 135.5t30.5 106.5q12 47 59 71.5t98.5 28.5t89 -11t31.5 -48q-4 -33 -27.5 -102.5t-58.5 -159.5q35 6 69 8t66.5 6t63.5 11t61 26q41 25 55.5 -3t7.5 -72t-33 -90t-65 -60 q-29 -12 -66.5 -13.5t-78.5 0.5t-81 4t-75 0q-35 -78 -72.5 -156.5t-76.5 -150.5q74 -4 150.5 -18.5t144 -24.5t120 -9t76.5 28q29 29 43.5 26.5t15.5 -23t-10.5 -55t-35 -70.5t-60.5 -68t-84 -48q-49 -16 -107.5 -6t-120.5 28.5t-126.5 37t-126.5 18.5q-31 -37 -58.5 -60.5 t-49.5 -27.5q-53 -10 -88 17.5t-46.5 69.5zM358.5 1126.5q-10.5 36.5 0 78.5t57.5 65q33 16 98.5 26.5t147 18.5t171 14t169 14.5t142 18.5t89.5 27q27 14 46 4.5t29.5 -33t10.5 -59t-12.5 -71.5t-36 -69t-62.5 -53q-27 -12 -89 -15t-143 -1t-170 5t-167 3t-135.5 -6.5 t-73.5 -24.5q-18 -18 -39.5 1.5t-32 56zM563 1440.5q-8 17.5 15 40.5q18 16 43.5 37.5t54.5 44t58.5 43t53.5 34.5q49 27 95.5 28t68.5 -21q31 -33 65 -71t48 -77q10 -31 -14.5 -54.5t-58.5 -35.5t-67.5 -8t-41.5 29q-12 31 -22.5 67.5t-24.5 61.5q-37 -23 -67 -53.5 t-69 -67.5q-23 -20 -53.5 -24.5t-53 2.5t-30.5 24.5z" />
<glyph unicode="&#xcb;" horiz-adv-x="1003" d="M17.5 34q-11.5 42 7 87t73.5 67q33 31 66 86.5t64.5 123t60 143t52.5 147.5t42.5 135.5t30.5 106.5q12 47 59 71.5t98.5 28.5t89 -11t31.5 -48q-4 -33 -27.5 -102.5t-58.5 -159.5q35 6 69 8t66.5 6t63.5 11t61 26q41 25 55.5 -3t7.5 -72t-33 -90t-65 -60 q-29 -12 -66.5 -13.5t-78.5 0.5t-81 4t-75 0q-35 -78 -72.5 -156.5t-76.5 -150.5q74 -4 150.5 -18.5t144 -24.5t120 -9t76.5 28q29 29 43.5 26.5t15.5 -23t-10.5 -55t-35 -70.5t-60.5 -68t-84 -48q-49 -16 -107.5 -6t-120.5 28.5t-126.5 37t-126.5 18.5q-31 -37 -58.5 -60.5 t-49.5 -27.5q-53 -10 -88 17.5t-46.5 69.5zM358.5 1126.5q-10.5 36.5 0 78.5t57.5 65q33 16 98.5 26.5t147 18.5t171 14t169 14.5t142 18.5t89.5 27q27 14 46 4.5t29.5 -33t10.5 -59t-12.5 -71.5t-36 -69t-62.5 -53q-27 -12 -89 -15t-143 -1t-170 5t-167 3t-135.5 -6.5 t-73.5 -24.5q-18 -18 -39.5 1.5t-32 56zM551 1513q0 49 36 85t85 36t82.5 -36t33.5 -85t-33.5 -83.5t-82.5 -34.5t-85 34.5t-36 83.5zM840 1513q0 49 35.5 85t85.5 36q47 0 81.5 -36t34.5 -85t-34.5 -83.5t-81.5 -34.5q-49 0 -85 34.5t-36 83.5z" />
<glyph unicode="&#xcc;" horiz-adv-x="765" d="M22.5 22.5q-10.5 36.5 0 77.5t59.5 64q37 18 83 20t93 -4q-6 20 -7 43t9 45q10 25 34.5 87.5t60.5 144.5t79 177t87 185t87 166t80 123q-69 6 -96 -23q-18 -18 -40 1.5t-32 56.5t0 78t58 65q49 23 110.5 20t123.5 -11.5t118.5 -11.5t97.5 22q39 25 53.5 -2t7 -71t-33 -90 t-64.5 -63q-20 -10 -45.5 -11t-54.5 3q14 -45 -14 -74q-14 -16 -48 -71.5t-77 -135t-92.5 -175t-96.5 -187.5t-87 -173t-66 -134q35 -2 65.5 1t54.5 19q41 25 55.5 -1.5t7.5 -70.5t-32.5 -90.5t-64.5 -62.5q-41 -16 -99.5 -7t-117 21.5t-109.5 15.5t-76 -24 q-18 -18 -39.5 1.5t-32 56zM622.5 1554q-1.5 45 12.5 82t37.5 51.5t52.5 -22.5q14 -23 51 -54.5t83 -61t92 -52t81 -27.5q14 -2 21.5 -11t3.5 -21.5t-20.5 -23.5t-47.5 -17q-35 -6 -82 -2t-96 17t-92 33.5t-70 43.5q-25 20 -26.5 65z" />
<glyph unicode="&#xcd;" horiz-adv-x="765" d="M22.5 22.5q-10.5 36.5 0 77.5t59.5 64q37 18 83 20t93 -4q-6 20 -7 43t9 45q10 25 34.5 87.5t60.5 144.5t79 177t87 185t87 166t80 123q-69 6 -96 -23q-18 -18 -40 1.5t-32 56.5t0 78t58 65q49 23 110.5 20t123.5 -11.5t118.5 -11.5t97.5 22q39 25 53.5 -2t7 -71t-33 -90 t-64.5 -63q-20 -10 -45.5 -11t-54.5 3q14 -45 -14 -74q-14 -16 -48 -71.5t-77 -135t-92.5 -175t-96.5 -187.5t-87 -173t-66 -134q35 -2 65.5 1t54.5 19q41 25 55.5 -1.5t7.5 -70.5t-32.5 -90.5t-64.5 -62.5q-41 -16 -99.5 -7t-117 21.5t-109.5 15.5t-76 -24 q-18 -18 -39.5 1.5t-32 56zM653 1433.5q-4 12.5 2.5 22.5t22.5 12q33 2 80 25t93 52.5t83 60t51 53.5q29 39 53.5 24.5t38 -51.5t11 -82t-26.5 -65q-27 -23 -70 -42.5t-91 -32.5t-96 -18.5t-83 1.5q-31 6 -47.5 17t-20.5 23.5z" />
<glyph unicode="&#xce;" horiz-adv-x="765" d="M22.5 22.5q-10.5 36.5 0 77.5t59.5 64q37 18 83 20t93 -4q-6 20 -7 43t9 45q10 25 34.5 87.5t60.5 144.5t79 177t87 185t87 166t80 123q-69 6 -96 -23q-18 -18 -40 1.5t-32 56.5t0 78t58 65q49 23 110.5 20t123.5 -11.5t118.5 -11.5t97.5 22q39 25 53.5 -2t7 -71t-33 -90 t-64.5 -63q-20 -10 -45.5 -11t-54.5 3q14 -45 -14 -74q-14 -16 -48 -71.5t-77 -135t-92.5 -175t-96.5 -187.5t-87 -173t-66 -134q35 -2 65.5 1t54.5 19q41 25 55.5 -1.5t7.5 -70.5t-32.5 -90.5t-64.5 -62.5q-41 -16 -99.5 -7t-117 21.5t-109.5 15.5t-76 -24 q-18 -18 -39.5 1.5t-32 56zM626.5 1428.5q-8.5 17.5 14.5 39.5q18 16 44 38t54.5 44.5t58 43t54.5 34.5q49 27 95 28t69 -22q31 -33 64.5 -70.5t47.5 -76.5q10 -31 -14 -54.5t-58 -36t-68 -8t-42 28.5q-12 31 -22.5 68t-24.5 61q-37 -23 -66.5 -53.5t-68.5 -67.5 q-23 -20 -53.5 -24t-53 3t-31 24.5z" />
<glyph unicode="&#xcf;" horiz-adv-x="765" d="M22.5 22.5q-10.5 36.5 0 77.5t59.5 64q37 18 83 20t93 -4q-6 20 -7 43t9 45q10 25 34.5 87.5t60.5 144.5t79 177t87 185t87 166t80 123q-69 6 -96 -23q-18 -18 -40 1.5t-32 56.5t0 78t58 65q49 23 110.5 20t123.5 -11.5t118.5 -11.5t97.5 22q39 25 53.5 -2t7 -71t-33 -90 t-64.5 -63q-20 -10 -45.5 -11t-54.5 3q14 -45 -14 -74q-14 -16 -48 -71.5t-77 -135t-92.5 -175t-96.5 -187.5t-87 -173t-66 -134q35 -2 65.5 1t54.5 19q41 25 55.5 -1.5t7.5 -70.5t-32.5 -90.5t-64.5 -62.5q-41 -16 -99.5 -7t-117 21.5t-109.5 15.5t-76 -24 q-18 -18 -39.5 1.5t-32 56zM608 1522q0 49 36 84.5t85 35.5t83 -35.5t34 -84.5t-34 -84t-83 -35t-85 35t-36 84zM897 1522q0 49 36 84.5t85 35.5q47 0 82 -35.5t35 -84.5t-35 -84t-82 -35q-49 0 -85 35t-36 84z" />
<glyph unicode="&#xd0;" horiz-adv-x="1218" d="M34 120q5 38 40 40q29 2 76 76.5t100 181.5q-51 -4 -86 -5t-43 -1q-35 0 -39 24.5t12.5 54t50 54t76.5 24.5q6 0 34 1t64 3q47 115 85 215.5t49 147.5q6 27 55 46t101.5 22.5t89 -13t20.5 -61.5q-12 -33 -54 -126t-102 -212q66 4 115 7t57 3q43 0 52.5 -24.5t-6 -55 t-51.5 -55.5t-83 -25q-16 0 -60 -2t-102 -6q-45 -90 -92 -175t-90 -152.5t-79 -110.5t-58 -49q-41 -10 -74 21.5t-48 72.5t-10 79zM188.5 895q-6.5 49 9 115.5t64.5 126.5q61 78 159.5 134t210 81.5t223.5 14t202 -66.5q92 -59 138 -151t52 -202.5t-20.5 -233.5t-78.5 -243 t-124 -227.5t-156 -190.5t-174 -131t-178 -48q-82 0 -124 28.5t-54 62.5t0 59.5t39 19.5q96 -20 192.5 33t179 150.5t145 222t89.5 248.5t10.5 232.5t-90.5 170.5q-68 55 -160 45t-184 -56.5t-171 -112t-118 -122.5q-29 -41 -52 -24.5t-29.5 65.5z" />
<glyph unicode="&#xd1;" horiz-adv-x="1136" d="M14 90q-6 29 1.5 49.5t29.5 20.5q33 0 81 60.5t102.5 158.5t110.5 220t104.5 245t85 233.5t51.5 186.5q8 49 56 78.5t97 35.5t83 -11t18 -60q-29 -121 -35 -260.5t0 -271.5t17 -243.5t22 -175.5q18 96 45.5 204t62.5 212.5t74 201.5t78 174t75.5 129t67.5 66q39 18 80 1 t69.5 -49.5t39 -71.5t-14.5 -64q-45 -47 -99 -137t-108.5 -200.5t-106.5 -230.5t-94 -226.5t-72 -188.5t-40 -115q-10 -35 -28.5 -46t-39 -6t-40 24.5t-31.5 48.5q-55 102 -102.5 250.5t-63.5 335.5q-39 -123 -82 -245t-90 -222.5t-95.5 -168t-95.5 -85.5q-43 -16 -79.5 -7 t-64.5 32.5t-45.5 56t-23.5 61.5zM825 1466.5q0 32.5 25 69.5q18 29 51 52.5t71 33.5t76.5 4t69.5 -35q20 -18 38 -33.5t34 -22.5t31.5 -1t33.5 31q20 31 37 30.5t24 -20t2 -52t-26 -69.5q-18 -31 -52 -51.5t-73 -26.5t-77.5 8.5t-69.5 55.5q-18 25 -36.5 31t-36 -0.5 t-33 -23.5t-25.5 -40q-8 -23 -24.5 -18.5t-28 25t-11.5 53z" />
<glyph unicode="&#xd2;" horiz-adv-x="1073" d="M68.5 355q-9.5 126 37.5 276q35 115 104 240.5t160 231t200.5 179.5t228.5 84q51 2 62 -45t1 -104q49 14 102.5 8t82.5 -39q61 -72 71 -188.5t-18.5 -252t-93 -274.5t-152.5 -252q-102 -133 -210.5 -195.5t-207 -66.5t-179.5 45t-130 138t-58.5 215zM302.5 281.5 q16.5 -66.5 63 -87t116 11.5t149.5 130q59 74 112.5 174t82 205.5t23.5 204t-63 170.5q-86 -23 -163.5 -90.5t-140 -159.5t-107.5 -195.5t-66 -198.5q-23 -98 -6.5 -164.5zM555 1576.5q-2 45.5 12.5 82.5t37.5 51.5t52 -22.5q14 -23 51 -54.5t83.5 -61.5t92.5 -52.5 t81 -26.5q14 -2 21 -11t3 -21.5t-20.5 -24t-46.5 -17.5q-35 -6 -82 -2t-96.5 17.5t-92.5 34t-69 42.5q-25 20 -27 65.5z" />
<glyph unicode="&#xd3;" horiz-adv-x="1073" d="M68.5 355q-9.5 126 37.5 276q35 115 104 240.5t160 231t200.5 179.5t228.5 84q51 2 62 -45t1 -104q49 14 102.5 8t82.5 -39q61 -72 71 -188.5t-18.5 -252t-93 -274.5t-152.5 -252q-102 -133 -210.5 -195.5t-207 -66.5t-179.5 45t-130 138t-58.5 215zM302.5 281.5 q16.5 -66.5 63 -87t116 11.5t149.5 130q59 74 112.5 174t82 205.5t23.5 204t-63 170.5q-86 -23 -163.5 -90.5t-140 -159.5t-107.5 -195.5t-66 -198.5q-23 -98 -6.5 -164.5zM627 1452q-4 12 2 22.5t22 12.5q33 2 80 24.5t93 52t83 60t51 53.5q29 39 53.5 25t38 -51t11.5 -82 t-27 -66q-27 -23 -69.5 -42t-91 -32.5t-96.5 -18.5t-83 1q-31 6 -47 17.5t-20 23.5z" />
<glyph unicode="&#xd4;" horiz-adv-x="1073" d="M68.5 355q-9.5 126 37.5 276q35 115 104 240.5t160 231t200.5 179.5t228.5 84q51 2 62 -45t1 -104q49 14 102.5 8t82.5 -39q61 -72 71 -188.5t-18.5 -252t-93 -274.5t-152.5 -252q-102 -133 -210.5 -195.5t-207 -66.5t-179.5 45t-130 138t-58.5 215zM302.5 281.5 q16.5 -66.5 63 -87t116 11.5t149.5 130q59 74 112.5 174t82 205.5t23.5 204t-63 170.5q-86 -23 -163.5 -90.5t-140 -159.5t-107.5 -195.5t-66 -198.5q-23 -98 -6.5 -164.5zM608 1434.5q-8 17.5 15 40.5q18 16 43.5 37.5t54.5 44t58.5 43t54.5 34.5q49 27 95 28t68 -22 q31 -33 65 -70.5t48 -76.5q10 -31 -14.5 -54.5t-58 -35.5t-67.5 -8t-42 28q-12 31 -22.5 68t-24.5 61q-37 -23 -67 -53t-69 -67q-23 -20 -53 -24.5t-53 2.5t-31 24.5z" />
<glyph unicode="&#xd5;" horiz-adv-x="1073" d="M68.5 355q-9.5 126 37.5 276q35 115 104 240.5t160 231t200.5 179.5t228.5 84q51 2 62 -45t1 -104q49 14 102.5 8t82.5 -39q61 -72 71 -188.5t-18.5 -252t-93 -274.5t-152.5 -252q-102 -133 -210.5 -195.5t-207 -66.5t-179.5 45t-130 138t-58.5 215zM302.5 281.5 q16.5 -66.5 63 -87t116 11.5t149.5 130q59 74 112.5 174t82 205.5t23.5 204t-63 170.5q-86 -23 -163.5 -90.5t-140 -159.5t-107.5 -195.5t-66 -198.5q-23 -98 -6.5 -164.5zM598 1484.5q0 32.5 25 69.5q18 29 51 52.5t70.5 34t76.5 4t70 -34.5q20 -18 37.5 -33.5t34 -23 t32 -1t33.5 30.5q20 31 36.5 31t24 -19.5t2 -52.5t-25.5 -69q-18 -31 -52 -51.5t-73 -26.5t-78 8t-69 55q-18 25 -37 31t-36.5 0t-32.5 -23.5t-25 -40.5q-8 -23 -24.5 -18.5t-28 25t-11.5 53z" />
<glyph unicode="&#xd6;" horiz-adv-x="1073" d="M68.5 355q-9.5 126 37.5 276q35 115 104 240.5t160 231t200.5 179.5t228.5 84q51 2 62 -45t1 -104q49 14 102.5 8t82.5 -39q61 -72 71 -188.5t-18.5 -252t-93 -274.5t-152.5 -252q-102 -133 -210.5 -195.5t-207 -66.5t-179.5 45t-130 138t-58.5 215zM302.5 281.5 q16.5 -66.5 63 -87t116 11.5t149.5 130q59 74 112.5 174t82 205.5t23.5 204t-63 170.5q-86 -23 -163.5 -90.5t-140 -159.5t-107.5 -195.5t-66 -198.5q-23 -98 -6.5 -164.5zM586 1528q0 49 35.5 85t85.5 36q49 0 82.5 -36t33.5 -85t-33.5 -84t-82.5 -35t-85 35t-36 84z M874 1528q0 49 36 85t85 36q47 0 82 -36t35 -85t-35 -84t-82 -35q-49 0 -85 35t-36 84z" />
<glyph unicode="&#xd7;" horiz-adv-x="755" d="M14 132q-6 34 5.5 75t43.5 67l173 148q-10 43 -17.5 76t-9.5 43q-10 41 6 79.5t41 61.5t50.5 24t31.5 -32l33 -135l174 151q33 27 56.5 13.5t30.5 -46t-4.5 -74.5t-47.5 -73q-14 -10 -60.5 -50t-107.5 -93q10 -41 18 -73t12 -46q10 -45 -7 -85t-42.5 -61.5t-52.5 -18.5 t-37 46l-29 121l-188 -162q-27 -23 -46.5 -6.5t-25.5 50.5z" />
<glyph unicode="&#xd8;" horiz-adv-x="1073" d="M-24.5 -69.5q-6.5 18.5 26.5 53.5l125 153q-49 92 -58.5 217t37.5 277q35 115 104 240.5t160 231t200.5 179.5t228.5 84q51 2 62 -45t1 -104q31 10 65 11t62 -9l86 106q25 25 57.5 35t57 7t32 -20.5t-21.5 -48.5q-4 -4 -38 -46t-87 -109q43 -80 45 -193.5t-29.5 -240.5 t-93 -255t-143.5 -235q-86 -113 -177 -174t-177 -79.5t-164 3t-135 74.5l-64 -78q-31 -31 -67.5 -45t-62 -11t-32 21.5zM297 348l530 668q-8 20 -17 38.5t-24 35.5q-86 -23 -163.5 -90.5t-140 -159.5t-107.5 -195.5t-66 -198.5q-12 -55 -12 -98zM336 215q43 -45 121 -20.5 t174 141.5q41 49 79 112.5t68.5 132t50 141.5t21.5 140z" />
<glyph unicode="&#xd9;" horiz-adv-x="1013" d="M20.5 336q18.5 113 70.5 247t127 268t167 258t193 216q27 25 68.5 11.5t75.5 -44t47.5 -70.5t-15.5 -67q-45 -43 -106.5 -122t-124 -174t-121 -196.5t-97.5 -187.5t-51 -148.5t16 -78.5q27 -16 90.5 15.5t142.5 100t160.5 168t147.5 216.5q47 96 98.5 192t100.5 177 t91 136.5t73 71.5q33 18 69.5 -2t64 -57t37 -80t-15.5 -74q-39 -45 -84 -109.5t-92 -139.5t-93 -153.5t-86 -151.5t-70 -137.5t-44 -107.5q-18 -55 -14 -85.5t25.5 -40t58.5 1t84 38.5q27 16 32 8t-6.5 -29.5t-39 -51t-65.5 -56t-84 -46t-95 -19.5q-78 0 -115 56t-23 167 q-49 -53 -109 -104.5t-125 -87t-132.5 -47t-134.5 15.5q-72 29 -93.5 109.5t-3 193.5zM694 1509q-2 45 12.5 82t38 51.5t52.5 -22.5q14 -23 51 -54.5t83 -61t92 -52t81 -27.5q14 -2 21.5 -11t3 -21.5t-20.5 -23.5t-47 -17q-35 -6 -82 -2t-96 17t-92 33.5t-70 43.5 q-25 20 -27 65z" />
<glyph unicode="&#xda;" horiz-adv-x="1013" d="M20.5 336q18.5 113 70.5 247t127 268t167 258t193 216q27 25 68.5 11.5t75.5 -44t47.5 -70.5t-15.5 -67q-45 -43 -106.5 -122t-124 -174t-121 -196.5t-97.5 -187.5t-51 -148.5t16 -78.5q27 -16 90.5 15.5t142.5 100t160.5 168t147.5 216.5q47 96 98.5 192t100.5 177 t91 136.5t73 71.5q33 18 69.5 -2t64 -57t37 -80t-15.5 -74q-39 -45 -84 -109.5t-92 -139.5t-93 -153.5t-86 -151.5t-70 -137.5t-44 -107.5q-18 -55 -14 -85.5t25.5 -40t58.5 1t84 38.5q27 16 32 8t-6.5 -29.5t-39 -51t-65.5 -56t-84 -46t-95 -19.5q-78 0 -115 56t-23 167 q-49 -53 -109 -104.5t-125 -87t-132.5 -47t-134.5 15.5q-72 29 -93.5 109.5t-3 193.5zM805 1372q-4 12 2 22.5t22 12.5q33 2 80 24.5t93.5 52t83.5 60t51 53.5q29 39 53 25t37.5 -51t11.5 -82t-27 -66q-27 -23 -69.5 -42t-90.5 -32.5t-96.5 -18.5t-83.5 1q-31 6 -47 17.5 t-20 23.5z" />
<glyph unicode="&#xdb;" horiz-adv-x="1013" d="M20.5 336q18.5 113 70.5 247t127 268t167 258t193 216q27 25 68.5 11.5t75.5 -44t47.5 -70.5t-15.5 -67q-45 -43 -106.5 -122t-124 -174t-121 -196.5t-97.5 -187.5t-51 -148.5t16 -78.5q27 -16 90.5 15.5t142.5 100t160.5 168t147.5 216.5q47 96 98.5 192t100.5 177 t91 136.5t73 71.5q33 18 69.5 -2t64 -57t37 -80t-15.5 -74q-39 -45 -84 -109.5t-92 -139.5t-93 -153.5t-86 -151.5t-70 -137.5t-44 -107.5q-18 -55 -14 -85.5t25.5 -40t58.5 1t84 38.5q27 16 32 8t-6.5 -29.5t-39 -51t-65.5 -56t-84 -46t-95 -19.5q-78 0 -115 56t-23 167 q-49 -53 -109 -104.5t-125 -87t-132.5 -47t-134.5 15.5q-72 29 -93.5 109.5t-3 193.5zM741.5 1406q-8.5 17 14.5 40q18 16 43.5 37.5t54.5 44t58.5 43t54.5 35.5q49 27 95 27.5t68 -21.5q31 -33 65 -71t48 -77q10 -31 -14.5 -54.5t-58 -35.5t-67.5 -8t-42 29 q-12 31 -22.5 67.5t-24.5 61.5q-37 -23 -66.5 -53.5t-68.5 -67.5q-23 -20 -53.5 -24.5t-53 3t-31 24.5z" />
<glyph unicode="&#xdc;" horiz-adv-x="1013" d="M20.5 336q18.5 113 70.5 247t127 268t167 258t193 216q27 25 68.5 11.5t75.5 -44t47.5 -70.5t-15.5 -67q-45 -43 -106.5 -122t-124 -174t-121 -196.5t-97.5 -187.5t-51 -148.5t16 -78.5q27 -16 90.5 15.5t142.5 100t160.5 168t147.5 216.5q47 96 98.5 192t100.5 177 t91 136.5t73 71.5q33 18 69.5 -2t64 -57t37 -80t-15.5 -74q-39 -45 -84 -109.5t-92 -139.5t-93 -153.5t-86 -151.5t-70 -137.5t-44 -107.5q-18 -55 -14 -85.5t25.5 -40t58.5 1t84 38.5q27 16 32 8t-6.5 -29.5t-39 -51t-65.5 -56t-84 -46t-95 -19.5q-78 0 -115 56t-23 167 q-49 -53 -109 -104.5t-125 -87t-132.5 -47t-134.5 15.5q-72 29 -93.5 109.5t-3 193.5zM743 1495q0 49 36 85t85 36t83 -36t34 -85t-34 -84t-83 -35t-85 35t-36 84zM1032 1495q0 49 36 85t85 36q47 0 82 -36t35 -85t-35 -84t-82 -35q-49 0 -85 35t-36 84z" />
<glyph unicode="&#xdd;" horiz-adv-x="833" d="M109.5 90q-5.5 29 2 49.5t29.5 20.5q20 0 46 23.5t56.5 66.5t64.5 100.5t69 124.5q-29 4 -40 24.5t-13 41.5q-8 111 -1 223.5t24.5 208.5t42 171t48.5 111q27 39 80 59.5t103.5 21.5t81 -15t12.5 -49q-35 -61 -66 -135t-57.5 -154t-47 -163t-34.5 -163q33 68 89 170.5 t130 207t161 190t181 118.5q41 14 91 -3t86 -47.5t45.5 -63.5t-29.5 -49q-92 -39 -176 -115t-159 -171t-137.5 -197.5t-109.5 -192.5q-49 -90 -93 -181.5t-88 -169t-88 -133t-89 -73.5q-43 -16 -80 -6t-64.5 33.5t-46 55t-24 60.5zM760 1429.5q-4 12.5 2 22.5t22 12 q33 2 80 24.5t93.5 52.5t83.5 60.5t51 53.5q29 39 53 24.5t37.5 -51.5t11.5 -82t-27 -65q-27 -23 -69.5 -42.5t-91 -32.5t-96.5 -18.5t-83 1.5q-31 6 -47 17t-20 23.5z" />
<glyph unicode="&#xde;" horiz-adv-x="1099" d="M-11 631q1 45 24.5 102.5t76.5 104.5q94 84 212 141t241 86q18 59 32.5 108.5t22.5 90.5q6 33 36 56t69.5 36.5t83.5 16.5t78 -4t52.5 -24.5t8.5 -46.5q-8 -20 -32 -77.5t-58 -137.5q82 -10 148.5 -38.5t111.5 -81.5q57 -70 56 -157t-43 -177t-114.5 -176t-155.5 -153 t-168 -108.5t-153 -41.5q-47 -2 -73.5 26.5t-34.5 63.5q-72 -117 -136.5 -196t-117.5 -97q-27 -10 -50.5 2t-41 35.5t-28.5 54.5t-12 57.5t9 45t33 18.5q33 0 80 59.5t100 154.5t108.5 214t102.5 239q-102 -37 -208 -100t-198 -152q-29 -29 -46 -9t-16 65zM461 324h2 q31 -8 79 15t99 67.5t100.5 99.5t83 113.5t45 110.5t-11.5 87q-33 47 -117 57q-61 -133 -132.5 -277t-147.5 -273z" />
<glyph unicode="&#xdf;" horiz-adv-x="733" d="M-137 -74q25 61 68.5 155.5t95 201t105.5 213t99 190.5q41 78 79 145.5t86 117.5t113.5 79t162.5 29q86 0 132 -43t43 -104.5t-59.5 -132t-175.5 -128.5q4 -4 8.5 -5t8.5 -5q43 -29 59.5 -80t8 -114.5t-40 -133t-85.5 -137.5q-6 -6 -14 -18q49 -2 92 17.5t84 53.5 q23 20 30 12t-2 -31.5t-38 -56t-78 -63.5t-121.5 -54.5t-171.5 -27.5q-70 -14 -121 17q-31 18 -41 42.5t-7 44t15.5 26.5t28.5 -11q12 -16 37 -12t53.5 24.5t59.5 55t57 83.5q20 39 35.5 77t19 72t-8 61.5t-44.5 45.5q-41 23 -52 39.5t-1 31.5t36.5 32.5t61.5 42.5 q76 53 119 101t60.5 86t12.5 61.5t-24 29.5q-18 6 -37.5 -3t-43 -34.5t-55.5 -71.5t-75 -116q-45 -74 -98 -172t-105.5 -205.5t-101.5 -218t-88 -209.5q-6 -18 -38 -26.5t-65.5 -7t-59 10.5t-19.5 23z" />
<glyph unicode="&#xe0;" horiz-adv-x="790" d="M2 173q-6 58 11.5 123.5t57.5 135.5t99 131t123.5 100t125 53.5t113 3.5t84.5 -50l19 -29q18 29 27 35q16 16 51 24.5t67.5 8.5t54 -9.5t9.5 -23.5q-27 -39 -54.5 -87t-54 -97.5t-48 -95.5t-34.5 -83q-31 -86 7 -113.5t131 27.5q27 16 32.5 8t-6.5 -29.5t-38.5 -51 t-63.5 -56t-83 -46t-95 -19.5q-57 0 -83 25.5t-30 66.5q-55 -43 -111.5 -69.5t-107.5 -33t-94 6t-72 47.5q-31 39 -37 97zM225.5 320q-16.5 -60 5.5 -91q12 -14 36 -16t52.5 8t60 33.5t58.5 62.5q47 70 74 128.5t4 86.5q-12 14 -34.5 17.5t-53.5 -7t-64.5 -34t-66.5 -62.5 q-55 -66 -71.5 -126zM389 972.5q-2 45.5 12.5 82.5t38 51t52.5 -23q14 -23 51 -54.5t83 -61t92 -52t81 -26.5q14 -2 21 -11.5t3 -21.5t-20.5 -23.5t-46.5 -17.5q-35 -6 -82 -2t-96.5 17.5t-92.5 34t-69 42.5q-25 20 -27 65.5z" />
<glyph unicode="&#xe1;" horiz-adv-x="790" d="M2 173q-6 58 11.5 123.5t57.5 135.5t99 131t123.5 100t125 53.5t113 3.5t84.5 -50l19 -29q18 29 27 35q16 16 51 24.5t67.5 8.5t54 -9.5t9.5 -23.5q-27 -39 -54.5 -87t-54 -97.5t-48 -95.5t-34.5 -83q-31 -86 7 -113.5t131 27.5q27 16 32.5 8t-6.5 -29.5t-38.5 -51 t-63.5 -56t-83 -46t-95 -19.5q-57 0 -83 25.5t-30 66.5q-55 -43 -111.5 -69.5t-107.5 -33t-94 6t-72 47.5q-31 39 -37 97zM225.5 320q-16.5 -60 5.5 -91q12 -14 36 -16t52.5 8t60 33.5t58.5 62.5q47 70 74 128.5t4 86.5q-12 14 -34.5 17.5t-53.5 -7t-64.5 -34t-66.5 -62.5 q-55 -66 -71.5 -126zM375 864.5q-4 12.5 2 22.5t22 12q33 2 80 24.5t93 52.5t83.5 60.5t51.5 53.5q29 39 53 24.5t37.5 -51.5t11.5 -82t-27 -66q-27 -23 -69.5 -42t-91 -32.5t-96.5 -18.5t-83 1q-31 6 -47 17.5t-20 24z" />
<glyph unicode="&#xe2;" horiz-adv-x="790" d="M2 173q-6 58 11.5 123.5t57.5 135.5t99 131t123.5 100t125 53.5t113 3.5t84.5 -50l19 -29q18 29 27 35q16 16 51 24.5t67.5 8.5t54 -9.5t9.5 -23.5q-27 -39 -54.5 -87t-54 -97.5t-48 -95.5t-34.5 -83q-31 -86 7 -113.5t131 27.5q27 16 32.5 8t-6.5 -29.5t-38.5 -51 t-63.5 -56t-83 -46t-95 -19.5q-57 0 -83 25.5t-30 66.5q-55 -43 -111.5 -69.5t-107.5 -33t-94 6t-72 47.5q-31 39 -37 97zM225.5 320q-16.5 -60 5.5 -91q12 -14 36 -16t52.5 8t60 33.5t58.5 62.5q47 70 74 128.5t4 86.5q-12 14 -34.5 17.5t-53.5 -7t-64.5 -34t-66.5 -62.5 q-55 -66 -71.5 -126zM338 865.5q-8 17.5 14 39.5q18 16 44 38t54.5 44.5t58.5 43t54 34.5q49 27 95.5 28t68.5 -22q31 -33 64.5 -70.5t48.5 -76.5q10 -31 -14.5 -54.5t-58.5 -36t-67.5 -8.5t-42.5 29q-12 31 -22 67.5t-25 61.5q-37 -23 -66.5 -53.5t-68.5 -67.5 q-23 -20 -53.5 -24t-53 3t-30.5 24.5z" />
<glyph unicode="&#xe3;" horiz-adv-x="790" d="M2 173q-6 58 11.5 123.5t57.5 135.5t99 131t123.5 100t125 53.5t113 3.5t84.5 -50l19 -29q18 29 27 35q16 16 51 24.5t67.5 8.5t54 -9.5t9.5 -23.5q-27 -39 -54.5 -87t-54 -97.5t-48 -95.5t-34.5 -83q-31 -86 7 -113.5t131 27.5q27 16 32.5 8t-6.5 -29.5t-38.5 -51 t-63.5 -56t-83 -46t-95 -19.5q-57 0 -83 25.5t-30 66.5q-55 -43 -111.5 -69.5t-107.5 -33t-94 6t-72 47.5q-31 39 -37 97zM225.5 320q-16.5 -60 5.5 -91q12 -14 36 -16t52.5 8t60 33.5t58.5 62.5q47 70 74 128.5t4 86.5q-12 14 -34.5 17.5t-53.5 -7t-64.5 -34t-66.5 -62.5 q-55 -66 -71.5 -126zM346 919.5q0 32.5 25 69.5q18 29 51 52.5t70.5 33.5t76.5 4t70 -35q20 -18 37.5 -33.5t34 -22.5t32 -1t33.5 31q20 31 36.5 31t24 -19.5t2.5 -52.5t-26 -70q-18 -31 -52 -51t-73 -26.5t-78 8t-69 55.5q-18 25 -37 31t-36 0t-32.5 -23.5t-25.5 -40.5 q-8 -23 -24.5 -18.5t-28 25t-11.5 53z" />
<glyph unicode="&#xe4;" horiz-adv-x="790" d="M2 173q-6 58 11.5 123.5t57.5 135.5t99 131t123.5 100t125 53.5t113 3.5t84.5 -50l19 -29q18 29 27 35q16 16 51 24.5t67.5 8.5t54 -9.5t9.5 -23.5q-27 -39 -54.5 -87t-54 -97.5t-48 -95.5t-34.5 -83q-31 -86 7 -113.5t131 27.5q27 16 32.5 8t-6.5 -29.5t-38.5 -51 t-63.5 -56t-83 -46t-95 -19.5q-57 0 -83 25.5t-30 66.5q-55 -43 -111.5 -69.5t-107.5 -33t-94 6t-72 47.5q-31 39 -37 97zM225.5 320q-16.5 -60 5.5 -91q12 -14 36 -16t52.5 8t60 33.5t58.5 62.5q47 70 74 128.5t4 86.5q-12 14 -34.5 17.5t-53.5 -7t-64.5 -34t-66.5 -62.5 q-55 -66 -71.5 -126zM326 952q0 49 35.5 85t84.5 36t83 -36t34 -85t-33.5 -83.5t-83.5 -34.5q-49 0 -84.5 34.5t-35.5 83.5zM614 952q0 49 36 85t85 36q47 0 82 -36t35 -85t-35 -83.5t-82 -34.5q-49 0 -85 34.5t-36 83.5z" />
<glyph unicode="&#xe5;" horiz-adv-x="790" d="M2 173q-6 58 11.5 123.5t57.5 135.5t99 131t123.5 100t125 53.5t113 3.5t84.5 -50l19 -29q18 29 27 35q16 16 51 24.5t67.5 8.5t54 -9.5t9.5 -23.5q-27 -39 -54.5 -87t-54 -97.5t-48 -95.5t-34.5 -83q-31 -86 7 -113.5t131 27.5q27 16 32.5 8t-6.5 -29.5t-38.5 -51 t-63.5 -56t-83 -46t-95 -19.5q-57 0 -83 25.5t-30 66.5q-55 -43 -111.5 -69.5t-107.5 -33t-94 6t-72 47.5q-31 39 -37 97zM225.5 320q-16.5 -60 5.5 -91q12 -14 36 -16t52.5 8t60 33.5t58.5 62.5q47 70 74 128.5t4 86.5q-12 14 -34.5 17.5t-53.5 -7t-64.5 -34t-66.5 -62.5 q-55 -66 -71.5 -126zM395 975q0 76 53 128t127 52q76 0 128.5 -52t52.5 -128q0 -74 -52.5 -127t-128.5 -53q-37 0 -69.5 14t-57 38.5t-39 57.5t-14.5 70zM487 975q0 -35 26.5 -61.5t61.5 -26.5t62 26.5t27 61.5q0 39 -27 63.5t-62 24.5t-61.5 -24.5t-26.5 -63.5z" />
<glyph unicode="&#xe6;" horiz-adv-x="1128" d="M2 173q-6 58 11.5 123.5t57.5 135.5t99 131t119.5 99t115 50.5t99.5 -2t74 -57.5l8 -14q20 47 35 61q16 16 41.5 20.5t49 -1.5t36 -19.5t0.5 -27.5q-6 -8 -15 -25q61 37 127 52.5t122 10.5t99 -31t62 -71q20 -55 -4.5 -122.5t-85 -126t-151.5 -97.5t-200 -37 q14 -41 58.5 -63.5t104 -22.5t130 21.5t138.5 68.5q35 23 41 12.5t-12.5 -39t-57.5 -67.5t-95.5 -71.5t-125 -52t-146.5 -9.5q-100 12 -160.5 63.5t-76.5 131.5l-15 -17q-59 -61 -123.5 -99t-125 -52.5t-112.5 -3t-85 50.5q-31 39 -37 97zM225.5 320q-16.5 -60 5.5 -91 q12 -14 36 -16t52.5 8t60 33.5t58.5 62.5q47 70 74 128.5t4 86.5q-12 14 -34.5 17.5t-53.5 -7t-64.5 -34t-66.5 -62.5q-55 -66 -71.5 -126zM713 354q66 2 123 25.5t97 54.5t56 63t-2 50q-16 16 -53 8t-79 -34.5t-81 -69.5t-61 -97z" />
<glyph unicode="&#xe7;" horiz-adv-x="643" d="M-19 -267.5q-1 31.5 10 52t30.5 26t44.5 -17.5q25 -20 60.5 -31.5t71 -11.5t64.5 10.5t39 32.5q10 23 2 36t-27.5 20.5t-44 8.5t-49.5 -1t-36 6t-13 22.5t5 30.5t18 33q6 10 17 26.5t24 34.5q-137 35 -180.5 148.5t24.5 267.5q53 117 140 185.5t178.5 91t169 3 t112.5 -78.5q20 -35 24.5 -75t-7 -80t-35 -74.5t-58.5 -59.5q-37 -25 -74.5 -28t-65.5 8.5t-38 31t8 39.5q14 16 32.5 36.5t34 41t21.5 38t-4 30.5q-18 18 -56 10t-79 -36t-79 -74t-56 -103q-25 -76 8 -123t97.5 -61.5t150.5 5t172 76.5q33 23 41 15t-6.5 -33t-47 -59.5 t-80.5 -67.5t-108.5 -57.5t-128.5 -26.5q-4 -10 -8 -16.5t-6 -10.5q-4 -6 -4 -10q59 -16 92 -54t41 -84t-7.5 -94t-53 -85t-95 -56.5t-133.5 -7.5q-53 8 -87 33t-49 55.5t-16 62z" />
<glyph unicode="&#xe8;" horiz-adv-x="643" d="M1 269.5q3 72.5 40 156.5q35 78 89 134t115.5 92t126 49.5t120 8.5t97.5 -31t60 -71q20 -55 -4 -122.5t-84.5 -126t-152 -97.5t-199.5 -37q14 -41 58 -63.5t103.5 -22.5t130 21.5t138.5 68.5q35 23 41 12.5t-12.5 -39t-57.5 -67.5t-95 -71.5t-124.5 -52t-146.5 -9.5 q-80 10 -136.5 46t-83 92.5t-23.5 129zM219 354q66 2 123 25.5t97 54.5t56.5 63t-1.5 50q-16 16 -53.5 8t-79.5 -34.5t-80.5 -69.5t-61.5 -97zM237.5 968.5q-1.5 45.5 12.5 82t37.5 51t52.5 -22.5q14 -23 51 -54.5t83 -61t92 -52t81 -26.5q14 -2 21.5 -11.5t3.5 -21.5 t-20.5 -23.5t-47.5 -17.5q-35 -6 -82 -2t-96 17.5t-92 34t-70 42.5q-25 20 -26.5 65.5z" />
<glyph unicode="&#xe9;" horiz-adv-x="643" d="M1 269.5q3 72.5 40 156.5q35 78 89 134t115.5 92t126 49.5t120 8.5t97.5 -31t60 -71q20 -55 -4 -122.5t-84.5 -126t-152 -97.5t-199.5 -37q14 -41 58 -63.5t103.5 -22.5t130 21.5t138.5 68.5q35 23 41 12.5t-12.5 -39t-57.5 -67.5t-95 -71.5t-124.5 -52t-146.5 -9.5 q-80 10 -136.5 46t-83 92.5t-23.5 129zM219 354q66 2 123 25.5t97 54.5t56.5 63t-1.5 50q-16 16 -53.5 8t-79.5 -34.5t-80.5 -69.5t-61.5 -97zM272 864.5q-4 12.5 2.5 22.5t22.5 12q33 2 80 24.5t93 52.5t83 60.5t51 53.5q29 39 53.5 24.5t38 -51.5t11.5 -82t-27 -66 q-27 -23 -70 -42t-91 -32.5t-96 -18.5t-83 1q-31 6 -47.5 17.5t-20.5 24z" />
<glyph unicode="&#xea;" horiz-adv-x="643" d="M1 269.5q3 72.5 40 156.5q35 78 89 134t115.5 92t126 49.5t120 8.5t97.5 -31t60 -71q20 -55 -4 -122.5t-84.5 -126t-152 -97.5t-199.5 -37q14 -41 58 -63.5t103.5 -22.5t130 21.5t138.5 68.5q35 23 41 12.5t-12.5 -39t-57.5 -67.5t-95 -71.5t-124.5 -52t-146.5 -9.5 q-80 10 -136.5 46t-83 92.5t-23.5 129zM219 354q66 2 123 25.5t97 54.5t56.5 63t-1.5 50q-16 16 -53.5 8t-79.5 -34.5t-80.5 -69.5t-61.5 -97zM239.5 853q-8.5 17 14.5 40q18 16 44 37.5t54.5 44t58 43t54.5 35.5q49 27 95 27.5t69 -21.5q31 -33 64.5 -71t47.5 -77 q10 -31 -14.5 -54t-58 -35.5t-67.5 -8.5t-42 29q-12 31 -22.5 67.5t-24.5 61.5q-37 -23 -66.5 -53.5t-68.5 -67.5q-23 -20 -53.5 -24.5t-53 3t-31 24.5z" />
<glyph unicode="&#xeb;" horiz-adv-x="643" d="M1 269.5q3 72.5 40 156.5q35 78 89 134t115.5 92t126 49.5t120 8.5t97.5 -31t60 -71q20 -55 -4 -122.5t-84.5 -126t-152 -97.5t-199.5 -37q14 -41 58 -63.5t103.5 -22.5t130 21.5t138.5 68.5q35 23 41 12.5t-12.5 -39t-57.5 -67.5t-95 -71.5t-124.5 -52t-146.5 -9.5 q-80 10 -136.5 46t-83 92.5t-23.5 129zM207 934q0 49 36 85t85 36t82.5 -36t33.5 -85t-33.5 -84t-82.5 -35t-85 35t-36 84zM219 354q66 2 123 25.5t97 54.5t56.5 63t-1.5 50q-16 16 -53.5 8t-79.5 -34.5t-80.5 -69.5t-61.5 -97zM496 934q0 49 35.5 85t84.5 36q47 0 82 -36 t35 -85t-34.5 -84t-82.5 -35q-49 0 -84.5 35t-35.5 84z" />
<glyph unicode="&#xec;" horiz-adv-x="364" d="M-11 132q-3 44 12 97.5t38 106.5q14 37 40.5 89t55.5 101t55.5 88.5t40.5 53.5q16 16 51 23t68 7t54.5 -8t9.5 -24q-27 -39 -55.5 -85t-54 -93.5t-48.5 -92.5t-37 -82q-31 -86 7 -113.5t130 27.5q41 25 35 -2.5t-46 -69.5t-104.5 -82t-138.5 -40q-59 0 -84.5 27.5 t-28.5 71.5zM131 989q-2 45 12.5 82t37.5 51.5t52 -22.5q14 -23 51.5 -54.5t83.5 -61.5t92 -52.5t81 -26.5q14 -2 21 -11t3 -21.5t-20.5 -23.5t-46.5 -18q-35 -6 -82 -1.5t-96.5 17.5t-92.5 33.5t-69 43.5q-25 20 -27 65z" />
<glyph unicode="&#xed;" horiz-adv-x="364" d="M-11 132q-3 44 12 97.5t38 106.5q14 37 40.5 89t55.5 101t55.5 88.5t40.5 53.5q16 16 51 23t68 7t54.5 -8t9.5 -24q-27 -39 -55.5 -85t-54 -93.5t-48.5 -92.5t-37 -82q-31 -86 7 -113.5t130 27.5q41 25 35 -2.5t-46 -69.5t-104.5 -82t-138.5 -40q-59 0 -84.5 27.5 t-28.5 71.5zM221 860q-4 12 2 22.5t23 12.5q33 2 80 24.5t93 52t83 60t51 53.5q29 39 53.5 25t37.5 -51t11 -82t-26 -66q-27 -23 -70 -42t-91 -32.5t-96 -18.5t-83 1q-31 6 -47.5 17.5t-20.5 23.5z" />
<glyph unicode="&#xee;" horiz-adv-x="364" d="M-11 132q-3 44 12 97.5t38 106.5q14 37 40.5 89t55.5 101t55.5 88.5t40.5 53.5q16 16 51 23t68 7t54.5 -8t9.5 -24q-27 -39 -55.5 -85t-54 -93.5t-48.5 -92.5t-37 -82q-31 -86 7 -113.5t130 27.5q41 25 35 -2.5t-46 -69.5t-104.5 -82t-138.5 -40q-59 0 -84.5 27.5 t-28.5 71.5zM158 830.5q-8 17.5 14 39.5q18 16 44 38t54.5 44.5t58 43t54.5 34.5q49 27 95 28t69 -22q31 -33 64.5 -70.5t47.5 -76.5q10 -31 -14 -54.5t-58 -36t-68 -8t-42 28.5q-12 31 -22.5 68t-24.5 61q-37 -23 -66.5 -53.5t-68.5 -67.5q-23 -20 -53.5 -24t-53 3 t-30.5 24.5z" />
<glyph unicode="&#xef;" horiz-adv-x="364" d="M-11 132q-3 44 12 97.5t38 106.5q14 37 40.5 89t55.5 101t55.5 88.5t40.5 53.5q16 16 51 23t68 7t54.5 -8t9.5 -24q-27 -39 -55.5 -85t-54 -93.5t-48.5 -92.5t-37 -82q-31 -86 7 -113.5t130 27.5q41 25 35 -2.5t-46 -69.5t-104.5 -82t-138.5 -40q-59 0 -84.5 27.5 t-28.5 71.5zM186 913q0 49 36 85t85 36t83 -36t34 -85t-34 -83.5t-83 -34.5t-85 34.5t-36 83.5zM451 913q0 49 35.5 85t84.5 36q47 0 82 -36t35 -85t-35 -83.5t-82 -34.5q-49 0 -84.5 34.5t-35.5 83.5z" />
<glyph unicode="&#xf0;" horiz-adv-x="735" d="M1 277.5q3 66.5 28 136.5q43 123 112.5 199.5t144 105.5t144.5 11.5t113 -83.5q18 94 18 191l-96 -41q-31 -16 -45 -11t-11 22t20 43t50 52l70 53q-16 66 -47 119q-16 25 -7 34t33.5 3t58.5 -27.5t64 -58.5q41 27 74 46.5t51 25.5q41 12 58.5 -6.5t13.5 -49t-27.5 -65.5 t-66.5 -55l-35 -17q18 -53 18 -114q0 -152 -43 -301.5t-117.5 -264t-178 -177t-224.5 -36.5q-59 12 -99 50t-58.5 93.5t-15.5 122zM187.5 357.5q-7.5 -48.5 5 -88.5t51.5 -54q31 -14 63.5 -2t63 44t59.5 79t53 106q-4 45 -25.5 78t-50 46.5t-62 8.5t-62.5 -34 q-37 -35 -62.5 -85t-33 -98.5z" />
<glyph unicode="&#xf1;" horiz-adv-x="768" d="M-55 63q20 78 61 173.5t83 182.5t78 154.5t46 88.5q10 20 43 29t66.5 9t57 -10t15.5 -26l-119 -242q82 100 154 164.5t130 98.5t103.5 39t73.5 -11q35 -23 44.5 -50.5t-1 -65.5t-39 -87t-69.5 -113q-37 -55 -53.5 -93t-19.5 -61.5t6 -34.5t24 -15q18 -8 55 0t78 34 q39 25 34 -2.5t-45 -69.5t-109 -82t-155 -40q-51 0 -78.5 22.5t-33.5 58.5t5 81t40 92q27 45 53.5 86t41.5 71.5t17.5 49t-16.5 20.5q-18 2 -65.5 -38t-103.5 -98.5t-110.5 -123t-82.5 -111.5q-10 -23 -16.5 -43t-10.5 -37q-6 -20 -37 -28t-64.5 -7t-59 10t-21.5 25z M331.5 899q-0.5 33 24.5 70q18 29 51 52t71 33.5t77 4.5t70 -35q20 -18 37.5 -33.5t34 -22.5t31.5 -1t34 30q20 31 36.5 31t23.5 -19.5t2 -52t-25 -69.5q-18 -31 -52 -51.5t-73 -26.5t-78 8t-70 55q-18 25 -36.5 31t-36 0t-32.5 -23.5t-26 -39.5q-8 -23 -24.5 -19 t-27.5 24.5t-11.5 53.5z" />
<glyph unicode="&#xf2;" horiz-adv-x="716" d="M0 250.5q2 60.5 16 109.5q16 59 56.5 125t95.5 122.5t120.5 93t133.5 36.5q18 0 31.5 -19.5t17.5 -44t-4 -46t-35 -25.5q-55 -12 -105.5 -61t-82 -107.5t-37.5 -111t26 -70.5q45 -25 97.5 7t94.5 88t64.5 122t10.5 109q-6 20 6 40.5t33.5 34t48 16.5t45.5 -14 q18 -16 49 -29.5t67.5 -21.5t75.5 -7t70 13q35 14 33 -7t-36 -50t-96.5 -51.5t-148.5 -9.5q-4 -74 -35.5 -158t-86 -154.5t-129 -117t-167.5 -46.5q-92 0 -141 35t-69.5 87t-18.5 112.5zM284.5 989q-1.5 45 12.5 82t37.5 51.5t52.5 -22.5q14 -23 51 -54.5t83 -61.5t92 -52.5 t81 -26.5q14 -2 21.5 -11t3.5 -21.5t-20.5 -23.5t-47.5 -18q-35 -6 -82 -1.5t-96 17.5t-92 33.5t-70 43.5q-25 20 -26.5 65z" />
</font>
</defs>
</svg>
