<?xml version="1.0" encoding="utf-8"?>
<!-- Generator: Adobe Illustrator 16.0.0, SVG Export Plug-In . SVG Version: 6.00 Build 0)  -->
<!DOCTYPE svg PUBLIC "-//W3C//DTD SVG 1.1//EN" "http://www.w3.org/Graphics/SVG/1.1/DTD/svg11.dtd">
<svg version="1.1" id="Layer_1" xmlns="http://www.w3.org/2000/svg" xmlns:xlink="http://www.w3.org/1999/xlink" x="0px" y="0px"
	 width="220px" height="220px" viewBox="0 0 220 220" enable-background="new 0 0 220 220" xml:space="preserve">
<g>
	<polygon fill="#273339" points="168.195,32.211 203.57,5.689 209.312,49.526 	"/>
	<rect x="9.058" y="166.091" fill="#ED7409" width="38.562" height="48.221"/>
	<rect x="120.537" y="128.292" fill="#E64F13" width="38.562" height="86.02"/>
	<rect x="176.275" y="91.066" fill="#788E99" width="38.562" height="123.245"/>
	
		<rect x="64.798" y="150.628" fill="#00555F" stroke="#989899" stroke-width="0.3107" stroke-miterlimit="10" width="38.562" height="63.684"/>
	<path fill="#273339" d="M200.719,45.601c0,0-0.389,0.786-1.12,2.258c-0.363,0.736-0.814,1.645-1.344,2.712
		c-0.562,1.105-1.354,2.538-2.166,4.044c-0.415,0.759-0.852,1.559-1.312,2.397c-0.473,0.788-0.97,1.612-1.488,2.472
		c-0.518,0.856-1.056,1.748-1.614,2.673c-0.574,0.916-1.207,1.838-1.841,2.803c-0.639,0.959-1.297,1.949-1.977,2.969
		c-0.719,0.99-1.456,2.008-2.213,3.053c-1.479,2.113-3.2,4.205-4.941,6.418c-3.594,4.336-7.603,8.917-12.209,13.358
		c-4.576,4.465-9.593,8.946-15.094,13.138c-5.481,4.209-11.337,8.261-17.518,11.949c-6.187,3.673-12.653,7.036-19.257,10.025
		c-6.598,3.009-13.386,5.521-20.121,7.714c-6.732,2.211-13.482,3.919-20.04,5.308c-6.55,1.436-12.963,2.336-19.026,3.078
		c-3.046,0.283-5.989,0.652-8.859,0.791c-1.43,0.093-2.835,0.183-4.216,0.272c-1.381,0.046-2.737,0.09-4.064,0.134
		c-1.327,0.034-2.624,0.095-3.893,0.103c-1.269-0.005-2.508-0.01-3.717-0.015c-1.208-0.012-2.381,0.006-3.523-0.03
		c-1.142-0.044-2.25-0.087-3.325-0.128c-1.072-0.042-2.11-0.082-3.113-0.121c-1.039-0.049-1.966-0.142-2.898-0.206
		c-1.844-0.141-3.538-0.27-5.068-0.387c-3.062-0.272-5.465-0.618-7.098-0.792c-1.632-0.192-2.502-0.294-2.502-0.294
		s0.877,0.005,2.521,0.014c1.645-0.01,4.042,0.065,7.102-0.004c1.534-0.054,3.231-0.114,5.079-0.18
		c0.915-0.039,1.907-0.053,2.862-0.116c0.991-0.072,2.018-0.147,3.078-0.226c1.059-0.078,2.152-0.158,3.277-0.24
		c1.124-0.09,2.277-0.237,3.46-0.358c1.182-0.128,2.395-0.258,3.635-0.392c1.239-0.146,2.502-0.35,3.792-0.527
		c1.288-0.188,2.603-0.379,3.942-0.574c1.332-0.237,2.689-0.479,4.07-0.725c2.764-0.445,5.584-1.128,8.49-1.727
		c5.78-1.378,11.837-2.931,17.942-5.006c6.115-2.029,12.336-4.368,18.45-7.167c6.117-2.781,12.203-5.843,18.018-9.328
		c5.823-3.467,11.43-7.237,16.704-11.225c5.267-4.002,10.152-8.272,14.643-12.596c4.512-4.308,8.512-8.796,12.092-13.172
		c3.615-4.354,6.646-8.742,9.325-12.823c1.279-2.082,2.562-4.032,3.616-5.985c0.547-0.962,1.078-1.899,1.594-2.811
		c0.478-0.931,0.942-1.835,1.392-2.711c0.443-0.877,0.893-1.714,1.288-2.541c0.383-0.832,0.75-1.635,1.104-2.406
		c0.354-0.769,0.694-1.506,1.017-2.21c0.279-0.685,0.544-1.338,0.796-1.958c0.501-1.262,0.941-2.272,1.346-3.342
		c0.407-1.12,0.753-2.073,1.032-2.845c0.562-1.545,0.862-2.369,0.862-2.369L200.719,45.601z"/>
</g>
</svg>
