<?xml version="1.0" encoding="utf-8"?>
<!-- Generator: Adobe Illustrator 16.0.0, SVG Export Plug-In . SVG Version: 6.00 Build 0)  -->
<!DOCTYPE svg PUBLIC "-//W3C//DTD SVG 1.1//EN" "http://www.w3.org/Graphics/SVG/1.1/DTD/svg11.dtd">
<svg version="1.1" id="Layer_1" xmlns="http://www.w3.org/2000/svg" xmlns:xlink="http://www.w3.org/1999/xlink" x="0px" y="0px"
	 width="80px" height="80px" viewBox="0 0 80 80" enable-background="new 0 0 80 80" xml:space="preserve">
<g>
	<path fill-rule="evenodd" clip-rule="evenodd" fill="#FFFFFF" d="M75.183,22.812L55.63,5.9v7.512
		c-19.717,0-35.701,15.983-35.701,35.699c0,3.093,0.395,6.094,1.133,8.955C25.036,42.683,39.005,31.32,55.63,31.32v8.401
		L75.183,22.812z"/>
	<g>
		<path fill="#FFFFFF" d="M60.638,42.883v19.216c0,2.241-1.823,4.065-4.066,4.065H16.815c-2.241,0-4.064-1.824-4.064-4.065V22.342
			c0-2.242,1.823-4.066,4.064-4.066h11.277c3.81-3.404,8.25-6.115,13.121-7.934H16.815c-6.615,0-11.998,5.384-11.998,12v39.757
			c0,6.616,5.383,12,11.998,12h39.756c6.617,0,12-5.384,12-12V36.021L60.638,42.883z"/>
	</g>
</g>
</svg>
