<?xml version="1.0" encoding="utf-8"?>
<!-- Generator: Adobe Illustrator 16.0.0, SVG Export Plug-In . SVG Version: 6.00 Build 0)  -->
<!DOCTYPE svg PUBLIC "-//W3C//DTD SVG 1.1//EN" "http://www.w3.org/Graphics/SVG/1.1/DTD/svg11.dtd">
<svg version="1.1" id="Layer_1" xmlns="http://www.w3.org/2000/svg" xmlns:xlink="http://www.w3.org/1999/xlink" x="0px" y="0px"
	 width="80px" height="80px" viewBox="0 0 80 80" enable-background="new 0 0 80 80" xml:space="preserve">
<g>
	<path fill-rule="evenodd" clip-rule="evenodd" fill="#FFFFFF" d="M73.22,21.667l2.355-2.357c1.785-1.783,1.785-4.678,0-6.463
		l-8.588-8.586c-1.784-1.787-4.68-1.787-6.464,0l-2.354,2.354L73.22,21.667z"/>
	
		<rect x="37.606" y="11.913" transform="matrix(0.7071 0.7071 -0.7071 0.7071 36.468 -24.8656)" fill-rule="evenodd" clip-rule="evenodd" fill="#FFFFFF" width="21.284" height="39.346"/>
	<g>
		<path fill="#FFFFFF" d="M58.903,43.997V65.08c0,2.241-1.823,4.065-4.066,4.065H15.083c-2.243,0-4.067-1.824-4.067-4.065V25.323
			c0-2.242,1.824-4.066,4.067-4.066h20.428l7.935-7.934H15.083c-6.617,0-12,5.384-12,12V65.08c0,6.616,5.383,12,12,12h39.754
			c6.617,0,12-5.384,12-12V36.062L58.903,43.997z"/>
	</g>
	<polygon fill-rule="evenodd" clip-rule="evenodd" fill="#FFFFFF" points="19.971,59.862 23.276,41.505 38.329,56.558 	"/>
</g>
</svg>
