<?xml version="1.0" encoding="utf-8"?>
<!-- Generator: Adobe Illustrator 16.0.0, SVG Export Plug-In . SVG Version: 6.00 Build 0)  -->
<!DOCTYPE svg PUBLIC "-//W3C//DTD SVG 1.1//EN" "http://www.w3.org/Graphics/SVG/1.1/DTD/svg11.dtd">
<svg version="1.1" id="Layer_1" xmlns="http://www.w3.org/2000/svg" xmlns:xlink="http://www.w3.org/1999/xlink" x="0px" y="0px"
	 width="90px" height="80px" viewBox="0 0 90 80" enable-background="new 0 0 90 80" xml:space="preserve">
<g>
	<path fill="#FFFFFF" d="M60.896,63.975c-8.338,0-14.871-5.244-14.871-11.943c0-6.696,6.533-11.942,14.871-11.942
		c8.34,0,14.873,5.246,14.873,11.942C75.77,58.73,69.236,63.975,60.896,63.975z M60.896,46.891c-4.299,0-8.07,2.402-8.07,5.141
		c0,2.74,3.771,5.145,8.07,5.145c4.301,0,8.072-2.404,8.072-5.145C68.969,49.293,65.197,46.891,60.896,46.891z"/>
	<g>
		<path fill="#FFFFFF" d="M73.012,12.247c-3.316-5.963-9.561-9.696-16.539-9.696c-4.381,0-8.537,1.489-11.869,4.176
			c-3.199-2.307-7.07-3.579-11.077-3.579c-6.648,0-12.746,3.483-16.159,9.054C7.905,13.249,0.52,21.296,0.52,31.033
			c0,9.606,7.188,17.566,16.468,18.785c3.314,5.963,9.559,9.695,16.539,9.695c3.161,0,6.222-0.785,8.937-2.238
			c-0.627-1.641-0.971-3.401-0.971-5.244c0-1.672,0.282-3.275,0.803-4.785l-0.333,0.396c-2.103,2.503-5.177,3.938-8.436,3.938
			c-4.57,0-8.599-2.754-10.259-7.012l-1.003-2.566l-2.845,0.045c-6.053-0.026-10.966-4.956-10.966-11.014
			c0-6.072,4.939-11.014,11.009-11.014l2.911,0.071l1.07-2.431c1.761-3.996,5.719-6.58,10.082-6.58c3.151,0,6.159,1.359,8.253,3.727
			l3.131,3.539l2.943-3.697c2.107-2.645,5.248-4.162,8.619-4.162c4.57,0,8.598,2.752,10.26,7.012l1.002,2.567l2.844-0.046
			c6.051,0.025,10.967,4.955,10.967,11.014c0,4.346-2.537,8.1-6.199,9.891c2,1.882,3.484,4.172,4.285,6.723
			c5.863-3.226,9.85-9.461,9.85-16.613C89.48,21.425,82.291,13.465,73.012,12.247z"/>
	</g>
	<path fill="#FFFFFF" d="M41.799,77.449c-5.547,0-9.893-3.553-9.893-8.09c0-4.536,4.346-8.089,9.893-8.089
		c5.546,0,9.892,3.553,9.892,8.089C51.691,73.896,47.346,77.449,41.799,77.449z M41.799,66.938c-2.419,0-4.225,1.278-4.225,2.422
		c0,1.145,1.806,2.422,4.225,2.422c2.418,0,4.224-1.277,4.224-2.422C46.023,68.216,44.217,66.938,41.799,66.938z"/>
</g>
</svg>
