<?xml version="1.0" encoding="utf-8"?>
<!-- Generator: Adobe Illustrator 16.0.0, SVG Export Plug-In . SVG Version: 6.00 Build 0)  -->
<!DOCTYPE svg PUBLIC "-//W3C//DTD SVG 1.1//EN" "http://www.w3.org/Graphics/SVG/1.1/DTD/svg11.dtd">
<svg version="1.1" id="Layer_1" xmlns="http://www.w3.org/2000/svg" xmlns:xlink="http://www.w3.org/1999/xlink" x="0px" y="0px"
	 width="320px" height="320px" viewBox="0 0 320 320" enable-background="new 0 0 320 320" xml:space="preserve">
<g>
	<g>
		<g>
			<path fill="#FFFFFF" d="M68.651,253.598c-0.692-3.776-1.728-7.419-3.11-10.93c-1.379-3.525-3.107-6.567-5.19-9.139
				c-2.091-2.563-4.707-4-7.802-4.312c-0.898-0.126-2.16-0.421-3.805-0.898c-1.646-0.475-2.89-0.664-3.771-0.563
				c-1.928,0.215-3.408,0.975-4.426,2.291c-1.002,1.316-1.792,2.836-2.375,4.535c-0.575,1.715-1.021,3.434-1.322,5.168
				c-0.3,1.736-0.664,3.173-1.079,4.312c-0.449-6.965-0.818-12.624-1.147-16.976c-0.309-4.349-0.566-8.184-0.77-11.511
				c-0.203-3.316-0.334-6.486-0.392-9.501c-0.061-3.002-0.805-0.302-0.725-4.49c-0.031-0.317,0.038-0.898,0.209-1.739
				c0.189-0.847,0.392-1.746,0.604-2.701c0.229-0.955,0.941-2.081,0.787-3.457c-0.195-1.594-2.123-3.144-3.379-3.716
				c-1.276-0.584-2.658-1.005-4.174-1.273c-1.505-0.272-2.967-0.435-4.412-0.498c-1.431-0.058-1.776-0.154-2.75-0.054
				c-0.879,0.103-1.811,0.309-2.398,0.635c-1.11,0.606-1.75,2.197-1.674,2.853c0.032,0.218,0.166,0.405,0.393,0.609
				c0.243,0.2,0.432,0.835,0.541,1.914c2.177,21.577,6.108,32.949,7.408,46.614c1.296,13.677,2.375,24.406,3.236,32.209
				c0.538,4.876,1.064,8.793,1.542,11.746c0.513,2.967,0.996,5.27,1.514,6.909c0.498,1.64,1.084,2.697,1.737,3.179
				c0.658,0.476,1.371,0.673,2.123,0.592c0.326-0.04,0.778-0.226,1.345-0.569c0.569-0.337,1.147-0.698,1.763-1.087
				c0.618-0.412,1.442-0.924,2.455-1.597c1.273,0.618,2.841,1.136,4.692,1.539c1.857,0.4,4.733,0.39,8.629-0.048
				c4.332-0.481,7.728-1.777,10.171-3.909c2.447-2.148,4.255-4.672,5.414-7.613c1.159-2.915,1.799-6.052,1.928-9.413
				c0.117-3.354,0.014-6.492-0.306-9.419C69.833,260.582,69.329,257.352,68.651,253.598z M57.59,275.449
				c-0.509,2.955-1.439,5.634-2.813,8.04c-1.391,2.403-3.49,3.759-6.303,4.073c-0.767,0.087-1.388,0.089-1.897,0.041
				c-0.489-0.052-0.972-0.194-1.439-0.421c-0.458-0.223-1.039-0.475-1.731-0.793c-0.687-0.313-1.717-0.657-3.067-1.058
				c-0.353-1.16-0.627-2.424-0.833-3.764c-0.203-1.355-0.369-2.614-0.498-3.812c-0.329-2.926-0.417-6.708-0.274-11.321
				c0.157-4.629,0.549-9.135,1.222-13.542c0.655-4.397,1.579-8.208,2.764-11.407c1.185-3.202,2.639-4.898,4.378-5.09
				c1.308-0.146,2.432,0.3,3.428,1.341c0.999,1.051,1.894,2.404,2.672,4.075c0.79,1.665,1.459,3.542,2.022,5.607
				c0.555,2.078,1.022,4.026,1.379,5.852c0.369,1.829,0.658,3.442,0.873,4.842c0.203,1.401,0.332,2.26,0.372,2.592
				c0.12,1.192,0.232,3.201,0.343,6.04C58.271,269.583,58.076,272.493,57.59,275.449z"/>
			<path fill="#FFFFFF" d="M203.139,270.45c1.574-1.597,2.229-3.69,1.937-6.298c-0.251-2.177-1.762-4.274-4.565-6.32
				c-2.798-2.049-5.88-4.085-9.23-6.141c-3.354-2.033-6.436-4.119-9.247-6.211c-2.799-2.1-4.329-4.234-4.567-6.403
				c-0.269-2.489,0.224-4.921,1.482-7.324c1.288-2.381,3.809-3.782,7.605-4.194c0.761-0.089,1.459,0.031,2.101,0.341
				c0.626,0.313,1.243,0.683,1.845,1.108c0.598,0.433,1.134,0.813,1.603,1.14c0.472,0.326,0.93,0.461,1.367,0.417
				c1.518-0.162,2.716-0.761,3.583-1.779c0.875-1.041,1.541-2.186,2.008-3.442c0.464-1.258,0.762-2.515,0.891-3.796
				c0.135-1.273,0.157-2.237,0.094-2.888c-0.245-2.165-1.318-3.527-3.247-4.077c-1.929-0.557-3.803-0.732-5.659-0.522
				c-1.946,0.208-4.627,0.838-8.006,1.868c-3.394,1.03-6.664,2.486-9.797,4.366c-3.136,1.882-5.773,4.268-7.935,7.124
				c-2.137,2.876-3.009,6.203-2.597,9.988c0.316,2.721,1.204,5.133,2.714,7.279c1.482,2.132,3.285,4.046,5.391,5.73
				c2.101,1.688,4.338,3.222,6.679,4.604c2.337,1.394,4.556,2.738,6.618,4.043c2.068,1.29,3.785,2.602,5.192,3.865
				c1.404,1.265,2.194,2.665,2.36,4.178c0.154,1.514-0.438,2.652-1.852,3.407c-1.39,0.759-2.517,1.18-3.396,1.285
				c-1.945,0.212-3.723-0.028-5.336-0.729c-1.623-0.692-3.096-1.474-4.455-2.307c-1.348-0.835-2.658-1.616-3.883-2.356
				c-1.219-0.748-2.443-1.06-3.622-0.92c-0.669,0.075-1.316,0.332-1.975,0.685c0.387-1.262,0.727-2.546,0.958-3.871
				c0.604-3.457,0.753-6.537,0.464-9.254l-0.125-1.124c-0.225-1.846-1.139-2.675-2.745-2.503c-0.761,0.08-1.28,0.417-1.532,0.995
				c-0.281,0.584-0.492,1.64-0.636,3.185c-0.195,2.338-0.492,4.747-0.933,7.259c-0.443,2.524-1.193,4.824-2.275,6.913
				c-1.087,2.094-2.555,3.879-4.429,5.347c-1.863,1.466-4.363,2.376-7.496,2.725c-2.274,0.246-4.266-0.055-5.949-0.912
				c-1.702-0.856-3.076-1.897-4.215-3.154c-1.13-1.225-2.008-2.54-2.658-3.894c-0.635-1.354-1.004-2.412-1.084-3.17l-0.512-4.718
				c0.764,0.143,1.567,0.217,2.397,0.237c0.821,0.012,1.511,0,2.049-0.068c3.027-0.336,5.648-1.526,7.833-3.574
				c2.18-2.043,3.938-4.492,5.271-7.33c1.333-2.825,2.246-5.846,2.781-9.03c0.526-3.185,0.655-6.071,0.366-8.679l-0.423-2.243
				c-0.309-1.834-0.939-3.564-1.883-5.221c-0.955-1.652-2.154-3.054-3.605-4.212c-1.431-1.15-3.072-2.043-4.887-2.658
				c-1.831-0.623-3.708-0.821-5.659-0.609c-4,0.442-7.285,2.148-9.797,5.112c-2.518,2.962-4.498,6.529-5.894,10.685
				c-1.399,4.156-2.295,8.561-2.644,13.204c-0.329,4.135-0.32,7.905-0.031,11.362c-0.06,0.438-0.135,0.918-0.183,1.487
				c-0.194,2.32-0.492,4.741-0.924,7.251c-0.447,2.517-1.207,4.82-2.289,6.921c-1.084,2.098-2.552,3.877-4.426,5.342
				s-4.372,2.374-7.516,2.724c-2.272,0.243-4.255-0.052-5.934-0.906c-1.674-0.858-3.087-1.909-4.209-3.154
				c-1.122-1.25-2.02-2.543-2.655-3.908c-0.652-1.347-1.013-2.406-1.082-3.167l-0.523-4.709c0.775,0.131,1.588,0.211,2.403,0.223
				c0.827,0.022,1.511,0.011,2.045-0.058c3.033-0.329,5.651-1.531,7.846-3.579c2.16-2.043,3.931-4.489,5.253-7.325
				c1.347-2.835,2.263-5.839,2.79-9.023c0.532-3.188,0.635-6.071,0.355-8.681l-0.412-2.249c-0.315-1.826-0.941-3.571-1.9-5.222
				c-0.944-1.643-2.14-3.045-3.591-4.212c-1.441-1.15-3.061-2.038-4.893-2.656c-1.813-0.62-3.702-0.822-5.656-0.608
				c-4.011,0.44-7.276,2.14-9.796,5.113c-2.524,2.961-4.49,6.525-5.877,10.681c-1.411,4.157-2.298,8.561-2.664,13.201
				c-0.366,4.647-0.329,8.867,0.083,12.664c0.429,3.897,1.259,7.562,2.446,10.995c1.21,3.429,2.901,6.332,5.076,8.735
				c2.177,2.381,4.838,4.184,7.928,5.362c3.093,1.198,6.747,1.551,10.97,1.09c4.432-0.501,8.149-1.891,11.119-4.197
				c2.987-2.295,5.345-4.987,7.093-8.086c1.041-1.862,1.854-3.788,2.486-5.773c1.116,2.571,2.529,4.835,4.266,6.735
				c2.183,2.397,4.815,4.194,7.922,5.387c3.096,1.19,6.752,1.548,10.973,1.088c4.443-0.498,8.151-1.886,11.124-4.194
				c2.984-2.31,5.339-5.007,7.084-8.103c0.372-0.664,0.704-1.34,1.022-2.019c0.38,1.5,1.2,2.733,2.53,3.677
				c1.609,1.14,3.5,1.946,5.7,2.41c2.187,0.475,4.421,0.758,6.679,0.82c2.246,0.098,4.132,0.043,5.65-0.117
				c0.964-0.108,2.562-0.375,4.764-0.775c2.203-0.408,4.373-1.061,6.521-1.96C199.697,273.303,201.557,272.042,203.139,270.45z
				 M90.362,249.947c0.149-2.478,0.558-5.094,1.196-7.857c0.626-2.752,1.513-5.238,2.695-7.453c1.182-2.212,2.747-3.429,4.704-3.648
				c1.291-0.14,2.247,0.249,2.831,1.168c0.594,0.927,0.943,1.816,1.046,2.681l0.118,0.973c0.166,1.527,0.166,3.493-0.009,5.92
				c-0.168,2.43-0.586,4.833-1.27,7.21c-0.672,2.39-1.668,4.472-3.007,6.264c-1.331,1.782-3.093,2.798-5.242,3.047l-0.828,0.074
				c-0.967,0.121-1.562-0.12-1.799-0.701c-0.223-0.565-0.395-1.351-0.504-2.323l-0.051-0.483
				C90.153,254.059,90.205,252.428,90.362,249.947z M134.227,245.1c0.157-2.488,0.549-5.104,1.19-7.862
				c0.633-2.765,1.517-5.235,2.709-7.451c1.182-2.217,2.732-3.427,4.693-3.639c1.308-0.152,2.254,0.234,2.841,1.152
				c0.589,0.925,0.949,1.823,1.047,2.696l0.103,0.964c0.166,1.522,0.166,3.496,0,5.917c-0.183,2.44-0.592,4.839-1.268,7.207
				c-0.667,2.39-1.674,4.469-3.001,6.261c-1.339,1.788-3.09,2.807-5.265,3.059l-0.807,0.088c-0.973,0.106-1.585-0.136-1.806-0.712
				c-0.226-0.572-0.392-1.365-0.506-2.326l-0.046-0.488C134.021,249.209,134.067,247.592,134.227,245.1z"/>
			<path fill="#FFFFFF" d="M79.916,180.396l25.614-0.575c1.101-0.031,1.902,0.796,2.377,2.452c0.472,1.669,0.875,3.729,1.256,6.2
				c0.361,2.467,0.759,5.153,1.202,8.047c0.432,2.898,1.104,5.572,2.049,8.031c0.915,2.463,2.163,4.501,3.739,6.137
				c1.588,1.637,3.746,2.417,6.47,2.366c1.353-0.034,2.715-0.249,4.072-0.652c1.353-0.407,2.271-1.113,2.744-2.111l-0.032-0.922
				c-0.008-0.618-0.137-1.104-0.403-1.479c-0.249-0.357-0.512-0.663-0.755-0.906c-0.261-0.255-0.515-0.55-0.775-0.913
				c-0.26-0.364-0.386-0.919-0.403-1.662l-0.629-27.845c2.712-0.438,4.918-1.374,6.618-2.842c1.703-1.46,2.538-2.937,2.498-4.421
				c-0.014-0.867-0.406-1.545-1.155-2.022c0-0.115-0.126-0.187-0.378-0.18c-0.366,0.008-0.927,0.273-1.654,0.792
				c-0.729,0.509-1.468,0.77-2.2,0.79c-1.617,0.037-2.919-0.31-3.923-1.027l-1.496-65.891c0.575-1.628,0.861-2.924,0.844-3.92
				c-0.046-1.856-0.584-3.33-1.582-4.42c-1.027-1.09-2.355-1.962-3.966-2.606c-1.633-0.647-3.342-1.041-5.144-1.184
				c-1.789-0.149-3.56-0.198-5.293-0.164c-1.726,0.043-3.176,0.231-4.344,0.566c-1.184,0.34-1.733,1.365-1.702,3.107
				c1.374,0.586,2.272,1.614,2.669,3.096c0.4,1.479,0.629,2.896,0.644,4.252l1.451,63.481c-8.801-5.988-16.967-10.008-24.506-12.069
				c-7.548-2.057-14.532-3.13-20.967-3.244c-0.261,0.005-0.372-0.112-0.383-0.364c-0.003-0.246-0.074-0.483-0.2-0.738L60.9,87.188
				c-0.052-1.863,0.16-3.639,0.626-5.313c0.452-1.68,1.734-2.546,3.849-2.595c-0.18-2.097-0.87-3.905-2.074-5.422
				c-1.219-1.525-2.673-2.79-4.369-3.808c-1.688-1.016-3.502-1.742-5.425-2.198c-1.94-0.449-3.76-0.661-5.496-0.623
				c-0.999,0.028-2.04,0.114-3.156,0.254c-1.113,0.152-1.648,0.907-1.631,2.272l0.878,5.551c-0.197,2.111-0.334,4.214-0.415,6.323
				c-0.074,2.104-0.143,4.43-0.206,6.964c-0.074,2.543,0.515,30.938,0.592,34.217c0.066,3.276,0.152,7.208,0.257,11.785
				l0.361,15.777c-1.354,0.4-3.01,1.001-4.967,1.791c-1.971,0.784-3.837,1.754-5.605,2.904c-1.776,1.159-3.291,2.429-4.558,3.811
				c-1.262,1.408-1.872,2.958-1.846,4.687c0.052,1.982,0.609,3.733,1.691,5.265c1.099,1.519,2.49,2.855,4.175,3.979
				c1.708,1.145,3.593,2.092,5.639,2.847c2.063,0.765,4.086,1.302,6.077,1.625l0.24,10.398c0.066,3.339-0.105,6.687-0.523,10.046
				c-0.417,3.348-0.598,6.074-0.552,8.183c0.818,3.198,2.907,5.685,6.306,7.474c3.374,1.771,6.724,2.63,10.069,2.559
				c0.755-0.021,1.802-0.17,3.158-0.45c1.342-0.277,2.026-0.727,2.009-1.336c-0.026-1.247-0.426-2.249-1.176-3.044
				c-0.767-0.784-1.17-2.052-1.199-3.783L63,180.048c2.618,0.186,5.519,0.303,8.744,0.349
				C74.965,180.457,77.681,180.451,79.916,180.396z M42.46,170.571c-1.062-0.16-2.12-0.443-3.176-0.855
				c-1.067-0.415-1.949-0.916-2.641-1.511c-0.692-0.609-1.052-1.291-1.07-2.031c-0.011-0.744,0.375-1.453,1.173-2.163
				c0.772-0.689,1.654-1.33,2.638-1.909c0.979-0.574,2.025-1.066,3.122-1.467c1.116-0.389,1.894-0.604,2.401-0.616l0.234,10.77
				C44.399,170.806,43.513,170.734,42.46,170.571z M62.852,173.363c-0.066-2.605-0.112-4.893-0.152-6.869
				c-0.042-1.982-0.042-4.641,0-7.985c2.844,0.189,5.959,0.489,9.302,0.907c3.359,0.418,6.787,1.11,10.272,2.085
				c3.484,0.971,6.858,2.29,10.114,3.945c3.259,1.66,6.22,3.826,8.873,6.49c-3.205,0.689-6.936,1.204-11.19,1.551
				c-4.277,0.346-8.2,0.558-11.794,0.635C72.846,174.254,67.704,173.993,62.852,173.363z"/>
			<path fill="#FFFFFF" d="M287.934,196.809c-23.997,2.953-33.413,7.385-49.656,14.756v-58.887c0.75-0.24,1.13-0.675,1.13-1.296
				c0-0.993-0.489-1.771-1.499-2.326c-0.979-0.558-2.191-1.018-3.608-1.396c-1.424-0.364-2.912-0.612-4.466-0.73
				c-1.548-0.126-2.936-0.18-4.16-0.18c-0.996,7.042-2.111,14.037-3.351,20.973c-1.238,6.938-2.609,13.118-4.089,18.569
				c-1.479,5.442-3.127,9.836-4.921,13.189c-1.808,3.334-3.806,5.014-6.038,5.014c-2.104,0-3.484-1.982-4.179-5.949
				c-0.685-3.954-1.019-10.58-1.019-19.868c0-6.2,0.134-11.419,0.377-15.693c0.237-4.266,0.578-7.731,1.02-10.395
				c0.42-2.658,0.943-4.704,1.575-6.129c0.621-1.419,1.296-2.383,2.043-2.875c0.235-0.246,0.523-0.466,0.818-0.655
				c0.321-0.18,0.49-0.452,0.49-0.832c0-1.359-0.627-2.513-1.872-3.445c-1.232-0.924-2.661-1.666-4.289-2.223
				c-1.613-0.552-3.176-0.958-4.666-1.21c-1.506-0.246-2.521-0.375-3.017-0.375c-1.63,0-2.955,1.468-3.959,4.373
				c-0.998,2.907-1.742,6.586-2.252,11.05c-0.498,4.458-0.811,9.313-0.938,14.578c-0.095,4.325-0.158,8.46-0.178,12.498
				c-0.309,0.662-0.608,1.692-0.91,3.112c-0.506,2.575-1.136,5.228-1.926,7.982c-0.801,2.741-1.925,5.228-3.393,7.42
				c-1.477,2.205-3.334,4.005-5.597,5.41c-2.269,1.417-5.161,2.115-8.706,2.115c-2.578,0-4.744-0.588-6.51-1.749
				c-1.777-1.159-3.199-2.504-4.309-4.04c-1.102-1.512-1.923-3.078-2.473-4.658c-0.546-1.597-0.835-2.824-0.835-3.677v-5.311
				c0.856,0.235,1.746,0.424,2.655,0.544c0.93,0.129,1.682,0.188,2.304,0.188c3.416,0,6.475-1.01,9.167-3.029
				c2.681-2.026,4.95-4.521,6.786-7.522c1.825-2.993,3.233-6.226,4.203-9.717c0.984-3.479,1.471-6.689,1.471-9.617l-0.18-2.566
				c-0.123-2.085-0.622-4.097-1.469-6.06c-0.861-1.957-2.014-3.668-3.482-5.13c-1.464-1.468-3.178-2.661-5.124-3.574
				c-1.965-0.918-4.054-1.376-6.236-1.376c-4.53,0-8.384,1.499-11.548,4.492c-3.188,3.004-5.817,6.729-7.891,11.19
				c-2.095,4.46-3.614,9.256-4.589,14.39c-0.984,5.136-1.462,9.839-1.462,14.116c0,4.403,0.466,8.581,1.378,12.559
				c0.91,3.968,2.438,7.422,4.575,10.354c2.135,2.938,4.864,5.262,8.161,6.979c3.304,1.708,7.341,2.566,12.102,2.566
				c5.01,0,9.328-1.102,12.927-3.302c3.603-2.2,6.57-4.922,8.894-8.166c1.282-1.777,2.354-3.64,3.268-5.586
				c0.417,2.516,0.964,4.938,1.714,7.234c0.864,2.657,2.043,4.615,3.521,5.845c1.98,1.488,4.209,2.976,6.688,4.449
				c2.486,1.502,4.767,2.24,6.871,2.24c2.355,0,4.398-0.932,6.133-2.79c1.729-1.856,3.244-4.148,4.547-6.869
				c1.296-2.73,2.377-5.634,3.252-8.729c0.855-3.09,1.614-5.817,2.221-8.166v32.695c-0.122,0.105-0.248,0.208-0.381,0.312
				c-4.057,2.987-7.834,7.61-11.31,11.754c-3.594,4.266-6.688,8.878-9.282,13.833c-1.171,2.213-2.2,4.473-3.147,6.765
				c0.87,0.589,1.706,1.187,2.526,1.771c2.105,1.557,3.635,3.205,4.523,4.913c0.804-3.072,1.806-6.166,3.054-9.264
				c1.679-4.155,3.685-8.101,6.04-11.8c2.354-3.72,5.007-7.929,7.977-10.272v20.612v0.738c0,1.851-0.114,4.735-0.366,8.632
				c-0.24,3.903-0.772,7.806-1.58,11.711c-0.8,3.889-1.974,7.299-3.526,10.209c-1.549,2.896-3.694,4.367-6.41,4.367
				c-1.852,0-3.244-0.533-4.178-1.586c-0.933-1.047-1.636-2.26-2.134-3.613c-0.501-1.371-0.772-2.762-0.833-4.184
				c-0.062-1.425-0.088-2.449-0.088-3.064c0-0.363,0.025-0.698,0.037-1.053c-1.711,1.634-3.691,2.953-5.939,3.883
				c-1.42,0.595-2.853,1.078-4.295,1.474c-0.007,0.188-0.018,0.395-0.018,0.589c0,4.821,1.078,8.315,3.267,10.483
				c2.178,2.175,6.053,3.814,11.644,4.931c0.983,0.243,1.773,0.807,2.34,0.995c0.547,0.183,0.979,0.725,1.308,0.847
				c0.298,0.12,0.609,0.556,0.918,0.627c0.321,0.052,0.79,0.332,1.403,0.332c1.616,0,2.952-3.235,4.014-4.724
				c1.056-1.485,2.445-2.788,4.189-3.903c0.248-0.119,0.746-0.429,1.498-0.918c0.741-0.497,1.531-1.033,2.321-1.582
				c0.817-0.559,1.559-1.056,2.236-1.485c0.696-0.433,1.097-0.722,1.22-0.839c1.994-1.487,3.52-3.407,4.566-5.756
				c1.05-2.357,1.837-4.894,2.346-7.614c0.492-2.727,0.768-5.479,0.83-8.263c0.057-2.79,0.08-5.356,0.08-7.703v-35.141
				c12.349-7.437,19.201-10.907,31.88-15.213c15.877-5.393,27.686-5.311,29.032-5.291
				C305.47,198.22,296.145,195.795,287.934,196.809z M153.866,172.754c0-0.85,0.238-2.651,0.729-5.401
				c0.48-2.753,1.256-5.625,2.289-8.615c1.047-2.999,2.349-5.657,3.931-7.983c1.597-2.318,3.494-3.485,5.697-3.485
				c1.453,0,2.483,0.549,3.019,1.653c0.562,1.093,0.827,2.137,0.827,3.119v1.099c0,1.705-0.246,3.914-0.727,6.604
				c-0.48,2.684-1.259,5.317-2.289,7.876c-1.048,2.569-2.421,4.773-4.135,6.604c-1.711,1.837-3.791,2.741-6.218,2.741h-0.93
				c-1.096,0-1.742-0.321-1.923-0.991c-0.18-0.674-0.271-1.567-0.271-2.663V172.754z"/>
		</g>
	</g>
	<g>
		<g>
			<path fill-rule="evenodd" clip-rule="evenodd" fill="#FFFFFF" d="M225.225,52.187c-8.578-1.914-32.375,4.303-45.813,8.183
				c-10.575-9.25-29.602-25.09-38.197-27.015c-10.592-2.395-22.048,4.953-24.684,17.036c-2.583,11.811,4.764,23.29,15.333,25.668
				c4.546,1.027,13.362,0.025,22.623-1.623c-3.441,3.782-5.759,8.712-6.32,14.269c-0.787,9.725,4.175,17.236,9.053,25.147
				c0.581,0.941,1.03,1.871,1.362,2.79c0.718,1.682,1.159,3.502,1.233,5.439c0.226,5.657-2.635,10.698-7.059,13.571
				c-0.054,0.083,0.052,0.009-0.014,0.089c0,0,18.615-13.322,27.894-19.928c6.094-4.392,11.994-9.182,14.698-16.778
				c1.754-5.468,1.914-10.712,0.68-15.347c7.781,5.507,15.423,10.223,19.995,11.245c10.583,2.357,21.991-4.922,24.546-16.727
				C243.173,66.115,235.831,54.544,225.225,52.187z M186.707,79.731c0.144,0.181,0.283,0.358,0.43,0.543
				c0.191,0.252,0.369,0.515,0.546,0.77c0.121,0.189,0.254,0.38,0.38,0.567c0.188,0.303,0.355,0.615,0.524,0.93
				c0.101,0.191,0.209,0.366,0.298,0.546c0.215,0.44,0.418,0.875,0.598,1.316c0.086,0.223,0.164,0.443,0.237,0.661
				c0.112,0.283,0.203,0.575,0.298,0.867c0.077,0.234,0.14,0.475,0.206,0.727c0.075,0.283,0.146,0.569,0.203,0.858
				c0.054,0.246,0.104,0.496,0.143,0.742c0.052,0.303,0.089,0.618,0.126,0.935c0.023,0.227,0.063,0.458,0.08,0.687
				c0,0.04,0,0.074,0,0.111c-5.637,2.123-11.917,2.713-18.237,1.325c-6.306-1.396-11.768-4.57-15.985-8.861
				c0.021-0.026,0.029-0.061,0.046-0.089c0.118-0.223,0.255-0.42,0.381-0.629c0.157-0.26,0.317-0.512,0.492-0.764
				c0.143-0.217,0.289-0.423,0.446-0.632c0.172-0.227,0.352-0.452,0.532-0.669c0.166-0.204,0.33-0.404,0.504-0.593
				c0.194-0.22,0.406-0.441,0.621-0.647c0.166-0.168,0.323-0.34,0.5-0.5c0.352-0.334,0.718-0.649,1.093-0.956
				c0.169-0.126,0.344-0.252,0.518-0.38c0.281-0.2,0.563-0.409,0.856-0.604c0.19-0.126,0.389-0.243,0.589-0.357
				c0.27-0.157,0.532-0.317,0.808-0.466c0.206-0.106,0.417-0.217,0.626-0.323c0.28-0.134,0.574-0.266,0.873-0.395
				c0.205-0.083,0.403-0.174,0.609-0.246c0.351-0.14,0.717-0.263,1.078-0.366c0.143-0.048,0.295-0.109,0.455-0.157
				c0.512-0.143,1.024-0.263,1.554-0.369c0.171-0.029,0.332-0.043,0.498-0.077c0.38-0.063,0.761-0.111,1.145-0.151
				c0.2-0.021,0.406-0.029,0.614-0.043c0.355-0.028,0.713-0.045,1.067-0.045c0.218,0,0.424,0,0.633,0.009
				c0.383,0.011,0.772,0.045,1.152,0.08c0.181,0.023,0.364,0.025,0.55,0.046c0.572,0.074,1.136,0.171,1.699,0.294
				c0.569,0.12,1.125,0.277,1.663,0.455c0.175,0.051,0.344,0.123,0.521,0.181c0.363,0.125,0.724,0.26,1.067,0.412
				c0.2,0.085,0.384,0.174,0.574,0.26c0.32,0.155,0.645,0.315,0.959,0.484c0.181,0.103,0.357,0.191,0.535,0.303
				c0.34,0.197,0.66,0.407,0.981,0.624c0.135,0.095,0.278,0.175,0.4,0.278c0.438,0.306,0.864,0.638,1.263,0.981
				c0.119,0.112,0.234,0.215,0.349,0.332c0.283,0.246,0.563,0.513,0.826,0.782c0.155,0.16,0.298,0.326,0.446,0.486
				C186.292,79.233,186.501,79.479,186.707,79.731z M186.564,102.993c-0.141,0.166-0.281,0.332-0.421,0.481
				c-0.227,0.257-0.476,0.515-0.716,0.755c-0.122,0.12-0.243,0.246-0.366,0.363c-0.34,0.321-0.709,0.633-1.072,0.933
				c-0.16,0.123-0.323,0.234-0.48,0.36c-0.264,0.195-0.541,0.395-0.815,0.578c-0.16,0.097-0.32,0.214-0.479,0.309
				c-0.412,0.26-0.826,0.5-1.259,0.718c-0.135,0.075-0.269,0.138-0.4,0.195c-0.341,0.166-0.681,0.332-1.033,0.467
				c-0.163,0.071-0.337,0.137-0.497,0.197c-0.4,0.161-0.805,0.301-1.22,0.421c-0.085,0.02-0.169,0.054-0.266,0.089
				c-0.48,0.131-0.979,0.249-1.479,0.349c-0.16,0.031-0.317,0.052-0.476,0.081c-0.394,0.072-0.795,0.12-1.209,0.157
				c-0.133,0.017-0.27,0.035-0.403,0.049c-0.524,0.046-1.051,0.06-1.586,0.06c-0.117-0.008-0.234-0.008-0.354-0.014
				c-0.433-0.02-0.873-0.046-1.306-0.095c-0.156-0.017-0.309-0.025-0.465-0.045c-0.55-0.075-1.1-0.155-1.648-0.281
				c-0.55-0.114-1.082-0.271-1.611-0.438c-0.146-0.04-0.289-0.097-0.433-0.146c-0.423-0.152-0.832-0.312-1.244-0.486
				c-0.103-0.032-0.208-0.081-0.304-0.121c-0.492-0.22-0.969-0.466-1.422-0.721c-0.126-0.066-0.231-0.135-0.349-0.206
				c-0.347-0.209-0.707-0.438-1.041-0.662c-0.126-0.088-0.252-0.177-0.378-0.26c-0.415-0.309-0.821-0.626-1.213-0.964
				c-0.068-0.051-0.123-0.108-0.186-0.166c-0.323-0.292-0.644-0.595-0.944-0.901c-0.129-0.126-0.24-0.254-0.361-0.383
				c-0.251-0.286-0.515-0.578-0.755-0.879c-0.091-0.111-0.183-0.206-0.263-0.32c-0.306-0.386-0.578-0.787-0.85-1.196
				c-0.1-0.149-0.189-0.315-0.289-0.472c-0.18-0.286-0.352-0.584-0.506-0.881c-0.089-0.172-0.183-0.34-0.278-0.518
				c-0.208-0.417-0.403-0.853-0.583-1.296c-0.06-0.163-0.12-0.334-0.18-0.495c-0.124-0.32-0.235-0.641-0.332-0.97
				c-0.066-0.209-0.12-0.41-0.175-0.616c-0.025-0.085-0.04-0.174-0.06-0.26c4.026,3.856,9.093,6.724,14.936,8.011
				c5.851,1.291,11.674,0.822,16.946-0.995C186.679,102.85,186.622,102.918,186.564,102.993z M170.052,102.632
				c-6.159-1.362-11.476-4.463-15.565-8.658c-0.023-0.18-0.042-0.366-0.063-0.546c-0.037-0.294-0.077-0.584-0.088-0.89
				c-0.02-0.283-0.029-0.573-0.029-0.867c-0.011-0.274-0.022-0.555-0.02-0.835c0.014-0.346,0.048-0.701,0.071-1.047
				c0.023-0.229,0.025-0.463,0.057-0.695c0.065-0.581,0.163-1.171,0.298-1.76c0.131-0.592,0.289-1.17,0.475-1.736
				c0.106-0.338,0.249-0.667,0.372-0.996c0.083-0.203,0.149-0.415,0.24-0.621c0.003,0.009,0.012,0.012,0.012,0.012
				c0.04-0.089,0.065-0.189,0.109-0.277c4.229,4.477,9.797,7.782,16.277,9.213c6.463,1.427,12.903,0.761,18.623-1.531
				c0,0.094-0.017,0.194-0.005,0.289h0.005c-0.003,0.235-0.034,0.481-0.046,0.724c-0.017,0.33-0.034,0.67-0.077,0.999
				c-0.065,0.601-0.166,1.193-0.298,1.792c-0.122,0.589-0.285,1.167-0.472,1.725c-0.069,0.223-0.163,0.432-0.246,0.644
				c-0.117,0.335-0.234,0.661-0.366,0.984c-0.117,0.254-0.252,0.506-0.368,0.767c-0.126,0.246-0.25,0.506-0.39,0.761
				c-0.148,0.269-0.309,0.529-0.469,0.79c-0.09,0.146-0.184,0.291-0.281,0.44C182.332,103.399,176.207,103.991,170.052,102.632z
				 M133.724,70.015c-8.054-1.809-13.68-9.156-11.708-18.152c2.014-9.205,10.827-13.922,18.904-12.091
				c9.313,2.094,34.666,24.764,34.666,24.764S142.994,72.1,133.724,70.015z M235.722,75.734
				c-1.548,9.293-10.113,14.44-18.274,13.029c-9.404-1.628-35.87-22.998-35.87-22.998s32.18-9.193,41.545-7.574
				C231.257,59.605,237.236,66.656,235.722,75.734z"/>
			<path fill-rule="evenodd" clip-rule="evenodd" fill="#FFFFFF" d="M203.849,52.218c-1.287-7.25-5.803-13.319-11.949-16.75
				l2.441-4.074c0.771,0.12,1.557-0.22,1.975-0.927c0.566-0.924,0.26-2.134-0.668-2.695c-0.932-0.553-2.128-0.261-2.688,0.669
				c-0.421,0.698-0.353,1.556,0.1,2.174l-2.518,4.171c-3.149-1.51-6.673-2.337-10.386-2.326l-0.521-4.801
				c0.669-0.38,1.102-1.125,1.003-1.931c-0.116-1.076-1.092-1.86-2.162-1.743c-1.07,0.12-1.854,1.084-1.739,2.166
				c0.085,0.815,0.66,1.451,1.398,1.674l0.509,4.675c-7.505,0.49-13.999,4.39-18.045,10.134c6.398,4.79,13.168,10.433,19.124,15.637
				C187.078,56.161,195.803,53.86,203.849,52.218z"/>
		</g>
	</g>
</g>
</svg>
