<?xml version="1.0" encoding="utf-8"?>
<!-- Generator: Adobe Illustrator 16.0.0, SVG Export Plug-In . SVG Version: 6.00 Build 0)  -->
<!DOCTYPE svg PUBLIC "-//W3C//DTD SVG 1.1//EN" "http://www.w3.org/Graphics/SVG/1.1/DTD/svg11.dtd">
<svg version="1.1" id="Layer_1" xmlns="http://www.w3.org/2000/svg" xmlns:xlink="http://www.w3.org/1999/xlink" x="0px" y="0px"
	 width="450px" height="350px" viewBox="0 0 450 350" enable-background="new 0 0 450 350" xml:space="preserve">
<g>
	<path fill="#00555F" stroke="#989899" stroke-width="0.1616" stroke-miterlimit="10" d="M381.957,294.708
		c0,83.345-67.565,42.38-150.91,42.38c-83.344,0-150.911,40.965-150.911-42.38c0-83.347,67.566-150.912,150.911-150.912
		C314.392,143.796,381.957,211.361,381.957,294.708z"/>
	<g>
		<ellipse fill="#323232" cx="144.891" cy="195.533" rx="12.271" ry="3.021"/>
		<g>
			<path fill="#E64F13" d="M144.89,159.484c2.586,0,4.68-2.093,4.68-4.679c0-2.584-2.094-4.674-4.68-4.674
				c-2.584,0-4.686,2.09-4.686,4.674C140.205,157.391,142.306,159.484,144.89,159.484z"/>
			<path fill="#E64F13" d="M154.599,172.687c-0.098-1.004-0.212-2.11-0.361-3.189c-0.143-1.076-0.316-2.105-0.537-3.004
				c-0.342-1.34-0.951-2.43-1.689-3.242c-0.55-0.617-1.162-1.072-1.753-1.407c-0.898-0.503-1.753-0.743-2.401-0.868
				c-0.158-0.03-0.314-0.055-0.455-0.072c-0.255-0.061-0.53-0.102-0.812-0.102h-3.398c-0.288,0-0.557,0.041-0.824,0.102
				c-0.547,0.072-1.35,0.24-2.252,0.641c-0.772,0.352-1.617,0.893-2.346,1.707c-0.738,0.812-1.354,1.902-1.682,3.242
				c-0.221,0.898-0.396,1.928-0.551,3.004c-0.438,3.215-0.617,7.253-0.617,7.279c-0.048,0.951,0.683,1.766,1.633,1.812
				c0.959,0.049,1.768-0.688,1.82-1.64c0,0,0-0.089,0.013-0.263c0.035-0.613,0.13-2.664,0.312-4.429
				c0.082-0.88,0.194-1.801,0.321-2.663c0.119-0.862,0.264-1.658,0.42-2.262c0.09-0.358,0.205-0.659,0.334-0.923v9.396
				c0,0.138,0.012,0.283,0.025,0.418c0,0.062-0.014,0.121-0.014,0.173v18.068c0,1.209,0.981,2.196,2.203,2.196
				c1.21,0,2.197-0.987,2.197-2.196v-15.249h1.404v15.249c0,1.209,0.988,2.196,2.203,2.196c1.217,0,2.203-0.987,2.203-2.196v-18.068
				c0-0.052-0.014-0.111-0.018-0.173c0.018-0.132,0.023-0.281,0.023-0.418v-9.408c0.131,0.264,0.251,0.576,0.341,0.935
				c0.173,0.694,0.341,1.627,0.473,2.632c0.21,1.503,0.353,3.143,0.449,4.405c0.047,0.63,0.089,1.622,0.115,1.999
				c0.01,0.186,0.017,0.335,0.028,0.432c0,0.102,0.006,0.149,0.006,0.149c0.048,0.952,0.862,1.688,1.82,1.64
				c0.939-0.047,1.682-0.861,1.627-1.812C154.861,176.759,154.784,174.7,154.599,172.687z"/>
		</g>
	</g>
	<g>
		<ellipse fill="#323232" cx="300.629" cy="185.442" rx="11.29" ry="2.779"/>
		<g>
			<path fill="#E64F13" d="M300.629,152.274c2.38,0,4.306-1.925,4.306-4.306c0-2.377-1.926-4.301-4.306-4.301
				c-2.378,0-4.312,1.924-4.312,4.301C296.317,150.349,298.251,152.274,300.629,152.274z"/>
			<path fill="#E64F13" d="M309.56,164.422c-0.088-0.925-0.193-1.943-0.33-2.936c-0.132-0.991-0.291-1.938-0.495-2.765
				c-0.313-1.232-0.874-2.236-1.554-2.983c-0.507-0.567-1.068-0.985-1.613-1.294c-0.825-0.465-1.611-0.683-2.207-0.799
				c-0.147-0.029-0.291-0.05-0.42-0.064c-0.234-0.057-0.488-0.096-0.748-0.096h-3.127c-0.266,0-0.514,0.039-0.76,0.096
				c-0.502,0.064-1.241,0.217-2.072,0.588c-0.71,0.325-1.486,0.82-2.157,1.569c-0.679,0.747-1.245,1.751-1.546,2.983
				c-0.205,0.826-0.367,1.773-0.51,2.765c-0.401,2.958-0.565,6.675-0.565,6.696c-0.045,0.877,0.626,1.625,1.502,1.668
				c0.883,0.045,1.626-0.633,1.677-1.508c0,0,0-0.082,0.009-0.243c0.032-0.562,0.12-2.45,0.288-4.073
				c0.076-0.81,0.178-1.659,0.295-2.453c0.111-0.792,0.244-1.523,0.388-2.079c0.083-0.329,0.187-0.605,0.308-0.849v8.646
				c0,0.126,0.011,0.258,0.022,0.385c0,0.054-0.012,0.11-0.012,0.16v16.623c0,1.113,0.902,2.021,2.027,2.021
				c1.112,0,2.021-0.907,2.021-2.021v-14.031h1.294v14.031c0,1.113,0.907,2.021,2.025,2.021c1.119,0,2.026-0.907,2.026-2.021
				v-16.623c0-0.05-0.011-0.106-0.017-0.16c0.017-0.121,0.022-0.259,0.022-0.385v-8.656c0.121,0.242,0.231,0.529,0.314,0.858
				c0.159,0.638,0.313,1.497,0.435,2.422c0.193,1.383,0.325,2.89,0.413,4.054c0.043,0.578,0.082,1.492,0.104,1.838
				c0.011,0.171,0.017,0.311,0.026,0.398c0,0.092,0.008,0.137,0.008,0.137c0.042,0.875,0.793,1.553,1.674,1.508
				c0.865-0.043,1.547-0.791,1.497-1.668C309.803,168.167,309.731,166.273,309.56,164.422z"/>
		</g>
	</g>
	<g>
		<ellipse fill="#323232" cx="193.613" cy="245.692" rx="18.794" ry="4.626"/>
		<g>
			<path fill="#E64F13" d="M193.613,190.476c3.961,0,7.168-3.205,7.168-7.168c0-3.959-3.207-7.159-7.168-7.159
				c-3.959,0-7.18,3.2-7.18,7.159C186.433,187.271,189.654,190.476,193.613,190.476z"/>
			<path fill="#E64F13" d="M208.481,210.698c-0.147-1.541-0.321-3.234-0.55-4.887c-0.22-1.65-0.486-3.227-0.824-4.6
				c-0.523-2.053-1.457-3.725-2.586-4.967c-0.845-0.946-1.779-1.645-2.688-2.157c-1.373-0.771-2.683-1.137-3.676-1.329
				c-0.244-0.046-0.484-0.083-0.697-0.109c-0.391-0.092-0.812-0.156-1.244-0.156h-5.207c-0.44,0-0.855,0.064-1.264,0.156
				c-0.836,0.109-2.066,0.365-3.449,0.979c-1.183,0.542-2.475,1.369-3.592,2.617c-1.13,1.242-2.073,2.914-2.574,4.967
				c-0.34,1.373-0.609,2.949-0.848,4.6c-0.669,4.924-0.941,11.111-0.941,11.148c-0.076,1.457,1.044,2.703,2.5,2.777
				c1.469,0.074,2.706-1.056,2.788-2.512c0,0,0-0.137,0.019-0.404c0.054-0.936,0.199-4.079,0.479-6.782
				c0.127-1.347,0.297-2.761,0.492-4.082c0.186-1.317,0.406-2.534,0.643-3.464c0.14-0.547,0.313-1.006,0.514-1.41v14.393
				c0,0.209,0.018,0.431,0.038,0.641c0,0.092-0.021,0.185-0.021,0.268v27.672c0,1.854,1.504,3.363,3.375,3.363
				c1.852,0,3.363-1.51,3.363-3.363v-23.357h2.154v23.357c0,1.854,1.512,3.363,3.373,3.363c1.863,0,3.375-1.51,3.375-3.363v-27.672
				c0-0.083-0.022-0.176-0.03-0.268c0.03-0.203,0.036-0.432,0.036-0.641v-14.41c0.202,0.402,0.385,0.881,0.524,1.428
				c0.265,1.062,0.521,2.495,0.724,4.034c0.322,2.3,0.541,4.812,0.688,6.747c0.072,0.963,0.138,2.484,0.176,3.062
				c0.016,0.284,0.025,0.515,0.044,0.661c0,0.154,0.011,0.229,0.011,0.229c0.071,1.456,1.319,2.586,2.787,2.512
				c1.439-0.074,2.576-1.32,2.492-2.777C208.884,216.933,208.766,213.778,208.481,210.698z"/>
		</g>
	</g>
	<g>
		<ellipse fill="#323232" cx="282.618" cy="272.437" rx="22.322" ry="5.494"/>
		<g>
			<path fill="#E64F13" d="M282.616,206.858c4.705,0,8.515-3.808,8.515-8.514c0-4.701-3.81-8.504-8.515-8.504
				c-4.7,0-8.525,3.803-8.525,8.504C274.091,203.051,277.916,206.858,282.616,206.858z"/>
			<path fill="#E64F13" d="M300.274,230.876c-0.174-1.83-0.382-3.84-0.652-5.804c-0.262-1.96-0.576-3.833-0.979-5.464
				c-0.622-2.439-1.729-4.422-3.071-5.899c-1.002-1.121-2.113-1.95-3.19-2.562c-1.63-0.915-3.187-1.348-4.366-1.578
				c-0.291-0.054-0.574-0.098-0.826-0.13c-0.466-0.108-0.967-0.185-1.48-0.185h-6.183c-0.524,0-1.017,0.076-1.503,0.185
				c-0.992,0.13-2.452,0.434-4.094,1.164c-1.406,0.643-2.941,1.624-4.266,3.105c-1.342,1.478-2.463,3.46-3.06,5.899
				c-0.402,1.631-0.723,3.504-1.005,5.464c-0.795,5.848-1.119,13.195-1.119,13.24c-0.09,1.731,1.24,3.21,2.969,3.298
				c1.745,0.088,3.215-1.252,3.312-2.982c0,0,0-0.162,0.021-0.479c0.064-1.112,0.236-4.845,0.568-8.056
				c0.15-1.601,0.353-3.279,0.585-4.848c0.22-1.566,0.483-3.012,0.764-4.111c0.164-0.652,0.371-1.198,0.608-1.678v17.094
				c0,0.248,0.021,0.511,0.045,0.761c0,0.108-0.023,0.218-0.023,0.316v32.868c0,2.2,1.785,3.994,4.008,3.994
				c2.2,0,3.994-1.794,3.994-3.994v-27.741h2.559v27.741c0,2.2,1.796,3.994,4.006,3.994c2.213,0,4.009-1.794,4.009-3.994v-32.868
				c0-0.099-0.024-0.208-0.034-0.316c0.034-0.24,0.043-0.513,0.043-0.761v-17.113c0.238,0.477,0.457,1.045,0.622,1.697
				c0.313,1.26,0.62,2.961,0.858,4.788c0.383,2.732,0.645,5.714,0.818,8.015c0.086,1.143,0.162,2.951,0.207,3.635
				c0.02,0.338,0.031,0.611,0.053,0.786c0,0.183,0.013,0.271,0.013,0.271c0.085,1.73,1.567,3.07,3.309,2.982
				c1.71-0.088,3.062-1.566,2.962-3.298C300.755,238.28,300.614,234.532,300.274,230.876z"/>
		</g>
	</g>
	<g>
		<ellipse fill="#323232" cx="204.226" cy="158.854" rx="10.613" ry="2.612"/>
		<g>
			<path fill="#ED7409" d="M204.14,127.677c2.237,0,4.048-1.811,4.048-4.048c0-2.235-1.811-4.043-4.048-4.043
				c-2.236,0-4.053,1.808-4.053,4.043C200.087,125.867,201.904,127.677,204.14,127.677z"/>
			<path fill="#ED7409" d="M212.537,139.093c-0.084-0.867-0.182-1.824-0.312-2.758c-0.123-0.93-0.272-1.82-0.466-2.598
				c-0.295-1.16-0.821-2.104-1.46-2.805c-0.476-0.533-1.005-0.928-1.517-1.217c-0.775-0.435-1.516-0.643-2.076-0.751
				c-0.138-0.024-0.273-0.046-0.393-0.062c-0.222-0.053-0.46-0.09-0.704-0.09h-2.938c-0.25,0-0.482,0.037-0.713,0.09
				c-0.474,0.062-1.169,0.206-1.949,0.553c-0.668,0.306-1.397,0.773-2.027,1.477c-0.639,0.701-1.172,1.645-1.455,2.805
				c-0.191,0.777-0.344,1.668-0.477,2.598c-0.378,2.781-0.533,6.274-0.533,6.295c-0.041,0.824,0.59,1.526,1.412,1.568
				c0.829,0.043,1.527-0.596,1.575-1.417c0,0,0-0.079,0.009-0.229c0.031-0.527,0.113-2.303,0.271-3.828
				c0.07-0.762,0.168-1.559,0.278-2.305c0.103-0.746,0.228-1.434,0.362-1.957c0.078-0.311,0.176-0.568,0.289-0.797v8.127
				c0,0.119,0.012,0.244,0.021,0.363c0,0.051-0.01,0.104-0.01,0.148v15.627c0,1.045,0.848,1.901,1.904,1.901
				c1.047,0,1.9-0.856,1.9-1.901v-13.189h1.215v13.189c0,1.045,0.853,1.901,1.905,1.901c1.051,0,1.905-0.856,1.905-1.901v-15.627
				c0-0.045-0.014-0.098-0.016-0.148c0.016-0.115,0.02-0.244,0.02-0.363v-8.137c0.114,0.228,0.217,0.496,0.295,0.807
				c0.151,0.601,0.295,1.408,0.408,2.277c0.184,1.3,0.307,2.716,0.39,3.811c0.042,0.543,0.076,1.404,0.099,1.729
				c0.01,0.16,0.016,0.289,0.025,0.373c0,0.088,0.006,0.13,0.006,0.13c0.041,0.821,0.745,1.46,1.572,1.417
				c0.814-0.042,1.455-0.744,1.408-1.568C212.763,142.616,212.697,140.834,212.537,139.093z"/>
		</g>
	</g>
	<g>
		<ellipse fill="#323232" cx="343.324" cy="238.111" rx="17.166" ry="4.226"/>
		<g>
			<path fill="#ED7409" d="M343.187,187.681c3.621,0,6.549-2.93,6.549-6.549c0-3.614-2.928-6.539-6.549-6.539
				c-3.616,0-6.557,2.924-6.557,6.539C336.63,184.751,339.57,187.681,343.187,187.681z"/>
			<path fill="#ED7409" d="M356.767,206.149c-0.135-1.405-0.295-2.953-0.5-4.463c-0.203-1.507-0.443-2.945-0.754-4.202
				c-0.48-1.877-1.332-3.4-2.364-4.536c-0.769-0.865-1.625-1.501-2.454-1.97c-1.254-0.704-2.451-1.036-3.357-1.212
				c-0.222-0.042-0.439-0.078-0.637-0.1c-0.357-0.088-0.741-0.145-1.139-0.145h-4.752c-0.402,0-0.781,0.057-1.155,0.145
				c-0.763,0.1-1.888,0.332-3.149,0.895c-1.078,0.492-2.259,1.247-3.281,2.387c-1.031,1.136-1.893,2.659-2.354,4.536
				c-0.307,1.257-0.553,2.695-0.77,4.202c-0.613,4.498-0.861,10.15-0.861,10.182c-0.068,1.332,0.952,2.471,2.282,2.537
				c1.342,0.068,2.471-0.963,2.548-2.293c0,0,0-0.126,0.018-0.369c0.049-0.854,0.182-3.727,0.436-6.196
				c0.116-1.229,0.272-2.521,0.45-3.726c0.167-1.204,0.37-2.318,0.587-3.164c0.126-0.501,0.284-0.922,0.467-1.289v13.146
				c0,0.191,0.018,0.393,0.035,0.584c0,0.084-0.018,0.168-0.018,0.244v25.274c0,1.692,1.373,3.073,3.082,3.073
				c1.692,0,3.073-1.381,3.073-3.073v-21.333h1.968v21.333c0,1.692,1.379,3.073,3.08,3.073c1.702,0,3.082-1.381,3.082-3.073v-25.274
				c0-0.076-0.021-0.16-0.024-0.244c0.024-0.186,0.03-0.393,0.03-0.584v-13.162c0.184,0.368,0.354,0.804,0.479,1.305
				c0.244,0.971,0.478,2.277,0.66,3.684c0.296,2.102,0.494,4.395,0.629,6.163c0.067,0.878,0.125,2.269,0.159,2.795
				c0.017,0.261,0.025,0.469,0.043,0.604c0,0.141,0.009,0.209,0.009,0.209c0.066,1.33,1.205,2.361,2.545,2.293
				c1.316-0.066,2.352-1.205,2.277-2.537C357.136,211.845,357.027,208.964,356.767,206.149z"/>
		</g>
	</g>
	<g>
		<ellipse fill="#323232" cx="119.027" cy="243.153" rx="15.466" ry="3.807"/>
		<g>
			<path fill="#ED7409" d="M118.902,197.719c3.26,0,5.899-2.638,5.899-5.897c0-3.258-2.64-5.892-5.899-5.892
				c-3.258,0-5.906,2.634-5.906,5.892C112.996,195.081,115.644,197.719,118.902,197.719z"/>
			<path fill="#ED7409" d="M131.136,214.357c-0.119-1.265-0.265-2.66-0.453-4.019c-0.179-1.357-0.398-2.654-0.678-3.787
				c-0.431-1.689-1.198-3.062-2.128-4.086c-0.694-0.779-1.465-1.353-2.21-1.773c-1.131-0.634-2.209-0.936-3.025-1.094
				c-0.201-0.037-0.398-0.07-0.573-0.092c-0.322-0.076-0.669-0.127-1.026-0.127h-4.283c-0.363,0-0.703,0.051-1.039,0.127
				c-0.688,0.092-1.7,0.301-2.838,0.809c-0.973,0.445-2.035,1.124-2.955,2.15c-0.932,1.023-1.705,2.396-2.119,4.086
				c-0.281,1.133-0.5,2.43-0.696,3.787c-0.552,4.051-0.776,9.143-0.776,9.174c-0.061,1.199,0.859,2.223,2.057,2.284
				c1.211,0.062,2.227-0.868,2.297-2.065c0,0,0-0.114,0.014-0.334c0.044-0.768,0.164-3.355,0.395-5.58
				c0.104-1.11,0.244-2.271,0.404-3.359c0.152-1.084,0.334-2.086,0.529-2.85c0.113-0.451,0.257-0.83,0.421-1.161v11.843
				c0,0.174,0.017,0.355,0.032,0.529c0,0.074-0.016,0.149-0.016,0.218v22.772c0,1.523,1.235,2.768,2.775,2.768
				c1.525,0,2.769-1.244,2.769-2.768v-19.221h1.772v19.221c0,1.523,1.242,2.768,2.775,2.768s2.775-1.244,2.775-2.768v-22.772
				c0-0.068-0.016-0.144-0.021-0.218c0.021-0.167,0.029-0.355,0.029-0.529v-11.857c0.164,0.332,0.318,0.725,0.429,1.176
				c0.22,0.875,0.431,2.053,0.597,3.318c0.266,1.894,0.445,3.959,0.566,5.553c0.06,0.792,0.113,2.045,0.144,2.518
				c0.015,0.236,0.023,0.424,0.038,0.545c0,0.129,0.008,0.189,0.008,0.189c0.059,1.197,1.086,2.127,2.294,2.065
				c1.185-0.062,2.118-1.085,2.05-2.284C131.468,219.489,131.371,216.894,131.136,214.357z"/>
		</g>
	</g>
	<g>
		<path fill="#323232" d="M259.288,211.796c0,2.123-6.987,3.842-15.609,3.842c-8.617,0-15.606-1.719-15.606-3.842
			c0-2.122,6.989-3.842,15.606-3.842C252.301,207.954,259.288,209.674,259.288,211.796z"/>
		<g>
			<path fill="#ED7409" d="M243.556,165.945c3.289,0,5.953-2.664,5.953-5.952s-2.664-5.946-5.953-5.946s-5.962,2.658-5.962,5.946
				S240.267,165.945,243.556,165.945z"/>
			<path fill="#ED7409" d="M255.901,182.736c-0.121-1.278-0.268-2.687-0.457-4.058c-0.181-1.369-0.402-2.679-0.684-3.821
				c-0.435-1.703-1.209-3.091-2.146-4.124c-0.701-0.785-1.479-1.365-2.232-1.79c-1.14-0.639-2.229-0.944-3.054-1.103
				c-0.201-0.039-0.4-0.07-0.579-0.092c-0.324-0.078-0.674-0.13-1.033-0.13h-4.322c-0.367,0-0.711,0.052-1.05,0.13
				c-0.694,0.092-1.716,0.305-2.864,0.814c-0.98,0.449-2.054,1.135-2.982,2.17c-0.938,1.033-1.721,2.421-2.14,4.124
				c-0.28,1.142-0.503,2.452-0.702,3.821c-0.554,4.091-0.781,9.229-0.781,9.259c-0.062,1.211,0.867,2.243,2.075,2.306
				c1.22,0.061,2.247-0.875,2.316-2.086c0,0,0-0.115,0.015-0.336c0.045-0.775,0.166-3.387,0.396-5.631
				c0.105-1.12,0.248-2.293,0.41-3.39c0.152-1.095,0.338-2.108,0.533-2.875c0.115-0.455,0.261-0.837,0.425-1.172v11.951
				c0,0.176,0.017,0.357,0.032,0.533c0,0.076-0.016,0.152-0.016,0.222v22.979c0,1.539,1.248,2.794,2.802,2.794
				c1.539,0,2.794-1.255,2.794-2.794v-19.396h1.789v19.396c0,1.539,1.254,2.794,2.8,2.794c1.547,0,2.803-1.255,2.803-2.794v-22.979
				c0-0.069-0.019-0.146-0.022-0.222c0.022-0.168,0.029-0.357,0.029-0.533v-11.966c0.166,0.336,0.319,0.732,0.434,1.188
				c0.221,0.882,0.434,2.071,0.601,3.347c0.269,1.912,0.45,3.994,0.571,5.604c0.062,0.799,0.113,2.063,0.146,2.541
				c0.014,0.238,0.022,0.427,0.037,0.55c0,0.129,0.008,0.189,0.008,0.189c0.061,1.211,1.097,2.146,2.315,2.086
				c1.194-0.062,2.138-1.095,2.069-2.306C256.237,187.915,256.14,185.294,255.901,182.736z"/>
		</g>
	</g>
	<path fill="#FFFFFF" d="M57.847,151.581c-2.165-4.369-4.656-13.854-5.441-18.943c-2.359-15.265,0.422-28.199-0.82-33.773
		c-0.004-0.015-0.01-0.028-0.013-0.041c-0.272-1.742-0.735-3.479-1.414-5.185C45.257,81.332,31.312,75.33,19.005,80.229
		C6.796,85.091,0.796,98.86,5.492,111.094c0.016,0.044,0.029,0.085,0.045,0.129c9.626,26.739,44.045,52.899,71.816,69.493
		c23.74,14.181,26.223,13.193,26.223,13.193S68.035,172.136,57.847,151.581z"/>
	<path fill="#FFFFFF" d="M397.96,149.927c1.933-3.898,4.156-12.363,4.857-16.902c2.105-13.623-0.378-25.165,0.732-30.139
		c0.003-0.014,0.007-0.024,0.011-0.036c0.243-1.556,0.656-3.104,1.261-4.628c4.375-10.979,16.82-16.337,27.801-11.965
		c10.894,4.34,16.248,16.627,12.058,27.543c-0.015,0.038-0.024,0.076-0.039,0.115c-8.591,23.859-39.305,47.204-64.085,62.012
		c-21.185,12.655-23.4,11.771-23.4,11.771S388.87,168.269,397.96,149.927z"/>
	<path fill="#FFFFFF" d="M353.188,97.308c1.579-5.002,2.657-15.496,2.649-21.033c-0.02-16.617-5.12-29.902-4.722-36.033
		c0.002-0.016,0.005-0.03,0.008-0.045c0.001-1.897,0.205-3.818,0.643-5.745c3.173-13.889,17.002-22.58,30.891-19.411
		c13.781,3.148,22.439,16.789,19.475,30.567c-0.011,0.05-0.016,0.095-0.025,0.145c-5.805,30.013-38.055,63.519-64.82,85.753
		c-22.885,19.004-25.688,18.363-25.688,18.363S345.766,120.841,353.188,97.308z"/>
	<path fill="#FFFFFF" d="M98.954,96.119c-0.89-5.635-0.358-17.091,0.54-23.043c2.694-17.859,10.315-31.324,10.873-37.979
		c0.002-0.018,0-0.036,0-0.049c0.306-2.041,0.395-4.142,0.232-6.284C109.425,13.322,95.956,1.753,80.513,2.927
		C65.189,4.093,53.689,17.365,54.658,32.656c0.002,0.055,0,0.105,0.002,0.161c1.41,33.201,30.691,74.412,55.895,102.624
		c21.543,24.115,24.658,23.879,24.658,23.879S103.148,122.613,98.954,96.119z"/>
	<path fill="#FFFFFF" d="M244.904,111.455c1.012-6.405,0.409-19.436-0.612-26.204c-3.066-20.313-11.732-35.627-12.367-43.195
		c-0.002-0.021,0-0.039,0-0.056c-0.348-2.319-0.449-4.709-0.265-7.145c1.334-17.563,16.653-30.721,34.217-29.385
		c17.429,1.323,30.509,16.418,29.407,33.811c-0.003,0.062-0.001,0.119-0.004,0.182c-1.604,37.76-34.904,84.629-63.567,116.718
		c-24.501,27.424-28.045,27.154-28.045,27.154S240.136,141.589,244.904,111.455z"/>
	<g>
		<path fill="#0078B6" d="M413.753,99.81h4.904v15.777h-4.904V99.81z M416.206,91.966c1.568,0,2.842,1.272,2.842,2.844
			c0,1.568-1.273,2.844-2.842,2.844c-1.571,0-2.844-1.275-2.844-2.844C413.362,93.239,414.635,91.966,416.206,91.966"/>
		<path fill="#0078B6" d="M421.732,99.81h4.703v2.155h0.064c0.654-1.239,2.257-2.548,4.642-2.548c4.967,0,5.881,3.268,5.881,7.516
			v8.654h-4.898v-7.674c0-1.83-0.033-4.182-2.55-4.182c-2.552,0-2.941,1.993-2.941,4.051v7.805h-4.9V99.81z"/>
	</g>
	<path id="Twitter__x28_alt_x29__39_" fill="#38A8E0" d="M38.96,98.91c1.678-0.135,2.81-0.896,3.248-1.93
		c-0.604,0.373-2.477,0.777-3.513,0.386c-0.049-0.239-0.106-0.468-0.162-0.68c-0.796-2.897-3.489-5.229-6.319-4.946
		c0.23-0.094,0.461-0.182,0.688-0.258c0.318-0.111,2.146-0.411,1.855-1.055c-0.24-0.567-2.477,0.432-2.895,0.562
		c0.553-0.205,1.475-0.568,1.572-1.204c-0.851,0.111-1.688,0.518-2.331,1.102c0.235-0.246,0.409-0.556,0.444-0.884
		c-2.266,1.448-3.592,4.367-4.659,7.199c-0.847-0.812-1.589-1.456-2.26-1.813c-1.882-1.007-4.125-2.058-7.651-3.365
		c-0.107,1.164,0.576,2.715,2.555,3.746c-0.43-0.057-1.213,0.069-1.837,0.222c0.255,1.335,1.085,2.437,3.337,2.97
		c-1.027,0.068-1.561,0.298-2.043,0.805c0.472,0.926,1.615,2.021,3.674,1.799c-2.291,0.988-0.938,2.812,0.928,2.537
		c-3.18,3.276-8.184,3.04-11.057,0.299c7.503,10.227,23.816,6.048,26.247-3.805c1.821,0.014,2.895-0.629,3.558-1.34
		C41.292,99.429,39.771,99.244,38.96,98.91z"/>
	<path id="White_5_" fill="#3E5193" d="M94.015,15.437H70.263c-0.813,0-1.474,0.659-1.474,1.472v23.754
		c0,0.814,0.66,1.475,1.474,1.475H83.05V31.796h-3.479v-4.029h3.479v-2.972c0-3.447,2.107-5.326,5.182-5.326
		c1.475,0,2.74,0.109,3.11,0.16v3.602l-2.134,0.002c-1.673,0-1.996,0.797-1.996,1.963v2.571h3.988l-0.519,4.029h-3.47v10.341h6.803
		c0.812,0,1.473-0.66,1.473-1.475V16.909C95.488,16.096,94.828,15.437,94.015,15.437z"/>
	<g>
		<path fill="#CC0000" d="M254.996,25.371c0-0.008-3.186,0-3.186,0c-4.715,0-8.537,3.82-8.537,8.536s3.822,8.537,8.537,8.537
			l5.989-0.005c1.505,0,2.725-1.21,2.725-2.715l0.003-5.207l4.14,6.529c0.56,0.848,1.521,1.406,2.612,1.406
			c1.729,0,3.13-1.4,3.13-3.129l-0.002-4.807l4.14,6.529c0.56,0.848,1.521,1.406,2.612,1.406c1.729,0,3.129-1.4,3.129-3.129
			l-0.001-13.961h-2.13v13.961c0,0.551-0.447,0.998-0.998,0.998c-0.345,0-0.648-0.174-0.827-0.439l-7.368-11.606
			c-0.068-0.099-0.182-0.163-0.312-0.163c-0.209,0-0.378,0.17-0.378,0.377l0.003,10.834c0,0.551-0.447,0.998-0.998,0.998
			c-0.345,0-0.647-0.174-0.827-0.439l-7.368-11.606c-0.068-0.099-0.183-0.163-0.312-0.163c-0.209,0-0.377,0.17-0.377,0.377
			l-0.002,11.234c0,0.328-0.266,0.594-0.594,0.594l-5.989-0.004c-3.538,0-6.406-2.869-6.406-6.407s2.868-6.405,6.406-6.405
			l3.186-0.002V25.371z"/>
		<path fill="#CC0000" d="M255.339,37.577c0.168,0,0.305-0.136,0.305-0.303V28.49c0-1.728,1.4-3.129,3.129-3.129
			c1.096,0,2.06,0.562,2.619,1.416l4.124,6.471l0.008-4.758c0-1.728,1.401-3.129,3.129-3.129c1.096,0,2.06,0.562,2.618,1.416
			l4.125,6.471v-7.885h2.145l-0.003,13.961c0,0.209-0.169,0.377-0.378,0.377c-0.124,0-0.233-0.059-0.302-0.15l-7.377-11.619
			c-0.18-0.265-0.483-0.439-0.828-0.439c-0.552,0-0.998,0.447-0.998,0.998l0.003,10.834c0,0.209-0.17,0.377-0.378,0.377
			c-0.124,0-0.233-0.059-0.302-0.15l-7.377-11.619c-0.18-0.265-0.484-0.439-0.828-0.439c-0.551,0-0.998,0.447-0.998,0.998
			l0.004,10.92c0,0.167-0.136,0.303-0.303,0.303h-5.665c-3.195,0-5.785-2.609-5.785-5.806c0-3.195,2.59-5.806,5.785-5.806
			c0,0,3.186-0.012,3.186,0c0,0.014,0,2.153,0,2.153l-3.186-0.002c-2.019,0-3.655,1.636-3.655,3.654s1.637,3.675,3.655,3.675
			L255.339,37.577z"/>
	</g>
	<g>
		<polygon fill="#EB7204" points="363.938,40.796 363.938,27.193 370.701,33.979 		"/>
		<polygon fill="#EB7204" points="389.265,27.191 389.265,40.794 382.501,34.357 		"/>
		<polygon fill="#F6A500" points="363.938,25.363 389.265,25.363 376.966,38.286 		"/>
		<polygon fill="#EB7204" points="376.987,40.109 371.573,34.74 363.938,42.454 389.265,42.454 381.651,35.21 		"/>
	</g>
</g>
</svg>
