<?xml version="1.0" encoding="utf-8"?>
<!-- Generator: Adobe Illustrator 16.0.0, SVG Export Plug-In . SVG Version: 6.00 Build 0)  -->
<!DOCTYPE svg PUBLIC "-//W3C//DTD SVG 1.1//EN" "http://www.w3.org/Graphics/SVG/1.1/DTD/svg11.dtd">
<svg version="1.1" id="Layer_1" xmlns="http://www.w3.org/2000/svg" xmlns:xlink="http://www.w3.org/1999/xlink" x="0px" y="0px"
	 width="205px" height="170px" viewBox="0 0 205 170" enable-background="new 0 0 205 170" xml:space="preserve">
<g>
	<g>
		
			<polygon fill-rule="evenodd" clip-rule="evenodd" fill="#C9161A" stroke="#FFFFFF" stroke-width="1.9903" stroke-linejoin="round" stroke-miterlimit="10" points="
			162.244,73.434 182.07,85.013 201.992,96.477 201.88,119.418 201.88,142.465 181.968,153.824 162.041,165.297 142.216,153.824 
			122.293,142.252 122.293,119.307 122.393,96.377 142.318,84.904 		"/>
		<polygon fill="#3E5193" stroke="#FFFFFF" stroke-width="1.9969" stroke-miterlimit="10" points="23.032,16.097 3.114,27.57 
			3.008,50.506 3.008,73.446 22.934,85.022 42.991,96.359 42.991,96.359 62.677,85.022 82.602,73.662 82.602,50.61 82.707,27.671 
			62.786,16.204 42.959,4.627 		"/>
		<polygon fill="#0078B6" stroke="#FFFFFF" stroke-width="1.9902" stroke-miterlimit="10" points="62.518,84.904 42.593,96.377 
			42.489,119.312 42.489,142.252 62.415,153.826 82.327,165.373 82.327,165.373 102.16,153.826 122.081,142.467 122.081,119.418 
			122.188,96.477 102.269,85.01 82.443,73.434 		"/>
		<g>
			<path fill="#FFFFFF" d="M61.359,109.705h8.82v28.371h-8.82V109.705z M65.771,95.6c2.821,0,5.112,2.291,5.112,5.113
				c0,2.82-2.291,5.113-5.112,5.113c-2.825,0-5.115-2.293-5.115-5.113C60.656,97.891,62.946,95.6,65.771,95.6"/>
			<path fill="#FFFFFF" d="M75.711,109.705h8.454v3.877h0.117c1.178-2.23,4.058-4.584,8.346-4.584
				c8.931,0,10.578,5.877,10.578,13.516v15.562h-8.812v-13.799c0-3.291-0.059-7.52-4.583-7.52c-4.588,0-5.29,3.582-5.29,7.283
				v14.035h-8.81V109.705z"/>
		</g>
		<polygon fill="#38A8E0" stroke="#FFFFFF" stroke-width="1.9903" stroke-linejoin="round" stroke-miterlimit="10" points="
			102.712,16.097 82.792,27.57 82.689,50.506 82.689,73.444 102.614,85.016 122.451,96.598 122.451,96.598 142.359,85.016 
			162.282,73.659 162.282,50.61 162.388,27.671 142.464,16.204 122.641,4.627 		"/>
		<path id="Twitter__x28_alt_x29__29_" fill="#FFFFFF" d="M143.131,47.49c3.015-0.243,5.05-1.612,5.841-3.468
			c-1.088,0.668-4.454,1.395-6.316,0.693c-0.09-0.432-0.195-0.844-0.291-1.225c-1.432-5.209-6.277-9.404-11.369-8.894
			c0.416-0.168,0.832-0.325,1.239-0.461c0.574-0.201,3.859-0.742,3.335-1.898c-0.429-1.022-4.45,0.775-5.202,1.007
			c0.992-0.367,2.65-1.021,2.827-2.163c-1.531,0.202-3.038,0.932-4.195,1.981c0.426-0.445,0.741-0.998,0.799-1.59
			c-4.071,2.604-6.456,7.854-8.376,12.947c-1.521-1.463-2.857-2.621-4.064-3.264c-3.38-1.81-7.416-3.699-13.756-6.051
			c-0.193,2.094,1.035,4.883,4.592,6.736c-0.773-0.101-2.181,0.125-3.303,0.398c0.461,2.4,1.951,4.383,6.002,5.342
			c-1.849,0.121-2.809,0.533-3.674,1.445c0.847,1.668,2.904,3.635,6.605,3.235c-4.121,1.777-1.688,5.056,1.667,4.563
			c-5.716,5.891-14.716,5.465-19.881,0.535c13.491,18.391,42.827,10.877,47.198-6.84c3.275,0.023,5.204-1.13,6.398-2.412
			C147.323,48.424,144.587,48.094,143.131,47.49z"/>
		<g>
			<g>
				<path fill="#FFFFFF" d="M162.698,93.246c-14.793,0-26.796,12.01-26.796,26.805c0,10.971,6.602,20.4,16.04,24.549
					c-0.069-1.877-0.01-4.125,0.46-6.16c0.525-2.17,3.462-14.607,3.462-14.607s-0.866-1.709-0.866-4.234
					c0-3.971,2.312-6.941,5.167-6.941c2.439,0,3.615,1.842,3.615,4.027c0,2.453-1.56,6.113-2.36,9.51
					c-0.677,2.85,1.432,5.164,4.225,5.164c5.082,0,8.505-6.521,8.505-14.246c0-5.877-3.959-10.27-11.15-10.27
					c-8.13,0-13.198,6.064-13.198,12.834c0,2.338,0.691,3.969,1.765,5.254c0.499,0.588,0.562,0.822,0.386,1.496
					c-0.128,0.488-0.419,1.676-0.546,2.15c-0.172,0.676-0.729,0.922-1.332,0.67c-3.755-1.531-5.497-5.639-5.497-10.236
					c0-7.615,6.419-16.738,19.153-16.738c10.234,0,16.973,7.393,16.973,15.35c0,10.506-5.854,18.367-14.461,18.367
					c-2.897,0-5.62-1.568-6.553-3.348c0,0-1.553,6.178-1.888,7.375c-0.567,2.066-1.673,4.125-2.689,5.734
					c2.408,0.715,4.954,1.102,7.587,1.102c14.797,0,26.797-12.002,26.797-26.801C189.495,105.256,177.495,93.246,162.698,93.246z"/>
			</g>
		</g>
		<path id="White_3_" fill="#FFFFFF" d="M64.269,26.858h-42.71c-1.465,0-2.65,1.184-2.65,2.648v42.712
			c0,1.463,1.186,2.649,2.65,2.649h22.992V56.276h-6.255V49.03h6.255v-5.343c0-6.2,3.788-9.577,9.319-9.577
			c2.649,0,4.926,0.196,5.59,0.283v6.48l-3.836,0.002c-3.01,0-3.589,1.432-3.589,3.529v4.625h7.172l-0.934,7.246h-6.238v18.592
			h12.233c1.46,0,2.646-1.187,2.646-2.649V29.506C66.915,28.042,65.729,26.858,64.269,26.858z"/>
	</g>
</g>
</svg>
