<?xml version="1.0" encoding="utf-8"?>
<!-- Generator: Adobe Illustrator 16.0.0, SVG Export Plug-In . SVG Version: 6.00 Build 0)  -->
<!DOCTYPE svg PUBLIC "-//W3C//DTD SVG 1.1//EN" "http://www.w3.org/Graphics/SVG/1.1/DTD/svg11.dtd">
<svg version="1.1" id="Layer_1" xmlns="http://www.w3.org/2000/svg" xmlns:xlink="http://www.w3.org/1999/xlink" x="0px" y="0px"
	 width="50px" height="170px" viewBox="0 0 50 170" enable-background="new 0 0 50 170" xml:space="preserve">
<g>
	<polygon fill="#004E57" points="0.167,60.711 44.312,0 39.126,0 0.167,53.58 	"/>
	<polygon fill="#004E57" points="0.167,47.05 34.378,0 29.192,0 0.167,39.918 	"/>
	<polygon fill="#004E57" points="0.167,33.39 24.445,0 19.26,0 0.167,26.258 	"/>
	<polygon fill="#004E57" points="0.167,19.729 14.512,0 9.326,0 0.167,12.598 	"/>
	<polygon fill="#004E57" points="0.167,0 0.167,6.066 4.578,0 	"/>
	<polygon fill="#004E57" points="49.833,162.868 44.647,170 49.833,170 	"/>
	<polygon fill="#004E57" points="49.833,149.208 34.715,170 39.899,170 49.833,156.338 	"/>
	<polygon fill="#004E57" points="49.833,135.547 24.781,170 29.967,170 49.833,142.678 	"/>
	<polygon fill="#004E57" points="49.833,121.885 14.848,170 20.033,170 49.833,129.018 	"/>
	<polygon fill="#004E57" points="49.833,108.225 4.914,170 10.1,170 49.833,115.355 	"/>
	<polygon fill="#004E57" points="49.833,94.562 0.167,162.868 0.167,170 49.833,101.695 	"/>
	<polygon fill="#004E57" points="49.833,80.902 0.167,149.207 0.167,156.338 49.833,88.033 	"/>
	<polygon fill="#004E57" points="49.833,67.242 0.167,135.547 0.167,142.678 49.833,74.373 	"/>
	<polygon fill="#004E57" points="49.833,53.58 0.167,121.885 0.167,129.017 49.833,60.711 	"/>
	<polygon fill="#004E57" points="49.833,39.92 0.167,108.225 0.167,115.355 49.833,47.051 	"/>
	<polygon fill="#004E57" points="49.833,26.258 0.167,94.562 0.167,101.693 49.833,33.389 	"/>
	<polygon fill="#004E57" points="49.833,12.598 0.167,80.902 0.167,88.033 49.833,19.729 	"/>
	<polygon fill="#004E57" points="49.833,0 49.06,0 0.167,67.24 0.167,74.371 49.833,6.066 	"/>
</g>
</svg>
